<svg width="4" height="20" viewBox="0 0 4 20" fill="none" xmlns="http://www.w3.org/2000/svg">
<path d="M2.41548 20C2.00178 20 1.64909 19.8527 1.35742 19.5581C1.06576 19.2635 0.919922 18.9093 0.919922 18.4956C0.919922 18.0819 1.06723 17.7292 1.36186 17.4375C1.65646 17.1458 2.01063 17 2.42436 17C2.83807 17 3.19076 17.1473 3.48242 17.4419C3.77409 17.7365 3.91992 18.0907 3.91992 18.5044C3.91992 18.9181 3.77261 19.2708 3.47798 19.5625C3.18338 19.8542 2.82921 20 2.41548 20ZM2.41548 11.5C2.00178 11.5 1.64909 11.3527 1.35742 11.0581C1.06576 10.7635 0.919922 10.4093 0.919922 9.99556C0.919922 9.58185 1.06723 9.22917 1.36186 8.9375C1.65646 8.64583 2.01063 8.5 2.42436 8.5C2.83807 8.5 3.19076 8.64731 3.48242 8.94194C3.77409 9.23654 3.91992 9.59071 3.91992 10.0044C3.91992 10.4181 3.77261 10.7708 3.47798 11.0625C3.18338 11.3542 2.82921 11.5 2.41548 11.5ZM2.41548 3C2.00178 3 1.64909 2.85269 1.35742 2.55806C1.06576 2.26346 0.919922 1.90929 0.919922 1.49556C0.919922 1.08185 1.06723 0.729167 1.36186 0.4375C1.65646 0.145833 2.01063 0 2.42436 0C2.83807 0 3.19076 0.147313 3.48242 0.441938C3.77409 0.736543 3.91992 1.09071 3.91992 1.50444C3.91992 1.91815 3.77261 2.27083 3.47798 2.5625C3.18338 2.85417 2.82921 3 2.41548 3Z" fill="black"/>
</svg>
