<svg width="28" height="28" viewBox="0 0 28 28" fill="none" xmlns="http://www.w3.org/2000/svg">
<path d="M19.0566 7C18.1486 7.03416 17.2493 7.19135 16.3835 7.46725C15.8604 7.6217 15.3279 7.7424 14.7893 7.82862C14.5723 6.61626 13.9363 5.51865 12.9924 4.72748C12.0485 3.93631 10.8566 3.50186 9.625 3.5V5.25C10.3828 5.25256 11.1193 5.50147 11.7233 5.95918C12.3274 6.41689 12.7662 7.05859 12.9736 7.7875C12.4978 7.70053 12.0258 7.59398 11.5588 7.46812C10.6551 7.19637 9.72085 7.0391 8.778 7C5.52125 7 3.5 9.68188 3.5 14C3.5 20.5713 7.0595 24.4991 10.5 24.5H10.5017C11.2531 24.4602 11.9912 24.2853 12.6805 23.9837C13.0989 23.7959 13.5441 23.6749 14 23.625C14.4567 23.6748 14.9029 23.7959 15.3221 23.9837C16.0111 24.2853 16.7489 24.4602 17.5 24.5C20.9387 24.4991 24.5 20.5713 24.5 14C24.5 10.7712 23.0737 7 19.0566 7ZM17.5 22.75C16.9588 22.704 16.4292 22.5667 15.9337 22.344C15.3222 22.0738 14.6674 21.915 14 21.875C13.3338 21.9151 12.6801 22.074 12.0697 22.344C11.573 22.5666 11.0423 22.7039 10.5 22.75H10.5017C7.9205 22.7491 5.25 19.4766 5.25 14C5.25 12.4215 5.59387 8.75 8.778 8.75C9.57355 8.79244 10.361 8.93141 11.123 9.16387C11.991 9.42346 12.887 9.57827 13.7917 9.625H14.2214C15.1118 9.58253 15.993 9.42488 16.8429 9.156C17.5599 8.92447 18.3041 8.78797 19.0566 8.75C22.5715 8.75 22.75 13.1233 22.75 14C22.75 19.4766 20.0795 22.7491 17.5 22.75Z" fill="black"/>
<path d="M15.75 6.125H14.875V5.25C14.8755 4.78601 15.06 4.34116 15.3881 4.01307C15.7162 3.68499 16.161 3.50046 16.625 3.5H17.5V4.375C17.4995 4.83899 17.315 5.28384 16.9869 5.61193C16.6588 5.94001 16.214 6.12454 15.75 6.125Z" fill="black"/>
</svg>
