<svg width="20" height="19" viewBox="0 0 20 19" fill="none" xmlns="http://www.w3.org/2000/svg">
<path d="M5 12.2402H6.625C6.75833 12.2402 6.88767 12.2152 7.013 12.1652C7.13833 12.1152 7.25067 12.0402 7.35 11.9402L12.05 7.24023C12.2 7.09023 12.3127 6.91923 12.388 6.72723C12.4633 6.53523 12.5007 6.3479 12.5 6.16523C12.5 5.9819 12.4583 5.8029 12.375 5.62823C12.2917 5.45357 12.1833 5.2909 12.05 5.14023L11.15 4.19023C11 4.04023 10.8333 3.9279 10.65 3.85323C10.4667 3.77857 10.275 3.7409 10.075 3.74023C9.89167 3.74023 9.70434 3.7779 9.513 3.85323C9.32167 3.92857 9.15067 4.0409 9 4.19023L4.3 8.89023C4.2 8.99023 4.125 9.1029 4.075 9.22823C4.025 9.35357 4 9.48257 4 9.61523V11.2402C4 11.5236 4.096 11.7612 4.288 11.9532C4.48 12.1452 4.71733 12.2409 5 12.2402ZM5.5 10.7402V9.79023L8.025 7.26523L8.525 7.71523L8.975 8.21523L6.45 10.7402H5.5ZM8.525 7.71523L8.975 8.21523L8.025 7.26523L8.525 7.71523ZM9.175 12.2402H15C15.2833 12.2402 15.521 12.1442 15.713 11.9522C15.905 11.7602 16.0007 11.5229 16 11.2402C16 10.9569 15.904 10.7196 15.712 10.5282C15.52 10.3369 15.2827 10.2409 15 10.2402H11.175L9.175 12.2402ZM4 16.2402L1.7 18.5402C1.38334 18.8569 1.02067 18.9279 0.612002 18.7532C0.203335 18.5786 -0.000665038 18.2659 1.62866e-06 17.8152V2.24023C1.62866e-06 1.69023 0.196002 1.21957 0.588002 0.828234C0.980002 0.436901 1.45067 0.240901 2 0.240234H18C18.55 0.240234 19.021 0.436234 19.413 0.828234C19.805 1.22023 20.0007 1.6909 20 2.24023V14.2402C20 14.7902 19.8043 15.2612 19.413 15.6532C19.0217 16.0452 18.5507 16.2409 18 16.2402H4ZM3.15 14.2402H18V2.24023H2V15.3652L3.15 14.2402Z" fill="black"/>
</svg>
