<svg width="13" height="13" viewBox="0 0 13 13" fill="none" xmlns="http://www.w3.org/2000/svg">
<path fill-rule="evenodd" clip-rule="evenodd" d="M6.77795 0.558607C6.7341 0.463559 6.66393 0.383062 6.57576 0.32664C6.48759 0.270219 6.3851 0.240234 6.28042 0.240234C6.17574 0.240234 6.07325 0.270219 5.98508 0.32664C5.89691 0.383062 5.82674 0.463559 5.78288 0.558607L4.21028 3.96683L0.483695 4.40903C0.379722 4.4213 0.281443 4.46311 0.200488 4.5295C0.119533 4.59588 0.0592926 4.68407 0.026895 4.78363C-0.0055025 4.88319 -0.00870046 4.98994 0.0176796 5.09126C0.0440597 5.19257 0.0989134 5.28421 0.175749 5.35533L2.93192 7.90328L2.20041 11.5855C2.18009 11.6881 2.18959 11.7944 2.22778 11.8919C2.26597 11.9893 2.33125 12.0737 2.41591 12.1352C2.50057 12.1967 2.60107 12.2327 2.70552 12.2389C2.80997 12.2451 2.91401 12.2212 3.00534 12.1701L6.28042 10.3367L9.55549 12.1701C9.64688 12.2214 9.75105 12.2454 9.85567 12.2393C9.96028 12.2332 10.0609 12.1972 10.1457 12.1356C10.2305 12.074 10.2958 11.9894 10.334 11.8918C10.3721 11.7942 10.3815 11.6877 10.361 11.5849L9.62947 7.90383L12.3851 5.35533C12.4619 5.28421 12.5168 5.19257 12.5432 5.09126C12.5695 4.98994 12.5663 4.88319 12.5339 4.78363C12.5015 4.68407 12.4413 4.59588 12.3603 4.5295C12.2794 4.46311 12.1811 4.4213 12.0771 4.40903L8.35001 3.96628L6.77795 0.558607Z" fill="#151F6D"/>
</svg>
