<svg width="17" height="15" viewBox="0 0 17 15" fill="none" xmlns="http://www.w3.org/2000/svg">
<path fill-rule="evenodd" clip-rule="evenodd" d="M0 1.27889C0 0.948901 0.121385 0.632429 0.337453 0.399092C0.55352 0.165755 0.84657 0.034668 1.15214 0.034668H14.9778C15.2833 0.034668 15.5764 0.165755 15.7924 0.399092C16.0085 0.632429 16.1299 0.948901 16.1299 1.27889C16.1299 1.60888 16.0085 1.92535 15.7924 2.15869C15.5764 2.39202 15.2833 2.52311 14.9778 2.52311H1.15214C0.84657 2.52311 0.55352 2.39202 0.337453 2.15869C0.121385 1.92535 0 1.60888 0 1.27889ZM0 7.5C0 7.17001 0.121385 6.85354 0.337453 6.6202C0.55352 6.38686 0.84657 6.25577 1.15214 6.25577H14.9778C15.2833 6.25577 15.5764 6.38686 15.7924 6.6202C16.0085 6.85354 16.1299 7.17001 16.1299 7.5C16.1299 7.82998 16.0085 8.14646 15.7924 8.37979C15.5764 8.61313 15.2833 8.74422 14.9778 8.74422H1.15214C0.84657 8.74422 0.55352 8.61313 0.337453 8.37979C0.121385 8.14646 0 7.82998 0 7.5ZM0 13.7211C0 13.3911 0.121385 13.0746 0.337453 12.8413C0.55352 12.608 0.84657 12.4769 1.15214 12.4769H14.9778C15.2833 12.4769 15.5764 12.608 15.7924 12.8413C16.0085 13.0746 16.1299 13.3911 16.1299 13.7211C16.1299 14.0511 16.0085 14.3676 15.7924 14.6009C15.5764 14.8342 15.2833 14.9653 14.9778 14.9653H1.15214C0.84657 14.9653 0.55352 14.8342 0.337453 14.6009C0.121385 14.3676 0 14.0511 0 13.7211Z" fill="#151F6D"/>
</svg>
