<svg width="16" height="17" viewBox="0 0 16 17" fill="none" xmlns="http://www.w3.org/2000/svg">
<path d="M12.6667 9.61902C12.118 9.62262 11.5789 9.76358 11.0987 10.029L8.86667 7.35235L13.8447 1.37902C13.9528 1.24268 14.0034 1.06945 13.9856 0.896321C13.9677 0.723197 13.8829 0.563912 13.7492 0.452494C13.6155 0.341076 13.4435 0.286361 13.27 0.300036C13.0965 0.313712 12.9353 0.394695 12.8207 0.525684L8 6.31102L3.17867 0.525684C3.06407 0.394695 2.9028 0.313712 2.7293 0.300036C2.55579 0.286361 2.38382 0.341076 2.25012 0.452494C2.11642 0.563912 2.03159 0.723197 2.01375 0.896321C1.99592 1.06945 2.04649 1.24268 2.15467 1.37902L7.13333 7.35235L4.90134 10.029C4.42097 9.7639 3.88199 9.62296 3.33333 9.61902C2.67406 9.61902 2.0296 9.81451 1.48143 10.1808C0.93327 10.5471 0.506029 11.0677 0.253736 11.6767C0.00144428 12.2858 -0.0645668 12.956 0.0640506 13.6027C0.192668 14.2493 0.510137 14.8432 0.976312 15.3094C1.44249 15.7755 2.03643 16.093 2.68303 16.2216C3.32964 16.3503 3.99986 16.2842 4.60895 16.0319C5.21803 15.7797 5.73863 15.3524 6.1049 14.8043C6.47117 14.2561 6.66667 13.6116 6.66667 12.9524C6.66285 12.199 6.40123 11.4697 5.92533 10.8857L8 8.39368L10.074 10.8857C9.59872 11.47 9.33739 12.1992 9.33333 12.9524C9.33333 13.6116 9.52883 14.2561 9.8951 14.8043C10.2614 15.3524 10.782 15.7797 11.3911 16.0319C12.0001 16.2842 12.6704 16.3503 13.317 16.2216C13.9636 16.093 14.5575 15.7755 15.0237 15.3094C15.4899 14.8432 15.8073 14.2493 15.936 13.6027C16.0646 12.956 15.9986 12.2858 15.7463 11.6767C15.494 11.0677 15.0667 10.5471 14.5186 10.1808C13.9704 9.81451 13.3259 9.61902 12.6667 9.61902ZM3.33333 14.9524C2.93777 14.9524 2.55109 14.8351 2.22219 14.6153C1.8933 14.3955 1.63695 14.0832 1.48558 13.7177C1.3342 13.3523 1.29459 12.9501 1.37176 12.5622C1.44893 12.1742 1.63942 11.8178 1.91912 11.5381C2.19883 11.2584 2.55519 11.068 2.94315 10.9908C3.33112 10.9136 3.73325 10.9532 4.0987 11.1046C4.46415 11.256 4.77651 11.5123 4.99627 11.8412C5.21604 12.1701 5.33333 12.5568 5.33333 12.9524C5.33333 13.4828 5.12262 13.9915 4.74755 14.3666C4.37248 14.7416 3.86377 14.9524 3.33333 14.9524ZM12.6667 14.9524C12.2711 14.9524 11.8844 14.8351 11.5555 14.6153C11.2266 14.3955 10.9703 14.0832 10.8189 13.7177C10.6675 13.3523 10.6279 12.9501 10.7051 12.5622C10.7823 12.1742 10.9727 11.8178 11.2525 11.5381C11.5322 11.2584 11.8885 11.068 12.2765 10.9908C12.6644 10.9136 13.0666 10.9532 13.432 11.1046C13.7975 11.256 14.1098 11.5123 14.3296 11.8412C14.5494 12.1701 14.6667 12.5568 14.6667 12.9524C14.6667 13.4828 14.456 13.9915 14.0809 14.3666C13.7058 14.7416 13.1971 14.9524 12.6667 14.9524Z" fill="#151F6D"/>
</svg>
