<svg width="16" height="15" viewBox="0 0 16 15" fill="none" xmlns="http://www.w3.org/2000/svg">
<path d="M7.13438 13.9451L1.4875 8.67319C1.35625 8.55132 1.23125 8.42006 1.11563 8.28569H3.83437C4.54063 8.28569 5.17812 7.86069 5.45 7.20756L5.77812 6.42006L7.31875 9.84194C7.4375 10.1076 7.69688 10.2794 7.9875 10.2826C8.27812 10.2857 8.54375 10.1263 8.675 9.86694L10 7.21381L10.0531 7.32007C10.35 7.91382 10.9562 8.28882 11.6187 8.28882H14.8844C14.7687 8.42319 14.6438 8.55444 14.5125 8.67632L8.86563 13.9451C8.63125 14.1638 8.32187 14.2857 8 14.2857C7.67812 14.2857 7.36875 14.1638 7.13438 13.9451ZM15.7406 6.78569H11.6156C11.5219 6.78569 11.4344 6.73256 11.3906 6.64819L10.6656 5.20131C10.5375 4.94819 10.2781 4.78569 9.99375 4.78569C9.70937 4.78569 9.45 4.94507 9.32187 5.20131L8.02812 7.78882L6.43437 4.22944C6.3125 3.95756 6.0375 3.78257 5.74062 3.78882C5.44375 3.79506 5.175 3.97319 5.05937 4.25131L4.06563 6.63569C4.02813 6.72944 3.93437 6.78882 3.83437 6.78882H0.5C0.41875 6.78882 0.34375 6.80131 0.271875 6.82319C0.09375 6.32319 0 5.79194 0 5.25131V5.07007C0 2.88569 1.57812 1.02319 3.73125 0.663815C5.15625 0.426315 6.60625 0.89194 7.625 1.91069L8 2.28569L8.375 1.91069C9.39375 0.89194 10.8438 0.426315 12.2688 0.663815C14.4219 1.02319 16 2.88569 16 5.07007V5.25131C16 5.77944 15.9125 6.29819 15.7406 6.78569Z" fill="#151F6D"/>
</svg>
