<svg width="26" height="26" viewBox="0 0 26 26" fill="none" xmlns="http://www.w3.org/2000/svg">
<path d="M13.1676 14.6769C14.3211 14.6769 15.2561 13.7419 15.2561 12.5885C15.2561 11.435 14.3211 10.5 13.1676 10.5C12.0142 10.5 11.0792 11.435 11.0792 12.5885C11.0792 13.7419 12.0142 14.6769 13.1676 14.6769Z" stroke="#151F6D" stroke-width="2.08847" stroke-miterlimit="10" stroke-linecap="square"/>
<path d="M4.81374 14.6769C5.96717 14.6769 6.90221 13.7419 6.90221 12.5885C6.90221 11.435 5.96717 10.5 4.81374 10.5C3.66031 10.5 2.72527 11.435 2.72527 12.5885C2.72527 13.7419 3.66031 14.6769 4.81374 14.6769Z" stroke="#151F6D" stroke-width="2.08847" stroke-miterlimit="10" stroke-linecap="square"/>
<path d="M21.5215 14.6769C22.6749 14.6769 23.61 13.7419 23.61 12.5885C23.61 11.435 22.6749 10.5 21.5215 10.5C20.3681 10.5 19.433 11.435 19.433 12.5885C19.433 13.7419 20.3681 14.6769 21.5215 14.6769Z" stroke="#151F6D" stroke-width="2.08847" stroke-miterlimit="10" stroke-linecap="square"/>
</svg>
