<svg width="16" height="16" viewBox="0 0 16 16" fill="none" xmlns="http://www.w3.org/2000/svg">
<path d="M3.34545 0.905541C3.51515 1.41463 3.23939 1.96312 2.73333 2.13281L1.93939 2.39645V6.06009C1.93939 7.66615 3.24242 8.96918 4.84848 8.96918C6.45455 8.96918 7.75758 7.66615 7.75758 6.06009V2.39645L6.96667 2.13281C6.45758 1.96312 6.18485 1.41463 6.35455 0.905541C6.52424 0.39645 7.07273 0.123723 7.58182 0.29342L8.37273 0.557056C9.16364 0.820692 9.69697 1.56009 9.69697 2.39645V6.06009C9.69697 8.39948 8.04242 10.351 5.83939 10.8086C6.0303 12.5025 7.46667 13.8177 9.21212 13.8177C11.0879 13.8177 12.6061 12.2995 12.6061 10.4237V8.2813C11.7485 7.90857 11.1515 7.05403 11.1515 6.06009C11.1515 4.72069 12.2364 3.63584 13.5758 3.63584C14.9152 3.63584 16 4.72069 16 6.06009C16 7.05403 15.403 7.90857 14.5455 8.2813V10.4237C14.5455 13.3692 12.1576 15.7571 9.21212 15.7571C6.39697 15.7571 4.09394 13.5783 3.89394 10.8146C1.67273 10.3692 0 8.4116 0 6.06009V2.39645C0 1.56312 0.533333 0.820692 1.32727 0.557056L2.11818 0.29342C2.62727 0.123723 3.17576 0.39948 3.34545 0.905541ZM13.5758 7.02978C13.8329 7.02978 14.0796 6.92762 14.2614 6.74577C14.4433 6.56391 14.5455 6.31727 14.5455 6.06009C14.5455 5.80291 14.4433 5.55626 14.2614 5.37441C14.0796 5.19255 13.8329 5.09039 13.5758 5.09039C13.3186 5.09039 13.0719 5.19255 12.8901 5.37441C12.7082 5.55626 12.6061 5.80291 12.6061 6.06009C12.6061 6.31727 12.7082 6.56391 12.8901 6.74577C13.0719 6.92762 13.3186 7.02978 13.5758 7.02978Z" fill="#151F6D"/>
</svg>
