<svg width="18" height="16" viewBox="0 0 18 16" fill="none" xmlns="http://www.w3.org/2000/svg">
<g clip-path="url(#clip0_5_2043)">
<path d="M2 2C1.46957 2 0.960859 2.21071 0.585786 2.58579C0.210714 2.96086 0 3.46957 0 4L0 12.01C0.00264352 12.5387 0.214524 13.0448 0.58931 13.4178C0.964097 13.7907 1.4713 14 2 14H7.5C7.63261 14 7.75979 13.9473 7.85355 13.8536C7.94732 13.7598 8 13.6326 8 13.5C8 13.3674 7.94732 13.2402 7.85355 13.1464C7.75979 13.0527 7.63261 13 7.5 13H2C1.77988 13 1.5659 12.9274 1.39124 12.7934C1.21658 12.6595 1.09101 12.4716 1.034 12.259L6.674 8.788L8 9.583L15 5.383V8.5C15 8.63261 15.0527 8.75979 15.1464 8.85355C15.2402 8.94732 15.3674 9 15.5 9C15.6326 9 15.7598 8.94732 15.8536 8.85355C15.9473 8.75979 16 8.63261 16 8.5V4C16 3.46957 15.7893 2.96086 15.4142 2.58579C15.0391 2.21071 14.5304 2 14 2H2ZM5.708 8.208L1 11.105V5.383L5.708 8.208ZM1 4.217V4C1 3.73478 1.10536 3.48043 1.29289 3.29289C1.48043 3.10536 1.73478 3 2 3H14C14.2652 3 14.5196 3.10536 14.7071 3.29289C14.8946 3.48043 15 3.73478 15 4V4.217L8 8.417L1 4.217Z" fill="#151F6D"/>
<path d="M9.5 12C9.5 11.1716 10.1716 10.5 11 10.5H16C16.8284 10.5 17.5 11.1716 17.5 12V14C17.5 14.8284 16.8284 15.5 16 15.5H11C10.1716 15.5 9.5 14.8284 9.5 14V12Z" stroke="#151F6D"/>
<path d="M11.5221 14V13.733L12.3861 12.416H11.6031V12.044H12.9291V12.311L12.0651 13.628H12.9381V14H11.5221ZM13.2321 14V12.512H13.6731V14H13.2321ZM13.4511 12.293C13.3771 12.293 13.3171 12.272 13.2711 12.23C13.2251 12.188 13.2021 12.132 13.2021 12.062C13.2021 11.992 13.2251 11.936 13.2711 11.894C13.3171 11.852 13.3771 11.831 13.4511 11.831C13.5251 11.831 13.5851 11.852 13.6311 11.894C13.6771 11.936 13.7001 11.992 13.7001 12.062C13.7001 12.132 13.6771 12.188 13.6311 12.23C13.5851 12.272 13.5251 12.293 13.4511 12.293ZM14.0612 14.552V12.512H14.4212L14.4512 12.659H14.4632C14.5212 12.607 14.5862 12.564 14.6582 12.53C14.7322 12.494 14.8082 12.476 14.8862 12.476C15.0662 12.476 15.2082 12.545 15.3122 12.683C15.4162 12.819 15.4682 13.002 15.4682 13.232C15.4682 13.402 15.4382 13.547 15.3782 13.667C15.3182 13.787 15.2402 13.879 15.1442 13.943C15.0502 14.005 14.9492 14.036 14.8412 14.036C14.7772 14.036 14.7152 14.023 14.6552 13.997C14.5952 13.969 14.5392 13.93 14.4872 13.88L14.5022 14.117V14.552H14.0612ZM14.7392 13.676C14.8152 13.676 14.8802 13.641 14.9342 13.571C14.9882 13.501 15.0152 13.39 15.0152 13.238C15.0152 12.97 14.9292 12.836 14.7572 12.836C14.6712 12.836 14.5862 12.881 14.5022 12.971V13.58C14.5422 13.616 14.5822 13.641 14.6222 13.655C14.6622 13.669 14.7012 13.676 14.7392 13.676Z" fill="#151F6D"/>
</g>
<defs>
<clipPath id="clip0_5_2043">
<rect width="18" height="16" fill="white"/>
</clipPath>
</defs>
</svg>
