<svg width="51" height="51" viewBox="0 0 51 51" fill="none" xmlns="http://www.w3.org/2000/svg">
<g clip-path="url(#clip0_323_1169)">
<g clip-path="url(#clip1_323_1169)">
<path d="M13.2771 45.9567L13.2152 45.3746L12.6499 45.5268C12.1767 45.6542 11.6727 45.7188 11.1562 45.7188C7.91618 45.7188 5.28125 43.0838 5.28125 39.8438C5.28125 39.1648 5.40061 38.5031 5.612 37.8966L5.77237 37.4364L5.31642 37.2642C2.49744 36.2001 0.5 33.4741 0.5 30.2812C0.5 27.3038 2.245 24.7269 4.77565 23.5316L5.34723 23.2616L4.95289 22.7676C4.15577 21.7689 3.6875 20.5038 3.6875 19.125C3.6875 16.3078 5.66966 13.9565 8.31466 13.3779L8.83737 13.2636L8.68791 12.7498C8.54267 12.2505 8.46875 11.7101 8.46875 11.1562C8.46875 8.41236 10.3598 6.09779 12.9024 5.45527L13.2399 5.36997L13.277 5.02377C13.5489 2.48653 15.7072 0.5 18.3281 0.5C21.1299 0.5 23.4062 2.77634 23.4062 5.57812V45.4219C23.4062 48.2237 21.1299 50.5 18.3281 50.5C15.7082 50.5 13.5492 48.5146 13.2771 45.9567ZM37.7232 5.02553L37.7614 5.3706L38.098 5.45537C40.6499 6.09792 42.5312 8.40208 42.5312 11.1562C42.5312 11.7101 42.4573 12.2505 42.3121 12.7498L42.1621 13.2653L42.687 13.3783C45.3293 13.9471 47.3125 16.3066 47.3125 19.125C47.3125 20.5038 46.8442 21.7689 46.0471 22.7676L45.6528 23.2616L46.2243 23.5316C48.755 24.7269 50.5 27.3038 50.5 30.2812C50.5 33.4741 48.5026 36.2001 45.6836 37.2642L45.2276 37.4364L45.388 37.8966C45.5994 38.5031 45.7188 39.1648 45.7188 39.8438C45.7188 43.0838 43.0838 45.7188 39.8438 45.7188C39.3273 45.7188 38.8233 45.6542 38.3501 45.5268L37.7849 45.3746L37.7229 45.9567C37.4508 48.5146 35.2918 50.5 32.6719 50.5C29.8701 50.5 27.5938 48.2237 27.5938 45.4219V5.57812C27.5938 2.77634 29.8701 0.5 32.6719 0.5C35.2914 0.5 37.4419 2.48539 37.7232 5.02553Z" fill="#A9AFE0" stroke="white"/>
</g>
</g>
<defs>
<clipPath id="clip0_323_1169">
<rect width="51" height="51" fill="white"/>
</clipPath>
<clipPath id="clip1_323_1169">
<rect width="51" height="51" fill="white"/>
</clipPath>
</defs>
</svg>
