<svg width="24" height="24" viewBox="0 0 24 24" fill="none" xmlns="http://www.w3.org/2000/svg">
<path d="M7 23.3333C6.35833 23.3333 5.80883 23.1047 5.3515 22.6473C4.89417 22.19 4.66589 21.6409 4.66667 21C4.66667 20.3583 4.89533 19.8088 5.35267 19.3515C5.81 18.8942 6.35911 18.6659 7 18.6667C7.64167 18.6667 8.19117 18.8953 8.6485 19.3527C9.10583 19.81 9.33411 20.3591 9.33333 21C9.33333 21.6417 9.10467 22.1912 8.64733 22.6485C8.19 23.1058 7.64089 23.3341 7 23.3333ZM18.6667 23.3333C18.025 23.3333 17.4755 23.1047 17.0182 22.6473C16.5608 22.19 16.3326 21.6409 16.3333 21C16.3333 20.3583 16.562 19.8088 17.0193 19.3515C17.4767 18.8942 18.0258 18.6659 18.6667 18.6667C19.3083 18.6667 19.8578 18.8953 20.3152 19.3527C20.7725 19.81 21.0008 20.3591 21 21C21 21.6417 20.7713 22.1912 20.314 22.6485C19.8567 23.1058 19.3076 23.3341 18.6667 23.3333ZM4.9 2.33333H22.1083C22.5556 2.33333 22.8958 2.53283 23.1292 2.93183C23.3625 3.33083 23.3722 3.73411 23.1583 4.14167L19.0167 11.6083C18.8028 11.9972 18.5158 12.2986 18.1557 12.5125C17.7956 12.7264 17.402 12.8333 16.975 12.8333H8.28333L7 15.1667H21V17.5H7C6.125 17.5 5.46389 17.1158 5.01667 16.3473C4.56944 15.5789 4.55 14.8159 4.95833 14.0583L6.53333 11.2L2.33333 2.33333H0V0H3.79167L4.9 2.33333Z" fill="#434343"/>
</svg>
