<svg width="28" height="25" viewBox="0 0 28 25" fill="none" xmlns="http://www.w3.org/2000/svg">
<path d="M7.39375 4.67031L5.96641 8.75H22.0336L20.6062 4.67031C20.3602 3.97031 19.6984 3.5 18.9547 3.5H9.04531C8.30156 3.5 7.63984 3.97031 7.39375 4.67031ZM2.16562 9.0125L4.09063 3.51641C4.82891 1.41094 6.81406 0 9.04531 0H18.9547C21.1859 0 23.1711 1.41094 23.9094 3.51641L25.8344 9.0125C27.1031 9.5375 28 10.7898 28 12.25V22.75C28 23.718 27.218 24.5 26.25 24.5H24.5C23.532 24.5 22.75 23.718 22.75 22.75V20.125H5.25V22.75C5.25 23.718 4.46797 24.5 3.5 24.5H1.75C0.782031 24.5 0 23.718 0 22.75V12.25C0 10.7898 0.896875 9.5375 2.16562 9.0125ZM7 14C7 13.5359 6.81563 13.0908 6.48744 12.7626C6.15925 12.4344 5.71413 12.25 5.25 12.25C4.78587 12.25 4.34075 12.4344 4.01256 12.7626C3.68437 13.0908 3.5 13.5359 3.5 14C3.5 14.4641 3.68437 14.9092 4.01256 15.2374C4.34075 15.5656 4.78587 15.75 5.25 15.75C5.71413 15.75 6.15925 15.5656 6.48744 15.2374C6.81563 14.9092 7 14.4641 7 14ZM22.75 15.75C23.2141 15.75 23.6592 15.5656 23.9874 15.2374C24.3156 14.9092 24.5 14.4641 24.5 14C24.5 13.5359 24.3156 13.0908 23.9874 12.7626C23.6592 12.4344 23.2141 12.25 22.75 12.25C22.2859 12.25 21.8408 12.4344 21.5126 12.7626C21.1844 13.0908 21 13.5359 21 14C21 14.4641 21.1844 14.9092 21.5126 15.2374C21.8408 15.5656 22.2859 15.75 22.75 15.75Z" fill="#fff"/>
</svg>
