<svg width="14" height="14" viewBox="0 0 14 14" fill="none" xmlns="http://www.w3.org/2000/svg">
<g clip-path="url(#clip0_384_1589)">
<path d="M3.04956 0.288574C3.1573 0.288574 3.26064 0.331375 3.33682 0.407562C3.41301 0.483749 3.45581 0.58708 3.45581 0.694824V1.10107H9.95581V0.694824C9.95581 0.58708 9.99861 0.483749 10.0748 0.407562C10.151 0.331375 10.2543 0.288574 10.3621 0.288574C10.4698 0.288574 10.5731 0.331375 10.6493 0.407562C10.7255 0.483749 10.7683 0.58708 10.7683 0.694824V1.10107H11.5808C12.0118 1.10107 12.4251 1.27228 12.7299 1.57703C13.0346 1.88177 13.2058 2.2951 13.2058 2.72607V11.6636C13.2058 12.0946 13.0346 12.5079 12.7299 12.8126C12.4251 13.1174 12.0118 13.2886 11.5808 13.2886H1.83081C1.39983 13.2886 0.986509 13.1174 0.681762 12.8126C0.377015 12.5079 0.205811 12.0946 0.205811 11.6636V2.72607C0.205811 2.2951 0.377015 1.88177 0.681762 1.57703C0.986509 1.27228 1.39983 1.10107 1.83081 1.10107H2.64331V0.694824C2.64331 0.58708 2.68611 0.483749 2.7623 0.407562C2.83849 0.331375 2.94182 0.288574 3.04956 0.288574ZM1.83081 1.91357C1.61532 1.91357 1.40866 1.99918 1.25629 2.15155C1.10391 2.30392 1.01831 2.51059 1.01831 2.72607V3.53857H12.3933V2.72607C12.3933 2.51059 12.3077 2.30392 12.1553 2.15155C12.003 1.99918 11.7963 1.91357 11.5808 1.91357H1.83081ZM12.3933 4.35107H1.01831V11.6636C1.01831 11.8791 1.10391 12.0857 1.25629 12.2381C1.40866 12.3905 1.61532 12.4761 1.83081 12.4761H11.5808C11.7963 12.4761 12.003 12.3905 12.1553 12.2381C12.3077 12.0857 12.3933 11.8791 12.3933 11.6636V4.35107Z" fill="white"/>
<path d="M7.51831 6.38232C7.51831 6.27458 7.56111 6.17125 7.6373 6.09506C7.71348 6.01888 7.81682 5.97607 7.92456 5.97607H12.3933V7.60107H7.92456C7.81682 7.60107 7.71348 7.55827 7.6373 7.48209C7.56111 7.4059 7.51831 7.30257 7.51831 7.19482V6.38232ZM5.89331 8.81982V9.63232C5.89331 9.74007 5.85051 9.8434 5.77432 9.91959C5.69814 9.99577 5.5948 10.0386 5.48706 10.0386H1.01831V8.41357H5.48706C5.5948 8.41357 5.69814 8.45638 5.77432 8.53256C5.85051 8.60875 5.89331 8.71208 5.89331 8.81982Z" fill="white"/>
</g>
<defs>
<clipPath id="clip0_384_1589">
<rect width="13" height="13" fill="white" transform="translate(0.205811 0.288574)"/>
</clipPath>
</defs>
</svg>
