<svg width="14" height="14" viewBox="0 0 14 14" fill="none" xmlns="http://www.w3.org/2000/svg">
<path d="M6.70581 12.4761C8.21423 12.4761 9.66087 11.8769 10.7275 10.8102C11.7941 9.74363 12.3933 8.29699 12.3933 6.78857C12.3933 5.28016 11.7941 3.83352 10.7275 2.7669C9.66087 1.70029 8.21423 1.10107 6.70581 1.10107V12.4761ZM6.70581 13.2886C4.9819 13.2886 3.3286 12.6038 2.10962 11.3848C0.89063 10.1658 0.205811 8.51248 0.205811 6.78857C0.205811 5.06467 0.89063 3.41137 2.10962 2.19238C3.3286 0.973394 4.9819 0.288574 6.70581 0.288574C8.42972 0.288574 10.083 0.973394 11.302 2.19238C12.521 3.41137 13.2058 5.06467 13.2058 6.78857C13.2058 8.51248 12.521 10.1658 11.302 11.3848C10.083 12.6038 8.42972 13.2886 6.70581 13.2886Z" fill="white"/>
</svg>
