<svg width="100" height="100" viewBox="0 0 100 100" fill="none" xmlns="http://www.w3.org/2000/svg">
<path d="M100 76.4805H0V76.5305H100V76.4805Z" fill="#EBEBEB"/>
<path d="M89.9795 79.6973H83.3555V79.7473H89.9795V79.6973Z" fill="#EBEBEB"/>
<path d="M66.2439 80.2422H64.5059V80.2922H66.2439V80.2422Z" fill="#EBEBEB"/>
<path d="M83.1564 77.8418H79.3184V77.8918H83.1564V77.8418Z" fill="#EBEBEB"/>
<path d="M19.1302 78.1777H10.4922V78.2277H19.1302V78.1777Z" fill="#EBEBEB"/>
<path d="M22.1781 78.1777H20.9121V78.2277H22.1781V78.1777Z" fill="#EBEBEB"/>
<path d="M45.0309 79.0215H26.2949V79.0715H45.0309V79.0215Z" fill="#EBEBEB"/>
<path d="M47.4006 67.56H8.78258C8.48005 67.5595 8.19009 67.4389 7.97635 67.2248C7.76262 67.0107 7.64258 66.7205 7.64258 66.418V12.132C7.64521 11.8312 7.76642 11.5436 7.97987 11.3316C8.19332 11.1197 8.48177 11.0005 8.78258 11H47.4006C47.7035 11 47.9939 11.1203 48.2081 11.3345C48.4223 11.5487 48.5426 11.8391 48.5426 12.142V66.418C48.5426 66.7209 48.4223 67.0113 48.2081 67.2255C47.9939 67.4397 47.7035 67.56 47.4006 67.56ZM8.78258 11.04C8.49331 11.0405 8.21607 11.1558 8.01171 11.3605C7.80735 11.5653 7.69258 11.8427 7.69258 12.132V66.418C7.69258 66.7073 7.80735 66.9847 8.01171 67.1894C8.21607 67.3942 8.49331 67.5095 8.78258 67.51H47.4006C47.69 67.5095 47.9675 67.3942 48.1722 67.1896C48.3768 66.9849 48.4921 66.7074 48.4926 66.418V12.132C48.4921 11.8425 48.3768 11.5651 48.1722 11.3604C47.9675 11.1557 47.69 11.0405 47.4006 11.04H8.78258Z" fill="#EBEBEB"/>
<path d="M90.6624 67.56H52.0424C51.7397 67.5595 51.4495 67.439 51.2355 67.2249C51.0214 67.0109 50.9009 66.7207 50.9004 66.418V12.132C50.9035 11.831 51.0252 11.5434 51.239 11.3315C51.4527 11.1196 51.7414 11.0005 52.0424 11H90.6624C90.9628 11.001 91.2508 11.1204 91.4638 11.3323C91.6768 11.5442 91.7978 11.8316 91.8004 12.132V66.418C91.8004 66.7202 91.6806 67.01 91.4673 67.2241C91.254 67.4381 90.9646 67.5589 90.6624 67.56ZM52.0424 11.04C51.7529 11.0405 51.4755 11.1557 51.2708 11.3604C51.0661 11.5651 50.9509 11.8425 50.9504 12.132V66.418C50.9509 66.7074 51.0661 66.9849 51.2708 67.1896C51.4755 67.3942 51.7529 67.5095 52.0424 67.51H90.6624C90.9518 67.5095 91.2293 67.3942 91.434 67.1896C91.6386 66.9849 91.7539 66.7074 91.7544 66.418V12.132C91.7539 11.8425 91.6386 11.5651 91.434 11.3604C91.2293 11.1557 90.9518 11.0405 90.6624 11.04H52.0424Z" fill="#EBEBEB"/>
<path d="M72.3201 50.2318H74.0601C74.0481 49.0318 74.0601 45.9738 74.1821 38.9718C74.4001 26.2818 74.8001 25.5078 74.8001 25.5078L72.7341 31.7718C72.2448 33.2447 71.9595 34.7776 71.8861 36.3278C71.6661 41.2118 72.5201 45.1098 72.3201 50.2318Z" fill="#E6E6E6"/>
<path d="M70.9997 29.884C68.6817 26.374 64.0517 24.542 59.3197 22.818C57.4617 22.14 62.6757 30.54 66.4657 34.346C69.4117 37.304 72.2657 37.238 73.1137 40.162C73.2777 36.768 72.9997 32.908 70.9997 29.884Z" fill="#E6E6E6"/>
<path d="M73.6559 27.6304C75.4739 23.5264 80.0679 18.2024 85.2299 14.4524C87.2579 12.9804 82.2559 25.6184 78.7279 30.7984C75.9819 34.8304 73.4199 37.2844 73.0199 40.1624C71.2879 36.5624 71.8399 31.7344 73.6559 27.6304Z" fill="#E6E6E6"/>
<path d="M73.4848 54.028C72.5022 54.0276 71.5569 53.6517 70.8423 52.9773C70.1278 52.3029 69.6979 51.3809 69.6408 50.4L69.3008 46.918H77.6688L77.3288 50.4C77.2726 51.3812 76.843 52.3038 76.1283 52.9784C75.4135 53.653 74.4676 54.0286 73.4848 54.028Z" fill="#F0F0F0"/>
<path d="M78.2103 46.9372H68.7583L68.4883 45.6992H78.4803L78.2103 46.9372Z" fill="#F0F0F0"/>
<path d="M77.7445 49.0583H69.2245L68.9805 47.8223H77.9885L77.7445 49.0583Z" fill="#F0F0F0"/>
<path d="M15.3484 45.1367L59.8184 45.1367V16.7567L15.3484 16.7567V45.1367Z" fill="#E6E6E6"/>
<path d="M14.2606 45.1367L59.3105 45.1367V16.7567L14.2606 16.7567V45.1367Z" fill="#F0F0F0"/>
<path d="M15.3484 47.1582L59.8184 47.1582V45.1362L15.3484 45.1362V47.1582Z" fill="#E6E6E6"/>
<path d="M13.4573 45.1368H56.4853C56.6175 45.1354 56.7486 45.1603 56.8711 45.21C56.9935 45.2597 57.105 45.3331 57.1989 45.4261C57.2928 45.5191 57.3674 45.6298 57.4182 45.7518C57.4691 45.8737 57.4953 46.0046 57.4953 46.1368C57.4956 46.2696 57.4697 46.4011 57.419 46.5239C57.3684 46.6467 57.294 46.7582 57.2002 46.8522C57.1064 46.9462 56.995 47.0208 56.8723 47.0717C56.7496 47.1226 56.6181 47.1488 56.4853 47.1488H13.4573C13.1889 47.1488 12.9315 47.0421 12.7417 46.8524C12.5519 46.6626 12.4453 46.4052 12.4453 46.1368C12.4485 45.8705 12.5565 45.6161 12.7459 45.4289C12.9354 45.2417 13.191 45.1368 13.4573 45.1368Z" fill="#F0F0F0"/>
<path d="M57.7871 43.6113V18.2793L15.7851 18.2793V43.6113H57.7871Z" fill="#FAFAFA"/>
<path d="M54.871 43.6113L45.929 18.2793H41.707L50.649 43.6113H54.871Z" fill="white"/>
<path d="M57.0817 35.0173C57.0525 35.0173 57.0246 35.0057 57.0039 34.9851C56.9833 34.9644 56.9717 34.9365 56.9717 34.9073V19.2713C56.9696 19.2557 56.9708 19.2399 56.9753 19.2249C56.9799 19.2098 56.9875 19.1959 56.9979 19.1841C57.0082 19.1723 57.0209 19.1628 57.0352 19.1563C57.0495 19.1498 57.065 19.1465 57.0807 19.1465C57.0964 19.1465 57.1119 19.1498 57.1262 19.1563C57.1405 19.1628 57.1532 19.1723 57.1636 19.1841C57.1739 19.1959 57.1816 19.2098 57.1861 19.2249C57.1906 19.2399 57.1918 19.2557 57.1897 19.2713V34.9073C57.1897 34.9361 57.1784 34.9638 57.1582 34.9844C57.138 35.0049 57.1105 35.0168 57.0817 35.0173Z" fill="#F0F0F0"/>
<path d="M49.7443 43.6113L40.8022 18.2793H39.1562L48.0983 43.6113H49.7443Z" fill="white"/>
<path d="M40.6913 43.6113L31.7493 18.2793H27.5293L36.4693 43.6113H40.6913Z" fill="white"/>
<path d="M29.4728 43.6113L20.5308 18.2793H18.8848L27.8268 43.6113H29.4728Z" fill="white"/>
<path d="M15.9766 43.6113L15.9766 18.2793H15.7826L15.7826 43.6113H15.9766Z" fill="#E6E6E6"/>
<path opacity="0.4" d="M13.9004 20.8011H58.3704L58.5104 18.8711H14.0404L13.9004 20.8011Z" fill="#E6E6E6"/>
<path opacity="0.4" d="M13.9004 22.2152H58.3704L58.5104 20.2832H14.0404L13.9004 22.2152Z" fill="#E6E6E6"/>
<path opacity="0.4" d="M13.9004 23.9105H58.3704L58.5104 21.9805H14.0404L13.9004 23.9105Z" fill="#E6E6E6"/>
<path opacity="0.4" d="M13.9004 25.7952H58.3704L58.5104 23.8652H14.0404L13.9004 25.7952Z" fill="#E6E6E6"/>
<path opacity="0.4" d="M13.9004 28.059H58.3704L58.5104 26.127H14.0404L13.9004 28.059Z" fill="#E6E6E6"/>
<path opacity="0.4" d="M13.9004 30.5999H58.3704L58.5104 28.6699H14.0404L13.9004 30.5999Z" fill="#E6E6E6"/>
<path d="M18.3233 76.3989C22.0247 75.8179 24.5543 72.3464 23.9734 68.645C23.3924 64.9437 19.9209 62.414 16.2195 62.995C12.5181 63.5759 9.98853 67.0474 10.5695 70.7488C11.1504 74.4502 14.6219 76.9798 18.3233 76.3989Z" fill="#F5F5F5"/>
<g style="mix-blend-mode:multiply" opacity="0.7">
<path d="M16.8916 64.4752C16.3096 64.4512 15.8496 64.2012 15.8616 63.9152C15.8736 63.6292 16.3536 63.4212 16.9356 63.4452C17.5176 63.4692 17.9776 63.7212 17.9656 64.0052C17.9536 64.2892 17.4736 64.4992 16.8916 64.4752Z" fill="#E6E6E6"/>
</g>
<g style="mix-blend-mode:multiply" opacity="0.7">
<path d="M13.9747 65.5006C13.4867 65.8146 12.9647 65.8746 12.8107 65.6366C12.6567 65.3986 12.9287 64.9466 13.4107 64.6366C13.8927 64.3266 14.4107 64.2606 14.5747 64.5006C14.7387 64.7406 14.4647 65.1846 13.9747 65.5006Z" fill="#E6E6E6"/>
</g>
<g style="mix-blend-mode:multiply" opacity="0.7">
<path d="M16.0277 66.8139C15.4957 67.0539 14.9477 66.9839 14.8017 66.6579C14.6557 66.3319 14.9657 65.8739 15.4957 65.6359C16.0257 65.3979 16.5737 65.4659 16.7217 65.7919C16.8697 66.1179 16.5577 66.5739 16.0277 66.8139Z" fill="#E6E6E6"/>
</g>
<path d="M25.6658 76.4805H34.0918V54.0285H25.6658L25.6658 76.4805Z" fill="#E6E6E6"/>
<path d="M27.2661 76.4809H25.6641V70.5469H28.9441L27.2661 76.4809Z" fill="#F0F0F0"/>
<path d="M73.742 76.4805H82.168V54.0285H73.742V76.4805Z" fill="#E6E6E6"/>
<path d="M25.6666 74.8594H75.1406V54.0274L25.6666 54.0274V74.8594Z" fill="#F0F0F0"/>
<path d="M73.5374 76.4809H75.1374V70.5469H71.8594L73.5374 76.4809Z" fill="#F0F0F0"/>
<path d="M73.6479 72.3522H58.6719V56.3242H73.6479V72.3522ZM58.9819 72.0422H73.3379V56.6422H58.9819V72.0422Z" fill="#E6E6E6"/>
<path d="M57.8901 72.3522H42.9141V56.3242H57.8901V72.3522ZM43.2241 72.0422H57.5801V56.6422H43.2241V72.0422Z" fill="#E6E6E6"/>
<path d="M42.1303 72.3522H27.1543V56.3242H42.1303V72.3522ZM27.4643 72.0422H41.8203V56.6422H27.4643V72.0422Z" fill="#E6E6E6"/>
<path d="M50.0007 85.5124C71.4172 85.5124 88.7787 84.4987 88.7787 83.2484C88.7787 81.998 71.4172 80.9844 50.0007 80.9844C28.5842 80.9844 11.2227 81.998 11.2227 83.2484C11.2227 84.4987 28.5842 85.5124 50.0007 85.5124Z" fill="#F5F5F5"/>
<path d="M88.7787 79.0527H11.2227V81.5867H88.7787V79.0527Z" fill="#151F6D"/>
<path opacity="0.2" d="M88.7787 80.1758H11.2227V80.4618H88.7787V80.1758Z" fill="black"/>
<path d="M85.666 82.5759H14.334L12.334 81.5859H87.666L85.666 82.5759Z" fill="#151F6D"/>
<path opacity="0.5" d="M85.666 82.5759H14.334L12.334 81.5859H87.666L85.666 82.5759Z" fill="white"/>
<path d="M24.8695 72.0704C24.1775 71.4284 22.1175 72.4704 22.2415 71.1624C22.3655 69.8544 20.9775 70.8024 20.7855 69.5224C20.5935 68.2424 22.4555 68.6144 21.6675 67.6224C20.8795 66.6304 21.5075 65.3344 22.7155 65.3204C23.9235 65.3064 23.5815 66.8584 24.6215 66.1544C25.7655 65.3804 26.7095 66.0644 26.7135 67.0964C26.7175 68.1284 27.6715 67.5464 28.0575 68.6284C28.5655 70.0524 26.2355 70.2064 26.6975 71.0524C27.1595 71.8984 26.0115 73.1264 24.8695 72.0704Z" fill="#151F6D"/>
<path opacity="0.4" d="M24.8695 72.0704C24.1775 71.4284 22.1175 72.4704 22.2415 71.1624C22.3655 69.8544 20.9775 70.8024 20.7855 69.5224C20.5935 68.2424 22.4555 68.6144 21.6675 67.6224C20.8795 66.6304 21.5075 65.3344 22.7155 65.3204C23.9235 65.3064 23.5815 66.8584 24.6215 66.1544C25.7655 65.3804 26.7095 66.0644 26.7135 67.0964C26.7175 68.1284 27.6715 67.5464 28.0575 68.6284C28.5655 70.0524 26.2355 70.2064 26.6975 71.0524C27.1595 71.8984 26.0115 73.1264 24.8695 72.0704Z" fill="white"/>
<path d="M24.744 71.5528C23.97 70.5668 22.444 72.0268 22.544 70.9208C22.644 69.8148 21.144 70.4808 21.278 69.3928C21.412 68.3048 23.048 68.2628 22.144 67.6788C21.24 67.0948 21.764 65.7328 22.79 65.7208C23.816 65.7088 23.648 67.1348 24.53 66.5388C25.498 65.8828 26.298 66.4628 26.302 67.3388C26.306 68.2148 27.2 67.7388 27.68 68.5948C28.512 70.0628 25.712 69.8288 26.434 70.8328C26.916 71.4928 25.742 72.8228 24.744 71.5528Z" fill="#151F6D"/>
<path opacity="0.4" d="M24.6703 71.2528C24.0383 70.3908 22.6963 71.5928 22.8183 70.6528C22.9403 69.7128 21.6403 70.2388 21.7823 69.3148C21.9243 68.3908 23.3203 68.4008 22.5683 67.8788C21.8163 67.3568 22.2983 66.2088 23.1683 66.2268C24.0383 66.2448 23.8583 67.4568 24.6283 66.9728C25.4723 66.4408 26.1383 66.9588 26.1163 67.7028C26.0943 68.4468 26.8703 68.0768 27.2563 68.8108C27.9243 70.0868 25.5443 69.8108 26.1323 70.6848C26.5243 71.2628 25.4863 72.3648 24.6703 71.2528Z" fill="white"/>
<path d="M21.1191 70.3242C21.2151 72.1242 22.8891 75.6702 27.0531 74.4402C26.8171 71.9822 24.7171 70.3702 21.1191 70.3242Z" fill="#151F6D"/>
<path opacity="0.3" d="M21.1191 70.3242C21.2151 72.1242 22.8891 75.6702 27.0531 74.4402C26.8171 71.9822 24.7171 70.3702 21.1191 70.3242Z" fill="black"/>
<path d="M21.685 70.7867C22.1342 71.1893 22.6166 71.5533 23.127 71.8747C23.635 72.2087 24.155 72.5287 24.673 72.8467C25.191 73.1647 25.723 73.4687 26.247 73.7767L27.813 74.7147C27.8306 74.7243 27.8439 74.7402 27.8504 74.7591C27.8569 74.7781 27.856 74.7988 27.848 74.8171C27.8399 74.8354 27.8253 74.8501 27.807 74.8582C27.7886 74.8663 27.768 74.8672 27.749 74.8607C27.1575 74.6747 26.5871 74.4274 26.047 74.1227C25.507 73.8267 24.983 73.5047 24.463 73.1767C23.943 72.8487 23.437 72.4967 22.943 72.1287C22.695 71.9447 22.451 71.7567 22.217 71.5507C21.9754 71.3512 21.7544 71.1281 21.557 70.8847C21.5445 70.8678 21.539 70.8468 21.5416 70.8259C21.5443 70.8051 21.5548 70.7861 21.571 70.7727C21.586 70.7606 21.6047 70.7539 21.624 70.7539C21.6433 70.7539 21.662 70.7606 21.677 70.7727L21.685 70.7867Z" fill="#151F6D"/>
<path d="M23.0313 72.0796H23.0193C23.009 72.0781 22.9991 72.0746 22.9902 72.0693C22.9813 72.0639 22.9735 72.0569 22.9674 72.0485C22.9612 72.0401 22.9568 72.0306 22.9544 72.0205C22.952 72.0103 22.9516 71.9999 22.9533 71.9896C23.0216 71.6503 22.986 71.2984 22.8513 70.9796C22.8413 70.961 22.8391 70.9392 22.8451 70.919C22.8511 70.8988 22.8648 70.8817 22.8833 70.8716C22.8925 70.8664 22.9026 70.8631 22.913 70.8618C22.9235 70.8606 22.9341 70.8616 22.9442 70.8645C22.9542 70.8675 22.9636 70.8725 22.9717 70.8792C22.9798 70.886 22.9865 70.8942 22.9913 70.9036C23.1464 71.2519 23.1883 71.6401 23.1113 72.0136C23.1076 72.0321 23.0977 72.0488 23.0831 72.0608C23.0685 72.0729 23.0502 72.0795 23.0313 72.0796Z" fill="#151F6D"/>
<path d="M22.8945 73.4688C22.8732 73.4688 22.8529 73.4604 22.8379 73.4454C22.8229 73.4304 22.8145 73.41 22.8145 73.3888C22.8145 73.3676 22.8229 73.3472 22.8379 73.3322C22.8529 73.3172 22.8732 73.3088 22.8945 73.3088C22.8945 73.3088 23.8585 73.2208 24.1345 72.7368C24.1392 72.7269 24.146 72.718 24.1544 72.7108C24.1627 72.7036 24.1725 72.6982 24.183 72.695C24.1936 72.6917 24.2047 72.6907 24.2156 72.6919C24.2266 72.6932 24.2372 72.6967 24.2467 72.7022C24.2563 72.7077 24.2645 72.7152 24.2711 72.7241C24.2776 72.733 24.2822 72.7431 24.2846 72.7539C24.2871 72.7646 24.2872 72.7758 24.2851 72.7866C24.283 72.7974 24.2787 72.8077 24.2725 72.8168C23.9545 73.3728 22.9505 73.4648 22.9085 73.4688H22.8945Z" fill="#151F6D"/>
<path d="M25.2655 73.5145C25.2526 73.5137 25.24 73.5096 25.229 73.5027C25.2181 73.4958 25.209 73.4862 25.2026 73.4749C25.1963 73.4636 25.1928 73.4508 25.1926 73.4379C25.1925 73.4249 25.1955 73.412 25.2015 73.4005C25.5275 72.7905 25.0015 71.9625 25.0015 71.9525C24.9957 71.9438 24.9916 71.934 24.9897 71.9237C24.9877 71.9133 24.9878 71.9027 24.9901 71.8924C24.9923 71.8822 24.9966 71.8724 25.0027 71.8639C25.0088 71.8553 25.0166 71.848 25.0255 71.8425C25.0433 71.8312 25.0649 71.8274 25.0855 71.8319C25.1061 71.8364 25.1241 71.8489 25.1355 71.8665C25.1595 71.9045 25.7195 72.7825 25.3495 73.4665C25.3433 73.4831 25.3315 73.4969 25.3162 73.5056C25.3008 73.5144 25.2829 73.5175 25.2655 73.5145Z" fill="#151F6D"/>
<path d="M25.416 74.3481C25.3954 74.3481 25.3757 74.3403 25.3608 74.3261C25.3459 74.312 25.337 74.2926 25.336 74.2721C25.3354 74.251 25.343 74.2305 25.3571 74.2149C25.3713 74.1992 25.3909 74.1897 25.412 74.1881C25.6683 74.1535 25.9111 74.0521 26.116 73.8941C26.1245 73.8879 26.1342 73.8835 26.1444 73.8811C26.1547 73.8786 26.1653 73.8783 26.1757 73.8799C26.1861 73.8816 26.1961 73.8853 26.205 73.8908C26.214 73.8963 26.2218 73.9036 26.228 73.9121C26.2341 73.9207 26.2386 73.9303 26.241 73.9406C26.2434 73.9508 26.2438 73.9614 26.2422 73.9718C26.2405 73.9822 26.2368 73.9922 26.2313 74.0012C26.2257 74.0102 26.2185 74.0179 26.21 74.0241C25.9772 74.2019 25.7009 74.3138 25.41 74.3481H25.416Z" fill="#151F6D"/>
<path d="M33.1256 67.3594C30.6616 67.4774 25.7896 69.7494 27.4456 75.4634C30.8136 75.1534 33.0376 72.2874 33.1256 67.3594Z" fill="#151F6D"/>
<path opacity="0.3" d="M33.1256 67.3594C30.6616 67.4774 25.7896 69.7494 27.4456 75.4634C30.8136 75.1534 33.0376 72.2874 33.1256 67.3594Z" fill="black"/>
<path d="M32.4878 68.1302C31.9344 68.7415 31.4364 69.4008 30.9998 70.1002C30.5378 70.7942 30.0918 71.5002 29.6538 72.2122C29.2158 72.9242 28.7958 73.6442 28.3698 74.3622L27.0738 76.4982C27.0662 76.5106 27.0562 76.5214 27.0445 76.5299C27.0327 76.5384 27.0194 76.5445 27.0053 76.5479C26.9911 76.5512 26.9765 76.5517 26.9622 76.5494C26.9478 76.547 26.9341 76.5419 26.9218 76.5342C26.9011 76.5219 26.8851 76.5029 26.8764 76.4805C26.8677 76.458 26.8668 76.4333 26.8738 76.4102C27.1325 75.6011 27.4757 74.8214 27.8978 74.0842C28.2978 73.3462 28.7498 72.6302 29.2018 71.9202C29.6538 71.2102 30.1378 70.5202 30.6458 69.8422C30.8998 69.5042 31.1618 69.1722 31.4458 68.8542C31.7219 68.5252 32.0293 68.2237 32.3638 67.9542C32.375 67.9455 32.3879 67.9391 32.4017 67.9354C32.4154 67.9317 32.4298 67.9307 32.4439 67.9326C32.4581 67.9344 32.4717 67.9391 32.484 67.9462C32.4963 67.9534 32.5071 67.9629 32.5158 67.9742C32.5331 67.9942 32.5426 68.0198 32.5426 68.0462C32.5426 68.0727 32.5331 68.0982 32.5158 68.1182L32.4878 68.1302Z" fill="#151F6D"/>
<path d="M31.3255 70.1196C31.1486 70.1188 30.972 70.1034 30.7975 70.0736C30.7835 70.0712 30.77 70.0661 30.758 70.0586C30.7459 70.051 30.7354 70.0411 30.7271 70.0295C30.7189 70.0179 30.713 70.0048 30.7098 69.9909C30.7066 69.977 30.7062 69.9627 30.7085 69.9486C30.7109 69.9345 30.716 69.9211 30.7236 69.909C30.7311 69.8969 30.741 69.8865 30.7526 69.8782C30.7642 69.8699 30.7773 69.864 30.7912 69.8609C30.8051 69.8577 30.8195 69.8572 30.8335 69.8596C31.2978 69.9563 31.7805 69.9096 32.2175 69.7256C32.2307 69.7188 32.245 69.7146 32.2598 69.7133C32.2745 69.712 32.2894 69.7137 32.3035 69.7181C32.3176 69.7226 32.3307 69.7298 32.342 69.7393C32.3534 69.7488 32.3627 69.7605 32.3695 69.7736C32.3764 69.7867 32.3805 69.8011 32.3818 69.8158C32.3831 69.8306 32.3815 69.8454 32.377 69.8595C32.3726 69.8737 32.3654 69.8868 32.3558 69.8981C32.3463 69.9094 32.3347 69.9188 32.3215 69.9256C32.0085 70.0649 31.6679 70.1313 31.3255 70.1196Z" fill="#151F6D"/>
<path d="M29.745 71.6665C29.7259 71.6661 29.7072 71.6606 29.691 71.6505C28.931 71.2145 28.811 69.8365 28.805 69.7785C28.8028 69.7496 28.812 69.721 28.8308 69.6989C28.8495 69.6768 28.8762 69.663 28.905 69.6605C28.9339 69.6583 28.9625 69.6675 28.9846 69.6862C29.0066 69.705 29.0205 69.7316 29.023 69.7605C29.023 69.7745 29.139 71.0825 29.799 71.4625C29.8114 71.4695 29.8223 71.479 29.831 71.4902C29.8397 71.5015 29.8461 71.5144 29.8498 71.5282C29.8535 71.5419 29.8545 71.5563 29.8526 71.5704C29.8508 71.5845 29.8462 71.5981 29.839 71.6105C29.8299 71.6275 29.8164 71.6417 29.7998 71.6516C29.7832 71.6614 29.7643 71.6666 29.745 71.6665Z" fill="#151F6D"/>
<path d="M29.519 73.2881C29.2628 73.2921 29.0097 73.2315 28.783 73.1121C28.7701 73.1056 28.7586 73.0965 28.7493 73.0854C28.74 73.0743 28.7331 73.0615 28.729 73.0476C28.7249 73.0337 28.7236 73.0192 28.7254 73.0048C28.7271 72.9905 28.7317 72.9766 28.739 72.9641C28.7457 72.9514 28.7549 72.9401 28.766 72.931C28.7771 72.9219 28.7899 72.9151 28.8037 72.911C28.8175 72.9069 28.832 72.9056 28.8463 72.9071C28.8606 72.9087 28.8744 72.9131 28.887 72.9201C29.721 73.3701 30.859 72.6541 30.869 72.6461C30.8812 72.6383 30.8948 72.633 30.9091 72.6306C30.9233 72.6281 30.9379 72.6284 30.952 72.6316C30.9662 72.6347 30.9795 72.6406 30.9913 72.649C31.0032 72.6573 31.0133 72.6679 31.021 72.6801C31.0287 72.6921 31.0339 72.7056 31.0364 72.7197C31.0389 72.7338 31.0385 72.7482 31.0354 72.7622C31.0322 72.7762 31.0263 72.7894 31.018 72.801C31.0097 72.8127 30.9991 72.8225 30.987 72.8301C30.5441 73.1042 30.0391 73.2617 29.519 73.2881Z" fill="#151F6D"/>
<path d="M28.1101 74.3556C28.0928 74.3557 28.0757 74.3516 28.0604 74.3436C28.0451 74.3356 28.0319 74.3239 28.0221 74.3096C27.7816 73.9939 27.6297 73.6197 27.5821 73.2256C27.581 73.1968 27.5913 73.1687 27.6108 73.1473C27.6302 73.126 27.6573 73.1132 27.6861 73.1116C27.7004 73.1105 27.7147 73.1124 27.7282 73.1169C27.7417 73.1215 27.7542 73.1288 27.7649 73.1383C27.7755 73.1479 27.7841 73.1594 27.7902 73.1724C27.7962 73.1853 27.7996 73.1994 27.8001 73.2136C27.8473 73.5655 27.9851 73.8991 28.2001 74.1816C28.2086 74.1932 28.2148 74.2062 28.2182 74.2202C28.2216 74.2341 28.2222 74.2485 28.2199 74.2627C28.2177 74.2768 28.2127 74.2904 28.2051 74.3025C28.1976 74.3147 28.1878 74.3253 28.1761 74.3336C28.157 74.3478 28.1339 74.3555 28.1101 74.3556Z" fill="#151F6D"/>
<path d="M24.8008 70.6915C26.8008 72.5915 31.8848 70.7315 31.4008 66.9355C28.6468 68.2315 24.8008 70.6915 24.8008 70.6915Z" fill="#151F6D"/>
<path opacity="0.2" d="M25.5215 70.2394C27.1215 71.5194 30.7735 70.1434 30.5415 67.3594C28.6935 68.3034 26.6015 69.5714 25.5215 70.2394Z" fill="white"/>
<path d="M30.0447 77.8468C28.1627 79.8468 22.9727 78.2828 23.2447 74.4648C26.0627 75.6008 30.0447 77.8468 30.0447 77.8468Z" fill="#151F6D"/>
<path opacity="0.2" d="M29.2962 77.432C27.7762 78.8 24.0462 77.632 24.1222 74.832C26.0222 75.676 28.1822 76.826 29.2962 77.432Z" fill="white"/>
<path d="M35.1362 70.0133C34.5482 70.4673 35.2362 72.0233 34.1682 71.8393C33.1002 71.6553 33.7682 72.7233 32.6882 72.7673C31.6082 72.8113 32.0782 71.5013 31.2002 72.0013C30.3222 72.5013 29.2942 71.9513 29.3822 71.0813C29.4702 70.2113 30.7282 70.5693 30.2322 69.7713C29.6882 68.8913 30.3322 68.2633 31.1842 68.3333C32.0362 68.4033 31.6382 67.6773 32.5642 67.4793C33.7842 67.2153 33.7182 68.9033 34.4562 68.6333C35.1942 68.3633 36.1062 69.2693 35.1362 70.0133Z" fill="#151F6D"/>
<path opacity="0.4" d="M35.1362 70.0133C34.5482 70.4673 35.2362 72.0233 34.1682 71.8393C33.1002 71.6553 33.7682 72.7233 32.6882 72.7673C31.6082 72.8113 32.0782 71.5013 31.2002 72.0013C30.3222 72.5013 29.2942 71.9513 29.3822 71.0813C29.4702 70.2113 30.7282 70.5693 30.2322 69.7713C29.6882 68.8913 30.3322 68.2633 31.1842 68.3333C32.0362 68.4033 31.6382 67.6773 32.5642 67.4793C33.7842 67.2153 33.7182 68.9033 34.4562 68.6333C35.1942 68.3633 36.1062 69.2693 35.1362 70.0133Z" fill="white"/>
<path d="M34.6986 70.0669C33.8186 70.5509 34.8986 71.7549 33.9926 71.5989C33.0866 71.4429 33.5126 72.5709 32.6226 72.3989C31.7326 72.2269 31.8346 71.0449 31.2786 71.6529C30.7226 72.2609 29.6366 71.7849 29.7106 71.0529C29.7846 70.3209 30.9526 70.5389 30.5326 69.8529C30.0726 69.1069 30.6186 68.5749 31.3326 68.6349C32.0466 68.6949 31.7446 68.0189 32.4866 67.7349C33.7706 67.2429 33.3446 69.2389 34.2346 68.7929C34.8306 68.4989 35.8326 69.4389 34.6986 70.0669Z" fill="#151F6D"/>
<path opacity="0.4" d="M34.444 70.0964C33.678 70.4964 34.56 71.5403 33.792 71.3863C33.024 71.2323 33.352 72.2024 32.592 72.0344C31.832 71.8664 31.964 70.8604 31.468 71.3644C30.972 71.8684 30.068 71.4383 30.152 70.8103C30.236 70.1823 31.228 70.4103 30.892 69.8103C30.522 69.1643 31.006 68.7243 31.62 68.7923C32.234 68.8603 31.99 68.2784 32.632 68.0524C33.742 67.6644 33.314 69.3564 34.088 68.9964C34.6 68.7644 35.43 69.6004 34.444 70.0964Z" fill="white"/>
<path d="M27.6642 75.6808C28.4042 75.1088 27.8002 73.2908 29.0182 73.4508C30.2362 73.6108 29.5982 72.3728 30.8522 72.2508C32.1062 72.1288 31.4042 73.7268 32.4962 73.0868C33.5882 72.4468 34.6962 73.0388 34.4962 74.0868C34.2962 75.1348 32.8702 74.7728 33.3462 75.6988C33.8682 76.7168 33.0422 77.4988 32.0602 77.4668C31.0782 77.4348 31.4602 78.2668 30.3522 78.5648C28.9022 78.9468 29.1902 76.9308 28.3002 77.2948C27.4102 77.6588 26.4462 76.6248 27.6642 75.6808Z" fill="#151F6D"/>
<path opacity="0.4" d="M27.6642 75.6808C28.4042 75.1088 27.8002 73.2908 29.0182 73.4508C30.2362 73.6108 29.5982 72.3728 30.8522 72.2508C32.1062 72.1288 31.4042 73.7268 32.4962 73.0868C33.5882 72.4468 34.6962 73.0388 34.4962 74.0868C34.2962 75.1348 32.8702 74.7728 33.3462 75.6988C33.8682 76.7168 33.0422 77.4988 32.0602 77.4668C31.0782 77.4348 31.4602 78.2668 30.3522 78.5648C28.9022 78.9468 29.1902 76.9308 28.3002 77.2948C27.4102 77.6588 26.4462 76.6248 27.6642 75.6808Z" fill="white"/>
<path d="M28.1835 75.6C29.2655 74.97 28.1615 73.6 29.1935 73.732C30.2255 73.864 29.8715 72.546 30.8835 72.7C31.8955 72.854 31.6295 74.27 32.3535 73.514C33.0775 72.758 34.2755 73.264 34.0975 74.148C33.9195 75.032 32.5895 74.832 32.9915 75.616C33.4355 76.478 32.7335 77.144 31.9035 77.114C31.0735 77.084 31.3475 77.872 30.4515 78.252C28.8975 78.912 29.6515 76.506 28.5535 77.09C27.8335 77.47 26.7875 76.4 28.1835 75.6Z" fill="#151F6D"/>
<path opacity="0.4" d="M28.4809 75.5424C29.4209 75.0324 28.5269 73.8264 29.3989 73.9684C30.2709 74.1104 30.0109 72.9684 30.8649 73.1264C31.7189 73.2844 31.4469 74.4904 32.0849 73.8604C32.7229 73.2304 33.7229 73.6944 33.5429 74.4484C33.3629 75.2024 32.2429 74.9964 32.5609 75.6784C32.9089 76.4284 32.2929 76.9804 31.5889 76.9344C30.8849 76.8884 31.0929 77.5684 30.3209 77.8724C28.9829 78.3984 29.6909 76.3564 28.7469 76.8284C28.1249 77.1404 27.2709 76.2004 28.4809 75.5424Z" fill="white"/>
<path opacity="0.3" d="M20.7715 69.8789V71.2969C20.7773 73.3521 21.5963 75.3215 23.0496 76.7748C24.5029 78.2281 26.4723 79.0471 28.5275 79.0529C30.5827 79.0471 32.5521 78.2281 34.0054 76.7748C35.4587 75.3215 36.2777 73.3521 36.2835 71.2969V69.8789H20.7715Z" fill="#151F6D"/>
<path opacity="0.5" d="M36.4728 69.8784H20.5808C20.4622 69.8779 20.3485 69.8305 20.2646 69.7466C20.1807 69.6627 20.1333 69.5491 20.1328 69.4304C20.1333 69.3118 20.1807 69.1981 20.2646 69.1142C20.3485 69.0303 20.4622 68.9829 20.5808 68.9824H36.4728C36.5915 68.9829 36.7051 69.0303 36.789 69.1142C36.8729 69.1981 36.9203 69.3118 36.9208 69.4304C36.9203 69.5491 36.8729 69.6627 36.789 69.7466C36.7051 69.8305 36.5915 69.8779 36.4728 69.8784Z" fill="#151F6D"/>
<path opacity="0.3" d="M28.7421 77.4702C29.5909 76.4927 28.8335 74.4451 27.0504 72.8967C25.2673 71.3483 23.1337 70.8855 22.2849 71.863C21.4361 72.8404 22.1935 74.888 23.9767 76.4364C25.7598 77.9848 27.8933 78.4477 28.7421 77.4702Z" fill="white"/>
<path opacity="0.3" d="M30.6391 74.8009C30.0391 75.0629 29.2891 74.6689 28.9611 73.9189C28.6331 73.1689 28.8511 72.3509 29.4511 72.0889C30.0511 71.8269 30.8011 72.2209 31.1291 72.9689C31.4571 73.7169 31.2371 74.5289 30.6391 74.8009Z" fill="white"/>
<path opacity="0.3" d="M84.0665 70.9727H76.6445L77.4005 78.5847C77.413 78.7129 77.4727 78.8318 77.5681 78.9184C77.6635 79.0049 77.7877 79.0528 77.9165 79.0527H82.8005C82.9293 79.0528 83.0535 79.0049 83.149 78.9184C83.2444 78.8318 83.3041 78.7129 83.3165 78.5847L84.0665 70.9727Z" fill="#151F6D"/>
<path opacity="0.3" d="M78.0833 77.3812L77.5293 71.7812C77.5293 71.7812 78.9953 72.6412 80.4153 72.2232C81.3178 71.9663 82.2477 71.8179 83.1853 71.7812L82.6293 77.3812C82.6055 77.6203 82.4936 77.842 82.3154 78.0031C82.1373 78.1643 81.9055 78.2534 81.6653 78.2533H79.0473C78.8072 78.253 78.5757 78.1637 78.3976 78.0026C78.2196 77.8415 78.1076 77.6201 78.0833 77.3812Z" fill="#151F6D"/>
<path opacity="0.5" d="M80.2973 72.2135C79.3955 71.9565 78.4663 71.8081 77.5293 71.7715C77.5293 71.7715 78.9553 72.6055 80.3573 72.2275L80.2973 72.2135Z" fill="#151F6D"/>
<path opacity="0.3" d="M84.1545 71.1729H76.5545C76.481 71.1726 76.4103 71.1443 76.3568 71.0938C76.3034 71.0433 76.2711 70.9743 76.2665 70.9009L76.0805 67.5149C76.0784 67.476 76.0841 67.437 76.0975 67.4003C76.1109 67.3636 76.1316 67.33 76.1583 67.3016C76.1851 67.2732 76.2173 67.2505 76.2531 67.2349C76.2889 67.2193 76.3275 67.2111 76.3665 67.2109H84.3405C84.3797 67.2112 84.4183 67.2193 84.4542 67.2349C84.4901 67.2504 84.5225 67.2731 84.5494 67.3015C84.5763 67.3299 84.5972 67.3634 84.6108 67.4001C84.6244 67.4368 84.6304 67.4759 84.6285 67.5149L84.4405 70.9009C84.4365 70.9742 84.4046 71.0431 84.3514 71.0936C84.2983 71.1442 84.2279 71.1725 84.1545 71.1729Z" fill="#151F6D"/>
<path d="M59.9255 45.4671C57.9216 44.5547 55.4557 46.0307 54.2002 45.2045C53.099 44.3103 51.7089 43.8496 50.2916 43.9092C49.0338 44.2525 47.7082 44.1599 46.3505 43.8474C46.9023 42.9017 47.2473 41.6598 47.4771 40.252C46.977 39.7516 46.7538 38.6853 46.684 37.3088C47.4835 36.1983 47.8029 33.2364 48.1387 30.3105L62.749 34.4552L59.9255 45.4671Z" fill="#263238"/>
<path opacity="0.4" d="M59.9255 45.4671C57.9216 44.5547 55.4557 46.0307 54.2002 45.2045C53.099 44.3103 51.7089 43.8496 50.2916 43.9092C49.0338 44.2525 47.7082 44.1599 46.3505 43.8474C46.9023 42.9017 47.2473 41.6598 47.4771 40.252C46.977 39.7516 46.7538 38.6853 46.684 37.3088C47.4835 36.1983 47.8029 33.2364 48.1387 30.3105L62.749 34.4552L59.9255 45.4671Z" fill="white"/>
<path d="M60.5436 48.425C60.5436 48.425 56.071 52.9439 51.513 53.5624C49.3311 51.7829 50.8349 47.7712 50.8349 47.7712C51.0751 47.6826 51.2936 47.5439 51.4761 47.3644C52.2327 46.61 51.9611 45.3216 51.3254 44.1722L56.5944 41.9869L57.777 41.4987C57.8879 43.7638 59.1459 46.9213 60.5436 48.425Z" fill="#7A5332"/>
<path opacity="0.2" d="M55.7863 45.2738C55.2361 46.1885 53.5744 47.648 51.4794 47.3638C52.2361 46.6094 51.9645 45.321 51.3287 44.1716L56.5977 41.9863C56.5814 42.471 56.2321 44.5475 55.7863 45.2738Z" fill="black"/>
<path d="M54.332 27.6238C49.5492 27.5655 47.9907 30.113 47.5646 35.0312C47.5527 35.1587 47.5346 35.4103 47.5346 35.4103C45.0021 38.4107 47.7417 45.2954 54.3618 44.3341C62.5988 43.1385 62.2734 27.718 54.332 27.6238Z" fill="#7A5332"/>
<path d="M50.6648 34.8033C50.274 35.513 49.7988 36.173 49.2497 36.7688C49.3871 36.9682 49.577 37.1257 49.7984 37.224C50.0198 37.3222 50.264 37.3575 50.5041 37.3257L50.6648 34.8033Z" fill="#463221"/>
<path d="M53.5975 34.4456C53.5828 34.8387 53.7835 35.1646 54.0451 35.1734C54.3067 35.1822 54.5302 34.8725 54.5448 34.4793C54.5595 34.0861 54.3587 33.7603 54.0949 33.7509C53.8311 33.7414 53.6111 34.0473 53.5975 34.4456Z" fill="#263238"/>
<path d="M54.205 33.7755L53.3613 33.4102C53.3613 33.4102 53.7613 34.1438 54.205 33.7755Z" fill="#263238"/>
<path d="M48.7185 34.1937C48.7045 34.5846 48.9052 34.9104 49.1662 34.9215C49.4271 34.9325 49.6519 34.6184 49.6665 34.2252C49.6812 33.832 49.4798 33.5084 49.216 33.499C48.9522 33.4896 48.7309 33.7999 48.7185 34.1937Z" fill="#263238"/>
<path d="M49.3261 33.5215L48.4824 33.1562C48.4824 33.1562 48.8824 33.8899 49.3261 33.5215Z" fill="#263238"/>
<path d="M54.3721 36.2978C54.193 36.2865 54.0207 36.2251 53.8749 36.1204C53.3738 35.7602 53.3625 35.006 53.3643 34.9653C53.3644 34.9281 53.379 34.8923 53.4051 34.8657C53.4312 34.8392 53.4667 34.8239 53.504 34.8232C53.5411 34.8238 53.5765 34.8387 53.6029 34.8647C53.6294 34.8907 53.6448 34.9258 53.6461 34.9629C53.6461 34.9629 53.6543 35.6169 54.0387 35.8931C54.1703 35.9703 54.3185 36.0149 54.4708 36.0232C54.6232 36.0314 54.7753 36.003 54.9144 35.9405C54.9498 35.929 54.9883 35.932 55.0214 35.9489C55.0546 35.9658 55.0797 35.9952 55.0911 36.0306C55.1026 36.066 55.0996 36.1045 55.0827 36.1376C55.0658 36.1707 55.0364 36.1958 55.001 36.2073C54.7992 36.2779 54.5856 36.3086 54.3721 36.2978Z" fill="#463221"/>
<path d="M48.6214 35.9604C48.4655 35.9474 48.3117 35.9167 48.1628 35.8691C48.131 35.8555 48.1053 35.8307 48.0904 35.7995C48.0755 35.7684 48.0725 35.7328 48.0819 35.6996C48.0914 35.6663 48.1126 35.6376 48.1416 35.6189C48.1707 35.6002 48.2055 35.5926 48.2397 35.5977C48.3918 35.6619 48.5563 35.6912 48.7211 35.6835C48.886 35.6758 49.047 35.6312 49.1924 35.5531C49.4269 35.374 49.5812 35.1095 49.6216 34.8172C49.6238 34.7989 49.6295 34.7812 49.6386 34.7651C49.6476 34.749 49.6597 34.7348 49.6742 34.7234C49.6886 34.712 49.7052 34.7036 49.723 34.6986C49.7407 34.6936 49.7593 34.6921 49.7776 34.6943C49.7959 34.6965 49.8136 34.7022 49.8297 34.7112C49.8458 34.7202 49.86 34.7323 49.8714 34.7468C49.8828 34.7613 49.8912 34.7779 49.8962 34.7957C49.9012 34.8134 49.9027 34.832 49.9005 34.8503C49.8759 35.0357 49.8144 35.2142 49.7196 35.3754C49.6247 35.5366 49.4985 35.6771 49.3484 35.7887C49.1315 35.9242 48.876 35.9845 48.6214 35.9604Z" fill="#463221"/>
<path d="M54.967 39.2358C54.9408 39.2332 54.9157 39.2235 54.8946 39.2077C54.8734 39.1919 54.857 39.1706 54.8471 39.1461C54.2513 37.5913 52.3719 37.1962 52.354 37.1912C52.3359 37.1876 52.3187 37.1805 52.3034 37.1704C52.288 37.1602 52.2748 37.147 52.2645 37.1318C52.2542 37.1165 52.2471 37.0993 52.2434 37.0812C52.2398 37.0632 52.2397 37.0446 52.2432 37.0265C52.2468 37.0084 52.2538 36.9912 52.264 36.9758C52.2742 36.9605 52.2873 36.9473 52.3026 36.937C52.3179 36.9267 52.3351 36.9195 52.3532 36.9159C52.3712 36.9122 52.3898 36.9122 52.4079 36.9157C52.4909 36.9393 54.4647 37.3514 55.1104 39.0463C55.1228 39.0812 55.1211 39.1195 55.1057 39.1531C55.0903 39.1867 55.0623 39.213 55.0279 39.2264C55.0087 39.2346 54.9878 39.2379 54.967 39.2358Z" fill="#463221"/>
<path d="M63.6621 31.6082L63.6474 31.4635C63.1933 28.35 60.8703 27.3155 60.8703 27.3155C60.6107 25.4466 59.0367 24.8378 57.3765 24.5752C55.7164 24.3126 54.4648 25.4451 52.4756 24.8396C50.4863 24.2341 47.5085 27.549 46.7337 28.9137C45.959 30.2783 45.8637 31.0411 46.2762 31.7734C46.6886 32.5058 46.3093 32.6816 45.9377 33.6156C45.6863 34.2541 46.941 35.2544 47.5823 33.7962C47.5822 34.2153 47.6063 34.4717 47.6063 34.4717C47.6197 34.2453 47.6385 34.0253 47.6659 33.8175C48.6342 25.0411 57.6247 28.8416 57.6247 28.8416C57.2462 31.8837 59.4335 35.8305 59.4335 35.8305C60.4001 37.5898 59.8012 39.6585 59.2867 40.6778C59.1502 40.9458 58.9923 41.2024 58.8147 41.4451C59.0672 41.2382 59.2868 42.9406 59.2868 42.9406L59.9203 45.4727C61.1033 46.3103 62.4555 46.8783 63.8818 47.1368C64.8319 47.2634 65.5282 46.7559 66.1635 45.8144C65.5402 44.4675 65.1021 43.0228 65.3555 41.2244C65.5379 39.4883 65.3624 37.7838 64.4572 36.1412C63.8315 34.4011 63.3899 32.7811 63.6621 31.6082Z" fill="#263238"/>
<g opacity="0.4">
<path d="M63.662 31.6082L63.6473 31.4635C63.1933 28.35 60.8703 27.3155 60.8703 27.3155C60.6106 25.4467 59.0366 24.8378 57.3765 24.5752C55.7164 24.3126 54.4648 25.4451 52.4756 24.8396C50.4863 24.2341 47.5085 27.549 46.7337 28.9136C45.959 30.2783 45.8637 31.041 46.2762 31.7734C46.6886 32.5058 46.3092 32.6816 45.9377 33.6155C45.6863 34.254 46.9409 35.2544 47.5823 33.7962C47.5821 34.2153 47.6063 34.4717 47.6063 34.4717C47.6196 34.2453 47.6384 34.0253 47.6659 33.8175C48.6342 25.0411 57.6246 28.8417 57.6246 28.8417C57.2462 31.8837 59.4334 35.8305 59.4334 35.8305C60.4001 37.5899 59.8011 39.6585 59.2866 40.6778C59.1501 40.9458 58.9922 41.2024 58.8146 41.4451C59.0671 41.2382 59.2867 42.9406 59.2867 42.9406L59.9202 45.4727C61.1032 46.3103 62.4554 46.8783 63.8816 47.1368C64.8318 47.2634 65.5281 46.7559 66.1634 45.8144C65.5401 44.4675 65.102 43.0229 65.3554 41.2244C65.5378 39.4883 65.3624 37.7838 64.4571 36.1413C63.8315 34.4012 63.3898 32.7811 63.662 31.6082Z" fill="white"/>
</g>
<path d="M58.6702 36.7478C58.712 35.9772 59.5224 34.6832 60.9512 34.856C62.4319 35.0337 63.1016 38.0873 59.4049 38.7781C58.8765 38.8729 58.5798 38.3648 58.6702 36.7478Z" fill="#7A5332"/>
<path d="M55.5339 32.4139C55.4984 32.4075 55.4652 32.3917 55.4378 32.3682C55.4104 32.3447 55.3898 32.3142 55.3781 32.2801C55.0359 31.3084 53.8297 31.0341 53.8179 31.0332C53.765 31.0224 53.7187 30.991 53.689 30.946C53.6592 30.901 53.6486 30.846 53.6594 30.7932C53.6702 30.7404 53.7016 30.694 53.7466 30.6643C53.7916 30.6346 53.8466 30.6239 53.8994 30.6347C53.9577 30.6513 55.3404 30.9611 55.7572 32.1478C55.7684 32.1813 55.7707 32.2172 55.7639 32.2519C55.7571 32.2866 55.7415 32.319 55.7185 32.3459C55.6955 32.3728 55.6659 32.3933 55.6327 32.4053C55.5995 32.4174 55.5637 32.4207 55.5288 32.4149L55.5339 32.4139Z" fill="#263238"/>
<g opacity="0.2">
<path d="M55.5339 32.4139C55.4983 32.4075 55.4652 32.3917 55.4378 32.3682C55.4104 32.3447 55.3898 32.3142 55.378 32.2801C55.0359 31.3084 53.8297 31.0341 53.8179 31.0332C53.765 31.0224 53.7187 30.991 53.689 30.946C53.6592 30.901 53.6486 30.846 53.6594 30.7932C53.6702 30.7404 53.7016 30.694 53.7466 30.6643C53.7916 30.6346 53.8466 30.6239 53.8994 30.6347C53.9577 30.6513 55.3404 30.9611 55.7572 32.1478C55.7684 32.1813 55.7707 32.2172 55.7639 32.2519C55.7571 32.2866 55.7415 32.319 55.7185 32.3459C55.6955 32.3728 55.6659 32.3933 55.6327 32.4053C55.5995 32.4174 55.5637 32.4207 55.5288 32.4149L55.5339 32.4139Z" fill="white"/>
</g>
<path d="M48.4631 31.6754C48.4273 31.6895 48.3882 31.6931 48.3503 31.6858C48.3125 31.6785 48.2775 31.6606 48.2495 31.6342C48.2106 31.5968 48.1879 31.5457 48.1864 31.4917C48.185 31.4378 48.2048 31.3855 48.2416 31.3461C49.1788 30.357 50.1445 30.471 50.1846 30.4751C50.2382 30.482 50.2869 30.5099 50.32 30.5526C50.353 30.5954 50.3678 30.6496 50.3609 30.7032C50.354 30.7568 50.3262 30.8056 50.2834 30.8386C50.2406 30.8717 50.1864 30.8864 50.1328 30.8796C50.0969 30.8694 49.3204 30.7969 48.5332 31.625C48.5138 31.6467 48.4899 31.6639 48.4631 31.6754Z" fill="#263238"/>
<g opacity="0.2">
<path d="M48.4631 31.6754C48.4273 31.6895 48.3882 31.6931 48.3503 31.6858C48.3125 31.6785 48.2775 31.6606 48.2495 31.6342C48.2106 31.5968 48.1879 31.5457 48.1864 31.4917C48.185 31.4378 48.2048 31.3855 48.2416 31.346C49.1787 30.357 50.1445 30.471 50.1845 30.4751C50.2382 30.482 50.2869 30.5099 50.32 30.5526C50.353 30.5954 50.3678 30.6496 50.3609 30.7032C50.354 30.7568 50.3261 30.8056 50.2834 30.8386C50.2406 30.8717 50.1864 30.8864 50.1328 30.8796C50.0969 30.8694 49.3204 30.7969 48.5332 31.625C48.5138 31.6467 48.4899 31.6639 48.4631 31.6754Z" fill="white"/>
</g>
<path d="M49.6285 39.0551C49.5075 39.0208 49.3864 38.9864 49.2624 38.9367C49.2562 38.9349 49.2504 38.932 49.2454 38.928C49.2404 38.924 49.2361 38.9191 49.233 38.9135C49.2299 38.9078 49.2279 38.9017 49.2271 38.8953C49.2264 38.8889 49.2269 38.8824 49.2287 38.8763C49.2304 38.8701 49.2334 38.8643 49.2374 38.8593C49.2414 38.8542 49.2463 38.85 49.2519 38.8469C49.2575 38.8437 49.2637 38.8417 49.2701 38.841C49.2765 38.8403 49.2829 38.8408 49.2891 38.8425C51.7383 39.7311 53.313 38.3221 53.3383 38.3099C53.3481 38.3014 53.3608 38.2972 53.3737 38.2982C53.3866 38.2991 53.3986 38.3051 53.4071 38.3149C53.4115 38.3196 53.415 38.3251 53.4172 38.3312C53.4195 38.3373 53.4205 38.3437 53.4202 38.3502C53.42 38.3566 53.4184 38.363 53.4157 38.3688C53.413 38.3747 53.4091 38.38 53.4044 38.3843C52.8755 38.7919 52.2561 39.0657 51.5987 39.1825C50.9413 39.2993 50.2654 39.2556 49.6285 39.0551Z" fill="#263238"/>
<path d="M48.1382 36.1284C47.8366 36.0429 47.5672 35.8698 47.364 35.6312C47.1608 35.3925 47.0329 35.0989 46.9965 34.7876C46.9602 34.4763 47.0169 34.1611 47.1597 33.882C47.3024 33.603 47.5247 33.3725 47.7984 33.2197C48.0721 33.067 48.385 32.9989 48.6975 33.0239C49.0099 33.049 49.3079 33.1662 49.5538 33.3606C49.7996 33.555 49.9823 33.818 50.0787 34.1163C50.1752 34.4145 50.1809 34.7347 50.0954 35.0363C49.9796 35.4399 49.7088 35.7814 49.342 35.986C48.9753 36.1907 48.5425 36.2419 48.1382 36.1284ZM48.9498 33.2674C48.6839 33.1895 48.4008 33.1924 48.1366 33.2757C47.8723 33.359 47.6388 33.5189 47.4655 33.7352C47.2923 33.9514 47.1872 34.2143 47.1636 34.4903C47.14 34.7664 47.199 35.0433 47.333 35.2858C47.467 35.5283 47.67 35.7255 47.9163 35.8525C48.1626 35.9794 48.441 36.0303 48.7163 35.9988C48.9915 35.9672 49.2512 35.8546 49.4624 35.6752C49.6735 35.4958 49.8266 35.2577 49.9023 34.9912C50.0037 34.6361 49.9605 34.2553 49.7821 33.9319C49.6038 33.6086 49.3048 33.3689 48.9504 33.2651L48.9498 33.2674Z" fill="#263238"/>
<path d="M52.7944 36.1851C52.4929 36.0995 52.2234 35.9265 52.0202 35.6878C51.817 35.4491 51.6891 35.1556 51.6528 34.8442C51.6164 34.5329 51.6732 34.2178 51.8159 33.9387C51.9586 33.6596 52.1809 33.4291 52.4547 33.2764C52.7284 33.1236 53.0413 33.0555 53.3537 33.0806C53.6662 33.1056 53.9642 33.2228 54.21 33.4172C54.4559 33.6117 54.6386 33.8747 54.735 34.1729C54.8314 34.4712 54.8372 34.7913 54.7517 35.0929C54.6364 35.4969 54.3656 35.8388 53.9988 36.0435C53.6319 36.2482 53.1988 36.2991 52.7944 36.1851ZM53.606 33.324C53.3401 33.2462 53.0571 33.2491 52.7928 33.3324C52.5286 33.4157 52.295 33.5756 52.1218 33.7918C51.9486 34.0081 51.8435 34.2709 51.8199 34.547C51.7963 34.8231 51.8552 35.0999 51.9892 35.3424C52.1232 35.5849 52.3262 35.7822 52.5725 35.9091C52.8188 36.0361 53.0972 36.087 53.3725 36.0554C53.6478 36.0239 53.9075 35.9112 54.1186 35.7318C54.3298 35.5524 54.4829 35.3144 54.5585 35.0478C54.6606 34.6925 54.6179 34.3112 54.4396 33.9873C54.2614 33.6635 53.9621 33.4234 53.6073 33.3195L53.606 33.324Z" fill="#263238"/>
<path d="M50.1422 34.6756L49.9663 34.587C49.9707 34.5713 50.1596 34.213 50.7934 34.1651C51.157 34.1292 51.5207 34.2323 51.8113 34.4539L51.6845 34.602C51.4321 34.4174 51.1218 34.3294 50.81 34.3539C50.2928 34.401 50.1476 34.6651 50.1422 34.6756Z" fill="#263238"/>
<path d="M59.5396 34.8055L54.7324 34.7051L54.7283 34.9032L59.5355 35.0036L59.5396 34.8055Z" fill="#263238"/>
<path d="M29.0923 56.5384L28.3503 54.2504C28.1543 53.6448 27.7884 53.1082 27.2963 52.7044L26.4363 51.9964C26.149 51.8602 25.8271 51.8149 25.5134 51.8663C25.1996 51.9178 24.9091 52.0636 24.6803 52.2844L23.3223 53.5884C23.0376 53.8618 22.8664 54.2324 22.8427 54.6264C22.819 55.0204 22.9445 55.4088 23.1943 55.7144L23.7763 56.4244C23.7763 56.4244 25.5283 59.1364 27.7643 59.9964L28.2123 59.5024C28.5709 59.1054 28.8361 58.6331 28.9884 58.1202C29.1407 57.6073 29.1762 57.0668 29.0923 56.5384Z" fill="#7A5332"/>
<path d="M49.8752 54.9625L49.7632 55.2925L49.6612 55.5845L49.4612 56.1545C49.3232 56.5325 49.1732 56.8985 49.0252 57.2645C48.7272 57.9985 48.4032 58.7145 48.0672 59.4265C47.7312 60.1385 47.3752 60.8405 47.0012 61.5365C46.6272 62.2325 46.2452 62.9205 45.8272 63.5965C45.0004 64.964 44.0928 66.281 43.1092 67.5405C42.1069 68.8327 41.0034 70.0432 39.8092 71.1605C39.6572 71.3005 39.5072 71.4425 39.3512 71.5805L38.8772 71.9905L38.7592 72.0925L38.6992 72.1445L38.5532 72.2665C38.2843 72.4831 37.9902 72.6665 37.6772 72.8125C37.3278 72.9747 36.9565 73.0852 36.5752 73.1405C36.216 73.1926 35.8513 73.196 35.4912 73.1505C34.9515 73.0809 34.4289 72.9135 33.9492 72.6565C33.6215 72.4803 33.3126 72.2712 33.0272 72.0325C32.6051 71.6806 32.2185 71.288 31.8732 70.8605C31.3214 70.1758 30.8252 69.4482 30.3892 68.6845C29.9792 67.9705 29.6172 67.2625 29.2752 66.5565C28.6032 65.1385 28.0232 63.7225 27.5052 62.2905C26.9872 60.8585 26.5232 59.4285 26.1332 57.9305C26.0389 57.5388 26.0867 57.1263 26.2682 56.7666C26.4497 56.4069 26.753 56.1233 27.1241 55.9665C27.4952 55.8096 27.91 55.7897 28.2944 55.9102C28.6789 56.0307 29.008 56.2838 29.2232 56.6245L29.2432 56.6585C30.7412 59.1305 32.2252 61.6745 33.8032 63.9745C34.1932 64.5505 34.5932 65.1085 35.0032 65.6225C35.3658 66.102 35.7629 66.5546 36.1912 66.9765C36.3264 67.1114 36.4783 67.2283 36.6432 67.3245C36.6872 67.3465 36.7052 67.3245 36.6432 67.2985C36.4927 67.2098 36.3249 67.1546 36.1512 67.1365C35.9747 67.1124 35.7957 67.1124 35.6192 67.1365C35.4204 67.1637 35.2265 67.2189 35.0432 67.3005C34.8966 67.3659 34.7583 67.4485 34.6312 67.5465L34.5952 67.5765L34.5792 67.5885L34.5892 67.5785L34.6312 67.5345L34.7172 67.4485L35.0552 67.1045L35.3832 66.7485C36.2675 65.7671 37.0866 64.7289 37.8352 63.6405C38.5892 62.5305 39.3152 61.3845 39.9752 60.1845C40.6352 58.9845 41.2612 57.7605 41.8452 56.5125C42.1372 55.8865 42.4132 55.2565 42.6832 54.6265L43.0832 53.6825L43.2692 53.2165L43.4292 52.7985L43.4812 52.6625C43.7862 51.8138 44.4159 51.121 45.2316 50.7366C46.0474 50.3521 46.9825 50.3075 47.8312 50.6125C48.6799 50.9175 49.3727 51.5471 49.7571 52.3629C50.1416 53.1787 50.1862 54.1138 49.8812 54.9625H49.8752Z" fill="#7A5332"/>
<path d="M42.6047 55.783C42.6907 57.755 39.5787 62.313 43.4207 64.955C43.8727 68.937 44.4387 72.857 45.5007 79.387H65.5487C64.7247 73.739 64.9047 67.303 67.5487 54.587C67.6942 53.8915 67.6918 53.1732 67.5416 52.4788C67.3914 51.7843 67.0968 51.1292 66.677 50.556C66.2571 49.9828 65.7214 49.5044 65.1046 49.1517C64.4877 48.799 63.8036 48.58 63.0967 48.509C62.2967 48.429 61.4487 48.361 60.5807 48.309C57.2087 48.147 54.4427 48.039 51.4767 48.309C50.4947 48.399 49.4767 48.523 48.5087 48.659C46.8152 48.9003 45.2723 49.7637 44.1808 51.0808C43.0893 52.3978 42.5274 54.0742 42.6047 55.783Z" fill="#263238"/>
<mask id="mask0_65_643" style="mask-type:luminance" maskUnits="userSpaceOnUse" x="41" y="48" width="27" height="32">
<path d="M42.6047 55.783C42.6907 57.755 39.5787 62.313 43.4207 64.955C43.8727 68.937 44.4387 72.857 45.5007 79.387H65.5487C64.7247 73.739 64.9047 67.303 67.5487 54.587C67.6942 53.8915 67.6918 53.1732 67.5416 52.4788C67.3914 51.7843 67.0968 51.1292 66.677 50.556C66.2571 49.9828 65.7214 49.5044 65.1046 49.1517C64.4877 48.799 63.8036 48.58 63.0967 48.509C62.2967 48.429 61.4487 48.361 60.5807 48.309C57.2087 48.147 54.4427 48.039 51.4767 48.309C50.4947 48.399 49.4767 48.523 48.5087 48.659C46.8152 48.9003 45.2723 49.7637 44.1808 51.0808C43.0893 52.3978 42.5274 54.0742 42.6047 55.783Z" fill="white"/>
</mask>
<g mask="url(#mask0_65_643)">
<path opacity="0.2" d="M42.5376 53.1306C43.4676 54.1026 44.8536 54.4686 45.5376 54.1666C46.2216 53.8646 45.3936 53.5486 44.6556 53.5106C43.9176 53.4726 45.0856 53.1926 46.3316 53.3286C47.5776 53.4646 47.4696 52.5846 46.1316 52.3546C44.7936 52.1246 46.1516 52.0206 47.2616 52.1006C48.3716 52.1806 48.4956 51.3866 47.1556 51.1006C45.8156 50.8146 49.6216 51.0166 48.3556 49.7006C47.0896 48.3846 46.4296 51.4666 46.4236 50.3406C46.4176 49.2146 45.4436 49.1166 45.2656 50.0146C45.0876 50.9126 44.6316 51.9546 44.6856 50.8426C44.7396 49.7306 43.7196 49.4326 43.5756 50.4426C43.4316 51.4526 42.8116 52.3146 42.9476 51.7206C43.0836 51.1266 42.9116 50.4006 42.3836 50.8646C41.8556 51.3286 41.6096 52.1586 42.5376 53.1306Z" fill="white"/>
<path opacity="0.2" d="M53.1423 54.3559C52.2023 53.3939 50.8123 53.0419 50.1423 53.3559C49.4723 53.6699 50.2903 53.9699 51.0303 54.0019C51.7703 54.0339 50.6023 54.3239 49.3563 54.2019C48.1103 54.0799 48.2243 54.9579 49.5563 55.1719C50.8883 55.3859 49.5403 55.5079 48.4283 55.4399C47.3163 55.3719 47.2023 56.1659 48.5443 56.4399C49.8863 56.7139 46.0803 56.5499 47.3583 57.8599C48.6363 59.1699 49.2663 56.0719 49.2823 57.1979C49.2983 58.3239 50.2823 58.4119 50.4443 57.5119C50.6063 56.6119 51.0583 55.5659 51.0163 56.6779C50.9743 57.7899 51.9983 58.0779 52.1303 57.0599C52.2623 56.0419 52.8743 55.1799 52.7463 55.7739C52.6183 56.3679 52.7943 57.0959 53.3183 56.6259C53.8423 56.1559 54.0803 55.3179 53.1423 54.3559Z" fill="white"/>
<path opacity="0.2" d="M39.7954 59.4397C40.7254 60.4117 42.1134 60.7797 42.7954 60.4757C43.4774 60.1717 42.6534 59.8597 41.9134 59.8217C41.1734 59.7837 42.3434 59.5037 43.5894 59.6397C44.8354 59.7757 44.7294 58.8937 43.3894 58.6657C42.0494 58.4377 43.4074 58.3297 44.5194 58.4097C45.6314 58.4897 45.7514 57.6957 44.4134 57.4097C43.0754 57.1237 46.8774 57.3277 45.6134 56.0097C44.3494 54.6917 43.6874 57.7777 43.6814 56.6517C43.6754 55.5257 42.7014 55.4277 42.5234 56.3237C42.3454 57.2197 41.8894 58.2637 41.9434 57.1537C41.9974 56.0437 40.9774 55.7417 40.8334 56.7537C40.6894 57.7657 40.0694 58.6237 40.2054 58.0317C40.3414 57.4397 40.1694 56.7097 39.6414 57.1757C39.1134 57.6417 38.8674 58.4697 39.7954 59.4397Z" fill="white"/>
<path opacity="0.2" d="M50.399 60.6665C49.459 59.7045 48.069 59.3525 47.399 59.6665C46.729 59.9805 47.549 60.2825 48.287 60.3125C49.025 60.3425 47.861 60.6345 46.613 60.5125C45.365 60.3905 45.483 61.2685 46.813 61.4845C48.143 61.7005 46.797 61.8185 45.685 61.7505C44.573 61.6825 44.461 62.4785 45.801 62.7505C47.141 63.0225 43.337 62.8585 44.617 64.1685C45.897 65.4785 46.523 62.3825 46.541 63.5065C46.559 64.6305 47.541 64.7205 47.703 63.8225C47.865 62.9245 48.317 61.8745 48.273 62.9865C48.229 64.0985 49.255 64.3865 49.389 63.3685C49.523 62.3505 50.131 61.4905 50.003 62.0845C49.875 62.6785 50.051 63.4045 50.575 62.9345C51.099 62.4645 51.339 61.6245 50.399 60.6665Z" fill="white"/>
<path opacity="0.2" d="M56.4493 54.9528C57.3773 55.9248 58.7653 56.2908 59.4493 55.9888C60.1333 55.6868 59.3073 55.3708 58.5693 55.3328C57.8313 55.2948 58.9993 55.0148 60.2433 55.1508C61.4873 55.2868 61.3833 54.4068 60.0433 54.1768C58.7033 53.9468 60.0613 53.8428 61.1733 53.9228C62.2853 54.0028 62.4053 53.2088 61.0673 52.9228C59.7293 52.6368 63.5333 52.8388 62.2673 51.5228C61.0013 50.2068 60.3433 53.2888 60.3373 52.1628C60.3313 51.0368 59.3553 50.9388 59.1793 51.8368C59.0033 52.7348 58.5433 53.7768 58.5973 52.6648C58.6513 51.5528 57.6313 51.2548 57.4873 52.2648C57.3433 53.2748 56.7233 54.1368 56.8593 53.5428C56.9953 52.9488 56.8253 52.2228 56.2953 52.6868C55.7653 53.1508 55.5193 53.9808 56.4493 54.9528Z" fill="white"/>
<path opacity="0.2" d="M67.0507 56.1782C66.1127 55.2162 64.7207 54.8642 64.0407 55.1782C63.3607 55.4922 64.1907 55.7922 64.9287 55.8242C65.6667 55.8562 64.5027 56.1462 63.2547 56.0242C62.0067 55.9022 62.1247 56.7802 63.4547 56.9962C64.7847 57.2122 63.4387 57.3302 62.3287 57.2622C61.2187 57.1942 61.1027 57.9882 62.4447 58.2622C63.7867 58.5362 59.9807 58.3702 61.2587 59.6802C62.5367 60.9902 63.1647 57.8922 63.1827 59.0182C63.2007 60.1442 64.1827 60.2322 64.3447 59.3322C64.5067 58.4322 64.9587 57.3862 64.9167 58.4982C64.8747 59.6102 65.8967 59.8982 66.0307 58.8802C66.1647 57.8622 66.7747 57.0022 66.6447 57.5962C66.5147 58.1902 66.6947 58.9162 67.2167 58.4462C67.7387 57.9762 67.9907 57.1402 67.0507 56.1782Z" fill="white"/>
<path opacity="0.2" d="M53.7075 61.264C54.6375 62.234 56.0235 62.602 56.7075 62.298C57.3915 61.994 56.5635 61.682 55.8255 61.644C55.0875 61.606 56.2555 61.326 57.5015 61.462C58.7475 61.598 58.6395 60.718 57.3015 60.488C55.9635 60.258 57.3215 60.152 58.4315 60.232C59.5415 60.312 59.6655 59.52 58.3255 59.232C56.9855 58.944 60.7915 59.15 59.5255 57.832C58.2595 56.514 57.5995 59.6 57.5935 58.474C57.5875 57.348 56.6135 57.25 56.4355 58.146C56.2575 59.042 55.8015 60.086 55.8555 58.976C55.9095 57.866 54.8895 57.564 54.7435 58.576C54.5975 59.588 53.9815 60.446 54.1155 59.854C54.2495 59.262 54.0815 58.532 53.5535 58.998C53.0255 59.464 52.7795 60.292 53.7075 61.264Z" fill="white"/>
<path opacity="0.2" d="M47.5067 67.4575C46.5667 66.4955 45.1767 66.1435 44.4967 66.4575C43.8167 66.7715 44.6467 67.0715 45.3847 67.1035C46.1227 67.1355 44.9587 67.4255 43.7107 67.3035C42.4627 67.1815 42.5807 68.0595 43.9107 68.2735C45.2407 68.4875 43.8947 68.6095 42.7827 68.5415C41.6707 68.4735 41.5587 69.2675 42.8987 69.5415C44.2387 69.8155 40.4347 69.6515 41.7147 70.9615C42.9947 72.2715 43.6207 69.1735 43.6387 70.2995C43.6567 71.4255 44.6387 71.5135 44.7987 70.6135C44.9587 69.7135 45.4147 68.6675 45.3707 69.7795C45.3267 70.8915 46.3527 71.1795 46.4867 70.1615C46.6207 69.1435 47.2287 68.2815 47.1007 68.8755C46.9727 69.4695 47.1487 70.1975 47.6727 69.7275C48.1967 69.2575 48.4467 68.4255 47.5067 67.4575Z" fill="white"/>
<path opacity="0.2" d="M44.7655 73.7661C43.8275 72.8041 42.4355 72.4521 41.7555 72.7661C41.0755 73.0801 41.9055 73.3821 42.6435 73.4121C43.3815 73.4421 42.2175 73.7341 40.9715 73.6121C39.7255 73.4901 39.8395 74.3681 41.1715 74.5841C42.5035 74.8001 41.1575 74.9181 40.0455 74.8501C38.9335 74.7821 38.8195 75.5781 40.1615 75.8501C41.5035 76.1221 37.6975 75.9581 38.9755 77.2681C40.2535 78.5781 40.8815 75.4821 40.8995 76.6061C40.9175 77.7301 41.8995 77.8201 42.0615 76.9221C42.2235 76.0241 42.6755 74.9741 42.6335 76.0861C42.5915 77.1981 43.6135 77.4861 43.7475 76.4681C43.8815 75.4501 44.4915 74.5901 44.3615 75.1841C44.2315 75.7781 44.4115 76.5041 44.9355 76.0341C45.4595 75.5641 45.7055 74.7281 44.7655 73.7661Z" fill="white"/>
<path opacity="0.2" d="M50.8157 68.0524C51.7437 69.0244 53.1317 69.3904 53.8157 69.0884C54.4997 68.7864 53.6717 68.4704 52.9337 68.4324C52.1957 68.3944 53.3637 68.1144 54.6097 68.2504C55.8557 68.3864 55.7477 67.5064 54.4097 67.2764C53.0717 67.0464 54.4297 66.9424 55.5397 67.0224C56.6497 67.1024 56.7737 66.3084 55.4337 66.0224C54.0937 65.7364 57.8997 65.9384 56.6337 64.6224C55.3677 63.3064 54.7077 66.3884 54.7017 65.2624C54.6957 64.1364 53.7217 64.0384 53.5437 64.9364C53.3657 65.8344 52.9077 66.8764 52.9637 65.7644C53.0197 64.6524 51.9977 64.3544 51.8517 65.3644C51.7057 66.3744 51.0897 67.2364 51.2237 66.6424C51.3577 66.0484 51.1897 65.3224 50.6617 65.7864C50.1337 66.2504 49.8857 67.0804 50.8157 68.0524Z" fill="white"/>
<path opacity="0.2" d="M48.0728 74.3655C49.0028 75.3355 50.3888 75.7035 51.0728 75.3995C51.7568 75.0955 50.9308 74.7835 50.1908 74.7455C49.4508 74.7075 50.6208 74.4275 51.8668 74.5635C53.1128 74.6995 53.0048 73.8195 51.6668 73.5895C50.3288 73.3595 51.6848 73.2535 52.7968 73.3335C53.9088 73.4135 54.0288 72.6215 52.6908 72.3335C51.3528 72.0455 55.1548 72.2515 53.8908 70.9335C52.6268 69.6155 51.9648 72.7015 51.9588 71.5755C51.9528 70.4495 50.9788 70.3515 50.8008 71.2475C50.6228 72.1435 50.1668 73.1875 50.2208 72.0775C50.2748 70.9675 49.2548 70.6655 49.1108 71.6775C48.9668 72.6895 48.3468 73.5475 48.4828 72.9555C48.6188 72.3635 48.4468 71.6335 47.9188 72.0995C47.3908 72.5655 47.1448 73.3935 48.0728 74.3655Z" fill="white"/>
<path opacity="0.2" d="M61.4511 69.5219C60.5131 68.5599 59.1211 68.2079 58.4411 68.5219C57.7611 68.8359 58.5911 69.1379 59.3291 69.1679C60.0671 69.1979 58.9031 69.4899 57.6551 69.3679C56.4071 69.2459 56.5251 70.1239 57.8551 70.3399C59.1851 70.5559 57.8411 70.6739 56.7291 70.6059C55.6171 70.5379 55.5031 71.3319 56.8451 71.6059C58.1871 71.8799 54.3811 71.7139 55.6591 73.0239C56.9371 74.3339 57.5651 71.2359 57.5831 72.3619C57.6011 73.4879 58.5831 73.5759 58.7451 72.6779C58.9071 71.7799 59.3591 70.7299 59.3171 71.8419C59.2751 72.9539 60.2971 73.2419 60.4311 72.2239C60.5651 71.2059 61.1751 70.3459 61.0451 70.9399C60.9151 71.5339 61.0951 72.2599 61.6191 71.7899C62.1431 71.3199 62.3911 70.4839 61.4511 69.5219Z" fill="white"/>
<path opacity="0.2" d="M58.7109 75.8344C57.7709 74.8724 56.3809 74.5204 55.7009 74.8344C55.0209 75.1484 55.8489 75.4484 56.5889 75.4804C57.3289 75.5124 56.1609 75.8024 54.9149 75.6804C53.6689 75.5584 53.7849 76.4364 55.1149 76.6504C56.4449 76.8644 55.0989 76.9864 53.9869 76.9184C52.8749 76.8504 52.7609 77.6444 54.1029 77.9184C55.4449 78.1924 51.6389 78.0284 52.9169 79.3364C54.1949 80.6444 54.8249 77.5504 54.8429 78.6764C54.8609 79.8024 55.8429 79.8904 56.0029 78.9904C56.1629 78.0904 56.6169 77.0444 56.5749 78.1544C56.5329 79.2644 57.5569 79.5544 57.6889 78.5384C57.8209 77.5224 58.4329 76.6584 58.3049 77.2524C58.1769 77.8464 58.3529 78.5744 58.8769 78.1044C59.4009 77.6344 59.6489 76.7944 58.7109 75.8344Z" fill="white"/>
<path opacity="0.2" d="M64.7587 70.1196C65.6887 71.0916 67.0747 71.4596 67.7587 71.1556C68.4427 70.8516 67.6167 70.5396 66.8767 70.5016C66.1367 70.4636 67.3067 70.1836 68.5527 70.3176C69.7987 70.4516 69.6907 69.5736 68.3527 69.3456C67.0147 69.1176 68.3707 69.0096 69.4827 69.0896C70.5947 69.1696 70.7147 68.3756 69.3767 68.0896C68.0387 67.8036 71.8407 68.0076 70.5767 66.6896C69.3127 65.3716 68.6507 68.4556 68.6447 67.3316C68.6387 66.2076 67.6647 66.1076 67.4867 67.0036C67.3087 67.8996 66.8527 68.9436 66.9067 67.8336C66.9607 66.7236 65.9407 66.4216 65.7967 67.4336C65.6527 68.4456 65.0327 69.3036 65.1687 68.7116C65.3047 68.1196 65.1327 67.3896 64.6047 67.8556C64.0767 68.3216 63.8347 69.1476 64.7587 70.1196Z" fill="white"/>
<path opacity="0.2" d="M44.7276 80.7016C45.6556 81.6736 47.0436 82.0396 47.7276 81.7356C48.4116 81.4316 47.5856 81.1196 46.8476 81.0816C46.1096 81.0436 47.2776 80.7636 48.5236 80.8996C49.7696 81.0356 49.6616 80.1556 48.3236 79.9256C46.9856 79.6956 48.3416 79.5916 49.4536 79.6716C50.5656 79.7516 50.6856 78.9576 49.3476 78.6716C48.0096 78.3856 51.8136 78.5896 50.5476 77.2716C49.2816 75.9536 48.6236 79.0376 48.6176 77.9116C48.6116 76.7856 47.6356 76.6876 47.4596 77.5836C47.2836 78.4796 46.8236 79.5256 46.8776 78.4136C46.9316 77.3016 45.9116 77.0036 45.7676 78.0136C45.6236 79.0236 45.0036 79.8836 45.1396 79.2916C45.2756 78.6996 45.1056 77.9716 44.5756 78.4356C44.0456 78.8996 43.7976 79.7296 44.7276 80.7016Z" fill="white"/>
<path opacity="0.2" d="M62.0187 76.4255C62.9467 77.3975 64.3347 77.7635 65.0187 77.4615C65.7027 77.1595 64.8767 76.8435 64.1387 76.8055C63.4007 76.7675 64.5687 76.4875 65.8147 76.6235C67.0607 76.7595 66.9527 75.8795 65.6147 75.6495C64.2767 75.4195 65.6327 75.3155 66.7447 75.3955C67.8567 75.4755 67.9767 74.6815 66.6387 74.3955C65.3007 74.1095 69.1047 74.3115 67.8387 72.9955C66.5727 71.6795 65.9147 74.7615 65.9087 73.6355C65.9027 72.5095 64.9267 72.4115 64.7507 73.3095C64.5747 74.2075 64.1147 75.2495 64.1687 74.1375C64.2227 73.0255 63.2027 72.7375 63.0587 73.7375C62.9147 74.7375 62.2947 75.6255 62.4347 75.0255C62.5747 74.4255 62.4007 73.7055 61.8707 74.1695C61.3407 74.6335 61.0887 75.4595 62.0187 76.4255Z" fill="white"/>
<path opacity="0.2" d="M64.3124 62.4887C63.3724 61.5267 61.9824 61.1747 61.3024 61.4887C60.6224 61.8027 61.4504 62.1027 62.1904 62.1327C62.9304 62.1627 61.7624 62.4547 60.5164 62.3327C59.2704 62.2107 59.3844 63.0887 60.7164 63.3047C62.0484 63.5207 60.7024 63.6407 59.5904 63.5707C58.4784 63.5007 58.3644 64.2987 59.7064 64.5707C61.0484 64.8427 57.2424 64.6787 58.5204 65.9887C59.7984 67.2987 60.4284 64.2027 60.4444 65.3267C60.4604 66.4507 61.4444 66.5407 61.6064 65.6427C61.7684 64.7447 62.2204 63.6967 62.1784 64.8067C62.1364 65.9167 63.1584 66.2067 63.2924 65.1907C63.4264 64.1747 64.0364 63.3107 63.9084 63.9047C63.7804 64.4987 63.9564 65.2267 64.4804 64.7547C65.0044 64.2827 65.2504 63.4507 64.3124 62.4887Z" fill="white"/>
<path opacity="0.2" d="M64.8775 45.5747C63.9375 44.6127 62.5475 44.2607 61.8775 44.5747C61.2075 44.8887 62.0255 45.1887 62.7655 45.2207C63.5055 45.2527 62.3395 45.5427 61.0915 45.4207C59.8435 45.2987 59.9615 46.1767 61.2915 46.3927C62.6215 46.6087 61.2755 46.7267 60.1635 46.6587C59.0515 46.5907 58.9395 47.3847 60.2795 47.6587C61.6195 47.9327 57.8155 47.7667 59.0955 49.0767C60.3755 50.3867 61.0015 47.2887 61.0195 48.4147C61.0375 49.5407 62.0195 49.6287 62.1795 48.7287C62.3395 47.8287 62.7955 46.7827 62.7515 47.8947C62.7075 49.0067 63.7335 49.2947 63.8675 48.2767C64.0015 47.2587 64.6095 46.3987 64.4815 46.9927C64.3535 47.5867 64.5295 48.3127 65.0535 47.8427C65.5775 47.3727 65.8155 46.5367 64.8775 45.5747Z" fill="white"/>
</g>
<path opacity="0.2" d="M62.9789 53.6016C62.6209 56.5636 63.8829 61.8536 65.6249 65.8116C65.9289 63.3376 66.3829 60.5336 67.0129 57.2856L62.9789 53.6016Z" fill="black"/>
<path d="M61.5142 48.3812C61.2102 48.3612 60.9002 48.3432 60.5882 48.3272C57.2162 48.1632 54.4502 48.0572 51.4842 48.3272L50.7082 48.4052C50.0335 49.4776 49.659 50.7114 49.6238 51.9779C49.5886 53.2443 49.894 54.497 50.5082 55.6052L50.9082 56.3532L51.4782 55.7232C55.5542 51.2252 60.6602 48.8252 60.7122 48.7952L61.5122 48.3812H61.5142Z" fill="white"/>
<path d="M59.6745 78.6637C59.5501 78.1437 59.3107 77.6582 58.9739 77.2428C58.6371 76.8275 58.2116 76.4929 57.7285 76.2637L55.5165 75.2257C55.1941 75.0737 54.8397 75.0023 54.4836 75.0177C54.1276 75.033 53.7806 75.1346 53.4725 75.3137L52.4725 75.8937C52.1981 76.0543 51.9789 76.2943 51.8439 76.5822C51.7089 76.87 51.6645 77.1921 51.7165 77.5057L52.0245 79.3637C52.0898 79.7527 52.2991 80.103 52.6107 80.3449C52.9222 80.5868 53.3134 80.7028 53.7065 80.6697L54.6205 80.5917C54.6205 80.5917 57.8465 80.6797 59.8205 79.3217L59.6745 78.6637Z" fill="#7A5332"/>
<path d="M66.8086 50.7912L67.0086 51.0652L67.1906 51.3112L67.5386 51.7932C67.7686 52.1132 67.9826 52.4372 68.1986 52.7612C68.6286 53.4072 69.0306 54.0652 69.4226 54.7332C69.8146 55.4012 70.1846 56.0752 70.5406 56.7632C70.8966 57.4512 71.2406 58.1452 71.5586 58.8552C72.8945 61.7344 73.8363 64.7805 74.3586 67.9112C74.4106 68.3112 74.4786 68.7112 74.5146 69.1252L74.5766 69.7372L74.5866 69.8512L74.5966 70.0512C74.6044 70.1845 74.6044 70.318 74.5966 70.4512C74.5966 70.5832 74.5806 70.7192 74.5646 70.8512C74.5486 70.9832 74.5226 71.1012 74.4986 71.2252C74.4024 71.6606 74.2498 72.0815 74.0446 72.4772C73.879 72.7936 73.6848 73.0942 73.4646 73.3752C73.1118 73.8158 72.7136 74.2181 72.2766 74.5752C71.5758 75.1396 70.8223 75.6352 70.0266 76.0552C69.2906 76.4432 68.5646 76.7712 67.8406 77.0732C67.1166 77.3752 66.3926 77.6292 65.6706 77.8732C64.9486 78.1172 64.2226 78.3312 63.4986 78.5312C62.7746 78.7312 62.0446 78.9092 61.3146 79.0772C60.9486 79.1572 60.5826 79.2312 60.2146 79.3052C59.8466 79.3792 59.4826 79.4352 59.0906 79.5052C58.6863 79.579 58.269 79.5036 57.9161 79.2931C57.5632 79.0826 57.2986 78.7513 57.1713 78.3605C57.0441 77.9698 57.0629 77.5462 57.2242 77.1683C57.3855 76.7903 57.6784 76.4837 58.0486 76.3052L58.1126 76.2752C60.6226 75.0272 63.2126 73.7672 65.4926 72.3712C66.0626 72.0252 66.6086 71.6652 67.1026 71.2972C67.5542 70.982 67.9742 70.6237 68.3566 70.2272C68.4698 70.1132 68.5637 69.9815 68.6346 69.8372C68.6766 69.7592 68.5946 69.7832 68.5226 70.0372C68.5117 70.0719 68.5037 70.1073 68.4986 70.1432C68.4986 70.1832 68.4846 70.2272 68.4826 70.2692C68.4806 70.3112 68.4826 70.3572 68.4826 70.4032C68.4826 70.4492 68.4826 70.4492 68.4826 70.4712V70.4892V70.4592L68.3966 69.9972C68.3446 69.6892 68.2646 69.3792 68.1966 69.0712C67.5581 66.5328 66.6335 64.0751 65.4406 61.7452C64.8526 60.5452 64.1946 59.3692 63.5126 58.2092C63.1686 57.6292 62.8106 57.0592 62.4526 56.4932L61.9046 55.6592L61.6326 55.2592L61.3846 54.9012L61.3006 54.7812C61.0379 54.4201 60.849 54.0108 60.7445 53.5766C60.6401 53.1425 60.6222 52.692 60.6918 52.2509C60.8325 51.3601 61.3212 50.5617 62.0506 50.0312C62.7799 49.5008 63.6901 49.2818 64.5809 49.4225C65.022 49.4921 65.445 49.648 65.8259 49.8811C66.2067 50.1142 66.5379 50.4201 66.8006 50.7812L66.8086 50.7912Z" fill="#7A5332"/>
<path d="M28.2977 45.1692C28.2419 45.1675 28.1875 45.1873 28.1458 45.2245C28.1041 45.2617 28.0783 45.3135 28.0737 45.3692L27.9657 47.8612C27.964 47.8996 27.9532 47.9371 27.934 47.9704C27.9149 48.0037 27.888 48.032 27.8557 48.0527C27.8233 48.0735 27.7865 48.0862 27.7482 48.0898C27.7099 48.0934 27.6713 48.0877 27.6357 48.0732L27.2357 47.9072C27.1904 47.8882 27.152 47.8557 27.1255 47.8143C27.0991 47.7729 27.0859 47.7243 27.0877 47.6752L27.1977 45.1172C27.2016 45.0876 27.1993 45.0574 27.191 45.0287C27.1826 45 27.1684 44.9734 27.1492 44.9504C27.13 44.9275 27.1063 44.9088 27.0795 44.8955C27.0527 44.8822 27.0235 44.8747 26.9936 44.8733C26.9637 44.8719 26.9339 44.8767 26.906 44.8875C26.8781 44.8982 26.8527 44.9146 26.8315 44.9357C26.8102 44.9567 26.7936 44.9819 26.7826 45.0097C26.7717 45.0376 26.7666 45.0673 26.7677 45.0972L26.6577 47.6572C26.6554 47.7064 26.6381 47.7537 26.6081 47.7927C26.578 47.8317 26.5367 47.8605 26.4897 47.8752L26.0757 48.0052C26.039 48.0168 26.0001 48.0194 25.9622 48.0127C25.9243 48.0061 25.8886 47.9905 25.858 47.9671C25.8274 47.9438 25.8029 47.9135 25.7865 47.8787C25.7701 47.8439 25.7623 47.8057 25.7637 47.7672L25.8717 45.2752C25.8729 45.2469 25.8685 45.2185 25.8587 45.1919C25.8489 45.1652 25.834 45.1407 25.8148 45.1198C25.7956 45.099 25.7724 45.0821 25.7467 45.0701C25.7209 45.0582 25.6931 45.0514 25.6647 45.0502C25.6363 45.049 25.608 45.0535 25.5814 45.0632C25.5547 45.073 25.5302 45.0879 25.5093 45.1071C25.4884 45.1263 25.4715 45.1495 25.4596 45.1752C25.4476 45.201 25.4409 45.2289 25.4397 45.2572L25.3177 48.0892C25.3061 48.3713 25.3724 48.6512 25.5092 48.8981C25.6461 49.1451 25.8483 49.3496 26.0937 49.4892C26.2166 49.5597 26.3163 49.6642 26.3809 49.7903C26.4456 49.9163 26.4722 50.0583 26.4577 50.1992C26.2977 51.7792 25.9117 55.5592 25.6077 58.1112C25.2077 61.4052 25.7157 61.9992 26.2537 62.0232C26.7917 62.0472 27.3457 61.4972 27.2357 58.1812C27.1517 55.6132 27.0917 51.8132 27.0677 50.2252C27.0654 50.0836 27.1042 49.9444 27.1795 49.8244C27.2548 49.7044 27.3632 49.6088 27.4917 49.5492C27.7483 49.4313 27.9674 49.245 28.1251 49.0107C28.2828 48.7765 28.373 48.5033 28.3857 48.2212L28.5077 45.3892C28.5083 45.3324 28.4866 45.2776 28.4474 45.2366C28.4082 45.1955 28.3545 45.1713 28.2977 45.1692Z" fill="#263238"/>
<path d="M24.7192 42.3574C23.9792 44.6694 27.4151 47.9934 30.2371 46.1434C28.1531 44.4654 24.7192 42.3574 24.7192 42.3574Z" fill="#151F6D"/>
<path opacity="0.5" d="M25.359 42.7578C24.959 44.5138 27.457 46.8878 29.577 45.6318C28.115 44.5278 26.303 43.3558 25.359 42.7578Z" fill="white"/>
</svg>
