<svg width="14" height="16" viewBox="0 0 14 16" fill="none" xmlns="http://www.w3.org/2000/svg">
<path d="M5.5 0C5.10218 0 4.72064 0.158035 4.43934 0.43934C4.15804 0.720644 4 1.10218 4 1.5V2.5C4 2.89782 4.15804 3.27936 4.43934 3.56066C4.72064 3.84196 5.10218 4 5.5 4H8.5C8.89782 4 9.27936 3.84196 9.56066 3.56066C9.84196 3.27936 10 2.89782 10 2.5V1.5C10 1.10218 9.84196 0.720644 9.56066 0.43934C9.27936 0.158035 8.89782 0 8.5 0L5.5 0ZM8.5 1C8.63261 1 8.75979 1.05268 8.85355 1.14645C8.94732 1.24021 9 1.36739 9 1.5V2.5C9 2.63261 8.94732 2.75979 8.85355 2.85355C8.75979 2.94732 8.63261 3 8.5 3H5.5C5.36739 3 5.24021 2.94732 5.14645 2.85355C5.05268 2.75979 5 2.63261 5 2.5V1.5C5 1.36739 5.05268 1.24021 5.14645 1.14645C5.24021 1.05268 5.36739 1 5.5 1H8.5Z" fill="white"/>
<path d="M3 1.5H2C1.46957 1.5 0.960859 1.71071 0.585786 2.08579C0.210714 2.46086 0 2.96957 0 3.5V14C0 14.5304 0.210714 15.0391 0.585786 15.4142C0.960859 15.7893 1.46957 16 2 16H12C12.5304 16 13.0391 15.7893 13.4142 15.4142C13.7893 15.0391 14 14.5304 14 14V3.5C14 2.96957 13.7893 2.46086 13.4142 2.08579C13.0391 1.71071 12.5304 1.5 12 1.5H11V2.5C11 2.8283 10.9353 3.15339 10.8097 3.45671C10.6841 3.76002 10.4999 4.03562 10.2678 4.26777C10.0356 4.49991 9.76002 4.68406 9.45671 4.8097C9.15339 4.93534 8.8283 5 8.5 5H5.5C4.83696 5 4.20107 4.73661 3.73223 4.26777C3.26339 3.79893 3 3.16304 3 2.5V1.5ZM9 8C9 7.73478 9.10536 7.48043 9.29289 7.29289C9.48043 7.10536 9.73478 7 10 7C10.2652 7 10.5196 7.10536 10.7071 7.29289C10.8946 7.48043 11 7.73478 11 8V13C11 13.2652 10.8946 13.5196 10.7071 13.7071C10.5196 13.8946 10.2652 14 10 14C9.73478 14 9.48043 13.8946 9.29289 13.7071C9.10536 13.5196 9 13.2652 9 13V8ZM3 12C3 11.7348 3.10536 11.4804 3.29289 11.2929C3.48043 11.1054 3.73478 11 4 11C4.26522 11 4.51957 11.1054 4.70711 11.2929C4.89464 11.4804 5 11.7348 5 12V13C5 13.2652 4.89464 13.5196 4.70711 13.7071C4.51957 13.8946 4.26522 14 4 14C3.73478 14 3.48043 13.8946 3.29289 13.7071C3.10536 13.5196 3 13.2652 3 13V12ZM7 9C7.26522 9 7.51957 9.10536 7.70711 9.29289C7.89464 9.48043 8 9.73478 8 10V13C8 13.2652 7.89464 13.5196 7.70711 13.7071C7.51957 13.8946 7.26522 14 7 14C6.73478 14 6.48043 13.8946 6.29289 13.7071C6.10536 13.5196 6 13.2652 6 13V10C6 9.73478 6.10536 9.48043 6.29289 9.29289C6.48043 9.10536 6.73478 9 7 9Z" fill="white"/>
</svg>
