<svg width="26" height="26" viewBox="0 0 26 26" fill="none" xmlns="http://www.w3.org/2000/svg">
<path d="M12.7388 24.4775C19.2219 24.4775 24.4775 19.2219 24.4775 12.7388C24.4775 6.25563 19.2219 1 12.7388 1C6.25563 1 1 6.25563 1 12.7388C1 19.2219 6.25563 24.4775 12.7388 24.4775Z" fill="#8CC63E" stroke="white" stroke-width="1.66667" stroke-linecap="round" stroke-linejoin="round"/>
<path d="M8.82562 10.1302H8.83867H8.82562ZM16.6515 10.1302H16.6645H16.6515ZM9.47778 16.6517C9.90282 17.0855 10.4102 17.4302 10.9701 17.6655C11.53 17.9007 12.1312 18.0219 12.7385 18.0219C13.3459 18.0219 13.9471 17.9007 14.507 17.6655C15.0669 17.4302 15.5743 17.0855 15.9993 16.6517" fill="#8CC63E"/>
<path d="M8.82562 10.1302H8.83867M16.6515 10.1302H16.6645M9.47778 16.6517C9.90282 17.0855 10.4102 17.4302 10.9701 17.6655C11.53 17.9007 12.1312 18.0219 12.7385 18.0219C13.3459 18.0219 13.9471 17.9007 14.507 17.6655C15.0669 17.4302 15.5743 17.0855 15.9993 16.6517" stroke="white" stroke-width="1.66667" stroke-linecap="round" stroke-linejoin="round"/>
</svg>
