<svg width="17" height="17" viewBox="0 0 17 17" fill="none" xmlns="http://www.w3.org/2000/svg">
<path d="M14.2692 2.1543H2.73077C1.77489 2.1543 1 2.92919 1 3.88507V14.2697C1 15.2256 1.77489 16.0005 2.73077 16.0005H14.2692C15.2251 16.0005 16 15.2256 16 14.2697V3.88507C16 2.92919 15.2251 2.1543 14.2692 2.1543Z" stroke="#9F9F9F" stroke-width="1.5" stroke-linejoin="round"/>
<path d="M9.94229 8.5003C10.4202 8.5003 10.8077 8.11285 10.8077 7.63492C10.8077 7.15698 10.4202 6.76953 9.94229 6.76953C9.46435 6.76953 9.0769 7.15698 9.0769 7.63492C9.0769 8.11285 9.46435 8.5003 9.94229 8.5003Z" fill="#9F9F9F"/>
<path d="M12.8268 8.5003C13.3047 8.5003 13.6922 8.11285 13.6922 7.63492C13.6922 7.15698 13.3047 6.76953 12.8268 6.76953C12.3489 6.76953 11.9614 7.15698 11.9614 7.63492C11.9614 8.11285 12.3489 8.5003 12.8268 8.5003Z" fill="#9F9F9F"/>
<path d="M9.94229 11.3851C10.4202 11.3851 10.8077 10.9976 10.8077 10.5197C10.8077 10.0417 10.4202 9.6543 9.94229 9.6543C9.46435 9.6543 9.0769 10.0417 9.0769 10.5197C9.0769 10.9976 9.46435 11.3851 9.94229 11.3851Z" fill="#9F9F9F"/>
<path d="M12.8268 11.3851C13.3047 11.3851 13.6922 10.9976 13.6922 10.5197C13.6922 10.0417 13.3047 9.6543 12.8268 9.6543C12.3489 9.6543 11.9614 10.0417 11.9614 10.5197C11.9614 10.9976 12.3489 11.3851 12.8268 11.3851Z" fill="#9F9F9F"/>
<path d="M4.17312 11.3851C4.65106 11.3851 5.03851 10.9976 5.03851 10.5197C5.03851 10.0417 4.65106 9.6543 4.17312 9.6543C3.69519 9.6543 3.30774 10.0417 3.30774 10.5197C3.30774 10.9976 3.69519 11.3851 4.17312 11.3851Z" fill="#9F9F9F"/>
<path d="M7.05765 11.3851C7.53558 11.3851 7.92303 10.9976 7.92303 10.5197C7.92303 10.0417 7.53558 9.6543 7.05765 9.6543C6.57971 9.6543 6.19226 10.0417 6.19226 10.5197C6.19226 10.9976 6.57971 11.3851 7.05765 11.3851Z" fill="#9F9F9F"/>
<path d="M4.17312 14.2689C4.65106 14.2689 5.03851 13.8814 5.03851 13.4035C5.03851 12.9255 4.65106 12.5381 4.17312 12.5381C3.69519 12.5381 3.30774 12.9255 3.30774 13.4035C3.30774 13.8814 3.69519 14.2689 4.17312 14.2689Z" fill="#9F9F9F"/>
<path d="M7.05765 14.2689C7.53558 14.2689 7.92303 13.8814 7.92303 13.4035C7.92303 12.9255 7.53558 12.5381 7.05765 12.5381C6.57971 12.5381 6.19226 12.9255 6.19226 13.4035C6.19226 13.8814 6.57971 14.2689 7.05765 14.2689Z" fill="#9F9F9F"/>
<path d="M9.94229 14.2689C10.4202 14.2689 10.8077 13.8814 10.8077 13.4035C10.8077 12.9255 10.4202 12.5381 9.94229 12.5381C9.46435 12.5381 9.0769 12.9255 9.0769 13.4035C9.0769 13.8814 9.46435 14.2689 9.94229 14.2689Z" fill="#9F9F9F"/>
<path d="M3.88452 1V2.15385M13.1153 1V2.15385" stroke="#9F9F9F" stroke-width="1.5" stroke-linecap="round" stroke-linejoin="round"/>
<path d="M16 5.03809H1" stroke="#9F9F9F" stroke-width="1.5" stroke-linejoin="round"/>
</svg>
