<svg width="14" height="17" viewBox="0 0 14 17" fill="none" xmlns="http://www.w3.org/2000/svg">
<path d="M2.04211 2.28224C3.34959 0.974767 5.12291 0.240234 6.97196 0.240234C8.82101 0.240234 10.5943 0.974767 11.9018 2.28224C13.2093 3.58972 13.9438 5.36304 13.9438 7.21209C13.9438 9.06114 13.2093 10.8345 11.9018 12.1419L10.9514 13.0819C10.2508 13.7689 9.342 14.6529 8.22423 15.7338C7.88829 16.0587 7.43926 16.2402 6.97196 16.2402C6.50465 16.2402 6.05563 16.0587 5.71968 15.7338L2.92447 13.0147C2.57217 12.6696 2.27912 12.3789 2.04211 12.1419C1.39469 11.4946 0.881117 10.726 0.53073 9.88012C0.180342 9.03425 0 8.12765 0 7.21209C0 6.29652 0.180342 5.38992 0.53073 4.54405C0.881117 3.69819 1.39469 2.92962 2.04211 2.28224ZM11.0523 3.13097C10.5163 2.59509 9.88009 2.17001 9.17987 1.88001C8.47965 1.59001 7.72917 1.44077 6.97127 1.4408C6.21338 1.44084 5.46291 1.59016 4.76272 1.88022C4.06253 2.17029 3.42633 2.59543 2.89044 3.13137C2.35456 3.66731 1.92948 4.30356 1.63948 5.00377C1.34948 5.70399 1.20024 6.45447 1.20027 7.21237C1.20031 7.97027 1.34963 8.72073 1.63969 9.42092C1.92976 10.1211 2.3549 10.7573 2.89084 11.2932L4.08227 12.4686C4.73723 13.11 5.56194 13.9107 6.5548 14.8707C6.66675 14.9788 6.81632 15.0392 6.97196 15.0392C7.1276 15.0392 7.27716 14.9788 7.38911 14.8707L10.1075 12.2284C10.4838 11.8593 10.7985 11.5478 11.0523 11.2932C12.1344 10.211 12.7423 8.74329 12.7423 7.21289C12.7423 5.68248 12.1344 4.21476 11.0523 3.13257M6.97196 5.02941C7.28761 5.02941 7.60017 5.09158 7.8918 5.21238C8.18343 5.33317 8.44841 5.51022 8.67161 5.73343C8.89481 5.95663 9.07186 6.22161 9.19266 6.51323C9.31345 6.80486 9.37562 7.11742 9.37562 7.43308C9.37562 7.74873 9.31345 8.06129 9.19266 8.35292C9.07186 8.64455 8.89481 8.90953 8.67161 9.13273C8.44841 9.35593 8.18343 9.53298 7.8918 9.65378C7.60017 9.77457 7.28761 9.83675 6.97196 9.83675C6.34217 9.82525 5.74205 9.567 5.30073 9.11755C4.85941 8.6681 4.61215 8.06337 4.61215 7.43348C4.61215 6.80358 4.85941 6.19886 5.30073 5.74941C5.74205 5.29996 6.34217 5.0417 6.97196 5.03021M6.97196 6.23124C6.653 6.23124 6.3471 6.35795 6.12156 6.58349C5.89603 6.80902 5.76932 7.11492 5.76932 7.43388C5.76932 7.75284 5.89603 8.05873 6.12156 8.28427C6.3471 8.50981 6.653 8.63651 6.97196 8.63651C7.28544 8.62842 7.58336 8.49821 7.80222 8.27363C8.02108 8.04905 8.14356 7.74786 8.14356 7.43428C8.14356 7.12069 8.02108 6.81951 7.80222 6.59493C7.58336 6.37035 7.28544 6.24013 6.97196 6.23204" fill="#767579"/>
</svg>
