<svg width="28" height="28" viewBox="0 0 28 28" fill="none" xmlns="http://www.w3.org/2000/svg">
<path d="M7 22.1668V22.7793C7 23.2654 6.83472 23.6738 6.50417 24.0043C6.17361 24.3349 5.75556 24.5002 5.25 24.5002C4.76389 24.5002 4.3505 24.3298 4.00984 23.9892C3.66917 23.6485 3.49922 23.2355 3.5 22.7502V14.0002L5.95 7.00016C6.06667 6.65016 6.2755 6.36822 6.5765 6.15433C6.8775 5.94044 7.21311 5.8335 7.58334 5.8335H20.4167C20.7861 5.8335 21.1217 5.94044 21.4235 6.15433C21.7253 6.36822 21.9341 6.65016 22.05 7.00016L24.5 14.0002V22.7793C24.5 23.2654 24.3347 23.6738 24.0042 24.0043C23.6736 24.3349 23.2556 24.5002 22.75 24.5002C22.2639 24.5002 21.8509 24.3298 21.511 23.9892C21.1711 23.6485 21.0008 23.2355 21 22.7502V22.1668H7ZM6.76667 11.6668H21.2333L20.0083 8.16683H7.99167L6.76667 11.6668ZM8.75 18.6668C9.23611 18.6668 9.6495 18.4965 9.99017 18.1558C10.3308 17.8152 10.5008 17.4022 10.5 16.9168C10.5 16.4307 10.3297 16.0173 9.989 15.6767C9.64834 15.336 9.23534 15.1661 8.75 15.1668C8.26389 15.1668 7.8505 15.3372 7.50984 15.6778C7.16917 16.0185 6.99922 16.4315 7 16.9168C7 17.4029 7.17034 17.8163 7.511 18.157C7.85167 18.4977 8.26467 18.6676 8.75 18.6668ZM19.25 18.6668C19.7361 18.6668 20.1495 18.4965 20.4902 18.1558C20.8308 17.8152 21.0008 17.4022 21 16.9168C21 16.4307 20.8297 16.0173 20.489 15.6767C20.1483 15.336 19.7353 15.1661 19.25 15.1668C18.7639 15.1668 18.3505 15.3372 18.0098 15.6778C17.6692 16.0185 17.4992 16.4315 17.5 16.9168C17.5 17.4029 17.6703 17.8163 18.011 18.157C18.3517 18.4977 18.7647 18.6676 19.25 18.6668Z" fill="#929292"/>
</svg>
