<svg width="34" height="34" viewBox="0 0 34 34" fill="none" xmlns="http://www.w3.org/2000/svg">
<path d="M16.6533 32.3067C25.2984 32.3067 32.3067 25.2984 32.3067 16.6533C32.3067 8.00824 25.2984 1 16.6533 1C8.00824 1 1 8.00824 1 16.6533C1 25.2984 8.00824 32.3067 16.6533 32.3067Z" fill="white" stroke="#434343" stroke-width="1.66667" stroke-linecap="round" stroke-linejoin="round"/>
<path d="M11.4362 11.4355H11.4536H11.4362ZM21.8718 11.4355H21.8892H21.8718ZM9.69696 18.3926C9.69696 20.2377 10.4299 22.0073 11.7346 23.312C13.0393 24.6166 14.8089 25.3496 16.654 25.3496C18.4991 25.3496 20.2687 24.6166 21.5734 23.312C22.8781 22.0073 23.611 20.2377 23.611 18.3926M23.611 18.3926H9.69696H23.611Z" fill="white"/>
<path d="M11.4362 11.4355H11.4536M21.8718 11.4355H21.8892M9.69696 18.3926C9.69696 20.2377 10.4299 22.0073 11.7346 23.312C13.0393 24.6166 14.8089 25.3496 16.654 25.3496C18.4991 25.3496 20.2687 24.6166 21.5734 23.312C22.8781 22.0073 23.611 20.2377 23.611 18.3926M23.611 18.3926H9.69696" stroke="#434343" stroke-width="1.66667" stroke-linecap="round" stroke-linejoin="round"/>
</svg>
