<?xml version="1.0" encoding="utf-8"?>
<!-- Generator: Adobe Illustrator 24.0.1, SVG Export Plug-In . SVG Version: 6.00 Build 0)  -->
<svg version="1.1" id="Icons" xmlns="http://www.w3.org/2000/svg" xmlns:xlink="http://www.w3.org/1999/xlink" x="0px" y="0px"
	 viewBox="0 0 512 512" style="enable-background:new 0 0 512 512;" xml:space="preserve">
<style type="text/css">
	.st0{fill:#FBD195;}
</style>
<path id="Hide" class="st0" d="M319.6,260.3l29.1-29.1c2.1,7.9,3.4,16.2,3.4,24.8c0,52.9-43.1,96-96,96c-8.6,0-16.9-1.2-24.8-3.4
	l29.1-29.1C292.1,317.4,317.4,292.1,319.6,260.3L319.6,260.3z M510,248.2c-2-3.5-29.9-52.4-84.4-93.9l-23.3,23.3
	c39.8,29.3,65,63.4,74.9,78.4c-19,28.9-93.4,128-221.2,128c-19.2,0-37-2.5-53.8-6.4l-26.3,26.3c24.2,7.4,50.7,12.1,80.1,12.1
	c167.5,0,250.5-146,254-152.2C512.7,258.9,512.7,253.1,510,248.2L510,248.2z M443.3,91.3l-352,352c-3.1,3.1-7.2,4.7-11.3,4.7
	s-8.2-1.6-11.3-4.7c-6.3-6.3-6.3-16.4,0-22.6l44.8-44.8C41.1,332.2,4.3,267.9,2,263.8c-2.7-4.8-2.7-10.7,0-15.5
	C5.5,242,88.5,96,256,96c43.3,0,80.8,9.9,112.9,24.5l51.8-51.8c6.3-6.3,16.4-6.3,22.6,0S449.6,85.1,443.3,91.3L443.3,91.3z
	 M137.3,352l40.5-40.5C166.7,295.8,160,276.7,160,256c0-52.9,43.1-96,96-96c20.7,0,39.8,6.7,55.5,17.8l32.8-32.8
	C318.4,134.7,289,128,256,128c-127.8,0-202.2,99.1-221.2,128C46.9,274.2,81.5,320.4,137.3,352L137.3,352z M201.1,288.3l87.2-87.2
	c-9.5-5.6-20.5-9.1-32.3-9.1c-35.3,0-64,28.7-64,64C192,267.8,195.4,278.8,201.1,288.3L201.1,288.3z"/>
</svg>
