<svg width="30" height="30" viewBox="0 0 30 30" fill="none" xmlns="http://www.w3.org/2000/svg">
<g clip-path="url(#clip0_323_1232)">
<path d="M15.8334 12.917L14.5834 17.0837L15.8334 18.7504L17.0834 17.0837L15.8334 12.917Z" fill="#6C78D8"/>
<path fill-rule="evenodd" clip-rule="evenodd" d="M23.3345 9.69432C22.5715 9.31259 21.8446 8.8624 21.1628 8.3493C19.877 7.37179 18.3336 5.79009 18.3336 3.70673C18.3336 1.85086 19.737 0 21.8237 0C22.792 0 23.5754 0.386673 24.1671 0.964182C24.7579 0.386673 25.5421 0 26.5113 0C28.5971 0 30.0005 1.85253 30.0005 3.70673C30.0005 5.72593 28.4496 7.30929 27.1763 8.29263C26.4924 8.81718 25.7647 9.28195 25.0012 9.68182C25.0062 11.1352 25.0296 12.5227 25.0512 13.8361C25.1012 16.7153 25.1429 19.2395 24.9687 21.3237C24.7037 24.4804 23.9212 27.0138 21.5812 28.3846C19.2803 29.7322 15.8803 30.2388 13.0644 29.8963C11.651 29.7247 10.3018 29.3296 9.28098 28.648C8.53847 28.1521 7.9493 27.4846 7.67263 26.6479C5.94176 26.5688 4.22007 26.2529 2.85838 25.6879C1.38752 25.0779 0 24.0212 0 22.367V5.9351H0.00249986C0.000858119 5.90123 2.47158e-05 5.86733 0 5.83343C0 3.53256 3.73089 1.66669 8.33347 1.66669C12.936 1.66669 16.6669 3.53256 16.6669 5.83343C16.6669 5.86676 16.6661 5.90176 16.6644 5.9351H16.6669V10.8927C18.0552 11.0934 19.3247 11.7877 20.2429 12.8482C21.161 13.9087 21.6663 15.2646 21.6662 16.6673C21.6661 18.07 21.1606 19.4258 20.2423 20.4862C19.324 21.5466 18.0544 22.2406 16.6661 22.4412C16.6278 24.1204 15.2853 25.1829 13.8044 25.7863C12.5794 26.2846 11.071 26.5596 9.52932 26.6413C9.69599 26.8646 9.921 27.0713 10.2077 27.2621C10.9327 27.7471 11.9994 28.088 13.2661 28.2421C15.8086 28.5513 18.822 28.0688 20.7395 26.9463C22.332 26.0129 23.052 24.2337 23.3079 21.1845C23.4754 19.1828 23.4345 16.7994 23.387 13.9861C23.3592 12.5556 23.3417 11.125 23.3345 9.69432ZM21.8237 1.66669C20.8387 1.66669 20.0003 2.58004 20.0003 3.70673C20.0003 4.95258 20.957 6.1001 22.1712 7.02095C22.7937 7.48947 23.4589 7.89849 24.1579 8.24263C24.8608 7.87984 25.5301 7.45539 26.1579 6.97428C27.3846 6.02593 28.3338 4.87925 28.3338 3.70756C28.3338 2.57921 27.4954 1.66669 26.5104 1.66669C25.8246 1.66669 25.2779 2.04837 24.8954 2.73754L24.1671 4.05173L23.4387 2.73754C23.0554 2.04837 22.5087 1.66669 21.8237 1.66669ZM8.33347 10.0002C11.0593 10.0002 13.4794 9.34599 15.0002 8.33347V10.8918C13.6113 11.0916 12.3408 11.7852 11.4218 12.8456C10.5028 13.9061 9.99673 15.2622 9.99642 16.6654C9.99612 18.0687 10.5016 19.425 11.4202 20.4858C12.3387 21.5467 13.6089 22.2409 14.9977 22.4412C14.9611 23.0895 14.4369 23.7287 13.176 24.2421C11.9052 24.7596 10.1493 25.0196 8.34264 24.9996C8.08692 24.9966 7.8313 24.988 7.57596 24.9737V9.9835C7.82596 9.99433 8.07847 10.0002 8.33347 10.0002ZM15.0002 5.83343C15.0002 6.0126 14.8119 6.62344 13.4811 7.28929C12.2494 7.90429 10.4318 8.33347 8.33347 8.33347C6.2351 8.33347 4.41674 7.90429 3.18589 7.28929C1.85503 6.62344 1.66669 6.0126 1.66669 5.83343C1.66669 5.65426 1.85503 5.04342 3.18589 4.37757C4.41757 3.76256 6.2351 3.33339 8.33347 3.33339C10.4318 3.33339 12.2502 3.76256 13.4811 4.37757C14.8119 5.04342 15.0002 5.65426 15.0002 5.83343ZM15.8336 20.8337C16.9387 20.8337 17.9985 20.3947 18.7799 19.6133C19.5613 18.8319 20.0003 17.772 20.0003 16.6669C20.0003 15.5619 19.5613 14.502 18.7799 13.7206C17.9985 12.9392 16.9387 12.5002 15.8336 12.5002C14.7285 12.5002 13.6687 12.9392 12.8873 13.7206C12.1059 14.502 11.6669 15.5619 11.6669 16.6669C11.6669 17.772 12.1059 18.8319 12.8873 19.6133C13.6687 20.3947 14.7285 20.8337 15.8336 20.8337Z" fill="#6C78D8"/>
</g>
<defs>
<clipPath id="clip0_323_1232">
<rect width="30" height="30" fill="white"/>
</clipPath>
</defs>
</svg>
