<svg width="15" height="14" viewBox="0 0 15 14" fill="none" xmlns="http://www.w3.org/2000/svg">
<path fill-rule="evenodd" clip-rule="evenodd" d="M14.9179 6.99915C14.9179 7.23122 14.8258 7.45378 14.6617 7.61787C14.4976 7.78197 14.275 7.87415 14.0429 7.87415H3.9052L7.66245 11.6297C7.7438 11.711 7.80833 11.8076 7.85236 11.9139C7.89639 12.0202 7.91905 12.1341 7.91905 12.2492C7.91905 12.3642 7.89639 12.4781 7.85236 12.5844C7.80833 12.6907 7.7438 12.7873 7.66245 12.8687C7.58109 12.95 7.48451 13.0145 7.37822 13.0586C7.27192 13.1026 7.158 13.1253 7.04295 13.1253C6.92789 13.1253 6.81397 13.1026 6.70767 13.0586C6.60138 13.0145 6.5048 12.95 6.42345 12.8687L1.17345 7.61865C1.09196 7.53737 1.02731 7.44081 0.983199 7.33451C0.939087 7.22821 0.916382 7.11425 0.916382 6.99915C0.916382 6.88406 0.939087 6.7701 0.983199 6.66379C1.02731 6.55749 1.09196 6.46093 1.17345 6.37965L6.42345 1.12965C6.58775 0.965351 6.81059 0.873047 7.04295 0.873047C7.2753 0.873047 7.49814 0.965351 7.66245 1.12965C7.82675 1.29395 7.91905 1.51679 7.91905 1.74915C7.91905 1.98151 7.82675 2.20435 7.66245 2.36865L3.9052 6.12415H14.0429C14.275 6.12415 14.4976 6.21634 14.6617 6.38043C14.8258 6.54453 14.9179 6.76709 14.9179 6.99915Z" fill="black"/>
</svg>
