<svg width="16" height="16" viewBox="0 0 16 16" fill="none" xmlns="http://www.w3.org/2000/svg">
<g clip-path="url(#clip0_5_2492)">
<path d="M2.84401 16H9.40651V14.0625H10.8128C11.5881 14.0625 12.219 13.4316 12.219 12.6562V11.4291L10.9234 10.7812L12.219 10.1334V9.19592L14.4165 8.09717L12.2158 5.89648C12.1865 4.98584 11.9555 4.09888 11.5398 3.29565C12.5066 2.72412 13.1565 1.6709 13.1565 0.46875V0H6.36806C2.98378 0 0.0633674 2.6322 0.00135568 5.97827C-0.0278191 7.54858 0.538587 9.04797 1.5962 10.2003C2.39528 11.0709 2.83839 12.0862 2.84389 13.0592L2.84401 16ZM12.8339 7.84033L11.2815 8.61658V9.55408L8.82704 10.7812L11.2815 12.0084V12.6562C11.2815 12.9147 11.0712 13.125 10.8128 13.125H8.46901V15.0625H3.78151L3.78139 13.0535C3.77797 12.4509 3.64381 11.8403 3.391 11.25H4.53993L5.49452 9.34094C6.12282 9.20044 6.59401 8.63879 6.59401 7.96875H5.65651C5.65651 8.22717 5.44618 8.4375 5.18776 8.4375C4.92921 8.4375 4.71901 8.22717 4.71901 7.96875V6.09375C4.71901 5.83533 4.92921 5.625 5.18776 5.625C5.44618 5.625 5.65651 5.83533 5.65651 6.09375V6.5625H6.59401V6.09375C6.59401 5.9696 6.57765 5.84912 6.54726 5.73438L9.09853 3.75H9.87526C10.1487 3.75 10.4143 3.71643 10.6685 3.65308C11.0704 4.40027 11.2815 5.23682 11.2815 6.09375V6.28796L12.8339 7.84033ZM0.938612 5.99561C0.990369 3.20654 3.42604 0.937134 6.36806 0.937134H12.1719C11.9541 2.00562 11.0071 2.8125 9.87526 2.8125H8.77687L6.0171 4.95898C5.78432 4.78845 5.49769 4.6875 5.18776 4.6875C4.41237 4.6875 3.78151 5.31836 3.78151 6.09375V7.96875C3.78151 8.50061 4.07838 8.96448 4.51503 9.20349L3.96046 10.3125H2.87697C2.70338 10.0553 2.50648 9.80566 2.28688 9.56641C1.39284 8.59216 0.913953 7.3241 0.938612 5.99561Z" fill="#151F6D"/>
<path d="M15.2906 8.48657L15.7098 9.32507L13.835 10.2625L13.4156 9.42395L15.2906 8.48657Z" fill="#151F6D"/>
<path d="M14.0938 11.25H16V12.1875H14.0938V11.25Z" fill="#151F6D"/>
<path d="M15.2905 14.9511L13.4155 14.0135L13.8348 13.175L15.7097 14.1125L15.2905 14.9511Z" fill="#151F6D"/>
</g>
<defs>
<clipPath id="clip0_5_2492">
<rect width="16" height="16" fill="white"/>
</clipPath>
</defs>
</svg>
