<svg width="22" height="22" viewBox="0 0 22 22" fill="none" xmlns="http://www.w3.org/2000/svg">
<path d="M19.9676 1.64393C19.4522 1.12314 18.8384 0.70968 18.1619 0.427492C17.4853 0.145303 16.7594 0 16.0262 0C15.293 0 14.5671 0.145303 13.8905 0.427492C13.214 0.70968 12.6002 1.12314 12.0848 1.64393L1.63235 12.0832C0.587162 13.1272 0 14.5432 0 16.0196C0 17.496 0.587162 18.912 1.63235 19.9561C2.14778 20.4769 2.76155 20.8903 3.43812 21.1725C4.11469 21.4547 4.84059 21.6 5.57379 21.6C6.30698 21.6 7.03289 21.4547 7.70945 21.1725C8.38602 20.8903 8.99979 20.4769 9.51522 19.9561L19.9676 9.51684C21.0128 8.47275 21.6 7.0568 21.6 5.58039C21.6 4.10398 21.0128 2.68802 19.9676 1.64393ZM8.60064 19.0426C7.79787 19.8444 6.70907 20.2948 5.57379 20.2948C4.4385 20.2948 3.34971 19.8444 2.54694 19.0426C1.74417 18.2409 1.29318 17.1535 1.29318 16.0196C1.29318 14.8858 1.74417 13.7983 2.54694 12.9966L7.31586 8.24456L13.3587 14.2797L8.60064 19.0426ZM19.0531 8.60341L14.2841 13.3554L8.24133 7.32026L12.9994 2.55736C13.8021 1.75561 14.8909 1.30519 16.0262 1.30519C17.1615 1.30519 18.2503 1.75561 19.0531 2.55736C19.8558 3.35912 20.3068 4.44653 20.3068 5.58039C20.3068 6.71424 19.8558 7.80166 19.0531 8.60341ZM17.4199 6.04798C17.5388 6.17318 17.6042 6.33976 17.6022 6.51234C17.6001 6.68492 17.5308 6.84991 17.409 6.97228L14.7414 9.53859C14.6231 9.65689 14.4625 9.72338 14.295 9.72345C14.2067 9.72496 14.119 9.70727 14.0382 9.67159C13.9573 9.63592 13.8852 9.58311 13.8268 9.51684C13.767 9.45644 13.7197 9.38476 13.6878 9.30597C13.6559 9.22718 13.64 9.14284 13.641 9.05785C13.6421 8.97287 13.66 8.88894 13.6937 8.81092C13.7275 8.73291 13.7764 8.66237 13.8377 8.60341L16.4944 6.0371C16.5558 5.97699 16.6285 5.92957 16.7083 5.89757C16.7881 5.86556 16.8734 5.84961 16.9594 5.85062C17.0454 5.85163 17.1303 5.86959 17.2093 5.90345C17.2884 5.93732 17.3599 5.98643 17.4199 6.04798Z" fill="#434343"/>
</svg>
