<svg width="118" height="119" viewBox="0 0 118 119" fill="none" xmlns="http://www.w3.org/2000/svg">
<g clip-path="url(#clip0_566_3560)">
<mask id="mask0_566_3560" style="mask-type:alpha" maskUnits="userSpaceOnUse" x="0" y="0" width="118" height="119">
<path d="M117.779 59.3656C117.779 91.8287 91.4624 118.145 58.9993 118.145C26.5362 118.145 0.219696 91.8287 0.219696 59.3656C0.219696 26.9025 26.5362 0.585938 58.9993 0.585938C91.4624 0.585938 117.779 26.9025 117.779 59.3656Z" fill="#F8F7F7"/>
</mask>
<g mask="url(#mask0_566_3560)">
<rect x="0.219696" y="0.585938" width="117.559" height="117.559" fill="#F8F7F7"/>
<path d="M49.056 135.133H63.2993L55.8163 74.1506C55.6358 72.8756 55.0089 71.706 54.0471 70.8498C53.0853 69.9936 51.851 69.5063 50.5637 69.4746H-11.5858L-2.47707 135.133H49.056Z" fill="#407BFF"/>
<path opacity="0.1" d="M49.056 135.133H63.2993L55.8163 74.1506C55.6358 72.8756 55.0089 71.706 54.0471 70.8498C53.0853 69.9936 51.851 69.5063 50.5637 69.4746H-11.5858L-2.47707 135.133H49.056Z" fill="white"/>
<path d="M3.88725 135.132H-10.3561L-17.846 74.1498C-17.9377 73.5638 -17.8996 72.9648 -17.7344 72.3952C-17.5692 71.8255 -17.281 71.2991 -16.89 70.8531C-16.499 70.407 -16.0148 70.0524 -15.4716 69.814C-14.9285 69.5757 -14.3396 69.4596 -13.7467 69.4738H-8.8831C-7.59701 69.5071 -6.36434 69.9951 -5.40397 70.8512C-4.44361 71.7073 -3.8177 72.876 -3.63739 74.1498L3.88725 135.132Z" fill="#407BFF"/>
<path opacity="0.2" d="M3.88725 135.132H-10.3561L-17.846 74.1498C-17.9377 73.5638 -17.8996 72.9648 -17.7344 72.3952C-17.5692 71.8255 -17.281 71.2991 -16.89 70.8531C-16.499 70.407 -16.0148 70.0524 -15.4716 69.814C-14.9285 69.5757 -14.3396 69.4596 -13.7467 69.4738H-8.8831C-7.59701 69.5071 -6.36434 69.9951 -5.40397 70.8512C-4.44361 71.7073 -3.8177 72.876 -3.63739 74.1498L3.88725 135.132Z" fill="black"/>
<path d="M12.2804 143.373L9.70275 113.879C9.65247 113.238 9.38119 112.633 8.93518 112.17C8.48917 111.706 7.89607 111.411 7.25706 111.336L6.19403 111.197C5.33975 111.089 4.54829 110.692 3.95155 110.071C3.3548 109.45 2.98881 108.643 2.91459 107.786L2.44213 102.408C2.39793 101.887 2.46223 101.363 2.63097 100.868C2.79971 100.373 3.06922 99.9191 3.42246 99.5338C3.77571 99.1486 4.20502 98.8408 4.68327 98.6299C5.16151 98.419 5.6783 98.3096 6.20098 98.3086H-17.6027C-18.1254 98.3096 -18.6422 98.419 -19.1204 98.6299C-19.5987 98.8408 -20.028 99.1486 -20.3813 99.5338C-20.7345 99.9191 -21.004 100.373 -21.1727 100.868C-21.3415 101.363 -21.4058 101.887 -21.3616 102.408L-20.8891 107.786C-20.8149 108.643 -20.4489 109.45 -19.8522 110.071C-19.2554 110.692 -18.464 111.089 -17.6097 111.197L-16.5466 111.336C-15.9076 111.411 -15.3145 111.706 -14.8685 112.17C-14.4225 112.633 -14.1512 113.238 -14.101 113.879L-11.5094 143.373C-11.4171 144.414 -10.9375 145.382 -10.1655 146.086C-9.39343 146.789 -8.38529 147.178 -7.3406 147.174H16.4631C15.416 147.181 14.4044 146.794 13.6295 146.09C12.8545 145.386 12.3729 144.416 12.2804 143.373Z" fill="#407BFF"/>
<g opacity="0.3">
<path d="M12.2804 143.373L9.70275 113.879C9.65247 113.238 9.38119 112.633 8.93518 112.17C8.48917 111.706 7.89607 111.411 7.25706 111.336L6.19403 111.197C5.33975 111.089 4.54829 110.692 3.95155 110.071C3.3548 109.45 2.98881 108.643 2.91459 107.786L2.44213 102.408C2.39793 101.887 2.46223 101.363 2.63097 100.868C2.79971 100.373 3.06922 99.9191 3.42246 99.5338C3.77571 99.1486 4.20502 98.8408 4.68327 98.6299C5.16151 98.419 5.6783 98.3096 6.20098 98.3086H-17.6027C-18.1254 98.3096 -18.6422 98.419 -19.1204 98.6299C-19.5987 98.8408 -20.028 99.1486 -20.3813 99.5338C-20.7345 99.9191 -21.004 100.373 -21.1727 100.868C-21.3415 101.363 -21.4058 101.887 -21.3616 102.408L-20.8891 107.786C-20.8149 108.643 -20.4489 109.45 -19.8522 110.071C-19.2554 110.692 -18.464 111.089 -17.6097 111.197L-16.5466 111.336C-15.9076 111.411 -15.3145 111.706 -14.8685 112.17C-14.4225 112.633 -14.1512 113.238 -14.101 113.879L-11.5094 143.373C-11.4171 144.414 -10.9375 145.382 -10.1655 146.086C-9.39343 146.789 -8.38529 147.178 -7.3406 147.174H16.4631C15.416 147.181 14.4044 146.794 13.6295 146.09C12.8545 145.386 12.3729 144.416 12.2804 143.373Z" fill="black"/>
</g>
<path d="M77.7859 106.493C77.9838 104.26 79.0105 102.181 80.6642 100.666C82.3178 99.1512 84.4785 98.3103 86.721 98.3086H65.9952C63.753 98.3088 61.5923 99.1495 59.9394 100.665C58.2866 102.18 57.2617 104.26 57.0671 106.493L55.0174 129.873H75.7432L77.7859 106.493Z" fill="#407BFF"/>
<path opacity="0.3" d="M77.7859 106.493C77.9838 104.26 79.0105 102.181 80.6642 100.666C82.3178 99.1512 84.4785 98.3103 86.721 98.3086H65.9952C63.753 98.3088 61.5923 99.1495 59.9394 100.665C58.2866 102.18 57.2617 104.26 57.0671 106.493L55.0174 129.873H75.7432L77.7859 106.493Z" fill="black"/>
<path d="M30.4495 115.852H21.8896C20.8902 115.852 19.9316 116.248 19.2243 116.954C18.517 117.66 18.1187 118.618 18.1168 119.617V126.1C18.1168 126.595 18.2145 127.085 18.4041 127.543C18.5938 128 18.8718 128.415 19.2223 128.765C19.5727 129.115 19.9886 129.392 20.4463 129.581C20.904 129.77 21.3945 129.867 21.8896 129.866H30.4495V115.852Z" fill="#407BFF"/>
<path opacity="0.3" d="M30.4495 115.852H21.8896C20.8902 115.852 19.9316 116.248 19.2243 116.954C18.517 117.66 18.1187 118.618 18.1168 119.617V126.1C18.1168 126.595 18.2145 127.085 18.4041 127.543C18.5938 128 18.8718 128.415 19.2223 128.765C19.5727 129.115 19.9886 129.392 20.4463 129.581C20.904 129.77 21.3945 129.867 21.8896 129.866H30.4495V115.852Z" fill="black"/>
<path d="M71.9773 115.852H30.7412C28.6614 115.852 26.9754 117.538 26.9754 119.617V126.107C26.9754 128.187 28.6614 129.873 30.7412 129.873H71.9773C74.0571 129.873 75.7431 128.187 75.7431 126.107V119.617C75.7431 117.538 74.0571 115.852 71.9773 115.852Z" fill="#407BFF"/>
<path d="M95.9269 98.3088H86.7209C84.4784 98.3105 82.3177 99.1514 80.6641 100.666C79.0105 102.181 77.9837 104.26 77.7858 106.494L75.7431 129.873H26.4126L24.3699 106.494C24.1716 104.255 23.1409 102.172 21.4814 100.657C19.8219 99.1414 17.6543 98.3035 15.407 98.3088H6.20098C5.6783 98.3098 5.16151 98.4192 4.68326 98.6301C4.20502 98.841 3.77571 99.1488 3.42246 99.534C3.06921 99.9193 2.7997 100.374 2.63097 100.868C2.46223 101.363 2.39793 101.887 2.44213 102.408L2.91458 107.786C2.98881 108.644 3.35479 109.45 3.95154 110.071C4.54829 110.692 5.33974 111.089 6.19402 111.197L7.25706 111.336C7.89606 111.411 8.48917 111.706 8.93518 112.17C9.38119 112.634 9.65247 113.238 9.70274 113.879L12.2804 143.373C12.3727 144.414 12.8523 145.382 13.6244 146.086C14.3964 146.79 15.4045 147.178 16.4492 147.174H85.7204C86.7651 147.178 87.7732 146.79 88.5452 146.086C89.3173 145.382 89.7969 144.414 89.8892 143.373L92.4669 113.879C92.5171 113.238 92.7884 112.634 93.2344 112.17C93.6804 111.706 94.2736 111.411 94.9126 111.336L95.9756 111.197C96.8299 111.089 97.6213 110.692 98.2181 110.071C98.8148 109.45 99.1808 108.644 99.255 107.786L99.7275 102.408C99.7731 101.884 99.7084 101.355 99.5376 100.857C99.3667 100.359 99.0935 99.9024 98.7356 99.5163C98.3776 99.1302 97.9428 98.8233 97.4591 98.6153C96.9753 98.4074 96.4534 98.303 95.9269 98.3088Z" fill="#407BFF"/>
<path opacity="0.1" d="M95.9269 98.3088H86.7209C84.4784 98.3105 82.3177 99.1514 80.6641 100.666C79.0105 102.181 77.9837 104.26 77.7858 106.494L75.7431 129.873H26.4126L24.3699 106.494C24.1716 104.255 23.1409 102.172 21.4814 100.657C19.8219 99.1414 17.6543 98.3035 15.407 98.3088H6.20098C5.6783 98.3098 5.16151 98.4192 4.68326 98.6301C4.20502 98.841 3.77571 99.1488 3.42246 99.534C3.06921 99.9193 2.7997 100.374 2.63097 100.868C2.46223 101.363 2.39793 101.887 2.44213 102.408L2.91458 107.786C2.98881 108.644 3.35479 109.45 3.95154 110.071C4.54829 110.692 5.33974 111.089 6.19402 111.197L7.25706 111.336C7.89606 111.411 8.48917 111.706 8.93518 112.17C9.38119 112.634 9.65247 113.238 9.70274 113.879L12.2804 143.373C12.3727 144.414 12.8523 145.382 13.6244 146.086C14.3964 146.79 15.4045 147.178 16.4492 147.174H85.7204C86.7651 147.178 87.7732 146.79 88.5452 146.086C89.3173 145.382 89.7969 144.414 89.8892 143.373L92.4669 113.879C92.5171 113.238 92.7884 112.634 93.2344 112.17C93.6804 111.706 94.2736 111.411 94.9126 111.336L95.9756 111.197C96.8299 111.089 97.6213 110.692 98.2181 110.071C98.8148 109.45 99.1808 108.644 99.255 107.786L99.7275 102.408C99.7731 101.884 99.7084 101.355 99.5376 100.857C99.3667 100.359 99.0935 99.9024 98.7356 99.5163C98.3776 99.1302 97.9428 98.8233 97.4591 98.6153C96.9753 98.4074 96.4534 98.303 95.9269 98.3088Z" fill="black"/>
<path d="M77.7649 73.1992C77.7649 73.1992 60.5965 85.2886 56.2262 81.1685C51.8559 77.0483 48.5834 66.2095 48.5834 66.2095L56.0178 62.5966L60.0823 72.7059C60.2772 73.1845 60.6516 73.568 61.1254 73.7745C61.5993 73.9809 62.135 73.9938 62.6183 73.8106L75.5832 69.2666C75.6507 67.6958 76.0685 66.1599 76.806 64.7713C77.5356 63.5207 79.1197 62.8745 80.0994 61.8115C82.6701 59.0323 82.1073 63.1107 82.1073 63.1107L82.8021 68.0785C82.8571 68.5009 82.7896 68.9302 82.6076 69.3153L81.6905 71.2121C81.5607 71.4906 81.3735 71.7385 81.1412 71.9397C80.9089 72.1408 80.6368 72.2906 80.3426 72.3793L77.7649 73.1992Z" fill="#CE7A63"/>
<path d="M47.6454 65.6536C47.6454 65.6536 43.8727 56.0862 47.0479 51.4867C50.2231 46.8871 57.0738 60.5955 57.0738 60.5955L57.6575 60.8942L58.6163 62.6729C58.6163 62.6729 51.7169 65.2853 48.4028 68.1548L47.3606 65.9523L47.6454 65.6536Z" fill="#263238"/>
<g opacity="0.2">
<path d="M47.6454 65.6536C47.6454 65.6536 43.8727 56.0862 47.0479 51.4867C50.2231 46.8871 57.0738 60.5955 57.0738 60.5955L57.6575 60.8942L58.6163 62.6729C58.6163 62.6729 51.7169 65.2853 48.4028 68.1548L47.3606 65.9523L47.6454 65.6536Z" fill="white"/>
</g>
<path d="M43.1642 98.9472C43.1642 98.9472 83.4624 93.7154 89.0972 102.129C94.732 110.543 104.869 153.058 104.869 153.058L96.6566 156.268C96.6566 156.268 82.983 130.595 78.849 114.58L68.8717 114.163L41.5106 116.213C41.5106 116.213 30.4425 103.547 43.1642 98.9472Z" fill="#407BFF"/>
<path opacity="0.4" d="M43.1642 98.9472C43.1642 98.9472 83.4624 93.7154 89.0972 102.129C94.732 110.543 104.869 153.058 104.869 153.058L96.6566 156.268C96.6566 156.268 82.983 130.595 78.849 114.58L68.8717 114.163L41.5106 116.213C41.5106 116.213 30.4425 103.547 43.1642 98.9472Z" fill="white"/>
<path d="M16.9355 59.3015C17.0883 63.3799 20.3469 70.8976 21.6323 78.1305C22.6508 83.8102 23.1554 89.5702 23.14 95.3406C23.14 95.3406 45.1789 100.948 55.2604 95.278C54.2927 90.1922 53.6798 85.0452 53.4262 79.8744C52.8912 68.5631 53.1205 54.688 50.6053 51.8811C46.2281 47.0175 36.5704 46.5728 27.2671 47.219C17.9638 47.8651 16.7896 55.3272 16.9355 59.3015Z" fill="#263238"/>
<g opacity="0.1">
<path d="M16.9355 59.3015C17.0883 63.3799 20.3469 70.8976 21.6323 78.1305C22.6508 83.8102 23.1554 89.5702 23.14 95.3406C23.14 95.3406 45.1789 100.948 55.2604 95.278C54.2927 90.1922 53.6798 85.0452 53.4262 79.8744C52.8912 68.5631 53.1205 54.688 50.6053 51.8811C46.2281 47.0175 36.5704 46.5728 27.2671 47.219C17.9638 47.8651 16.7896 55.3272 16.9355 59.3015Z" fill="white"/>
</g>
<path d="M14.2605 61.957C14.2605 61.957 10.3836 73.5115 11.6273 79.8203C12.871 86.129 36.0563 86.657 36.0563 86.657C36.0563 86.657 39.3288 87.6645 41.0727 87.3518C42.558 87.2581 44.0489 87.3964 45.4916 87.7618C45.7905 87.8263 46.1013 87.8101 46.3919 87.7149C46.6825 87.6196 46.9425 87.4488 47.1452 87.2198L48.2013 86.0456C48.3982 85.8268 48.5366 85.5617 48.6034 85.2749C48.6702 84.9882 48.6634 84.6892 48.5835 84.4059C48.1319 82.8009 46.9993 79.7716 44.9358 79.8689C42.1566 80.0009 36.5982 82.5786 36.5982 82.5786L21.8408 77.3537C21.5725 77.2887 21.3198 77.1711 21.0974 77.0077C20.8749 76.8443 20.6871 76.6383 20.5449 76.4017C20.4027 76.1652 20.3089 75.9027 20.269 75.6296C20.229 75.3565 20.2437 75.0782 20.3122 74.8108L23.0358 63.4231L14.2605 61.957Z" fill="#CE7A63"/>
<path d="M12.5653 61.5392C12.5653 61.5392 15.8656 50.0195 22.0632 48.0185C28.2607 46.0174 24.8424 63.5541 24.8424 63.5541L25.1689 64.2489L24.7937 66.5765C24.7937 66.5765 16.5604 64.096 11.4606 64.3948L12.0581 61.6156L12.5653 61.5392Z" fill="#263238"/>
<g opacity="0.2">
<path d="M12.5653 61.5392C12.5653 61.5392 15.8656 50.0195 22.0632 48.0185C28.2607 46.0174 24.8424 63.5541 24.8424 63.5541L25.1689 64.2489L24.7937 66.5765C24.7937 66.5765 16.5604 64.096 11.4606 64.3948L12.0581 61.6156L12.5653 61.5392Z" fill="white"/>
</g>
<path d="M43.9839 48.0399L43.5671 47.9079C39.8777 46.6573 42.1454 44.0707 43 41.5L34 36C34.3752 39.474 34.5 39 32.9645 46.9213L34.2082 47.9774L36.2926 50.4578L41.4896 55.7105L42.24 55.5646L43.4837 54.5363L44.4842 51.8822L43.9839 48.0399Z" fill="#CE7A63"/>
<path opacity="0.2" d="M37.5572 37.8965L41.0938 41.4886C40.8797 42.085 40.7169 42.6987 40.6074 43.3228C39.2178 42.9893 37.1334 41.5094 37.1334 39.9878C37.152 39.2714 37.2954 38.5636 37.5572 37.8965Z" fill="black"/>
<path d="M32.286 30.0552C33.7797 35.6975 34.2849 38.1156 37.7846 40.4767C43.0524 44.0433 49.7344 40.9903 49.987 35.0199C50.2035 29.6486 47.7284 21.3314 41.6236 20.1544C40.278 19.8884 38.8859 19.9671 37.5797 20.3828C36.2735 20.7986 35.0966 21.5378 34.1608 22.53C33.2251 23.5221 32.5616 24.7344 32.2334 26.0516C31.9053 27.3687 31.9234 28.7469 32.286 30.0552Z" fill="#CE7A63"/>
<path d="M28.7318 21.645C26.7123 22.9207 25.9481 25.4539 26.0027 27.8605C26.0664 31.6966 30.6058 35.2431 32.6617 33.5784C34.4811 32.6737 35.7001 27.2453 34.0991 23.9611C36.9282 22.1516 49 23.373 49 23.373C48.3541 20.9845 47.9902 18.4784 45.4067 16.8952C45.4067 16.8952 42.159 14.8957 39.0933 15.0043C32.5162 15.2485 29.1321 16.4609 28.7318 21.645Z" fill="#263238"/>
<path d="M46.9206 25.7409C46.868 25.7544 46.813 25.7556 46.7598 25.7442C46.7067 25.7328 46.657 25.7091 46.6146 25.6752C46.3034 25.3877 45.931 25.1747 45.5256 25.052C45.1201 24.9293 44.6921 24.9002 44.2738 24.9669C44.189 24.9888 44.099 24.976 44.0237 24.9316C43.9483 24.8871 43.8937 24.8145 43.8718 24.7297C43.85 24.645 43.8627 24.555 43.9072 24.4796C43.9517 24.4043 44.0243 24.3496 44.1091 24.3278C44.6325 24.2307 45.1714 24.2572 45.6828 24.4051C46.1942 24.5529 46.664 24.8182 47.0548 25.1796C47.1186 25.2392 47.157 25.321 47.1622 25.4081C47.1673 25.4952 47.1388 25.5809 47.0825 25.6476C47.0403 25.6957 46.9834 25.7285 46.9206 25.7409Z" fill="#263238"/>
<path d="M23.9947 95.453C23.9947 95.453 22.084 116.373 32.2628 116.95C42.4415 117.527 64.3693 112.017 64.3693 112.017C64.3693 112.017 65.3559 129.387 70.678 142.532C76.0002 155.678 76.6186 158.374 76.6186 158.374L85.5814 155.331C85.5814 155.331 82.17 108.494 75.6042 100.664C67.5515 91.048 30.2687 96.7245 30.2687 96.7245L23.9947 95.453Z" fill="#407BFF"/>
<path opacity="0.5" d="M23.9947 95.453C23.9947 95.453 22.084 116.373 32.2628 116.95C42.4415 117.527 64.3693 112.017 64.3693 112.017C64.3693 112.017 65.3559 129.387 70.678 142.532C76.0002 155.678 76.6186 158.374 76.6186 158.374L85.5814 155.331C85.5814 155.331 82.17 108.494 75.6042 100.664C67.5515 91.048 30.2687 96.7245 30.2687 96.7245L23.9947 95.453Z" fill="white"/>
<path d="M30.4052 33.4373C31.1975 34.6163 32.5492 35.5014 34.1662 35.9001C36.3092 36.4062 37.3807 34.9049 36.8771 33.2855C36.3735 31.8348 34.6483 29.819 32.4732 30.013C31.7146 30.1006 31.0313 30.4216 30.5732 30.9055C30.1151 31.3895 29.9198 31.9967 30.0301 32.5939C30.0817 32.8921 30.2093 33.1789 30.4052 33.4373Z" fill="#CE7A63"/>
<path d="M76.306 56.1073L81.0028 56.948C81.0951 56.9642 81.1828 57.0001 81.26 57.0533C81.3372 57.1064 81.4021 57.1755 81.4502 57.2559C81.4983 57.3363 81.5285 57.4261 81.5388 57.5193C81.5492 57.6124 81.5393 57.7067 81.51 57.7957L78.5432 68.5719C78.4939 68.7646 78.375 68.9321 78.2096 69.0424C78.0441 69.1527 77.8438 69.198 77.647 69.1695L72.9432 68.3357C72.8515 68.3186 72.7646 68.2821 72.6882 68.2286C72.6118 68.1751 72.5478 68.1059 72.5004 68.0256C72.453 67.9453 72.4233 67.8558 72.4134 67.7631C72.4035 67.6703 72.4136 67.5766 72.4429 67.4881L75.4028 56.7048C75.4549 56.5124 75.5754 56.3457 75.7417 56.2357C75.9079 56.1257 76.1085 56.0801 76.306 56.1073Z" fill="#407BFF"/>
<path opacity="0.5" d="M76.306 56.1073L81.0028 56.948C81.0951 56.9642 81.1828 57.0001 81.26 57.0533C81.3372 57.1064 81.4021 57.1755 81.4502 57.2559C81.4983 57.3363 81.5285 57.4261 81.5388 57.5193C81.5492 57.6124 81.5393 57.7067 81.51 57.7957L78.5432 68.5719C78.4939 68.7646 78.375 68.9321 78.2096 69.0424C78.0441 69.1527 77.8438 69.198 77.647 69.1695L72.9432 68.3357C72.8515 68.3186 72.7646 68.2821 72.6882 68.2286C72.6118 68.1751 72.5478 68.1059 72.5004 68.0256C72.453 67.9453 72.4233 67.8558 72.4134 67.7631C72.4035 67.6703 72.4136 67.5766 72.4429 67.4881L75.4028 56.7048C75.4549 56.5124 75.5754 56.3457 75.7417 56.2357C75.9079 56.1257 76.1085 56.0801 76.306 56.1073Z" fill="white"/>
<path d="M72.9432 68.3357L77.647 69.1695C77.7913 69.1911 77.9388 69.1693 78.0708 69.1069L73.638 68.3149C73.5488 68.2929 73.4648 68.2536 73.3909 68.199C73.317 68.1444 73.2547 68.0757 73.2075 67.9969C73.1603 67.918 73.1293 67.8306 73.1161 67.7397C73.1029 67.6488 73.1079 67.5562 73.1308 67.4672L76.0976 56.6909C76.1313 56.5721 76.1913 56.4624 76.2731 56.3698C76.3548 56.2772 76.4563 56.2042 76.57 56.1559L76.306 56.1073C76.1085 56.0801 75.9079 56.1257 75.7417 56.2357C75.5754 56.3457 75.4549 56.5124 75.4028 56.7048L72.4429 67.4881C72.4136 67.5766 72.4035 67.6703 72.4134 67.7631C72.4233 67.8558 72.453 67.9453 72.5004 68.0256C72.5478 68.1059 72.6118 68.1751 72.6882 68.2286C72.7646 68.2821 72.8515 68.3186 72.9432 68.3357Z" fill="#407BFF"/>
<path d="M77.4245 57.128C77.4147 57.2394 77.365 57.3436 77.2846 57.4214C77.2042 57.4993 77.0985 57.5455 76.9868 57.5518C76.9345 57.5542 76.8822 57.5451 76.8338 57.5253C76.7853 57.5055 76.7417 57.4754 76.706 57.4371C76.6703 57.3987 76.6434 57.3531 76.6271 57.3033C76.6108 57.2536 76.6055 57.2008 76.6116 57.1488C76.6214 57.0374 76.6711 56.9332 76.7515 56.8553C76.8319 56.7775 76.9376 56.7312 77.0493 56.725C77.1016 56.7226 77.1538 56.7317 77.2023 56.7515C77.2508 56.7713 77.2944 56.8014 77.3301 56.8397C77.3658 56.878 77.3927 56.9237 77.409 56.9735C77.4253 57.0232 77.4306 57.076 77.4245 57.128Z" fill="#263238"/>
<path d="M54.8385 88.7843C46.4593 88.7843 44.896 73.332 44.1456 65.8908C44.0344 64.793 43.9372 63.8064 43.8399 63.1741C43.1034 58.1299 39.5599 50.2509 37.3922 46.499C35.1619 42.6568 32.744 35.3267 32.7231 35.2503L32.9524 35.1738C32.9524 35.2503 35.3842 42.5526 37.6006 46.3739C39.817 50.1953 43.3396 58.0465 44.0831 63.1185C44.1734 63.8133 44.2707 64.7443 44.3888 65.8491C45.1322 73.2139 46.6747 88.5203 54.8107 88.5203H54.8594C64.253 88.4438 71.8819 67.2456 71.9583 67.0372L72.1876 67.1136C70.804 70.8343 69.1241 74.4379 67.1642 77.8899C62.9954 85.0741 58.8822 88.7287 54.8663 88.7635L54.8385 88.7843Z" fill="#407BFF"/>
<path d="M32.9802 32.7621C33.1191 33.1859 33.5429 33.4569 33.1191 33.5681C33.0156 33.6102 32.9046 33.6305 32.7929 33.6277C32.6812 33.625 32.5713 33.5992 32.47 33.5521C32.3687 33.505 32.2782 33.4375 32.2042 33.3538C32.1301 33.2701 32.0741 33.1721 32.0397 33.0658C32.0052 32.9596 31.993 32.8473 32.0038 32.7361C32.0147 32.625 32.0483 32.5172 32.1027 32.4196C32.157 32.322 32.2309 32.2366 32.3197 32.1688C32.4085 32.1011 32.5104 32.0523 32.6189 32.0256C33.0427 31.8867 32.8412 32.3383 32.9802 32.7621Z" fill="white"/>
<path d="M32.0837 32.8672C32.0837 32.8672 31.8336 32.8672 32.7299 35.6464L33.0912 35.5283C33.0912 35.5283 32.3964 33.5481 32.8758 33.3327C32.7836 33.2041 32.6655 33.0962 32.5291 33.016C32.3927 32.9358 32.241 32.8851 32.0837 32.8672Z" fill="white"/>
<path d="M45.0856 45.7114C45.7689 44.221 46.2155 42.6315 46.4089 41.0018L46.1621 41.0586C45.96 42.6325 45.5215 44.1667 44.8617 45.6082C43.1981 49.2675 43.8198 62.6083 43.8233 63.1698L44.0641 63.1547C44.0556 63.0186 43.4437 49.3171 45.0856 45.7114Z" fill="#407BFF"/>
<path d="M73.2419 70.8771L74.1591 68.5009L73.7561 68.3828L72.8459 70.7312L73.2419 70.8771Z" fill="#407BFF"/>
<path opacity="0.3" d="M73.2419 70.8771L74.1591 68.5009L73.7561 68.3828L72.8459 70.7312L73.2419 70.8771Z" fill="black"/>
<path d="M46.3532 95.2371H68.6631L79.0642 76.5332H66.8705L59.5057 89.5537L56.4833 94.855L47.2286 94.5631L46.3532 95.2371Z" fill="#407BFF"/>
<path opacity="0.6" d="M46.3532 95.2371H68.6631L79.0642 76.5332H66.8705L59.5057 89.5537L56.4833 94.855L47.2286 94.5631L46.3532 95.2371Z" fill="white"/>
<path d="M66.537 76.5332L56.3166 94.2505H34.7015V94.7021C34.7033 94.8434 34.7602 94.9785 34.8602 95.0784C34.9601 95.1784 35.0951 95.2353 35.2365 95.2371H57.0114L67.4333 76.5332H66.537Z" fill="#407BFF"/>
<path d="M38.6016 28.9216C38.6916 29.4816 39.0516 29.9216 39.4216 29.8516C39.7916 29.7816 40.0116 29.3216 39.9316 28.7616C39.8516 28.2016 39.4716 27.7616 39.1116 27.8316C38.7516 27.9016 38.5116 28.3616 38.6016 28.9216Z" fill="#263238"/>
<path d="M44.9316 28.1716C45.0216 28.7216 45.3816 29.1716 45.7516 29.1016C46.1216 29.0316 46.3416 28.5716 46.2616 28.0116C46.1816 27.4516 45.8016 27.0116 45.4416 27.0816C45.0816 27.1516 44.8416 27.6116 44.9316 28.1716Z" fill="#263238"/>
<path d="M43 28C43.9327 29.6291 45.0796 31.1257 46.41 32.45C46.0634 32.7691 45.6507 33.008 45.2014 33.1497C44.752 33.2915 44.277 33.3325 43.81 33.27L43 28Z" fill="#BA4D3C"/>
<path d="M36.3316 27.1206C36.2793 27.1351 36.224 27.1351 36.1717 27.1206C36.1335 27.0998 36.0998 27.0715 36.0725 27.0375C36.0453 27.0036 36.025 26.9645 36.013 26.9227C36.0009 26.8809 35.9972 26.8371 36.0021 26.7938C36.007 26.7505 36.0205 26.7087 36.0417 26.6706C36.285 26.2092 36.6389 25.8152 37.0717 25.5238C37.5044 25.2324 38.0025 25.0526 38.5216 25.0006C38.5645 24.9979 38.6074 25.0039 38.6479 25.0181C38.6884 25.0324 38.7257 25.0546 38.7574 25.0835C38.7891 25.1125 38.8147 25.1475 38.8326 25.1865C38.8505 25.2255 38.8604 25.2677 38.8616 25.3106C38.8644 25.354 38.8585 25.3975 38.8444 25.4385C38.8302 25.4796 38.8081 25.5175 38.7793 25.55C38.7505 25.5825 38.7156 25.609 38.6765 25.628C38.6375 25.647 38.595 25.6581 38.5516 25.6606C38.1448 25.7087 37.756 25.8561 37.4194 26.0898C37.0829 26.3234 36.8089 26.6362 36.6217 27.0006C36.5865 27.0425 36.5418 27.0752 36.4913 27.0961C36.4408 27.117 36.3861 27.1254 36.3316 27.1206Z" fill="#263238"/>
<path d="M46.01 35.42C45.6572 36.2517 45.3631 37.1071 45.13 37.98L44.66 37.93C42.51 37.7 41.59 36.93 41.22 36.05C41.0476 35.6362 40.9789 35.1864 41.02 34.74C41.0304 34.4878 41.0775 34.2385 41.16 34C42.4204 34.7374 43.8264 35.1912 45.28 35.33C45.73 35.4 46.01 35.42 46.01 35.42Z" fill="#263238"/>
<path d="M45.28 35.33L45 36.08C43 35.85 41.59 35.43 41 34.74C41.0104 34.4878 41.0575 34.2385 41.14 34C42.4064 34.7401 43.8195 35.1941 45.28 35.33Z" fill="white"/>
<path d="M44.66 37.9308C42.51 37.7008 41.59 36.9308 41.22 36.0508C42.0384 36.1475 42.8318 36.395 43.56 36.7808C44.035 37.0434 44.4187 37.4446 44.66 37.9308Z" fill="#DE5753"/>
<path opacity="0.15" d="M77.8518 21.0005H125.913C127.163 20.9873 128.402 21.2293 129.55 21.7111C130.699 22.1929 131.732 22.904 132.585 23.7989C133.437 24.6937 134.089 25.7528 134.5 26.9084C134.911 28.0641 135.071 29.2909 134.971 30.5106L134.535 36.8506C134.319 39.4123 133.138 41.804 131.223 43.5614C129.307 45.3188 126.793 46.3164 124.169 46.3607H76.1003L66 52L67.4857 30.5106C67.7002 27.9484 68.8801 25.5558 70.796 23.7981C72.7119 22.0404 75.2268 21.0433 77.8518 21.0005Z" fill="#407BFF"/>
<path opacity="0.5" d="M124 30H79V32H124V30Z" fill="#407BFF"/>
<path opacity="0.5" d="M96 36H79V37H96V36Z" fill="#407BFF"/>
<path opacity="0.5" d="M112 36H101V37H112V36Z" fill="#407BFF"/>
<path opacity="0.15" d="M72.0188 6.00022H51.819C51.2939 5.99466 50.7733 6.09615 50.2905 6.29821C49.8077 6.50026 49.3734 6.79844 49.0151 7.17371C48.6569 7.54899 48.3827 7.99311 48.2101 8.47773C48.0374 8.96235 47.97 9.47682 48.0122 9.98831L48.1956 12.647C48.2863 13.7213 48.7824 14.7243 49.5875 15.4612C50.3926 16.1982 51.4493 16.6166 52.5523 16.6351H72.755L77 19L76.3756 9.98831C76.2854 8.91383 75.7895 7.91049 74.9843 7.1734C74.1791 6.43631 73.1221 6.01815 72.0188 6.00022Z" fill="#407BFF"/>
<path opacity="0.5" d="M53 9H71V10H53V9Z" fill="#407BFF"/>
<path opacity="0.5" d="M65 12H71V13H65V12Z" fill="#407BFF"/>
<path opacity="0.5" d="M58 12H62V13H58V12Z" fill="#407BFF"/>
</g>
</g>
<defs>
<clipPath id="clip0_566_3560">
<rect width="117.559" height="117.559" fill="white" transform="translate(0.220337 0.585938)"/>
</clipPath>
</defs>
</svg>
