<svg width="118" height="118" viewBox="0 0 118 118" fill="none" xmlns="http://www.w3.org/2000/svg">
<g clip-path="url(#clip0_566_3314)">
<mask id="mask0_566_3314" style="mask-type:alpha" maskUnits="userSpaceOnUse" x="0" y="0" width="118" height="118">
<path d="M117.779 58.807C117.779 91.2701 91.4624 117.587 58.9993 117.587C26.5362 117.587 0.219696 91.2701 0.219696 58.807C0.219696 26.3439 26.5362 0.0273438 58.9993 0.0273438C91.4624 0.0273438 117.779 26.3439 117.779 58.807Z" fill="#F8F7F7"/>
</mask>
<g mask="url(#mask0_566_3314)">
<rect x="0.219696" y="0.0273438" width="117.559" height="117.559" fill="#F8F7F7"/>
<path d="M71.7278 156.188H69.2922V25.8203H66.6748V156.188H64.2393L62.5862 158.999H66.6748H69.2922H73.3808L71.7278 156.188Z" fill="#263238"/>
<path d="M87.0919 29.2526C89.5834 18.6965 83.0457 8.11935 72.4896 5.62788C61.9335 3.13642 51.3563 9.67411 48.8648 20.2302C46.3734 30.7863 52.9111 41.3635 63.4672 43.855C74.0233 46.3464 84.6004 39.8087 87.0919 29.2526Z" fill="#407BFF"/>
<path opacity="0.8" d="M67.9807 42.1875C77.6096 42.1875 85.4153 34.3818 85.4153 24.7529C85.4153 15.1241 77.6096 7.31836 67.9807 7.31836C58.3519 7.31836 50.5461 15.1241 50.5461 24.7529C50.5461 34.3818 58.3519 42.1875 67.9807 42.1875Z" fill="black"/>
<path d="M78 16H74V21H78V16Z" fill="#407BFF"/>
<path d="M74 21H69V25H74V21Z" fill="#407BFF"/>
<path d="M69 25H65V30H69V25Z" fill="#407BFF"/>
<path d="M65 30H61V34H65V30Z" fill="#407BFF"/>
<path d="M61 25H57V30H61V25Z" fill="#407BFF"/>
<path opacity="0.3" d="M71.7278 156.189H69.2922V49.532L66.6748 47.8789V156.189H64.2393L62.5862 159H66.6748H69.2922H73.3808L71.7278 156.189Z" fill="white"/>
<path d="M57.109 156.189H22.5044V80.7252L38.914 64.7344H57.109V156.189Z" fill="#263238"/>
<path opacity="0.7" d="M57.109 156.189H22.5044V80.7252L38.914 64.7344H57.109V156.189Z" fill="white"/>
<path opacity="0.2" d="M57.109 156.189H40.6994V80.7252L57.109 64.7344V156.189Z" fill="black"/>
<path opacity="0.4" d="M22.5044 80.7252H40.6994L57.109 64.7344H38.914L22.5044 80.7252Z" fill="white"/>
<path opacity="0.5" d="M40.9449 75.1236C44.8638 73.8601 47.6387 71.5891 47.1428 70.0511C46.6469 68.5131 43.0681 68.2905 39.1492 69.554C35.2303 70.8175 32.4554 73.0886 32.9513 74.6266C33.4472 76.1646 37.026 76.3871 40.9449 75.1236Z" fill="black"/>
<path opacity="0.5" d="M44.7218 71.446C43.0026 73.0716 39.3934 74.3885 36.6658 74.3885C33.9382 74.3885 33.1061 73.0716 34.8254 71.446C36.5446 69.8205 40.1538 68.498 42.8814 68.498C45.609 68.498 46.441 69.815 44.7218 71.446Z" fill="black"/>
<path d="M40.0676 72.399C43.6418 71.2466 46.1721 69.1737 45.7192 67.7689C45.2663 66.3641 42.0017 66.1595 38.4275 67.3119C34.8533 68.4643 32.323 70.5372 32.7759 71.942C33.2288 73.3468 36.4934 73.5514 40.0676 72.399Z" fill="#407BFF"/>
<path opacity="0.1" d="M42.2367 69.0333C41.052 70.1354 38.5613 71.0611 36.6768 71.0611C34.7923 71.0611 34.2247 70.1519 35.4094 69.0333C36.5941 67.9147 39.0848 67 40.9693 67C42.8538 67 43.4214 67.9037 42.2367 69.0333Z" fill="white"/>
<path opacity="0.2" d="M44.777 69.8424C42.8594 71.6608 38.8369 73.1486 35.7897 73.1486C33.8336 73.1486 32.759 72.548 32.737 71.6333C33.1337 72.1843 34.1091 72.5425 35.5913 72.5425C38.6385 72.5425 42.6665 71.0712 44.5841 69.2363C44.86 69.025 45.0909 68.7606 45.2631 68.4587C45.4354 68.1568 45.5455 67.8236 45.587 67.4785C46.0003 68.0736 45.7578 68.9112 44.777 69.8424Z" fill="black"/>
<path opacity="0.2" d="M23.9039 99.5482L23.4521 100V82.582H39.3879L39.0187 83.2708L23.9039 99.5482Z" fill="black"/>
<path opacity="0.4" d="M39.3879 82.582V100H23.4521L23.9039 99.5482L39.0187 83.2708L39.3879 82.582Z" fill="white"/>
<path d="M26.064 83.2715H23.904V85.5968H26.064V83.2715Z" fill="#263238"/>
<path d="M28.224 83.2715H26.064V85.5968H28.224V83.2715Z" fill="#263238"/>
<path d="M30.3841 83.2715H28.224V85.5968H30.3841V83.2715Z" fill="#263238"/>
<path d="M32.5441 83.2715H30.3841V85.5968H32.5441V83.2715Z" fill="#263238"/>
<path d="M34.7041 83.2715H32.5441V85.5968H34.7041V83.2715Z" fill="#263238"/>
<path d="M36.8642 83.2715H34.7042V85.5968H36.8642V83.2715Z" fill="#263238"/>
<path d="M39.0187 83.2715H36.8587V85.5968H39.0187V83.2715Z" fill="#263238"/>
<path d="M26.064 85.5957H23.904V87.921H26.064V85.5957Z" fill="#263238"/>
<path d="M28.224 85.5957H26.064V87.921H28.224V85.5957Z" fill="#263238"/>
<path d="M30.3841 85.5957H28.224V87.921H30.3841V85.5957Z" fill="#263238"/>
<path d="M32.5441 85.5957H30.3841V87.921H32.5441V85.5957Z" fill="#263238"/>
<path d="M34.7041 85.5957H32.5441V87.921H34.7041V85.5957Z" fill="#263238"/>
<path d="M36.8642 85.5957H34.7042V87.921H36.8642V85.5957Z" fill="#263238"/>
<path d="M39.0187 85.5957H36.8587V87.921H39.0187V85.5957Z" fill="#263238"/>
<path d="M26.064 87.9219H23.904V90.2472H26.064V87.9219Z" fill="#263238"/>
<path d="M28.224 87.9219H26.064V90.2472H28.224V87.9219Z" fill="#263238"/>
<path d="M30.3841 87.9219H28.224V90.2472H30.3841V87.9219Z" fill="#263238"/>
<path d="M32.5441 87.9219H30.3841V90.2472H32.5441V87.9219Z" fill="#263238"/>
<path d="M34.7041 87.9219H32.5441V90.2472H34.7041V87.9219Z" fill="#263238"/>
<path d="M36.8642 87.9219H34.7042V90.2472H36.8642V87.9219Z" fill="#263238"/>
<path d="M39.0187 87.9219H36.8587V90.2472H39.0187V87.9219Z" fill="#263238"/>
<path d="M26.064 90.2461H23.904V92.5714H26.064V90.2461Z" fill="#263238"/>
<path d="M28.224 90.2461H26.064V92.5714H28.224V90.2461Z" fill="#263238"/>
<path d="M30.3841 90.2461H28.224V92.5714H30.3841V90.2461Z" fill="#263238"/>
<path d="M32.5441 90.2461H30.3841V92.5714H32.5441V90.2461Z" fill="#263238"/>
<path d="M34.7041 90.2461H32.5441V92.5714H34.7041V90.2461Z" fill="#263238"/>
<path d="M36.8642 90.2461H34.7042V92.5714H36.8642V90.2461Z" fill="#263238"/>
<path d="M39.0187 90.2461H36.8587V92.5714H39.0187V90.2461Z" fill="#263238"/>
<path d="M26.064 92.5723H23.904V94.8976H26.064V92.5723Z" fill="#263238"/>
<path d="M28.224 92.5723H26.064V94.8976H28.224V92.5723Z" fill="#263238"/>
<path d="M30.3841 92.5723H28.224V94.8976H30.3841V92.5723Z" fill="#263238"/>
<path d="M32.5441 92.5723H30.3841V94.8976H32.5441V92.5723Z" fill="#263238"/>
<path d="M34.7041 92.5723H32.5441V94.8976H34.7041V92.5723Z" fill="#263238"/>
<path d="M36.8642 92.5723H34.7042V94.8976H36.8642V92.5723Z" fill="#263238"/>
<path d="M39.0187 92.5723H36.8587V94.8976H39.0187V92.5723Z" fill="#263238"/>
<path d="M26.064 94.8984H23.904V97.2238H26.064V94.8984Z" fill="#263238"/>
<path d="M28.224 94.8984H26.064V97.2238H28.224V94.8984Z" fill="#263238"/>
<path d="M30.3841 94.8984H28.224V97.2238H30.3841V94.8984Z" fill="#263238"/>
<path d="M32.5441 94.8984H30.3841V97.2238H32.5441V94.8984Z" fill="#263238"/>
<path d="M34.7041 94.8984H32.5441V97.2238H34.7041V94.8984Z" fill="#263238"/>
<path d="M36.8642 94.8984H34.7042V97.2238H36.8642V94.8984Z" fill="#263238"/>
<path d="M39.0187 94.8984H36.8587V97.2238H39.0187V94.8984Z" fill="#263238"/>
<path d="M26.064 97.2227H23.904V99.548H26.064V97.2227Z" fill="#263238"/>
<path d="M28.224 97.2227H26.064V99.548H28.224V97.2227Z" fill="#263238"/>
<path d="M30.3841 97.2227H28.224V99.548H30.3841V97.2227Z" fill="#263238"/>
<path d="M32.5441 97.2227H30.3841V99.548H32.5441V97.2227Z" fill="#263238"/>
<path d="M34.7041 97.2227H32.5441V99.548H34.7041V97.2227Z" fill="#263238"/>
<path d="M36.8642 97.2227H34.7042V99.548H36.8642V97.2227Z" fill="#263238"/>
<path d="M39.0187 97.2227H36.8587V99.548H39.0187V97.2227Z" fill="#263238"/>
<path d="M36.8642 85.5957H34.7042V87.921H36.8642V85.5957Z" fill="#407BFF"/>
<path d="M34.7041 87.9219H32.5441V90.2472H34.7041V87.9219Z" fill="#407BFF"/>
<path d="M32.5441 90.2461H30.3841V92.5714H32.5441V90.2461Z" fill="#407BFF"/>
<path d="M30.3841 92.5723H28.224V94.8976H30.3841V92.5723Z" fill="#407BFF"/>
<path d="M28.224 90.2461H26.064V92.5714H28.224V90.2461Z" fill="#407BFF"/>
<path d="M95.7086 156.189H61.0984V80.7252L77.5136 64.7344H95.7086V156.189Z" fill="#263238"/>
<path opacity="0.7" d="M95.7086 156.189H61.0984V80.7252L77.5136 64.7344H95.7086V156.189Z" fill="white"/>
<path opacity="0.2" d="M95.7086 156.189H79.2935V80.7252L95.7086 64.7344V156.189Z" fill="black"/>
<path opacity="0.4" d="M61.0984 80.7252H79.2935L95.7086 64.7344H77.5136L61.0984 80.7252Z" fill="white"/>
<path opacity="0.5" d="M79.5448 75.1217C83.4637 73.8582 86.2386 71.5871 85.7427 70.0491C85.2468 68.5111 81.668 68.2886 77.7491 69.5521C73.8302 70.8156 71.0553 73.0866 71.5512 74.6246C72.0471 76.1626 75.6259 76.3852 79.5448 75.1217Z" fill="black"/>
<path opacity="0.5" d="M83.316 71.446C81.5968 73.0716 77.993 74.3885 75.2599 74.3885C72.5268 74.3885 71.7058 73.0716 73.425 71.446C75.1442 69.8205 78.748 68.498 81.4811 68.498C84.2142 68.498 85.0352 69.815 83.316 71.446Z" fill="black"/>
<path d="M78.6675 72.401C82.2417 71.2486 84.772 69.1756 84.319 67.7709C83.8661 66.3661 80.6015 66.1615 77.0273 67.3138C73.4531 68.4662 70.9228 70.5392 71.3757 71.9439C71.8287 73.3487 75.0933 73.5533 78.6675 72.401Z" fill="#407BFF"/>
<path opacity="0.1" d="M80.8309 69.0333C79.6461 70.1354 77.161 71.0611 75.2765 71.0611C73.392 71.0611 72.8244 70.1519 74.0091 69.0333C75.1938 67.9147 77.679 67 79.5635 67C81.448 67 82.0266 67.9037 80.8309 69.0333Z" fill="white"/>
<path opacity="0.2" d="M83.3711 69.8424C81.459 71.6608 77.431 73.1486 74.3838 73.1486C72.4332 73.1486 71.3531 72.548 71.3366 71.6333C71.7278 72.1843 72.7087 72.5425 74.1854 72.5425C77.2381 72.5425 81.2606 71.0712 83.1782 69.2363C83.4551 69.0258 83.6866 68.7617 83.8589 68.4597C84.0312 68.1576 84.1408 67.8239 84.1811 67.4785C84.5944 68.0736 84.3574 68.9112 83.3711 69.8424Z" fill="black"/>
<path opacity="0.2" d="M62.5036 99.5482L62.0517 100V82.582H77.9875L77.6183 83.2708L62.5036 99.5482Z" fill="black"/>
<path opacity="0.4" d="M77.9875 82.582V100H62.0517L62.5036 99.5482L77.6183 83.2708L77.9875 82.582Z" fill="white"/>
<path d="M64.6636 83.2715H62.5036V85.5968H64.6636V83.2715Z" fill="#263238"/>
<path d="M66.8236 83.2715H64.6636V85.5968H66.8236V83.2715Z" fill="#263238"/>
<path d="M68.9782 83.2715H66.8181V85.5968H68.9782V83.2715Z" fill="#263238"/>
<path d="M71.1382 83.2715H68.9782V85.5968H71.1382V83.2715Z" fill="#263238"/>
<path d="M73.2982 83.2715H71.1382V85.5968H73.2982V83.2715Z" fill="#263238"/>
<path d="M75.4583 83.2715H73.2982V85.5968H75.4583V83.2715Z" fill="#263238"/>
<path d="M77.6184 83.2715H75.4583V85.5968H77.6184V83.2715Z" fill="#263238"/>
<path d="M64.6636 85.5957H62.5036V87.921H64.6636V85.5957Z" fill="#263238"/>
<path d="M66.8236 85.5957H64.6636V87.921H66.8236V85.5957Z" fill="#263238"/>
<path d="M68.9782 85.5957H66.8181V87.921H68.9782V85.5957Z" fill="#263238"/>
<path d="M71.1382 85.5957H68.9782V87.921H71.1382V85.5957Z" fill="#263238"/>
<path d="M73.2982 85.5957H71.1382V87.921H73.2982V85.5957Z" fill="#263238"/>
<path d="M75.4583 85.5957H73.2982V87.921H75.4583V85.5957Z" fill="#263238"/>
<path d="M77.6184 85.5957H75.4583V87.921H77.6184V85.5957Z" fill="#263238"/>
<path d="M64.6636 87.9219H62.5036V90.2472H64.6636V87.9219Z" fill="#263238"/>
<path d="M66.8236 87.9219H64.6636V90.2472H66.8236V87.9219Z" fill="#263238"/>
<path d="M68.9782 87.9219H66.8181V90.2472H68.9782V87.9219Z" fill="#263238"/>
<path d="M71.1382 87.9219H68.9782V90.2472H71.1382V87.9219Z" fill="#263238"/>
<path d="M73.2982 87.9219H71.1382V90.2472H73.2982V87.9219Z" fill="#263238"/>
<path d="M75.4583 87.9219H73.2982V90.2472H75.4583V87.9219Z" fill="#263238"/>
<path d="M77.6184 87.9219H75.4583V90.2472H77.6184V87.9219Z" fill="#263238"/>
<path d="M64.6636 90.2461H62.5036V92.5714H64.6636V90.2461Z" fill="#263238"/>
<path d="M66.8236 90.2461H64.6636V92.5714H66.8236V90.2461Z" fill="#263238"/>
<path d="M68.9782 90.2461H66.8181V92.5714H68.9782V90.2461Z" fill="#263238"/>
<path d="M71.1382 90.2461H68.9782V92.5714H71.1382V90.2461Z" fill="#263238"/>
<path d="M73.2982 90.2461H71.1382V92.5714H73.2982V90.2461Z" fill="#263238"/>
<path d="M75.4583 90.2461H73.2982V92.5714H75.4583V90.2461Z" fill="#263238"/>
<path d="M77.6184 90.2461H75.4583V92.5714H77.6184V90.2461Z" fill="#263238"/>
<path d="M64.6636 92.5723H62.5036V94.8976H64.6636V92.5723Z" fill="#263238"/>
<path d="M66.8236 92.5723H64.6636V94.8976H66.8236V92.5723Z" fill="#263238"/>
<path d="M68.9782 92.5723H66.8181V94.8976H68.9782V92.5723Z" fill="#263238"/>
<path d="M71.1382 92.5723H68.9782V94.8976H71.1382V92.5723Z" fill="#263238"/>
<path d="M73.2982 92.5723H71.1382V94.8976H73.2982V92.5723Z" fill="#263238"/>
<path d="M75.4583 92.5723H73.2982V94.8976H75.4583V92.5723Z" fill="#263238"/>
<path d="M77.6184 92.5723H75.4583V94.8976H77.6184V92.5723Z" fill="#263238"/>
<path d="M64.6636 94.8984H62.5036V97.2238H64.6636V94.8984Z" fill="#263238"/>
<path d="M66.8236 94.8984H64.6636V97.2238H66.8236V94.8984Z" fill="#263238"/>
<path d="M68.9782 94.8984H66.8181V97.2238H68.9782V94.8984Z" fill="#263238"/>
<path d="M71.1382 94.8984H68.9782V97.2238H71.1382V94.8984Z" fill="#263238"/>
<path d="M73.2982 94.8984H71.1382V97.2238H73.2982V94.8984Z" fill="#263238"/>
<path d="M75.4583 94.8984H73.2982V97.2238H75.4583V94.8984Z" fill="#263238"/>
<path d="M77.6184 94.8984H75.4583V97.2238H77.6184V94.8984Z" fill="#263238"/>
<path d="M64.6636 97.2227H62.5036V99.548H64.6636V97.2227Z" fill="#263238"/>
<path d="M66.8236 97.2227H64.6636V99.548H66.8236V97.2227Z" fill="#263238"/>
<path d="M68.9782 97.2227H66.8181V99.548H68.9782V97.2227Z" fill="#263238"/>
<path d="M71.1382 97.2227H68.9782V99.548H71.1382V97.2227Z" fill="#263238"/>
<path d="M73.2982 97.2227H71.1382V99.548H73.2982V97.2227Z" fill="#263238"/>
<path d="M75.4583 97.2227H73.2982V99.548H75.4583V97.2227Z" fill="#263238"/>
<path d="M77.6184 97.2227H75.4583V99.548H77.6184V97.2227Z" fill="#263238"/>
<path d="M66.8236 85.5957H64.6636V87.921H66.8236V85.5957Z" fill="#407BFF"/>
<path d="M75.4583 85.5957H73.2982V87.921H75.4583V85.5957Z" fill="#407BFF"/>
<path d="M68.9782 87.9219H66.8181V90.2472H68.9782V87.9219Z" fill="#407BFF"/>
<path d="M73.2982 87.9219H71.1382V90.2472H73.2982V87.9219Z" fill="#407BFF"/>
<path d="M71.1382 90.2461H68.9782V92.5714H71.1382V90.2461Z" fill="#407BFF"/>
<path d="M68.9782 92.5723H66.8181V94.8976H68.9782V92.5723Z" fill="#407BFF"/>
<path d="M73.2982 92.5723H71.1382V94.8976H73.2982V92.5723Z" fill="#407BFF"/>
<path d="M66.8236 94.8984H64.6636V97.2238H66.8236V94.8984Z" fill="#407BFF"/>
<path d="M75.4583 94.8984H73.2982V97.2238H75.4583V94.8984Z" fill="#407BFF"/>
<path d="M7.89491 39.2174C11.6502 43.6953 15.1083 48.4142 18.2471 53.3439C18.6132 53.8279 19.0307 54.2709 19.4921 54.6651C24.1397 58.565 30.3222 61.7595 35.7202 64.8203C36.1236 65.0259 36.4351 65.3752 36.5934 65.7994C36.7516 66.2235 36.745 66.6916 36.5749 67.1111C36.4048 67.5306 36.0835 67.8711 35.6745 68.0652C35.2656 68.2593 34.7987 68.293 34.3661 68.1596C31.1047 67.1823 27.9035 66.014 24.7793 64.6608C19.9765 62.5254 14.6839 60.0673 11.4528 55.3609L2.25893 43.8412C1.95307 43.4747 1.72239 43.0515 1.58008 42.5958C1.43778 42.1401 1.38663 41.6608 1.42955 41.1853C1.47247 40.7098 1.60862 40.2475 1.83023 39.8246C2.05184 39.4018 2.35456 39.0267 2.72112 38.7208C3.08767 38.415 3.51089 38.1843 3.96659 38.042C4.4223 37.8997 4.90158 37.8485 5.37705 37.8914C5.85253 37.9344 6.3149 38.0705 6.73775 38.2921C7.16061 38.5137 7.53567 38.8165 7.84153 39.183L7.89491 39.2174Z" fill="#E9B376"/>
<path d="M3.05385 35.0462C7.99594 34.7237 10.8363 37.944 14.2763 45.6978C12.9034 48.6374 6.24263 51.6706 6.24263 51.6706L-1.76917 45.7694C-1.76917 45.7694 2.05262 36.8092 3.05385 35.0462Z" fill="#263238"/>
<path d="M39.9369 70.0174L38.5196 70.6736C38.2566 70.7967 37.9681 70.8556 37.6779 70.8453C37.3877 70.8351 37.1041 70.7561 36.8504 70.6148L34.4354 69.2294C33.9619 68.9662 33.5598 68.5915 33.2637 68.1379C32.9676 67.6843 32.7866 67.1653 32.7362 66.626L32.6579 65.9446C34.9359 64.6866 38.3311 65.0072 38.3311 65.0072L39.3156 64.9755C39.516 64.9666 39.7162 64.9975 39.9045 65.0665C40.0929 65.1355 40.2657 65.2411 40.413 65.3774C40.5603 65.5136 40.679 65.6777 40.7624 65.8601C40.8459 66.0425 40.8923 66.2397 40.8989 66.4402L40.9761 68.3998C40.9797 68.7414 40.8832 69.0766 40.6985 69.3641C40.5139 69.6515 40.2491 69.8787 39.9369 70.0174Z" fill="#EBB376"/>
<g opacity="0.6">
<path d="M-5.22 193.82C-6.16 194.82 -6.7 195.44 -6.7 195.44C-7.63 196.14 -11.43 191.44 -11.7 190.16C-9.7 186.29 -7.85001 182.01 -6.10001 177.62C0.409994 161.34 5.64 143.46 13.12 138.25C-9.59 104.53 -12.75 81.0003 -12.75 81.0003L8.05 79.0703C8.05 79.0703 27.39 122.92 29.37 138.97C31.08 152.77 1.76 186.1 -5.22 193.82Z" fill="#407BFF"/>
</g>
<path d="M-31.4499 49.2198C-23.4499 66.4498 -21.0999 75.4298 -20.4499 83.5398L8.0001 79.0398C7.3501 69.6398 6.86009 64.0398 6.18009 58.3298C5.81501 54.4253 5.18692 50.5498 4.3001 46.7298C3.5301 42.7298 0.300091 38.4998 -3.59991 37.1198C-4.50543 36.7861 -5.46499 36.6234 -6.4299 36.6398C-7.8499 36.6398 -9.3299 36.7198 -10.7599 36.8198C-15.1081 37.1828 -19.4254 37.8511 -23.6799 38.8198C-24.8999 39.0798 -26.0799 39.3598 -27.1899 39.6598C-27.4284 39.7199 -27.6623 39.7967 -27.8899 39.8898C-28.7681 40.2291 -29.5653 40.7493 -30.2296 41.4164C-30.894 42.0835 -31.4107 42.8828 -31.7463 43.7625C-32.082 44.6422 -32.229 45.5825 -32.178 46.5226C-32.1269 47.4628 -31.8789 48.3817 -31.4499 49.2198Z" fill="#263238"/>
</g>
</g>
<defs>
<clipPath id="clip0_566_3314">
<rect width="117.559" height="117.559" fill="white" transform="translate(0.220337 0.0273438)"/>
</clipPath>
</defs>
</svg>
