<svg width="118" height="118" viewBox="0 0 118 118" fill="none" xmlns="http://www.w3.org/2000/svg">
<g clip-path="url(#clip0_566_3244)">
<mask id="mask0_566_3244" style="mask-type:alpha" maskUnits="userSpaceOnUse" x="0" y="0" width="118" height="118">
<path d="M117.78 58.807C117.78 91.2701 91.463 117.587 58.9999 117.587C26.5368 117.587 0.220276 91.2701 0.220276 58.807C0.220276 26.3439 26.5368 0.0273438 58.9999 0.0273438C91.463 0.0273438 117.78 26.3439 117.78 58.807Z" fill="#F8F7F7"/>
</mask>
<g mask="url(#mask0_566_3244)">
<rect x="0.220276" y="0.0273438" width="117.559" height="117.559" fill="#F8F7F7"/>
<path d="M87.675 18.9178C78.5255 23.235 77.6452 35.7745 81.1196 46.3661C83.5919 54.0172 77.1021 54.4198 75.585 65.1988C75.0506 69.0783 75.4412 73.0293 76.725 76.729C78.0088 80.4288 80.1493 83.7726 82.9718 86.4874C85.7943 89.2021 89.2188 91.2109 92.9658 92.3498C96.7127 93.4887 100.676 93.7253 104.532 93.0404C120.677 90.053 105.047 56.6674 110.975 45.0269C116.903 33.3864 97.508 14.2915 87.675 18.9178Z" fill="#263238"/>
<path d="M24.6776 81.8782L26.485 84.1258C26.8211 84.5412 27.2511 84.8707 27.7395 85.0873C28.228 85.3038 28.761 85.4012 29.2944 85.3713L34.3608 85.0716C35.3587 85.0122 36.3278 84.7141 37.1866 84.2024C38.0454 83.6907 38.7688 82.9804 39.2961 82.1311L39.9704 81.0635C37.2171 77.1303 31.3453 74.9108 31.3453 74.9108L29.7346 74.0961C29.0799 73.7432 28.3121 73.6644 27.5993 73.8768C26.8866 74.0892 26.2872 74.5756 25.9325 75.2292L24.2655 78.3852C23.9871 78.9444 23.8778 79.5727 23.951 80.1931C24.0241 80.8135 24.2767 81.3991 24.6776 81.8782Z" fill="#CE7A63"/>
<path d="M34.7898 64.4771L26.1973 66.3019C25.4536 66.4599 24.9787 67.1908 25.1367 67.9345L27.37 78.4508C27.528 79.1945 28.2589 79.6693 29.0026 79.5114L37.5952 77.6866C38.3389 77.5286 38.8138 76.7977 38.6558 76.054L36.4224 65.5377C36.2645 64.794 35.5335 64.3191 34.7898 64.4771Z" fill="#407BFF"/>
<path d="M8.78489 44.4203L8.0907 45.0488L10.3473 47.541L11.0415 46.9124L8.78489 44.4203Z" fill="#407BFF"/>
<path d="M41.727 53.9879L37.7502 58.6211L38.4608 59.231L42.4376 54.5978L41.727 53.9879Z" fill="#407BFF"/>
<path d="M13.393 49.514L12.6988 50.1426L22.4668 60.9303L23.161 60.3017L13.393 49.514Z" fill="#407BFF"/>
<path d="M9.25402 60.3051L8.94604 61.1895L20.62 65.2548L20.928 64.3704L9.25402 60.3051Z" fill="#407BFF"/>
<path d="M32.7015 62.6671L27.3701 63.7993C27.0412 63.8692 26.8312 64.1924 26.9011 64.5212L27.7649 68.5885C27.8347 68.9174 28.1579 69.1273 28.4868 69.0575L33.8182 67.9252C34.147 67.8554 34.357 67.5322 34.2872 67.2033L33.4234 63.1361C33.3536 62.8072 33.0303 62.5972 32.7015 62.6671Z" fill="#407BFF"/>
<path d="M32.7944 59.6096L26.0339 61.0454C25.7253 61.1109 25.5282 61.4142 25.5938 61.7229L26.1813 64.4893C26.2468 64.798 26.5502 64.995 26.8588 64.9295L33.6192 63.4937C33.9279 63.4282 34.1249 63.1249 34.0594 62.8162L33.4718 60.0498C33.4063 59.7411 33.103 59.5441 32.7944 59.6096Z" fill="#263238"/>
<path opacity="0.8" d="M36.7041 66.8379L27.3695 68.8203L28.9648 76.3319L38.2994 74.3495L36.7041 66.8379Z" fill="white"/>
<path d="M85.0715 77.2713C84.8 77.7302 84.6314 77.9736 84.416 78.3108L83.7979 79.2473L82.5618 80.9985C81.7283 82.1597 80.8667 83.2741 79.9771 84.3698C78.1978 86.5518 76.3435 88.6777 74.3582 90.6817C70.3577 94.825 65.8114 98.4041 60.8447 101.32C59.5711 102.051 58.2694 102.734 56.9208 103.362L55.9001 103.811L55.6472 103.924L55.5068 103.989L55.282 104.073C54.9765 104.198 54.6638 104.305 54.3455 104.392C53.0986 104.767 51.7973 104.928 50.4966 104.869C48.3059 104.749 46.1721 104.128 44.2596 103.053C42.7438 102.215 41.3162 101.227 39.9986 100.103C37.7367 98.1163 35.6499 95.9387 33.7616 93.5942C32.8251 92.4704 31.9636 91.356 31.102 90.2135C30.6712 89.6422 30.2498 89.071 29.8377 88.481C29.4257 87.891 29.023 87.3572 28.5454 86.608L40.4949 80.0901C40.6448 80.4741 40.907 81.0828 41.1598 81.5791C41.4127 82.0754 41.6843 82.6186 41.9652 83.1337C42.5079 84.1666 43.105 85.17 43.7539 86.1398C44.9224 87.9831 46.2987 89.6861 47.8557 91.2155C48.4705 91.8216 49.1523 92.3557 49.8879 92.8075C50.2316 93.0292 50.6122 93.1878 51.0116 93.2758H51.0959L51.2832 93.1915L52.0418 92.8544C53.0438 92.3861 54.0365 91.8617 55.0104 91.2998C56.9692 90.1246 58.8323 88.797 60.5825 87.3291C62.3633 85.814 64.0432 84.1842 65.6114 82.45C67.1935 80.67 68.6635 78.7934 70.0129 76.8311C70.6778 75.8946 71.3333 74.8645 71.942 73.8625C72.2511 73.3568 72.5414 72.8604 72.8223 72.3547L73.2157 71.6149C73.328 71.3902 73.4872 71.0811 73.5247 70.9688L85.0715 77.2713Z" fill="#407BFF"/>
<path opacity="0.7" d="M85.0715 77.2713C84.8 77.7302 84.6314 77.9736 84.416 78.3108L83.7979 79.2473L82.5618 80.9985C81.7283 82.1597 80.8667 83.2741 79.9771 84.3698C78.1978 86.5518 76.3435 88.6777 74.3582 90.6817C70.3577 94.825 65.8114 98.4041 60.8447 101.32C59.5711 102.051 58.2694 102.734 56.9208 103.362L55.9001 103.811L55.6472 103.924L55.5068 103.989L55.282 104.073C54.9765 104.198 54.6638 104.305 54.3455 104.392C53.0986 104.767 51.7973 104.928 50.4966 104.869C48.3059 104.749 46.1721 104.128 44.2596 103.053C42.7438 102.215 41.3162 101.227 39.9986 100.103C37.7367 98.1163 35.6499 95.9387 33.7616 93.5942C32.8251 92.4704 31.9636 91.356 31.102 90.2135C30.6712 89.6422 30.2498 89.071 29.8377 88.481C29.4257 87.891 29.023 87.3572 28.5454 86.608L40.4949 80.0901C40.6448 80.4741 40.907 81.0828 41.1598 81.5791C41.4127 82.0754 41.6843 82.6186 41.9652 83.1337C42.5079 84.1666 43.105 85.17 43.7539 86.1398C44.9224 87.9831 46.2987 89.6861 47.8557 91.2155C48.4705 91.8216 49.1523 92.3557 49.8879 92.8075C50.2316 93.0292 50.6122 93.1878 51.0116 93.2758H51.0959L51.2832 93.1915L52.0418 92.8544C53.0438 92.3861 54.0365 91.8617 55.0104 91.2998C56.9692 90.1246 58.8323 88.797 60.5825 87.3291C62.3633 85.814 64.0432 84.1842 65.6114 82.45C67.1935 80.67 68.6635 78.7934 70.0129 76.8311C70.6778 75.8946 71.3333 74.8645 71.942 73.8625C72.2511 73.3568 72.5414 72.8604 72.8223 72.3547L73.2157 71.6149C73.328 71.3902 73.4872 71.0811 73.5247 70.9688L85.0715 77.2713Z" fill="white"/>
<path d="M71.5487 77.9642C71.3325 83.5149 71.4169 89.0733 71.8015 94.6149C72.1012 101.845 73.6745 109.449 75.6411 121.155C79.6024 123.468 99.6244 122.513 112.436 120.855C111.658 110.601 112.932 98.8759 119.881 75.8009C121.491 70.4536 117.895 65.3123 112.164 64.7691C110.628 64.6193 108.999 64.4975 107.332 64.4226C101.482 64.0336 95.6129 64.0336 89.7633 64.4226C87.8903 64.5912 85.8675 64.816 83.9758 65.0594C77.1488 65.9491 71.7547 71.5493 71.5487 77.9642Z" fill="#407BFF"/>
<path d="M106.096 44.6523C104.569 50.2712 102.696 60.6662 106.367 64.4402C106.367 64.4402 107.482 69.9749 92.3199 69.4598C80.6419 69.0665 88.808 64.4402 88.808 64.4402C95.2323 62.9325 95.4196 58.2595 94.6423 53.8673L106.096 44.6523Z" fill="#CE7A63"/>
<path d="M106.77 63.5606C106.77 63.5606 100.121 69.4698 98.1353 83.7137C94.3894 110.928 100.093 222.36 100.093 222.36C100.093 222.36 124.441 214.409 133.282 206.796C133.694 199.173 118.972 128.955 120.264 108.802C121.557 88.649 124.057 71.0899 121.454 67.2972C118.85 63.5044 106.77 63.5606 106.77 63.5606Z" fill="#407BFF"/>
<path opacity="0.7" d="M106.77 63.5606C106.77 63.5606 100.121 69.4698 98.1353 83.7137C94.3894 110.928 100.093 222.36 100.093 222.36C100.093 222.36 124.441 214.409 133.282 206.796C133.694 199.173 118.972 128.955 120.264 108.802C121.557 88.649 124.057 71.0899 121.454 67.2972C118.85 63.5044 106.77 63.5606 106.77 63.5606Z" fill="white"/>
<path d="M89.2762 64.123C79.1435 77.1308 79.2184 161.676 82.1496 222.389C73.15 221.302 63.5323 203.05 63.5323 203.05C63.5323 203.05 73.2717 138.648 71.3987 111.397C69.5258 84.1451 69.788 74.5836 74.2082 69.5453C78.6284 64.507 89.2762 64.123 89.2762 64.123Z" fill="#407BFF"/>
<path opacity="0.7" d="M89.2762 64.123C79.1435 77.1308 79.2184 161.676 82.1496 222.389C73.15 221.302 63.5323 203.05 63.5323 203.05C63.5323 203.05 73.2717 138.648 71.3987 111.397C69.5258 84.1451 69.788 74.5836 74.2082 69.5453C78.6284 64.507 89.2762 64.123 89.2762 64.123Z" fill="white"/>
<path d="M105.918 63.0741C104.176 64.5724 95.8504 72.0643 96.9742 102.968C97.817 99.4752 101.657 82.9182 105.712 75.033C104.886 74.455 103.91 74.1296 102.902 74.0965C103.997 73.5095 105.251 73.2896 106.479 73.469C107.622 71.1653 109.963 66.3237 112.239 63.7202C109.795 62.147 105.918 63.0741 105.918 63.0741Z" fill="white"/>
<path d="M81.8594 102.968C81.8594 102.968 83.6668 74.2459 89.6229 64.0008C87.3137 63.4749 84.8907 63.8536 82.8521 65.059C81.6066 66.5574 79.9771 72.3168 79.9771 73.5623C80.9367 73.3239 81.9499 73.4368 82.8334 73.8807C81.8018 74.0789 80.8109 74.4493 79.9022 74.9764C79.5088 77.0085 79.3215 87.8624 81.8594 102.968Z" fill="white"/>
<path d="M110.581 99.0256H102.537C102.393 99.0162 102.252 98.9763 102.125 98.9085C101.997 98.8407 101.885 98.7466 101.797 98.6324C101.708 98.5183 101.645 98.3866 101.611 98.2461C101.577 98.1056 101.574 97.9596 101.6 97.8176L101.928 93.9967C101.94 93.6902 102.062 93.3984 102.272 93.1747C102.482 92.951 102.766 92.8106 103.071 92.7793H111.115C111.26 92.79 111.4 92.8311 111.528 92.8999C111.656 92.9687 111.767 93.0636 111.856 93.1785C111.944 93.2935 112.007 93.4257 112.041 93.5667C112.075 93.7077 112.078 93.8542 112.052 93.9967L111.714 97.8176C111.702 98.1216 111.581 98.4111 111.373 98.633C111.165 98.8549 110.884 98.9943 110.581 99.0256Z" fill="white"/>
<path opacity="0.1" d="M105.871 99.0256H103.679L105.365 92.7793H107.556L105.871 99.0256Z" fill="#407BFF"/>
<path opacity="0.1" d="M108.914 99.0256H106.732L108.418 92.7793H110.6L108.914 99.0256Z" fill="#407BFF"/>
<path d="M106.91 93.4334C106.517 93.4334 106.227 93.2087 106.273 92.9184L106.526 91.1671C106.579 91.0044 106.686 90.8645 106.829 90.7708C106.972 90.6771 107.143 90.6352 107.313 90.6521C107.706 90.6521 107.997 90.8768 107.959 91.1671L107.706 92.9184C107.65 93.0809 107.542 93.22 107.397 93.3134C107.253 93.4068 107.081 93.4491 106.91 93.4334Z" fill="#407BFF"/>
<path opacity="0.2" d="M101.422 48.4082L94.6329 53.8585C94.8274 54.8869 94.9308 55.9305 94.9419 56.977C97.3768 56.6305 100.879 53.9896 101.329 51.4611C101.542 50.4572 101.573 49.4233 101.422 48.4082Z" fill="black"/>
<path d="M110.928 33.302C109.214 42.4327 108.68 46.3285 103.436 50.7019C95.5975 57.2573 84.8279 53.811 83.7697 44.5024C82.8332 36.1208 85.8019 22.598 95.2135 19.5826C97.2156 18.8509 99.3774 18.6703 101.473 19.0596C103.569 19.4489 105.522 20.3939 107.127 21.7958C108.733 23.1977 109.933 25.005 110.601 27.0291C111.27 29.0531 111.383 31.2196 110.928 33.302Z" fill="#CE7A63"/>
<path d="M94.6235 40.8405C92.2261 40.8405 90.222 38.4057 90.1283 35.3434C90.0726 33.9228 90.4802 32.5226 91.2896 31.3539C91.6353 30.8383 92.0962 30.41 92.6357 30.1028C93.1753 29.7957 93.7788 29.6181 94.3987 29.584H94.5017C96.8991 29.584 98.9032 32.0282 98.9968 35.0811C99.0811 38.1809 97.1239 40.7656 94.7265 40.8405H94.6235ZM94.5017 30.0522H94.4081C93.8617 30.0852 93.3303 30.2444 92.8558 30.5174C92.3814 30.7904 91.9766 31.1697 91.6735 31.6255C90.9052 32.7184 90.526 34.0374 90.5966 35.3715C90.6809 38.1809 92.5632 40.4659 94.7171 40.4097C96.871 40.3535 98.6129 37.9749 98.5286 35.1373C98.4443 32.2904 96.6837 30.0522 94.5017 30.0522Z" fill="white"/>
<path d="M90.3719 35.082C90.3213 35.082 90.272 35.0656 90.2315 35.0352C90.2315 35.0352 89.5198 34.5108 89.1639 34.8854C89.1445 34.9127 89.1195 34.9355 89.0905 34.9523C89.0615 34.9691 89.0293 34.9795 88.996 34.9828C88.9626 34.986 88.929 34.9821 88.8973 34.9713C88.8656 34.9605 88.8366 34.943 88.8123 34.92C88.788 34.897 88.7688 34.869 88.7562 34.838C88.7436 34.807 88.7377 34.7736 88.7391 34.7402C88.7405 34.7067 88.749 34.6739 88.7641 34.6441C88.7793 34.6142 88.8006 34.5879 88.8268 34.567C89.3325 34.0238 90.1191 34.3703 90.5124 34.6606C90.5621 34.6979 90.5949 34.7533 90.6037 34.8148C90.6125 34.8763 90.5965 34.9387 90.5593 34.9884C90.5361 35.016 90.5076 35.0386 90.4754 35.0547C90.4431 35.0708 90.4079 35.0801 90.3719 35.082Z" fill="white"/>
<path d="M84.8655 39.9796C82.4681 39.9796 80.464 37.5447 80.3704 34.4918C80.2767 31.4389 82.1871 28.8073 84.6314 28.7324H84.7344C87.1318 28.7324 89.1358 31.1673 89.2295 34.2296C89.3231 37.2919 87.4127 39.914 84.9685 39.9796H84.8655ZM84.7344 29.2007H84.6501C82.4587 29.2662 80.7543 31.6262 80.8386 34.4731C80.9229 37.32 82.7116 39.5113 84.8655 39.5113H84.9498C87.1411 39.4458 88.8455 37.0859 88.7612 34.2389C88.677 31.392 86.8789 29.2007 84.7344 29.2007Z" fill="white"/>
<path d="M104.55 24.7906C100.804 33.1253 107.032 36.9649 107.959 39.587C109.261 46.8167 92.7882 61.173 97.6579 83.6579C104.756 71.0903 114.515 71.6897 115.573 63.2332C116.631 54.5239 112.267 50.1225 116.903 41.7971C121.538 33.4718 123.177 23.5732 115.03 22.028C106.882 20.4828 104.55 24.7906 104.55 24.7906Z" fill="#263238"/>
<path d="M109.486 73.309C109.452 73.3105 109.419 73.3046 109.388 73.2916C109.357 73.2787 109.33 73.259 109.308 73.2341C109.265 73.1903 109.241 73.1315 109.241 73.0702C109.241 73.0089 109.265 72.9501 109.308 72.9063C114.037 68.6172 114.393 63.0171 114.777 57.0797C115.03 53.1933 115.292 49.1665 116.837 45.3831C119.553 38.734 121.81 29.3879 119.206 24.9584C118.835 24.3002 118.309 23.7418 117.675 23.3308C117.04 22.9198 116.316 22.6686 115.563 22.5984C115.502 22.5891 115.447 22.5568 115.408 22.5081C115.37 22.4594 115.352 22.3979 115.357 22.3362C115.359 22.3049 115.368 22.2743 115.383 22.2465C115.398 22.2188 115.418 22.1944 115.443 22.175C115.467 22.1556 115.496 22.1415 115.526 22.1338C115.557 22.1261 115.589 22.1249 115.62 22.1302C116.444 22.205 117.238 22.4794 117.934 22.9297C118.629 23.38 119.204 23.9927 119.609 24.7149C122.297 29.2943 120.161 38.4905 117.268 45.561C115.751 49.3069 115.498 53.2589 115.245 57.1078C114.861 63.1388 114.496 68.8326 109.626 73.2528C109.586 73.2854 109.537 73.305 109.486 73.309Z" fill="#263238"/>
<path d="M106.685 25.8015C100.514 26.5039 89.604 25.8015 87.0942 22.5987C84.5845 19.396 87.8528 11.3609 95.1106 10.0967C101.01 9.08527 104.55 16.343 104.55 16.343C104.55 16.343 110.169 13.5336 115.067 19.9672C119.534 25.8015 109.795 32.4131 106.685 25.8015Z" fill="#263238"/>
<path d="M109.008 37.7419L98.6598 35.9626C98.6291 35.9582 98.5997 35.9475 98.5734 35.9311C98.547 35.9148 98.5244 35.8932 98.5068 35.8677C98.4892 35.8422 98.4771 35.8134 98.4712 35.7829C98.4653 35.7525 98.4657 35.7212 98.4725 35.691C98.4839 35.6303 98.5188 35.5765 98.5697 35.5414C98.6205 35.5063 98.6832 35.4928 98.7441 35.5037L109.045 37.283C109.098 37.2938 109.146 37.3225 109.18 37.3643C109.214 37.4061 109.233 37.4585 109.233 37.5125C109.233 37.5665 109.214 37.6188 109.18 37.6606C109.146 37.7024 109.098 37.7311 109.045 37.7419H109.008Z" fill="white"/>
<path d="M96.4683 34.8293C96.356 35.5973 95.8596 36.1966 95.3727 36.1592C94.8857 36.1217 94.5673 35.4662 94.6703 34.6982C94.7733 33.9303 95.279 33.3216 95.766 33.3591C96.253 33.3965 96.5714 34.0521 96.4683 34.8293Z" fill="#263238"/>
<path d="M87.1411 34.277C87.0287 35.045 86.5417 35.6443 86.0454 35.6068C85.549 35.5694 85.24 34.9138 85.3524 34.1459C85.4648 33.378 85.9517 32.7787 86.4481 32.8161C86.9444 32.8536 87.2534 33.4998 87.1411 34.277Z" fill="#263238"/>
<path d="M86.6542 32.8715L84.9123 32.1973C84.9123 32.1973 85.6428 33.7237 86.6542 32.8715Z" fill="#263238"/>
<path d="M89.5479 35.7383C88.6203 37.4527 87.4779 39.0419 86.1485 40.4675C87.0101 41.4883 88.7707 41.1792 88.7707 41.1792L89.5479 35.7383Z" fill="#BA4D3C"/>
<path d="M92.7131 44.3525C92.2865 44.395 91.8567 44.395 91.4301 44.3525C91.4009 44.3502 91.3725 44.342 91.3465 44.3283C91.3206 44.3147 91.2978 44.2959 91.2793 44.2731C91.2609 44.2503 91.2474 44.224 91.2395 44.1958C91.2316 44.1676 91.2295 44.138 91.2334 44.109C91.2427 44.0477 91.275 43.9923 91.3237 43.954C91.3725 43.9158 91.4339 43.8975 91.4957 43.903C92.4632 43.9764 93.4349 43.832 94.3392 43.4803C95.2436 43.1286 96.0575 42.5786 96.7212 41.8708C96.7421 41.8498 96.7669 41.8332 96.7942 41.8219C96.8215 41.8105 96.8508 41.8047 96.8804 41.8047C96.91 41.8047 96.9393 41.8105 96.9666 41.8219C96.9939 41.8332 97.0188 41.8498 97.0396 41.8708C97.0606 41.8917 97.0772 41.9165 97.0886 41.9438C97.0999 41.9711 97.1057 42.0004 97.1057 42.03C97.1057 42.0596 97.0999 42.0889 97.0886 42.1162C97.0772 42.1435 97.0606 42.1683 97.0396 42.1892C95.9141 43.4199 94.3729 44.1905 92.7131 44.3525Z" fill="#263238"/>
<path d="M110.385 42.5458C109.915 43.3011 109.292 43.9496 108.557 44.4496C107.821 44.9497 106.989 45.2901 106.114 45.4489C103.942 45.7486 103.305 43.2201 104.316 40.8883C105.253 38.7905 107.435 36.1122 109.429 36.8895C111.424 37.6668 111.668 40.5511 110.385 42.5458Z" fill="#CE7A63"/>
<path d="M99.4933 31.3838C99.4363 31.373 99.3825 31.3498 99.3355 31.3158C99.2886 31.2818 99.2497 31.2379 99.2217 31.1871C98.9641 30.698 98.5885 30.2808 98.129 29.9734C97.6695 29.666 97.1406 29.478 96.5902 29.4265C96.5319 29.4269 96.4742 29.4149 96.4209 29.3913C96.3676 29.3677 96.3199 29.3331 96.2809 29.2898C96.242 29.2464 96.2127 29.1953 96.195 29.1397C96.1773 29.0842 96.1715 29.0255 96.1781 28.9676C96.1899 28.8451 96.2477 28.7316 96.3398 28.65C96.4319 28.5683 96.5514 28.5245 96.6745 28.5275C97.3728 28.5801 98.0465 28.8086 98.6328 29.1918C99.219 29.575 99.6987 30.1003 100.027 30.7188C100.08 30.826 100.089 30.9495 100.052 31.0631C100.016 31.1768 99.936 31.2717 99.8304 31.3276C99.781 31.3594 99.7257 31.3809 99.6677 31.3905C99.6097 31.4002 99.5504 31.3979 99.4933 31.3838Z" fill="#263238"/>
<path d="M85.371 28.2641C85.2828 28.2733 85.1939 28.2544 85.117 28.2101C85.0401 28.1658 84.9791 28.0984 84.9428 28.0174C84.9065 27.9365 84.8966 27.8461 84.9147 27.7593C84.9327 27.6724 84.9777 27.5934 85.0433 27.5336C85.5102 26.9686 86.1013 26.5191 86.7706 26.2202C87.4399 25.9213 88.1692 25.781 88.9016 25.8105C88.959 25.8172 89.0144 25.8356 89.0644 25.8647C89.1143 25.8937 89.1578 25.9327 89.1921 25.9793C89.2263 26.0258 89.2506 26.0789 89.2635 26.1353C89.2763 26.1916 89.2775 26.25 89.2668 26.3068C89.2461 26.4276 89.1806 26.5362 89.0834 26.6108C88.9862 26.6854 88.8644 26.7207 88.7424 26.7095C88.1623 26.6951 87.5866 26.8133 87.0592 27.0551C86.5317 27.2969 86.0664 27.6559 85.6988 28.1049C85.6137 28.1976 85.4965 28.2545 85.371 28.2641Z" fill="#263238"/>
<path d="M95.9815 33.4243L94.2396 32.75C94.2396 32.75 94.9701 34.2671 95.9815 33.4243Z" fill="#263238"/>
<path d="M120.461 66.6406C120.957 66.959 121.238 67.1651 121.594 67.4273L122.587 68.1671C123.233 68.6634 123.87 69.1036 124.46 69.6561C125.709 70.655 126.917 71.6914 128.084 72.7652C130.448 74.9009 132.689 77.1677 134.799 79.5547C136.936 81.9792 138.895 84.555 140.661 87.262C141.541 88.6386 142.394 90.0714 143.143 91.5136C143.93 92.983 144.64 94.4928 145.269 96.0368L145.727 97.2074L145.784 97.3573L145.887 97.6476L146.065 98.2188C146.158 98.6028 146.252 98.9867 146.308 99.3613C146.526 100.704 146.526 102.073 146.308 103.416C145.946 105.456 145.27 107.427 144.304 109.26C142.722 112.232 140.839 115.035 138.685 117.623C136.709 120.123 134.63 122.427 132.523 124.684C131.465 125.808 130.416 126.931 129.33 128.027L127.691 129.666C127.119 130.218 126.614 130.743 125.968 131.352L117.286 120.872C117.764 120.545 118.363 120.104 118.897 119.692L120.527 118.4C121.604 117.529 122.681 116.649 123.711 115.712C125.749 113.902 127.684 111.979 129.508 109.953C131.192 108.113 132.665 106.09 133.9 103.922C134.321 103.173 134.637 102.37 134.836 101.534C134.836 101.291 134.836 101.178 134.836 101.234C134.833 101.253 134.833 101.272 134.836 101.291C134.832 101.309 134.832 101.328 134.836 101.347V101.244L134.49 100.373C132.459 95.6093 129.556 91.2675 125.93 87.571C124.091 85.6373 122.113 83.8407 120.012 82.1956C118.963 81.3715 117.876 80.5849 116.79 79.8357C116.238 79.4611 115.694 79.0865 115.142 78.7493L114.318 78.2624L113.597 77.8597L120.461 66.6406Z" fill="#407BFF"/>
<path opacity="0.7" d="M120.461 66.6406C120.957 66.959 121.238 67.1651 121.594 67.4273L122.587 68.1671C123.233 68.6634 123.87 69.1036 124.46 69.6561C125.709 70.655 126.917 71.6914 128.084 72.7652C130.448 74.9009 132.689 77.1677 134.799 79.5547C136.936 81.9792 138.895 84.555 140.661 87.262C141.541 88.6386 142.394 90.0714 143.143 91.5136C143.93 92.983 144.64 94.4928 145.269 96.0368L145.727 97.2074L145.784 97.3573L145.887 97.6476L146.065 98.2188C146.158 98.6028 146.252 98.9867 146.308 99.3613C146.526 100.704 146.526 102.073 146.308 103.416C145.946 105.456 145.27 107.427 144.304 109.26C142.722 112.232 140.839 115.035 138.685 117.623C136.709 120.123 134.63 122.427 132.523 124.684C131.465 125.808 130.416 126.931 129.33 128.027L127.691 129.666C127.119 130.218 126.614 130.743 125.968 131.352L117.286 120.872C117.764 120.545 118.363 120.104 118.897 119.692L120.527 118.4C121.604 117.529 122.681 116.649 123.711 115.712C125.749 113.902 127.684 111.979 129.508 109.953C131.192 108.113 132.665 106.09 133.9 103.922C134.321 103.173 134.637 102.37 134.836 101.534C134.836 101.291 134.836 101.178 134.836 101.234C134.833 101.253 134.833 101.272 134.836 101.291C134.832 101.309 134.832 101.328 134.836 101.347V101.244L134.49 100.373C132.459 95.6093 129.556 91.2675 125.93 87.571C124.091 85.6373 122.113 83.8407 120.012 82.1956C118.963 81.3715 117.876 80.5849 116.79 79.8357C116.238 79.4611 115.694 79.0865 115.142 78.7493L114.318 78.2624L113.597 77.8597L120.461 66.6406Z" fill="white"/>
<path opacity="0.3" d="M33.8749 50C44.9896 50 53.9999 40.8218 53.9999 29.5C53.9999 18.1782 44.9896 9 33.8749 9C22.7601 9 13.7499 18.1782 13.7499 29.5C13.7499 40.8218 22.7601 50 33.8749 50Z" fill="#407BFF"/>
<path d="M32.1249 50C43.2396 50 52.2499 40.8218 52.2499 29.5C52.2499 18.1782 43.2396 9 32.1249 9C21.0101 9 11.9999 18.1782 11.9999 29.5C11.9999 40.8218 21.0101 50 32.1249 50Z" fill="#407BFF"/>
<path d="M32.1249 50C43.2396 50 52.2499 40.8218 52.2499 29.5C52.2499 18.1782 43.2396 9 32.1249 9C21.0101 9 11.9999 18.1782 11.9999 29.5C11.9999 40.8218 21.0101 50 32.1249 50Z" fill="white"/>
<path d="M33.3548 17.9121H29.145C28.3745 17.9121 27.7499 18.4988 27.7499 19.2225V39.7756C27.7499 40.4993 28.3745 41.086 29.145 41.086H33.3548C34.1253 41.086 34.7499 40.4993 34.7499 39.7756V19.2225C34.7499 18.4988 34.1253 17.9121 33.3548 17.9121Z" fill="#407BFF"/>
<path d="M43.4999 32.5355V28.2473C43.4999 27.4624 42.9239 26.8262 42.2134 26.8262H22.0363C21.3258 26.8262 20.7499 27.4624 20.7499 28.2473V32.5355C20.7499 33.3204 21.3258 33.9566 22.0363 33.9566H42.2134C42.9239 33.9566 43.4999 33.3204 43.4999 32.5355Z" fill="#407BFF"/>
</g>
</g>
<defs>
<clipPath id="clip0_566_3244">
<rect width="117.559" height="117.559" fill="white" transform="translate(0.220337 0.0273438)"/>
</clipPath>
</defs>
</svg>
