<?xml version="1.0" encoding="utf-8"?>
<!-- Generator: Adobe Illustrator 24.0.1, SVG Export Plug-In . SVG Version: 6.00 Build 0)  -->
<svg version="1.1" id="Слой_1" xmlns="http://www.w3.org/2000/svg" xmlns:xlink="http://www.w3.org/1999/xlink" x="0px" y="0px"
	 viewBox="0 0 512 512" style="enable-background:new 0 0 512 512;" xml:space="preserve">
<style type="text/css">
	.st0{fill:#8E8E8E;}
</style>
<g>
	<path class="st0" d="M40.4,296.4C18.1,296.4,0,278.3,0,256s18.1-40.4,40.4-40.4h431.2c22.3,0,40.4,18.1,40.4,40.4
		s-18.1,40.4-40.4,40.4H40.4z"/>
	<path class="st0" d="M40.4,107.8C18.1,107.8,0,89.7,0,67.4s18.1-40.4,40.4-40.4h431.2c22.3,0,40.4,18.1,40.4,40.4
		s-18.1,40.4-40.4,40.4H40.4z"/>
	<path class="st0" d="M40.4,485.1C18.1,485.1,0,466.9,0,444.6s18.1-40.4,40.4-40.4h431.2c22.3,0,40.4,18.1,40.4,40.4
		s-18.1,40.4-40.4,40.4H40.4z"/>
</g>
</svg>
