<svg width="26" height="26" viewBox="0 0 26 26" fill="none" xmlns="http://www.w3.org/2000/svg">
<path d="M13.1243 14.3769C11.3939 14.3769 9.98633 12.9693 9.98633 11.239V4.96313C9.98633 3.23278 11.3939 1.8252 13.1243 1.8252C14.8546 1.8252 16.2622 3.23278 16.2622 4.96313V11.239C16.2622 12.9693 14.8537 14.3769 13.1243 14.3769ZM13.1243 3.6183C12.3828 3.6183 11.7794 4.22168 11.7794 4.96313V11.239C11.7794 11.9804 12.3828 12.5838 13.1243 12.5838C13.8657 12.5838 14.4691 11.9804 14.4691 11.239V4.96313C14.4691 4.22168 13.8657 3.6183 13.1243 3.6183Z" fill="#151F6D"/>
<path d="M18.0556 9.83015V10.9544C18.0556 13.5284 16.1791 15.8317 13.6176 16.0818C12.9321 16.1497 12.2399 16.0734 11.5856 15.8579C10.9314 15.6423 10.3294 15.2921 9.81856 14.83C9.30769 14.3678 8.89919 13.8039 8.61931 13.1744C8.33944 12.5449 8.19439 11.8639 8.19349 11.175V9.83015C8.19349 9.59237 8.09904 9.36432 7.9309 9.19619C7.76276 9.02805 7.53472 8.93359 7.29694 8.93359C7.05916 8.93359 6.83112 9.02805 6.66298 9.19619C6.49485 9.36432 6.40039 9.59237 6.40039 9.83015V11.175C6.40039 14.5783 8.94391 17.3917 12.228 17.8319V21.4853H9.9866C9.74882 21.4853 9.52078 21.5798 9.35264 21.7479C9.1845 21.916 9.09005 22.1441 9.09005 22.3819C9.09005 22.6196 9.1845 22.8477 9.35264 23.0158C9.52078 23.184 9.74882 23.2784 9.9866 23.2784H16.2625C16.5002 23.2784 16.7283 23.184 16.8964 23.0158C17.0646 22.8477 17.159 22.6196 17.159 22.3819C17.159 22.1441 17.0646 21.916 16.8964 21.7479C16.7283 21.5798 16.5002 21.4853 16.2625 21.4853H14.0211V17.8328C17.3051 17.3926 19.8487 14.5792 19.8487 11.1759V9.83104C19.8487 9.59326 19.7542 9.36522 19.5861 9.19708C19.4179 9.02895 19.1899 8.93449 18.9521 8.93449C18.8344 8.93425 18.7178 8.95725 18.6089 9.00217C18.5001 9.04709 18.4012 9.11304 18.3179 9.19624C18.2347 9.27945 18.1686 9.37827 18.1236 9.48705C18.0786 9.59582 18.0554 9.71242 18.0556 9.83015Z" fill="#151F6D"/>
</svg>
