<svg width="24" height="24" viewBox="0 0 24 24" fill="none" xmlns="http://www.w3.org/2000/svg">
<path fill-rule="evenodd" clip-rule="evenodd" d="M23.3333 5.85548V1.18882C23.3359 1.01572 23.3002 0.844199 23.2288 0.686492C23.1574 0.528785 23.0521 0.388784 22.9203 0.276485C22.7883 0.1645 22.633 0.0833542 22.4657 0.0389541C22.2984 -0.00544593 22.1233 -0.0119832 21.9532 0.0198182L7.99401 2.34499C7.71418 2.38731 7.45922 2.52972 7.27642 2.74577C7.09362 2.96182 6.99541 3.23685 7.00001 3.51982V14.6253C6.11034 14.1117 5.07605 13.9059 4.05754 14.04C3.03903 14.1741 2.09323 14.6405 1.36682 15.367C0.640416 16.0934 0.174004 17.0392 0.0399248 18.0577C-0.0941548 19.0762 0.11159 20.1105 0.625251 21.0002C1.13891 21.8898 1.93178 22.5851 2.88089 22.9782C3.82999 23.3714 4.88229 23.4403 5.87458 23.1744C6.86687 22.9085 7.74369 22.3226 8.36905 21.5076C8.99441 20.6926 9.33337 19.6939 9.33334 18.6667V9.15365L21 7.20999V12.2908C20.1104 11.7772 19.0761 11.5715 18.0577 11.7055C17.0392 11.8396 16.0934 12.3059 15.367 13.0323C14.6406 13.7586 14.1742 14.7043 14.04 15.7228C13.9058 16.7412 14.1114 17.7755 14.625 18.6651C15.1385 19.5548 15.9312 20.2502 16.8802 20.6435C17.8292 21.0367 18.8814 21.1058 19.8737 20.8401C20.866 20.5744 21.7429 19.9887 22.3684 19.1739C22.9939 18.359 23.3331 17.3606 23.3333 16.3333V5.85548Z" fill="#fff"/>
</svg>
