<svg width="16" height="16" viewBox="0 0 16 16" fill="none" xmlns="http://www.w3.org/2000/svg">
<g clip-path="url(#clip0_137_4517)">
<path d="M2.84372 16H9.40623V14.0625H10.8125C11.5879 14.0625 12.2187 13.4316 12.2187 12.6562V11.4291L10.9231 10.7812L12.2187 10.1334V9.19592L14.4162 8.09717L12.2156 5.89648C12.1863 4.98584 11.9552 4.09888 11.5395 3.29565C12.5063 2.72412 13.1562 1.6709 13.1562 0.46875V0H6.36777C2.9835 0 0.0630851 2.6322 0.0010734 5.97827C-0.0281014 7.54858 0.538305 9.04797 1.59592 10.2003C2.39499 11.0709 2.83811 12.0862 2.8436 13.0592L2.84372 16ZM12.8336 7.84033L11.2812 8.61658V9.55408L8.82676 10.7812L11.2812 12.0084V12.6562C11.2812 12.9147 11.0709 13.125 10.8125 13.125H8.46873V15.0625H3.78123L3.7811 13.0535C3.77769 12.4509 3.64353 11.8403 3.39072 11.25H4.53965L5.49424 9.34094C6.12253 9.20044 6.59373 8.63879 6.59373 7.96875H5.65623C5.65623 8.22717 5.4459 8.4375 5.18748 8.4375C4.92893 8.4375 4.71873 8.22717 4.71873 7.96875V6.09375C4.71873 5.83533 4.92893 5.625 5.18748 5.625C5.4459 5.625 5.65623 5.83533 5.65623 6.09375V6.5625H6.59373V6.09375C6.59373 5.9696 6.57737 5.84912 6.54697 5.73438L9.09824 3.75H9.87498C10.1484 3.75 10.414 3.71643 10.6682 3.65308C11.0702 4.40027 11.2812 5.23682 11.2812 6.09375V6.28796L12.8336 7.84033ZM0.938329 5.99561C0.990087 3.20654 3.42576 0.937134 6.36777 0.937134H12.1716C11.9538 2.00562 11.0068 2.8125 9.87498 2.8125H8.77659L6.01682 4.95898C5.78403 4.78845 5.49741 4.6875 5.18748 4.6875C4.41208 4.6875 3.78123 5.31836 3.78123 6.09375V7.96875C3.78123 8.50061 4.0781 8.96448 4.51475 9.20349L3.96018 10.3125H2.87668C2.7031 10.0553 2.5062 9.80566 2.2866 9.56641C1.39255 8.59216 0.913671 7.3241 0.938329 5.99561Z" fill="#151F6D"/>
<path d="M15.291 8.48633L15.7102 9.32483L13.8353 10.2622L13.416 9.42371L15.291 8.48633Z" fill="#151F6D"/>
<path d="M14.0938 11.25H16V12.1875H14.0938V11.25Z" fill="#151F6D"/>
<path d="M15.291 14.9518L13.416 14.0143L13.8353 13.1758L15.7102 14.1133L15.291 14.9518Z" fill="#151F6D"/>
</g>
<defs>
<clipPath id="clip0_137_4517">
<rect width="16" height="16" fill="white"/>
</clipPath>
</defs>
</svg>
