<svg width="13" height="15" viewBox="0 0 13 15" fill="none" xmlns="http://www.w3.org/2000/svg">
<path d="M6.33081 7.78857C7.25907 7.78857 8.14931 7.41983 8.80568 6.76345C9.46206 6.10707 9.83081 5.21683 9.83081 4.28857C9.83081 3.36032 9.46206 2.47008 8.80568 1.8137C8.14931 1.15732 7.25907 0.788574 6.33081 0.788574C5.40255 0.788574 4.51231 1.15732 3.85594 1.8137C3.19956 2.47008 2.83081 3.36032 2.83081 4.28857C2.83081 5.21683 3.19956 6.10707 3.85594 6.76345C4.51231 7.41983 5.40255 7.78857 6.33081 7.78857ZM3.70581 9.29795C1.68237 9.89131 0.205811 11.7616 0.205811 13.9765C0.205811 14.4249 0.569482 14.7886 1.01792 14.7886H11.6437C12.0921 14.7886 12.4558 14.4249 12.4558 13.9765C12.4558 11.7616 10.9792 9.89131 8.95581 9.29795V10.687C9.7105 10.8812 10.2683 11.5675 10.2683 12.3823V13.4761C10.2683 13.7167 10.0714 13.9136 9.83081 13.9136H9.39331C9.15269 13.9136 8.95581 13.7167 8.95581 13.4761C8.95581 13.2354 9.15269 13.0386 9.39331 13.0386V12.3823C9.39331 11.8983 9.00229 11.5073 8.51831 11.5073C8.03433 11.5073 7.64331 11.8983 7.64331 12.3823V13.0386C7.88394 13.0386 8.08081 13.2354 8.08081 13.4761C8.08081 13.7167 7.88394 13.9136 7.64331 13.9136H7.20581C6.96519 13.9136 6.76831 13.7167 6.76831 13.4761V12.3823C6.76831 11.5675 7.32612 10.8812 8.08081 10.687V9.12568C7.91675 9.10928 7.74995 9.10107 7.58042 9.10107H5.0812C4.91167 9.10107 4.74487 9.10928 4.58081 9.12568V10.914C5.21245 11.1026 5.67456 11.6878 5.67456 12.3823C5.67456 13.2272 4.98823 13.9136 4.14331 13.9136C3.29839 13.9136 2.61206 13.2272 2.61206 12.3823C2.61206 11.6878 3.07417 11.1026 3.70581 10.914V9.29795ZM4.14331 13.0386C4.31736 13.0386 4.48428 12.9694 4.60735 12.8464C4.73042 12.7233 4.79956 12.5564 4.79956 12.3823C4.79956 12.2083 4.73042 12.0414 4.60735 11.9183C4.48428 11.7952 4.31736 11.7261 4.14331 11.7261C3.96926 11.7261 3.80234 11.7952 3.67927 11.9183C3.5562 12.0414 3.48706 12.2083 3.48706 12.3823C3.48706 12.5564 3.5562 12.7233 3.67927 12.8464C3.80234 12.9694 3.96926 13.0386 4.14331 13.0386Z" fill="white"/>
</svg>
