<svg width="50" height="50" viewBox="0 0 50 50" fill="none" xmlns="http://www.w3.org/2000/svg">
<path d="M34.4375 16.2625C36.1722 14.4997 37.1401 12.1229 37.1303 9.6497C37.1205 7.17654 36.1339 4.80743 34.3853 3.05842C32.6367 1.30941 30.2678 0.322211 27.7947 0.31185C25.3215 0.301489 22.9444 1.26881 21.1812 3.00311L3.50313 20.6812C1.74482 22.4395 0.757019 24.8243 0.757019 27.3109C0.757019 29.7975 1.74482 32.1823 3.50313 33.9406C5.26143 35.6989 7.6462 36.6867 10.1328 36.6867C12.6194 36.6867 15.0042 35.6989 16.7625 33.9406L34.4375 16.2625ZM14.3969 14.2094L23.3906 5.21248C24.563 4.04014 26.153 3.38153 27.8109 3.38153C29.4689 3.38153 31.0589 4.04014 32.2312 5.21248C33.4036 6.38482 34.0622 7.97486 34.0622 9.63279C34.0622 11.2907 33.4036 12.8808 32.2312 14.0531L23.2344 23.05L14.3969 14.2094ZM37.5 24.5C40.8152 24.5 43.9946 25.8169 46.3388 28.1611C48.683 30.5053 50 33.6848 50 37C50 40.3152 48.683 43.4946 46.3388 45.8388C43.9946 48.183 40.8152 49.5 37.5 49.5C34.1848 49.5 31.0054 48.183 28.6612 45.8388C26.317 43.4946 25 40.3152 25 37C25 33.6848 26.317 30.5053 28.6612 28.1611C31.0054 25.8169 34.1848 24.5 37.5 24.5ZM35.9375 27.7562C33.7512 28.1237 31.7658 29.2541 30.334 30.9467C28.9021 32.6393 28.1165 34.7845 28.1165 37.0015C28.1165 39.2185 28.9021 41.3638 30.334 43.0564C31.7658 44.749 33.7512 45.8794 35.9375 46.2469V27.7562ZM39.0625 46.2469C41.2488 45.8794 43.2342 44.749 44.666 43.0564C46.0979 41.3638 46.8835 39.2185 46.8835 37.0015C46.8835 34.7845 46.0979 32.6393 44.666 30.9467C43.2342 29.2541 41.2488 28.1237 39.0625 27.7562V46.2469Z" fill="white"/>
</svg>
