<svg width="25" height="25" viewBox="0 0 25 25" fill="none" xmlns="http://www.w3.org/2000/svg">
<g clip-path="url(#clip0_566_4249)">
<path d="M4.15039 4.91992H10.1504V10.9199H4.15039V4.91992ZM20.1504 4.91992V10.9199H14.1504V4.91992H20.1504ZM14.1504 15.9199H16.1504V13.9199H14.1504V11.9199H16.1504V13.9199H18.1504V11.9199H20.1504V13.9199H18.1504V15.9199H20.1504V18.9199H18.1504V20.9199H16.1504V18.9199H13.1504V20.9199H11.1504V16.9199H14.1504V15.9199ZM16.1504 15.9199V18.9199H18.1504V15.9199H16.1504ZM4.15039 20.9199V14.9199H10.1504V20.9199H4.15039ZM6.15039 6.91992V8.91992H8.15039V6.91992H6.15039ZM16.1504 6.91992V8.91992H18.1504V6.91992H16.1504ZM6.15039 16.9199V18.9199H8.15039V16.9199H6.15039ZM4.15039 11.9199H6.15039V13.9199H4.15039V11.9199ZM9.15039 11.9199H13.1504V15.9199H11.1504V13.9199H9.15039V11.9199ZM11.1504 6.91992H13.1504V10.9199H11.1504V6.91992ZM2.15039 2.91992V6.91992H0.150391V2.91992C0.150391 2.38949 0.361104 1.88078 0.736177 1.50571C1.11125 1.13064 1.61996 0.919922 2.15039 0.919922L6.15039 0.919922V2.91992H2.15039ZM22.1504 0.919922C22.6808 0.919922 23.1895 1.13064 23.5646 1.50571C23.9397 1.88078 24.1504 2.38949 24.1504 2.91992V6.91992H22.1504V2.91992H18.1504V0.919922H22.1504ZM2.15039 18.9199V22.9199H6.15039V24.9199H2.15039C1.61996 24.9199 1.11125 24.7092 0.736177 24.3341C0.361104 23.9591 0.150391 23.4504 0.150391 22.9199V18.9199H2.15039ZM22.1504 22.9199V18.9199H24.1504V22.9199C24.1504 23.4504 23.9397 23.9591 23.5646 24.3341C23.1895 24.7092 22.6808 24.9199 22.1504 24.9199H18.1504V22.9199H22.1504Z" fill="#151F6D"/>
</g>
<defs>
<clipPath id="clip0_566_4249">
<rect width="24" height="24" fill="white" transform="translate(0.150391 0.919922)"/>
</clipPath>
</defs>
</svg>
