<svg width="25" height="25" viewBox="0 0 25 25" fill="none" xmlns="http://www.w3.org/2000/svg">
<path d="M12.25 23.5C18.4632 23.5 23.5 18.4632 23.5 12.25C23.5 6.0368 18.4632 1 12.25 1C6.0368 1 1 6.0368 1 12.25C1 18.4632 6.0368 23.5 12.25 23.5Z" fill="#CC2028" stroke="white" stroke-width="1.66667" stroke-linecap="round" stroke-linejoin="round"/>
<path d="M8.5 9.75H8.5125H8.5ZM16 9.75H16.0125H16ZM9.125 16.3125C9.53235 15.8968 10.0186 15.5665 10.5552 15.341C11.0918 15.1155 11.668 14.9994 12.25 14.9994C12.832 14.9994 13.4082 15.1155 13.9448 15.341C14.4814 15.5665 14.9677 15.8968 15.375 16.3125" fill="#CC2028"/>
<path d="M8.5 9.75H8.5125M16 9.75H16.0125M9.125 16.3125C9.53235 15.8968 10.0186 15.5665 10.5552 15.341C11.0918 15.1155 11.668 14.9994 12.25 14.9994C12.832 14.9994 13.4082 15.1155 13.9448 15.341C14.4814 15.5665 14.9677 15.8968 15.375 16.3125" stroke="white" stroke-width="1.66667" stroke-linecap="round" stroke-linejoin="round"/>
</svg>
