<svg width="26" height="25" viewBox="0 0 26 25" fill="none" xmlns="http://www.w3.org/2000/svg">
<path d="M12.5547 0C5.65112 0 0.0546875 5.59644 0.0546875 12.5C0.0546875 19.4036 5.65112 25 12.5547 25C19.4583 25 25.0547 19.4036 25.0547 12.5C25.0547 5.59644 19.4583 0 12.5547 0ZM8.0625 4.96521C8.32004 4.95002 8.55283 5.10396 8.72931 5.37719L10.4383 8.61815C10.6182 9.00219 10.516 9.4134 10.2476 9.68779L9.46479 10.4706C9.41648 10.5368 9.38469 10.6113 9.38392 10.6933C9.6841 11.8553 10.5947 12.9271 11.3981 13.6642C12.2015 14.4013 13.065 15.3993 14.1859 15.6357C14.3244 15.6743 14.4941 15.6882 14.5933 15.596L15.5027 14.6698C15.8166 14.4319 16.2707 14.3166 16.6059 14.5111H16.6211L19.7049 16.3315C20.1576 16.6152 20.2045 17.1637 19.8804 17.4973L17.7564 19.6045C17.4428 19.9262 17.026 20.0343 16.6212 20.0348C14.8306 19.9811 13.1387 19.1023 11.7491 18.1992C9.46802 16.5397 7.37567 14.4815 6.06208 11.9949C5.55829 10.9522 4.96648 9.62181 5.02296 8.45798C5.028 8.02015 5.14646 7.59121 5.45479 7.309L7.57881 5.18498C7.74427 5.04419 7.90796 4.97433 8.0625 4.96521Z" fill="#86C8BC"/>
</svg>
