<svg width="24" height="24" viewBox="0 0 24 24" fill="none" xmlns="http://www.w3.org/2000/svg">
<path fill-rule="evenodd" clip-rule="evenodd" d="M0 11.6667C0 5.22317 5.22317 0 11.6667 0C18.1102 0 23.3333 5.22317 23.3333 11.6667C23.3333 18.1102 18.1102 23.3333 11.6667 23.3333C5.22317 23.3333 0 18.1102 0 11.6667ZM7 5.83333C7 5.67862 7.06146 5.53025 7.17085 5.42085C7.28025 5.31146 7.42862 5.25 7.58333 5.25H11.0833C11.8366 5.25025 12.5606 5.54192 13.1036 6.06394C13.6467 6.58595 13.9667 7.29782 13.9967 8.05049C14.0267 8.80316 13.7644 9.53825 13.2646 10.1018C12.7648 10.6654 12.0664 11.0138 11.3155 11.074L14 13.7585L16.5042 11.2542L17.3291 12.0791L14.8248 14.5833L17.3291 17.0876L16.5042 17.9124L14 15.4082L11.4958 17.9124L10.6709 17.0876L13.1752 14.5833L9.67517 11.0833H8.16667V15.1667H7V5.83333ZM11.0833 9.91667H8.16667V6.41667H11.0833C11.5475 6.41667 11.9926 6.60104 12.3208 6.92923C12.649 7.25742 12.8333 7.70254 12.8333 8.16667C12.8333 8.6308 12.649 9.07591 12.3208 9.4041C11.9926 9.73229 11.5475 9.91667 11.0833 9.91667Z" fill="#434343"/>
</svg>
