<svg width="24" height="24" viewBox="0 0 24 24" fill="none" xmlns="http://www.w3.org/2000/svg">
<path fill-rule="evenodd" clip-rule="evenodd" d="M2 12C2 6.477 6.477 2 12 2C17.523 2 22 6.477 22 12C22 17.523 17.523 22 12 22C6.477 22 2 17.523 2 12ZM8 7C8 6.86739 8.05268 6.74021 8.14645 6.64645C8.24021 6.55268 8.36739 6.5 8.5 6.5H11.5C12.1457 6.50022 12.7662 6.75022 13.2317 7.19766C13.6971 7.6451 13.9715 8.25528 13.9972 8.90042C14.0229 9.54556 13.798 10.1756 13.3696 10.6587C12.9413 11.1418 12.3426 11.4404 11.699 11.492L14 13.793L16.1465 11.6465L16.8535 12.3535L14.707 14.5L16.8535 16.6465L16.1465 17.3535L14 15.207L11.8535 17.3535L11.1465 16.6465L13.293 14.5L10.293 11.5H9V15H8V7ZM11.5 10.5H9V7.5H11.5C11.8978 7.5 12.2794 7.65803 12.5607 7.93934C12.842 8.22064 13 8.60217 13 9C13 9.39782 12.842 9.77936 12.5607 10.0607C12.2794 10.342 11.8978 10.5 11.5 10.5Z" fill="#FA1703"/>
</svg>
