<svg width="32" height="32" viewBox="0 0 32 32" fill="none" xmlns="http://www.w3.org/2000/svg">
<path d="M16 31C24.2843 31 31 24.2843 31 16C31 7.71573 24.2843 1 16 1C7.71573 1 1 7.71573 1 16C1 24.2843 7.71573 31 16 31Z" fill="white" stroke="#434343" stroke-width="1.66667" stroke-linecap="round" stroke-linejoin="round"/>
<path d="M11 12.6667H11.0167H11ZM21 12.6667H21.0167H21ZM11.8333 21.4167C12.3765 20.8624 13.0247 20.422 13.7402 20.1213C14.4557 19.8207 15.2239 19.6658 16 19.6658C16.7761 19.6658 17.5443 19.8207 18.2598 20.1213C18.9753 20.422 19.6235 20.8624 20.1667 21.4167" fill="white"/>
<path d="M11 12.6667H11.0167M21 12.6667H21.0167M11.8333 21.4167C12.3765 20.8624 13.0247 20.422 13.7402 20.1213C14.4557 19.8207 15.2239 19.6658 16 19.6658C16.7761 19.6658 17.5443 19.8207 18.2598 20.1213C18.9753 20.422 19.6235 20.8624 20.1667 21.4167" stroke="#434343" stroke-width="1.66667" stroke-linecap="round" stroke-linejoin="round"/>
</svg>
