<svg width="40" height="40" viewBox="0 0 40 40" fill="none" xmlns="http://www.w3.org/2000/svg">
<path fill-rule="evenodd" clip-rule="evenodd" d="M20 0C29.428 0 34.142 0 37.07 2.928C38.078 3.936 38.74 5.156 39.174 6.706L6.706 39.174C5.156 38.74 3.936 38.078 2.928 37.07C0 34.144 0 29.428 0 20C0 10.572 0 5.858 2.928 2.928C5.86 0 10.572 0 20 0ZM7 13.514C7 17.084 9.234 21.25 12.72 22.74C13.532 23.086 14.468 23.086 15.28 22.74C18.766 21.25 21 17.084 21 13.514C21 9.916 17.866 7 14 7C10.134 7 7 9.916 7 13.514Z" fill="#86C8BC"/>
<path d="M17 14C17 14.7957 16.6839 15.5587 16.1213 16.1213C15.5587 16.6839 14.7957 17 14 17C13.2044 17 12.4413 16.6839 11.8787 16.1213C11.3161 15.5587 11 14.7957 11 14C11 13.2044 11.3161 12.4413 11.8787 11.8787C12.4413 11.3161 13.2044 11 14 11C14.7957 11 15.5587 11.3161 16.1213 11.8787C16.6839 12.4413 17 13.2044 17 14Z" fill="#86C8BC"/>
<path opacity="0.5" d="M39.7798 10.3438C39.9998 12.8658 39.9998 16.0118 39.9998 19.9998C39.9998 28.2678 39.9998 32.9098 38.0258 35.9018L26.1198 23.9998L39.7758 10.3438H39.7798ZM35.9038 38.0238L24.0018 26.1218L10.3418 39.7778C12.8658 39.9998 16.0118 39.9998 20.0018 39.9998C28.2698 39.9998 32.9118 39.9998 35.9038 38.0238Z" fill="#86C8BC"/>
</svg>
