<svg width="16" height="16" viewBox="0 0 16 16" fill="none" xmlns="http://www.w3.org/2000/svg">
<path d="M3.34545 0.905663C3.51515 1.41475 3.23939 1.96324 2.73333 2.13294L1.93939 2.39657V6.06021C1.93939 7.66627 3.24242 8.9693 4.84848 8.9693C6.45455 8.9693 7.75758 7.66627 7.75758 6.06021V2.39657L6.96667 2.13294C6.45758 1.96324 6.18485 1.41475 6.35455 0.905663C6.52424 0.396572 7.07273 0.123845 7.58182 0.293542L8.37273 0.557178C9.16364 0.820814 9.69697 1.56021 9.69697 2.39657V6.06021C9.69697 8.3996 8.04242 10.3511 5.83939 10.8087C6.0303 12.5026 7.46667 13.8178 9.21212 13.8178C11.0879 13.8178 12.6061 12.2996 12.6061 10.4238V8.28142C11.7485 7.90869 11.1515 7.05415 11.1515 6.06021C11.1515 4.72081 12.2364 3.63597 13.5758 3.63597C14.9152 3.63597 16 4.72081 16 6.06021C16 7.05415 15.403 7.90869 14.5455 8.28142V10.4238C14.5455 13.3693 12.1576 15.7572 9.21212 15.7572C6.39697 15.7572 4.09394 13.5784 3.89394 10.8148C1.67273 10.3693 0 8.41172 0 6.06021V2.39657C0 1.56324 0.533333 0.820814 1.32727 0.557178L2.11818 0.293542C2.62727 0.123845 3.17576 0.399602 3.34545 0.905663ZM13.5758 7.02991C13.8329 7.02991 14.0796 6.92774 14.2614 6.74589C14.4433 6.56403 14.5455 6.31739 14.5455 6.06021C14.5455 5.80303 14.4433 5.55638 14.2614 5.37453C14.0796 5.19268 13.8329 5.09051 13.5758 5.09051C13.3186 5.09051 13.0719 5.19268 12.8901 5.37453C12.7082 5.55638 12.6061 5.80303 12.6061 6.06021C12.6061 6.31739 12.7082 6.56403 12.8901 6.74589C13.0719 6.92774 13.3186 7.02991 13.5758 7.02991Z" fill="#151F6D"/>
</svg>
