<svg width="25" height="26" viewBox="0 0 25 26" fill="none" xmlns="http://www.w3.org/2000/svg">
<mask id="mask0_16_4971" style="mask-type:luminance" maskUnits="userSpaceOnUse" x="0" y="0" width="25" height="26">
<path d="M25 0.5H0V25.5H25V0.5Z" fill="white"/>
</mask>
<g mask="url(#mask0_16_4971)">
<path d="M18.4437 16.2423L23.5941 21.3306C23.6564 21.3921 23.6995 21.4703 23.7185 21.5561C23.7375 21.6419 23.7315 21.7317 23.7014 21.8151C23.6711 21.8983 23.618 21.9717 23.5481 22.0266C23.4782 22.0814 23.3945 22.1154 23.3066 22.1247L17.6286 22.7212C17.5609 22.7283 17.4927 22.7204 17.4289 22.6982C17.365 22.6759 17.307 22.6398 17.259 22.5924C17.211 22.5449 17.1741 22.4874 17.1511 22.4238C17.1281 22.3602 17.1194 22.2921 17.1256 22.2243L17.6532 16.5396C17.6614 16.4516 17.6944 16.3674 17.7484 16.2968C17.8024 16.2263 17.8751 16.1723 17.9581 16.1411C18.041 16.1099 18.1307 16.1028 18.2167 16.1208C18.3027 16.1387 18.3815 16.1809 18.4437 16.2423ZM1.40581 4.66929L6.5562 9.75754C6.61845 9.81897 6.69719 9.86114 6.78321 9.87907C6.86924 9.897 6.95897 9.88996 7.04192 9.85879C7.12488 9.82761 7.1976 9.77357 7.25159 9.70301C7.30556 9.63245 7.33857 9.54827 7.34674 9.46036L7.87432 3.77556C7.88059 3.70776 7.87189 3.63965 7.84885 3.57604C7.82581 3.51244 7.789 3.45489 7.74101 3.40749C7.69303 3.36007 7.63504 3.32396 7.57116 3.3017C7.50728 3.27944 7.43906 3.27156 7.37134 3.27865L1.69336 3.8752C1.60555 3.88444 1.52179 3.91846 1.45189 3.9733C1.38199 4.02814 1.32884 4.10151 1.29867 4.18482C1.2685 4.26815 1.26255 4.35797 1.28152 4.44376C1.3005 4.52956 1.34361 4.6078 1.40581 4.66929Z" fill="#A9AFE0"/>
<path fill-rule="evenodd" clip-rule="evenodd" d="M18.9551 6.46593C16.9534 4.48833 14.2504 3.64362 11.6334 3.92702C11.512 3.9442 11.3888 3.93685 11.271 3.9054C11.1532 3.87395 11.0432 3.81905 10.9477 3.74395C10.8521 3.66886 10.7728 3.57511 10.7146 3.46828C10.6564 3.36145 10.6204 3.24372 10.6088 3.12208C10.5971 3.00045 10.6101 2.8774 10.6469 2.76025C10.6837 2.6431 10.7436 2.53425 10.823 2.44015C10.9025 2.34606 10.9998 2.26865 11.1092 2.21252C11.2186 2.15641 11.3379 2.12272 11.46 2.11347C13.5489 1.888 15.6506 2.26653 17.5154 3.20406C19.3801 4.14158 20.9294 5.59863 21.9787 7.40192C23.0281 9.2052 23.5336 11.2788 23.4351 13.3762C23.3365 15.4734 22.638 17.5063 21.4227 19.2327L20.111 17.9368C21.2717 16.1672 21.7906 14.0588 21.58 11.9685C21.3694 9.87822 20.4421 7.93436 18.9551 6.46593ZM4.88902 8.06305C3.93947 9.51257 3.41584 11.1959 3.37862 12.9184C3.34142 14.6411 3.79214 16.3326 4.67872 17.7977C5.56531 19.2628 6.85157 20.4418 8.38892 21.1983C9.92627 21.9548 11.652 22.2579 13.3666 22.0728C13.488 22.0557 13.6112 22.0631 13.729 22.0944C13.8467 22.1259 13.9567 22.1808 14.0524 22.2559C14.1479 22.3311 14.2271 22.4248 14.2854 22.5316C14.3436 22.6384 14.3796 22.7562 14.3912 22.8778C14.4029 22.9994 14.3899 23.1224 14.3531 23.2396C14.3162 23.3568 14.2564 23.4657 14.177 23.5597C14.0975 23.6538 14.0002 23.7312 13.8907 23.7873C13.7814 23.8434 13.662 23.8772 13.54 23.8864C11.4511 24.1118 9.34936 23.7333 7.48462 22.7958C5.6199 21.8583 4.07069 20.4012 3.02125 18.5979C1.97182 16.7947 1.46632 14.7211 1.56491 12.6237C1.66349 10.5264 2.36197 8.49361 3.57731 6.76716L4.88902 8.06305Z" fill="#A9AFE0"/>
<path d="M12.5 13C13.0595 13 13.596 12.7778 13.9915 12.3822C14.3871 11.9866 14.6094 11.4501 14.6094 10.8906C14.6094 10.3312 14.3871 9.79465 13.9915 9.39907C13.596 9.00349 13.0595 8.78125 12.5 8.78125C11.9406 8.78125 11.404 9.00349 11.0084 9.39907C10.6129 9.79465 10.3906 10.3312 10.3906 10.8906C10.3906 11.4501 10.6129 11.9866 11.0084 12.3822C11.404 12.7778 11.9406 13 12.5 13ZM13.9062 10.8906C13.9062 11.2636 13.7581 11.6213 13.4944 11.885C13.2306 12.1487 12.873 12.2969 12.5 12.2969C12.127 12.2969 11.7693 12.1487 11.5056 11.885C11.2419 11.6213 11.0938 11.2636 11.0938 10.8906C11.0938 10.5177 11.2419 10.16 11.5056 9.89625C11.7693 9.63254 12.127 9.48438 12.5 9.48438C12.873 9.48438 13.2306 9.63254 13.4944 9.89625C13.7581 10.16 13.9062 10.5177 13.9062 10.8906ZM16.7188 16.5156C16.7188 17.2188 16.0156 17.2188 16.0156 17.2188H8.98438C8.98438 17.2188 8.28125 17.2188 8.28125 16.5156C8.28125 15.8125 8.98438 13.7031 12.5 13.7031C16.0156 13.7031 16.7188 15.8125 16.7188 16.5156ZM16.0156 16.5129C16.0149 16.3399 15.9074 15.8195 15.4306 15.3427C14.9722 14.8844 14.1095 14.4062 12.5 14.4062C10.8906 14.4062 10.0278 14.8844 9.56938 15.3427C9.09266 15.8195 8.98579 16.3399 8.98438 16.5129H16.0156Z" fill="#151F6D"/>
</g>
</svg>
