<svg width="21" height="21" viewBox="0 0 21 21" fill="none" xmlns="http://www.w3.org/2000/svg">
<path d="M10.4208 18.5619C9.76498 17.6661 9.37248 16.5652 9.37248 15.3719C9.37248 12.3852 11.8025 9.95524 14.7891 9.95524C15.9825 9.95524 17.0825 10.3477 17.9791 11.0036L10.4208 18.5619ZM11.5991 19.7402C12.495 20.3961 13.5958 20.7886 14.7883 20.7886C17.775 20.7886 20.205 18.3586 20.205 15.3719C20.205 14.1786 19.8125 13.0786 19.1566 12.1819L11.5991 19.7394V19.7402ZM10.205 9.95524V5.78857C10.205 3.03191 7.96164 0.788574 5.20498 0.788574C2.44831 0.788574 0.205811 3.03191 0.205811 5.78857V9.95524H10.2058H10.205ZM7.70498 15.3719C7.70498 13.9927 8.10498 12.7102 8.78664 11.6219H0.205811V15.7886C0.205811 18.5452 2.44914 20.7886 5.20581 20.7886C6.63831 20.7886 7.92914 20.1794 8.84164 19.2102C8.12581 18.1036 7.70581 16.7877 7.70581 15.3719H7.70498Z" fill="#F0F0F0"/>
</svg>
