<svg width="19" height="19" viewBox="0 0 19 19" fill="none" xmlns="http://www.w3.org/2000/svg">
<path d="M17.2276 2.15705C16.7981 1.72306 16.2866 1.37851 15.7228 1.14335C15.159 0.908195 14.5541 0.787109 13.9431 0.787109C13.3321 0.787109 12.7272 0.908195 12.1633 1.14335C11.5995 1.37851 11.0881 1.72306 10.6585 2.15705L1.94818 10.8564C1.07719 11.7265 0.587891 12.9064 0.587891 14.1368C0.587891 15.3671 1.07719 16.5471 1.94818 17.4172C2.37771 17.8512 2.88919 18.1957 3.45299 18.4309C4.0168 18.666 4.62172 18.7871 5.23271 18.7871C5.84371 18.7871 6.44863 18.666 7.01243 18.4309C7.57624 18.1957 8.08772 17.8512 8.51724 17.4172L17.2276 8.71781C18.0986 7.84774 18.5879 6.66777 18.5879 5.43743C18.5879 4.20709 18.0986 3.02713 17.2276 2.15705ZM7.75509 16.656C7.08611 17.3241 6.17879 17.6995 5.23271 17.6995C4.28664 17.6995 3.37931 17.3241 2.71034 16.656C2.04136 15.9878 1.66554 15.0817 1.66554 14.1368C1.66554 13.1919 2.04136 12.2857 2.71034 11.6176L6.68444 7.65758L11.7201 12.6869L7.75509 16.656ZM16.4654 7.95662L12.4913 11.9166L7.45567 6.88732L11.4207 2.91825C12.0897 2.25012 12.997 1.87476 13.9431 1.87476C14.8891 1.87476 15.7965 2.25012 16.4654 2.91825C17.1344 3.58638 17.5102 4.49255 17.5102 5.43743C17.5102 6.38231 17.1344 7.28849 16.4654 7.95662ZM15.1045 5.82709C15.2036 5.93143 15.2581 6.07024 15.2564 6.21406C15.2547 6.35787 15.1969 6.49537 15.0954 6.59735L12.8724 8.73594C12.7738 8.83452 12.64 8.88993 12.5004 8.88999C12.4268 8.89124 12.3537 8.8765 12.2864 8.84677C12.219 8.81704 12.1589 8.77304 12.1103 8.71781C12.0604 8.66748 12.021 8.60775 11.9944 8.54208C11.9678 8.47642 11.9546 8.40614 11.9554 8.33532C11.9563 8.2645 11.9712 8.19456 11.9993 8.12954C12.0275 8.06453 12.0683 8.00575 12.1193 7.95662L14.3332 5.81803C14.3844 5.76793 14.445 5.72842 14.5115 5.70175C14.578 5.67508 14.6491 5.66179 14.7207 5.66263C14.7924 5.66347 14.8632 5.67843 14.929 5.70665C14.9949 5.73488 15.0545 5.7758 15.1045 5.82709Z" fill="black"/>
</svg>
