<svg width="20" height="21" viewBox="0 0 20 21" fill="none" xmlns="http://www.w3.org/2000/svg">
<path fill-rule="evenodd" clip-rule="evenodd" d="M12.75 2.25H15C15.3975 2.25119 15.7783 2.4096 16.0593 2.69065C16.3404 2.9717 16.4988 3.35254 16.5 3.75V7V10H19.5V11.5H16.5V14.5H15V11.5H12V10H15V7V3.75H12.75V6H3.75V3.75H1.5V19.5H9V21H1.5C1.10254 20.9988 0.721699 20.8404 0.440651 20.5593C0.159604 20.2783 0.00118705 19.8975 0 19.5V3.75C0.00118705 3.35254 0.159604 2.9717 0.440651 2.69065C0.721699 2.4096 1.10254 2.25119 1.5 2.25H3.75V1.5C3.75119 1.10254 3.9096 0.721699 4.19065 0.440651C4.4717 0.159604 4.85254 0.00118705 5.25 0H11.25C11.6475 0.00118705 12.0283 0.159604 12.3093 0.440651C12.5904 0.721699 12.7488 1.10254 12.75 1.5V2.25ZM5.25 4.5H11.25V1.5H5.25V4.5Z" fill="#767579"/>
</svg>
