<svg width="41" height="41" viewBox="0 0 41 41" fill="none" xmlns="http://www.w3.org/2000/svg">
<g clip-path="url(#clip0_1_19808)">
<path d="M32.0859 26.5098H29.0859V23.5098H27.5859V26.5098H24.5859V28.0098H27.5859V31.0098H29.0859V28.0098H32.0859V26.5098Z" fill="#767579"/>
<path d="M27.5859 12.2598H25.3359V11.5098C25.3348 11.1123 25.1763 10.7315 24.8953 10.4504C24.6142 10.1694 24.2334 10.011 23.8359 10.0098H17.8359C17.4385 10.011 17.0576 10.1694 16.7766 10.4504C16.4955 10.7315 16.3371 11.1123 16.3359 11.5098V12.2598H14.0859C13.6885 12.261 13.3076 12.4194 13.0266 12.7004C12.7455 12.9815 12.5871 13.3623 12.5859 13.7598V29.5098C12.5871 29.9072 12.7455 30.2881 13.0266 30.5691C13.3076 30.8502 13.6885 31.0086 14.0859 31.0098H21.5859V29.5098H14.0859V13.7598H16.3359V16.0098H25.3359V13.7598H27.5859V20.5098H29.0859V13.7598C29.0848 13.3623 28.9263 12.9815 28.6453 12.7004C28.3642 12.4194 27.9834 12.261 27.5859 12.2598ZM23.8359 14.5098H17.8359V11.5098H23.8359V14.5098Z" fill="#767579"/>
</g>
<defs>
<clipPath id="clip0_1_19808">
<rect width="24" height="24" fill="white" transform="translate(8.83594 8.50977)"/>
</clipPath>
</defs>
</svg>
