<svg width="20" height="21" viewBox="0 0 20 21" fill="none" xmlns="http://www.w3.org/2000/svg">
<path d="M19.5 16.5H16.5V13.5H15V16.5H12V18H15V21H16.5V18H19.5V16.5Z" fill="#434343"/>
<path d="M15 2.25H12.75V1.5C12.7488 1.10254 12.5904 0.721699 12.3093 0.440651C12.0283 0.159604 11.6475 0.00118705 11.25 0H5.25C4.85254 0.00118705 4.4717 0.159604 4.19065 0.440651C3.9096 0.721699 3.75119 1.10254 3.75 1.5V2.25H1.5C1.10254 2.25119 0.721699 2.4096 0.440651 2.69065C0.159604 2.9717 0.00118705 3.35254 0 3.75V19.5C0.00118705 19.8975 0.159604 20.2783 0.440651 20.5593C0.721699 20.8404 1.10254 20.9988 1.5 21H9V19.5H1.5V3.75H3.75V6H12.75V3.75H15V10.5H16.5V3.75C16.4988 3.35254 16.3404 2.9717 16.0593 2.69065C15.7783 2.4096 15.3975 2.25119 15 2.25ZM11.25 4.5H5.25V1.5H11.25V4.5Z" fill="#434343"/>
</svg>
