<svg width="26" height="26" viewBox="0 0 26 26" fill="none" xmlns="http://www.w3.org/2000/svg">
<path d="M12.461 12.0433C14.3406 12.0433 15.8025 10.5117 15.8025 8.63208C15.8025 6.75246 14.271 5.29053 12.3914 5.29053C10.5117 5.29053 9.0498 6.82207 9.0498 8.63208C9.0498 10.5117 10.5814 12.0433 12.461 12.0433ZM12.3914 6.68284C12.461 6.68284 12.461 6.68284 12.3914 6.68284C13.5052 6.68284 14.4102 7.58785 14.4102 8.7017C14.4102 9.81555 13.5052 10.6509 12.3914 10.6509C11.2775 10.6509 10.4421 9.74594 10.4421 8.7017C10.4421 7.58785 11.3471 6.68284 12.3914 6.68284Z" fill="#86868A"/>
<path d="M22.7646 11.6261C21.4419 10.4427 19.7015 9.81612 17.8915 9.88573H17.3345C17.1953 10.4427 16.9865 10.93 16.708 11.3477C17.1257 11.278 17.4738 11.278 17.8915 11.278C19.2142 11.2084 20.5369 11.6261 21.5811 12.3919V17.4042H22.9734V11.835L22.7646 11.6261Z" fill="#86868A"/>
<path d="M16.2901 5.42959C16.6381 4.5942 17.6128 4.17651 18.5178 4.52459C19.3531 4.87267 19.7708 5.84729 19.4228 6.75229C19.1443 7.37884 18.5178 7.79653 17.8912 7.79653C17.752 7.79653 17.5431 7.79653 17.4039 7.72691C17.4735 8.07499 17.4735 8.42307 17.4735 8.70154V9.11923C17.6128 9.11923 17.752 9.18885 17.8912 9.18885C19.6316 9.18885 21.0239 7.79653 21.0239 6.12575C21.0239 4.38536 19.6316 2.99304 17.9608 2.99304C16.847 2.99304 15.8724 3.54997 15.3154 4.52459C15.6635 4.73344 16.0116 5.0119 16.2901 5.42959Z" fill="#86868A"/>
<path d="M8.35429 11.417C8.07582 10.9993 7.86698 10.512 7.72774 9.95508H7.17082C5.36081 9.88546 3.62041 10.512 2.29771 11.6259L2.08887 11.8347V17.404H3.48118V12.3916C4.59503 11.6259 5.84812 11.2082 7.17082 11.2778C7.58851 11.2778 8.00621 11.3474 8.35429 11.417Z" fill="#86868A"/>
<path d="M7.17143 9.11947C7.31066 9.11947 7.44989 9.11947 7.58912 9.04985V8.63216C7.58912 8.28408 7.58912 7.936 7.65874 7.65754C7.51951 7.72715 7.31066 7.72715 7.17143 7.72715C6.26642 7.72715 5.50065 6.96138 5.50065 6.05638C5.50065 5.15137 6.26642 4.3856 7.17143 4.3856C7.86758 4.3856 8.49413 4.80329 8.77259 5.42983C9.05105 5.08176 9.46875 4.73368 9.81683 4.45521C8.91182 2.99328 7.0322 2.50597 5.57026 3.41098C4.10833 4.31598 3.62102 6.19561 4.52603 7.65754C5.08295 8.56254 6.05758 9.11947 7.17143 9.11947Z" fill="#86868A"/>
<path d="M18.1696 15.8028L18.0303 15.5939C16.638 14.0624 14.6888 13.1574 12.6003 13.227C10.5118 13.1574 8.49297 14.0624 7.10066 15.5939L6.96143 15.8028V21.0936C6.96143 21.7201 7.44874 22.2771 8.14489 22.2771H17.0557C17.6823 22.2771 18.2392 21.7201 18.2392 21.0936V15.8028H18.1696ZM16.7772 20.8847H8.35374V16.2901C9.46759 15.1763 10.9991 14.6193 12.6003 14.6193C14.1318 14.5497 15.6634 15.1763 16.7772 16.2901V20.8847Z" fill="#86868A"/>
</svg>
