<svg width="48" height="48" viewBox="0 0 48 48" fill="none" xmlns="http://www.w3.org/2000/svg">
<path d="M24 45.5C35.8741 45.5 45.5 35.8741 45.5 24C45.5 12.1259 35.8741 2.5 24 2.5C12.1259 2.5 2.5 12.1259 2.5 24C2.5 35.8741 12.1259 45.5 24 45.5Z" fill="#86C8BC" fill-opacity="0.11"/>
<path d="M24 46C11.869 46 2 36.131 2 24C2 11.869 11.869 2 24 2C27.0808 2.00247 30.1269 2.65081 32.9417 3.9032C35.7566 5.15558 38.2775 6.98418 40.342 9.271C40.4308 9.3694 40.477 9.49905 40.4702 9.63146C40.4635 9.76386 40.4044 9.88815 40.306 9.977C40.2076 10.0658 40.0779 10.112 39.9455 10.1052C39.8131 10.0985 39.6888 10.0394 39.6 9.941C37.6292 7.75802 35.2227 6.01245 32.5357 4.81691C29.8487 3.62137 26.941 3.00242 24 3C12.421 3 3 12.42 3 24C3 35.58 12.421 45 24 45C35.579 45 45 35.58 45 24C45 21.701 44.631 19.44 43.902 17.28C43.8597 17.1544 43.869 17.0172 43.9279 16.8985C43.9868 16.7798 44.0904 16.6893 44.216 16.647C44.3416 16.6047 44.4788 16.614 44.5975 16.6729C44.7162 16.7318 44.8067 16.8354 44.849 16.961C45.6137 19.2289 46.0025 21.6066 46 24C46 36.131 36.131 46 24 46Z" fill="#86C8BC"/>
<path d="M24 45C12.421 45 3 35.58 3 24C3 12.42 12.421 3 24 3C26.8955 3.00417 29.759 3.60509 32.4119 4.76525C35.0648 5.92541 37.4501 7.61991 39.419 9.743C39.5068 9.8407 39.5527 9.96904 39.5466 10.1003C39.5406 10.2315 39.4831 10.3551 39.3867 10.4443C39.2903 10.5335 39.1626 10.5812 39.0313 10.577C38.9 10.5728 38.7756 10.5172 38.685 10.422C36.8099 8.39993 34.5382 6.78607 32.0115 5.68113C29.4849 4.5762 26.7577 4.00391 24 4C12.972 4 4 12.972 4 24C4 35.028 12.972 44 24 44C35.028 44 44 35.028 44 24C44 21.97 43.697 19.969 43.101 18.052C43.0815 17.9893 43.0745 17.9234 43.0805 17.858C43.0865 17.7926 43.1053 17.729 43.1359 17.6709C43.1664 17.6127 43.2081 17.5612 43.2586 17.5192C43.309 17.4772 43.3673 17.4455 43.43 17.426C43.4927 17.4065 43.5586 17.3995 43.624 17.4055C43.6894 17.4115 43.753 17.4303 43.8111 17.4609C43.8693 17.4914 43.9208 17.5331 43.9628 17.5836C44.0048 17.634 44.0365 17.6923 44.056 17.755C44.683 19.768 45 21.869 45 24C45 35.58 35.579 45 24 45Z" fill="white"/>
<path d="M21.5842 33.834C22.4762 34.722 24.0222 34.722 24.9152 33.834L44.3022 14.525C44.5235 14.3049 44.6991 14.0432 44.819 13.7549C44.9388 13.4667 45.0005 13.1576 45.0005 12.8455C45.0005 12.5334 44.9388 12.2243 44.819 11.9361C44.6991 11.6478 44.5235 11.3861 44.3022 11.166C43.4102 10.278 41.8642 10.278 40.9722 11.166L24.0072 28.061C23.6082 28.459 22.8912 28.459 22.4912 28.061L16.0282 21.625C15.5822 21.181 14.9912 20.937 14.3632 20.937C13.7352 20.937 13.1432 21.181 12.6982 21.625C12.4769 21.8451 12.3013 22.1068 12.1815 22.3951C12.0617 22.6833 12 22.9924 12 23.3045C12 23.6166 12.0617 23.9257 12.1815 24.2139C12.3013 24.5022 12.4769 24.7639 12.6982 24.984L21.5842 33.834Z" fill="#151F6D"/>
<path d="M23.249 35.0059C22.4948 35.0111 21.7692 34.7174 21.231 34.1889L12.345 25.3389C12.076 25.0728 11.8627 24.7558 11.7175 24.4064C11.5722 24.0571 11.498 23.6823 11.499 23.3039C11.499 22.5349 11.8 21.8129 12.345 21.2709C13.422 20.1969 15.299 20.1949 16.38 21.2709L22.843 27.7069C23.048 27.9109 23.449 27.9119 23.653 27.7069L40.619 10.8109C41.713 9.72189 43.56 9.72189 44.654 10.8109C44.923 11.0768 45.1363 11.3936 45.2815 11.7428C45.4267 12.0921 45.501 12.4667 45.5 12.8449C45.5 13.6139 45.199 14.3359 44.654 14.8779L25.268 34.1889C24.7295 34.7174 24.0036 35.0112 23.249 35.0059ZM14.363 21.4379C14.1194 21.4374 13.8781 21.485 13.653 21.578C13.4278 21.6711 13.2233 21.8076 13.051 21.9799C12.696 22.3339 12.499 22.8039 12.499 23.3049C12.499 23.8059 12.694 24.2769 13.05 24.6299L21.936 33.4809C22.635 34.1759 23.863 34.1769 24.562 33.4809L43.949 14.1709C44.303 13.8179 44.5 13.3469 44.5 12.8459C44.5 12.3449 44.305 11.8739 43.949 11.5209C43.25 10.8249 42.023 10.8239 41.324 11.5209L24.359 28.4169C23.769 29.0069 22.729 29.0069 22.137 28.4169L15.675 21.9809C15.5031 21.8081 15.2986 21.6712 15.0734 21.578C14.8482 21.4848 14.6068 21.4371 14.363 21.4379Z" fill="#151F6D"/>
<path d="M13 23.8041C12.8674 23.8041 12.7402 23.7515 12.6464 23.6577C12.5527 23.5639 12.5 23.4367 12.5 23.3041C12.5 22.8041 12.696 22.3331 13.052 21.9791C13.403 21.6291 13.868 21.4371 14.364 21.4371C14.4966 21.4371 14.6238 21.4898 14.7176 21.5836C14.8113 21.6774 14.864 21.8045 14.864 21.9371C14.864 22.0697 14.8113 22.1969 14.7176 22.2907C14.6238 22.3845 14.4966 22.4371 14.364 22.4371C14.2515 22.437 14.1401 22.4589 14.0361 22.5018C13.9321 22.5447 13.8376 22.6077 13.758 22.6871C13.6766 22.768 13.6121 22.8641 13.568 22.97C13.5239 23.0759 13.5011 23.1894 13.501 23.3041C13.5007 23.4368 13.4478 23.564 13.3539 23.6578C13.26 23.7515 13.1327 23.8041 13 23.8041ZM26.161 27.8281C26.0624 27.8272 25.9662 27.7972 25.8845 27.7419C25.8028 27.6866 25.7393 27.6085 25.7017 27.5173C25.6642 27.4261 25.6543 27.3258 25.6734 27.229C25.6925 27.1323 25.7396 27.0433 25.809 26.9731L39.879 12.9601C39.9253 12.9125 39.9805 12.8746 40.0416 12.8486C40.1027 12.8226 40.1683 12.809 40.2347 12.8086C40.3011 12.8082 40.3669 12.8211 40.4282 12.8464C40.4896 12.8717 40.5453 12.909 40.5921 12.956C40.6389 13.0031 40.6759 13.059 40.7009 13.1205C40.7258 13.1821 40.7383 13.2479 40.7375 13.3143C40.7368 13.3807 40.7228 13.4462 40.6965 13.5072C40.6701 13.5681 40.6319 13.6231 40.584 13.6691L26.514 27.6821C26.4203 27.7756 26.2934 27.8281 26.161 27.8281Z" fill="#151F6D"/>
</svg>
