<svg width="26" height="26" viewBox="0 0 26 26" fill="none" xmlns="http://www.w3.org/2000/svg">
<path d="M13 0.5C19.9037 0.5 25.5 6.09625 25.5 13C25.5 19.9037 19.9037 25.5 13 25.5C6.09625 25.5 0.5 19.9037 0.5 13C0.5 6.09625 6.09625 0.5 13 0.5ZM13 5.5C12.6685 5.5 12.3505 5.6317 12.1161 5.86612C11.8817 6.10054 11.75 6.41848 11.75 6.75V13C11.7501 13.3315 11.8818 13.6494 12.1162 13.8837L15.8662 17.6337C16.102 17.8614 16.4178 17.9874 16.7455 17.9846C17.0732 17.9817 17.3868 17.8503 17.6185 17.6185C17.8503 17.3868 17.9817 17.0732 17.9846 16.7455C17.9874 16.4178 17.8614 16.102 17.6337 15.8662L14.25 12.4825V6.75C14.25 6.41848 14.1183 6.10054 13.8839 5.86612C13.6495 5.6317 13.3315 5.5 13 5.5Z" fill="#EDEDED"/>
</svg>
