<svg width="11" height="12" viewBox="0 0 11 12" fill="none" xmlns="http://www.w3.org/2000/svg">
<path d="M1.23706 11.4761C1.12932 11.4761 1.02599 11.4333 0.949798 11.3571C0.873612 11.2809 0.830811 11.1776 0.830811 11.0698C0.830811 10.9621 0.873612 10.8587 0.949798 10.7826C1.02599 10.7064 1.12932 10.6636 1.23706 10.6636H2.04956V9.85107C2.04939 9.16124 2.24439 8.48542 2.61201 7.90171C2.97964 7.31799 3.5049 6.85018 4.12712 6.55232C4.36275 6.43939 4.48706 6.24601 4.48706 6.07295V5.5042C4.48706 5.33114 4.36194 5.13776 4.12712 5.02482C3.5049 4.72697 2.97964 4.25916 2.61201 3.67544C2.24439 3.09172 2.04939 2.41591 2.04956 1.72607V0.913574H1.23706C1.12932 0.913574 1.02599 0.870773 0.949798 0.794586C0.873612 0.7184 0.830811 0.615068 0.830811 0.507324C0.830811 0.39958 0.873612 0.296249 0.949798 0.220062C1.02599 0.143875 1.12932 0.101074 1.23706 0.101074H10.1746C10.2823 0.101074 10.3856 0.143875 10.4618 0.220062C10.538 0.296249 10.5808 0.39958 10.5808 0.507324C10.5808 0.615068 10.538 0.7184 10.4618 0.794586C10.3856 0.870773 10.2823 0.913574 10.1746 0.913574H9.36206V1.72607C9.36223 2.41591 9.16724 3.09172 8.79961 3.67544C8.43198 4.25916 7.90672 4.72697 7.2845 5.02482C7.04887 5.13776 6.92456 5.33114 6.92456 5.5042V6.07295C6.92456 6.24601 7.04969 6.43939 7.2845 6.55232C7.90672 6.85018 8.43198 7.31799 8.79961 7.90171C9.16724 8.48542 9.36223 9.16124 9.36206 9.85107V10.6636H10.1746C10.2823 10.6636 10.3856 10.7064 10.4618 10.7826C10.538 10.8587 10.5808 10.9621 10.5808 11.0698C10.5808 11.1776 10.538 11.2809 10.4618 11.3571C10.3856 11.4333 10.2823 11.4761 10.1746 11.4761H1.23706ZM2.86206 0.913574V1.72607C2.86206 2.16239 2.95956 2.57514 3.13587 2.94482H8.27575C8.45125 2.57514 8.54956 2.16239 8.54956 1.72607V0.913574H2.86206ZM5.29956 6.07295C5.29956 6.64251 4.91119 7.0772 4.47812 7.2852C3.99411 7.51685 3.58552 7.88072 3.29955 8.33476C3.01358 8.7888 2.86191 9.31448 2.86206 9.85107C2.86206 9.85107 3.56569 8.79564 5.29956 8.64857V6.07295ZM6.11206 6.07295V8.64857C7.84594 8.79564 8.54956 9.85107 8.54956 9.85107C8.54971 9.31448 8.39804 8.7888 8.11207 8.33476C7.8261 7.88072 7.41751 7.51685 6.9335 7.2852C6.50044 7.0772 6.11206 6.64251 6.11206 6.07295Z" fill="white"/>
</svg>
