<svg width="14" height="14" viewBox="0 0 14 14" fill="none" xmlns="http://www.w3.org/2000/svg">
<g clip-path="url(#clip0_384_1581)">
<path d="M6.70581 3.13232C6.70581 3.02458 6.66301 2.92125 6.58682 2.84506C6.51064 2.76888 6.4073 2.72607 6.29956 2.72607C6.19182 2.72607 6.08849 2.76888 6.0123 2.84506C5.93611 2.92125 5.89331 3.02458 5.89331 3.13232V7.60107C5.89333 7.67268 5.91228 7.74301 5.94824 7.80494C5.9842 7.86686 6.03588 7.91818 6.09806 7.9537L8.94181 9.5787C9.03513 9.62914 9.14448 9.64107 9.24649 9.61195C9.34849 9.58283 9.43506 9.51496 9.48769 9.42286C9.54032 9.33076 9.55483 9.22172 9.52814 9.11906C9.50144 9.01639 9.43564 8.92824 9.34481 8.87345L6.70581 7.36545V3.13232Z" fill="white"/>
<path d="M6.70581 13.2886C8.42972 13.2886 10.083 12.6038 11.302 11.3848C12.521 10.1658 13.2058 8.51248 13.2058 6.78857C13.2058 5.06467 12.521 3.41137 11.302 2.19238C10.083 0.973394 8.42972 0.288574 6.70581 0.288574C4.9819 0.288574 3.3286 0.973394 2.10962 2.19238C0.89063 3.41137 0.205811 5.06467 0.205811 6.78857C0.205811 8.51248 0.89063 10.1658 2.10962 11.3848C3.3286 12.6038 4.9819 13.2886 6.70581 13.2886ZM12.3933 6.78857C12.3933 8.29699 11.7941 9.74363 10.7275 10.8102C9.66087 11.8769 8.21423 12.4761 6.70581 12.4761C5.19739 12.4761 3.75075 11.8769 2.68414 10.8102C1.61753 9.74363 1.01831 8.29699 1.01831 6.78857C1.01831 5.28016 1.61753 3.83352 2.68414 2.7669C3.75075 1.70029 5.19739 1.10107 6.70581 1.10107C8.21423 1.10107 9.66087 1.70029 10.7275 2.7669C11.7941 3.83352 12.3933 5.28016 12.3933 6.78857Z" fill="white"/>
</g>
<defs>
<clipPath id="clip0_384_1581">
<rect width="13" height="13" fill="white" transform="translate(0.205811 0.288574)"/>
</clipPath>
</defs>
</svg>
