<svg width="97" height="97" viewBox="0 0 97 97" fill="none" xmlns="http://www.w3.org/2000/svg">
<path d="M97 74.1855H0V74.2344H97V74.1855Z" fill="#EBEBEB"/>
<path d="M87.2807 77.3066H80.8555V77.3555H87.2807V77.3066Z" fill="#EBEBEB"/>
<path d="M64.2562 77.834H62.5703V77.8828H64.2562V77.834Z" fill="#EBEBEB"/>
<path d="M80.6604 75.5059H76.9375V75.5547H80.6604V75.5059Z" fill="#EBEBEB"/>
<path d="M18.5566 75.832H10.1777V75.8809H18.5566V75.832Z" fill="#EBEBEB"/>
<path d="M21.5132 75.832H20.2852V75.8809H21.5132V75.832Z" fill="#EBEBEB"/>
<path d="M43.6798 76.6504H25.5059V76.6992H43.6798V76.6504Z" fill="#EBEBEB"/>
<path d="M45.9774 65.5331H8.51791C8.22445 65.5326 7.9432 65.4157 7.73587 65.208C7.52855 65.0003 7.41211 64.7188 7.41211 64.4254V11.768C7.41466 11.4762 7.53223 11.1972 7.73928 10.9916C7.94633 10.786 8.22613 10.6704 8.51791 10.6699H45.9774C46.2712 10.6699 46.5529 10.7866 46.7607 10.9944C46.9684 11.2021 47.0851 11.4839 47.0851 11.7777V64.4254C47.0851 64.7192 46.9684 65.0009 46.7607 65.2087C46.5529 65.4164 46.2712 65.5331 45.9774 65.5331ZM8.51791 10.7087C8.23732 10.7092 7.96839 10.8211 7.77017 11.0197C7.57194 11.2182 7.46061 11.4874 7.46061 11.768V64.4254C7.46061 64.706 7.57194 64.9751 7.77017 65.1737C7.96839 65.3723 8.23732 65.4841 8.51791 65.4846H45.9774C46.2581 65.4841 46.5273 65.3723 46.7258 65.1738C46.9243 64.9753 47.0361 64.7062 47.0366 64.4254V11.768C47.0361 11.4872 46.9243 11.2181 46.7258 11.0195C46.5273 10.821 46.2581 10.7092 45.9774 10.7087H8.51791Z" fill="#EBEBEB"/>
<path d="M87.9422 65.5331H50.4808C50.1872 65.5326 49.9057 65.4157 49.6981 65.2081C49.4904 65.0005 49.3736 64.719 49.373 64.4254V11.768C49.3761 11.476 49.4941 11.197 49.7015 10.9915C49.9088 10.786 50.1888 10.6704 50.4808 10.6699H87.9422C88.2336 10.6709 88.5129 10.7868 88.7196 10.9923C88.9262 11.1978 89.0435 11.4765 89.046 11.768V64.4254C89.0461 64.7185 88.9299 64.9997 88.723 65.2073C88.5161 65.4149 88.2353 65.5321 87.9422 65.5331ZM50.4808 10.7087C50.2 10.7092 49.9309 10.821 49.7324 11.0195C49.5338 11.2181 49.4221 11.4872 49.4215 11.768V64.4254C49.4221 64.7062 49.5338 64.9753 49.7324 65.1738C49.9309 65.3723 50.2 65.4841 50.4808 65.4846H87.9422C88.223 65.4841 88.4921 65.3723 88.6906 65.1738C88.8892 64.9753 89.0009 64.7062 89.0014 64.4254V11.768C89.0009 11.4872 88.8892 11.2181 88.6906 11.0195C88.4921 10.821 88.223 10.7092 87.9422 10.7087H50.4808Z" fill="#EBEBEB"/>
<path d="M89.0008 38.3008H7.41211V74.2082H89.0008V38.3008Z" fill="#F5F5F5"/>
<path d="M11.3934 39.9023H9.58723C9.05472 39.9023 8.62305 40.334 8.62305 40.8665V42.6727C8.62305 43.2052 9.05472 43.6368 9.58723 43.6368H11.3934C11.9259 43.6368 12.3575 43.2052 12.3575 42.6727V40.8665C12.3575 40.334 11.9259 39.9023 11.3934 39.9023Z" fill="#EBEBEB"/>
<path d="M11.3934 44.7148H9.58723C9.05472 44.7148 8.62305 45.1465 8.62305 45.679V47.4852C8.62305 48.0177 9.05472 48.4493 9.58723 48.4493H11.3934C11.9259 48.4493 12.3575 48.0177 12.3575 47.4852V45.679C12.3575 45.1465 11.9259 44.7148 11.3934 44.7148Z" fill="#EBEBEB"/>
<path d="M11.3934 49.4023H9.58723C9.05472 49.4023 8.62305 49.834 8.62305 50.3665V52.1727C8.62305 52.7052 9.05472 53.1368 9.58723 53.1368H11.3934C11.9259 53.1368 12.3575 52.7052 12.3575 52.1727V50.3665C12.3575 49.834 11.9259 49.4023 11.3934 49.4023Z" fill="#EBEBEB"/>
<path d="M11.3934 54.0879H9.58723C9.05472 54.0879 8.62305 54.5196 8.62305 55.0521V56.8582C8.62305 57.3907 9.05472 57.8224 9.58723 57.8224H11.3934C11.9259 57.8224 12.3575 57.3907 12.3575 56.8582V55.0521C12.3575 54.5196 11.9259 54.0879 11.3934 54.0879Z" fill="#EBEBEB"/>
<path d="M11.3934 58.7734H9.58723C9.05472 58.7734 8.62305 59.2051 8.62305 59.7376V61.5438C8.62305 62.0763 9.05472 62.5079 9.58723 62.5079H11.3934C11.9259 62.5079 12.3575 62.0763 12.3575 61.5438V59.7376C12.3575 59.2051 11.9259 58.7734 11.3934 58.7734Z" fill="#EBEBEB"/>
<path d="M11.3934 63.459H9.58723C9.05472 63.459 8.62305 63.8907 8.62305 64.4232V66.2293C8.62305 66.7618 9.05472 67.1935 9.58723 67.1935H11.3934C11.9259 67.1935 12.3575 66.7618 12.3575 66.2293V64.4232C12.3575 63.8907 11.9259 63.459 11.3934 63.459Z" fill="#EBEBEB"/>
<path d="M11.3934 68.1465H9.58723C9.05472 68.1465 8.62305 68.5782 8.62305 69.1107V70.9168C8.62305 71.4493 9.05472 71.881 9.58723 71.881H11.3934C11.9259 71.881 12.3575 71.4493 12.3575 70.9168V69.1107C12.3575 68.5782 11.9259 68.1465 11.3934 68.1465Z" fill="#EBEBEB"/>
<path d="M16.1961 39.9023H14.39C13.8575 39.9023 13.4258 40.334 13.4258 40.8665V42.6727C13.4258 43.2052 13.8575 43.6368 14.39 43.6368H16.1961C16.7286 43.6368 17.1603 43.2052 17.1603 42.6727V40.8665C17.1603 40.334 16.7286 39.9023 16.1961 39.9023Z" fill="#EBEBEB"/>
<path d="M16.1961 44.7148H14.39C13.8575 44.7148 13.4258 45.1465 13.4258 45.679V47.4852C13.4258 48.0177 13.8575 48.4493 14.39 48.4493H16.1961C16.7286 48.4493 17.1603 48.0177 17.1603 47.4852V45.679C17.1603 45.1465 16.7286 44.7148 16.1961 44.7148Z" fill="#EBEBEB"/>
<path d="M16.1961 49.4023H14.39C13.8575 49.4023 13.4258 49.834 13.4258 50.3665V52.1727C13.4258 52.7052 13.8575 53.1368 14.39 53.1368H16.1961C16.7286 53.1368 17.1603 52.7052 17.1603 52.1727V50.3665C17.1603 49.834 16.7286 49.4023 16.1961 49.4023Z" fill="#EBEBEB"/>
<path d="M16.1961 54.0879H14.39C13.8575 54.0879 13.4258 54.5196 13.4258 55.0521V56.8582C13.4258 57.3907 13.8575 57.8224 14.39 57.8224H16.1961C16.7286 57.8224 17.1603 57.3907 17.1603 56.8582V55.0521C17.1603 54.5196 16.7286 54.0879 16.1961 54.0879Z" fill="#EBEBEB"/>
<path d="M16.1961 58.7734H14.39C13.8575 58.7734 13.4258 59.2051 13.4258 59.7376V61.5438C13.4258 62.0763 13.8575 62.5079 14.39 62.5079H16.1961C16.7286 62.5079 17.1603 62.0763 17.1603 61.5438V59.7376C17.1603 59.2051 16.7286 58.7734 16.1961 58.7734Z" fill="#EBEBEB"/>
<path d="M16.1961 63.459H14.39C13.8575 63.459 13.4258 63.8907 13.4258 64.4232V66.2293C13.4258 66.7618 13.8575 67.1935 14.39 67.1935H16.1961C16.7286 67.1935 17.1603 66.7618 17.1603 66.2293V64.4232C17.1603 63.8907 16.7286 63.459 16.1961 63.459Z" fill="#EBEBEB"/>
<path d="M16.1961 68.1465H14.39C13.8575 68.1465 13.4258 68.5782 13.4258 69.1107V70.9168C13.4258 71.4493 13.8575 71.881 14.39 71.881H16.1961C16.7286 71.881 17.1603 71.4493 17.1603 70.9168V69.1107C17.1603 68.5782 16.7286 68.1465 16.1961 68.1465Z" fill="#EBEBEB"/>
<path d="M21.0008 39.9023H19.1946C18.6621 39.9023 18.2305 40.334 18.2305 40.8665V42.6727C18.2305 43.2052 18.6621 43.6368 19.1946 43.6368H21.0008C21.5333 43.6368 21.965 43.2052 21.965 42.6727V40.8665C21.965 40.334 21.5333 39.9023 21.0008 39.9023Z" fill="#EBEBEB"/>
<path d="M21.0008 44.7148H19.1946C18.6621 44.7148 18.2305 45.1465 18.2305 45.679V47.4852C18.2305 48.0177 18.6621 48.4493 19.1946 48.4493H21.0008C21.5333 48.4493 21.965 48.0177 21.965 47.4852V45.679C21.965 45.1465 21.5333 44.7148 21.0008 44.7148Z" fill="#EBEBEB"/>
<path d="M21.0008 49.4023H19.1946C18.6621 49.4023 18.2305 49.834 18.2305 50.3665V52.1727C18.2305 52.7052 18.6621 53.1368 19.1946 53.1368H21.0008C21.5333 53.1368 21.965 52.7052 21.965 52.1727V50.3665C21.965 49.834 21.5333 49.4023 21.0008 49.4023Z" fill="#EBEBEB"/>
<path d="M21.0008 54.0879H19.1946C18.6621 54.0879 18.2305 54.5196 18.2305 55.0521V56.8582C18.2305 57.3907 18.6621 57.8224 19.1946 57.8224H21.0008C21.5333 57.8224 21.965 57.3907 21.965 56.8582V55.0521C21.965 54.5196 21.5333 54.0879 21.0008 54.0879Z" fill="#EBEBEB"/>
<path d="M21.0008 58.7734H19.1946C18.6621 58.7734 18.2305 59.2051 18.2305 59.7376V61.5438C18.2305 62.0763 18.6621 62.5079 19.1946 62.5079H21.0008C21.5333 62.5079 21.965 62.0763 21.965 61.5438V59.7376C21.965 59.2051 21.5333 58.7734 21.0008 58.7734Z" fill="#EBEBEB"/>
<path d="M21.0008 63.459H19.1946C18.6621 63.459 18.2305 63.8907 18.2305 64.4232V66.2293C18.2305 66.7618 18.6621 67.1935 19.1946 67.1935H21.0008C21.5333 67.1935 21.965 66.7618 21.965 66.2293V64.4232C21.965 63.8907 21.5333 63.459 21.0008 63.459Z" fill="#EBEBEB"/>
<path d="M21.0008 68.1465H19.1946C18.6621 68.1465 18.2305 68.5782 18.2305 69.1107V70.9168C18.2305 71.4493 18.6621 71.881 19.1946 71.881H21.0008C21.5333 71.881 21.965 71.4493 21.965 70.9168V69.1107C21.965 68.5782 21.5333 68.1465 21.0008 68.1465Z" fill="#EBEBEB"/>
<path d="M25.8016 39.9023H23.9954C23.4629 39.9023 23.0312 40.334 23.0312 40.8665V42.6727C23.0312 43.2052 23.4629 43.6368 23.9954 43.6368H25.8016C26.3341 43.6368 26.7657 43.2052 26.7657 42.6727V40.8665C26.7657 40.334 26.3341 39.9023 25.8016 39.9023Z" fill="#EBEBEB"/>
<path d="M25.8016 44.7148H23.9954C23.4629 44.7148 23.0312 45.1465 23.0312 45.679V47.4852C23.0312 48.0177 23.4629 48.4493 23.9954 48.4493H25.8016C26.3341 48.4493 26.7657 48.0177 26.7657 47.4852V45.679C26.7657 45.1465 26.3341 44.7148 25.8016 44.7148Z" fill="#EBEBEB"/>
<path d="M25.8016 49.4023H23.9954C23.4629 49.4023 23.0312 49.834 23.0312 50.3665V52.1727C23.0312 52.7052 23.4629 53.1368 23.9954 53.1368H25.8016C26.3341 53.1368 26.7657 52.7052 26.7657 52.1727V50.3665C26.7657 49.834 26.3341 49.4023 25.8016 49.4023Z" fill="#EBEBEB"/>
<path d="M25.8016 54.0879H23.9954C23.4629 54.0879 23.0312 54.5196 23.0312 55.0521V56.8582C23.0312 57.3907 23.4629 57.8224 23.9954 57.8224H25.8016C26.3341 57.8224 26.7657 57.3907 26.7657 56.8582V55.0521C26.7657 54.5196 26.3341 54.0879 25.8016 54.0879Z" fill="#EBEBEB"/>
<path d="M25.8016 58.7734H23.9954C23.4629 58.7734 23.0312 59.2051 23.0312 59.7376V61.5438C23.0312 62.0763 23.4629 62.5079 23.9954 62.5079H25.8016C26.3341 62.5079 26.7657 62.0763 26.7657 61.5438V59.7376C26.7657 59.2051 26.3341 58.7734 25.8016 58.7734Z" fill="#EBEBEB"/>
<path d="M25.8016 63.459H23.9954C23.4629 63.459 23.0312 63.8907 23.0312 64.4232V66.2293C23.0312 66.7618 23.4629 67.1935 23.9954 67.1935H25.8016C26.3341 67.1935 26.7657 66.7618 26.7657 66.2293V64.4232C26.7657 63.8907 26.3341 63.459 25.8016 63.459Z" fill="#EBEBEB"/>
<path d="M25.8016 68.1465H23.9954C23.4629 68.1465 23.0312 68.5782 23.0312 69.1107V70.9168C23.0312 71.4493 23.4629 71.881 23.9954 71.881H25.8016C26.3341 71.881 26.7657 71.4493 26.7657 70.9168V69.1107C26.7657 68.5782 26.3341 68.1465 25.8016 68.1465Z" fill="#EBEBEB"/>
<path d="M30.9363 39.9023H29.1302C28.5977 39.9023 28.166 40.334 28.166 40.8665V42.6727C28.166 43.2052 28.5977 43.6368 29.1302 43.6368H30.9363C31.4688 43.6368 31.9005 43.2052 31.9005 42.6727V40.8665C31.9005 40.334 31.4688 39.9023 30.9363 39.9023Z" fill="#EBEBEB"/>
<path d="M30.9363 44.7148H29.1302C28.5977 44.7148 28.166 45.1465 28.166 45.679V47.4852C28.166 48.0177 28.5977 48.4493 29.1302 48.4493H30.9363C31.4688 48.4493 31.9005 48.0177 31.9005 47.4852V45.679C31.9005 45.1465 31.4688 44.7148 30.9363 44.7148Z" fill="#EBEBEB"/>
<path d="M30.9363 49.4023H29.1302C28.5977 49.4023 28.166 49.834 28.166 50.3665V52.1727C28.166 52.7052 28.5977 53.1368 29.1302 53.1368H30.9363C31.4688 53.1368 31.9005 52.7052 31.9005 52.1727V50.3665C31.9005 49.834 31.4688 49.4023 30.9363 49.4023Z" fill="#EBEBEB"/>
<path d="M30.9363 54.0879H29.1302C28.5977 54.0879 28.166 54.5196 28.166 55.0521V56.8582C28.166 57.3907 28.5977 57.8224 29.1302 57.8224H30.9363C31.4688 57.8224 31.9005 57.3907 31.9005 56.8582V55.0521C31.9005 54.5196 31.4688 54.0879 30.9363 54.0879Z" fill="#EBEBEB"/>
<path d="M30.9363 58.7734H29.1302C28.5977 58.7734 28.166 59.2051 28.166 59.7376V61.5438C28.166 62.0763 28.5977 62.5079 29.1302 62.5079H30.9363C31.4688 62.5079 31.9005 62.0763 31.9005 61.5438V59.7376C31.9005 59.2051 31.4688 58.7734 30.9363 58.7734Z" fill="#EBEBEB"/>
<path d="M30.9363 63.459H29.1302C28.5977 63.459 28.166 63.8907 28.166 64.4232V66.2293C28.166 66.7618 28.5977 67.1935 29.1302 67.1935H30.9363C31.4688 67.1935 31.9005 66.7618 31.9005 66.2293V64.4232C31.9005 63.8907 31.4688 63.459 30.9363 63.459Z" fill="#EBEBEB"/>
<path d="M30.9363 68.1465H29.1302C28.5977 68.1465 28.166 68.5782 28.166 69.1107V70.9168C28.166 71.4493 28.5977 71.881 29.1302 71.881H30.9363C31.4688 71.881 31.9005 71.4493 31.9005 70.9168V69.1107C31.9005 68.5782 31.4688 68.1465 30.9363 68.1465Z" fill="#EBEBEB"/>
<path d="M35.741 39.9023H33.9349C33.4024 39.9023 32.9707 40.334 32.9707 40.8665V42.6727C32.9707 43.2052 33.4024 43.6368 33.9349 43.6368H35.741C36.2735 43.6368 36.7052 43.2052 36.7052 42.6727V40.8665C36.7052 40.334 36.2735 39.9023 35.741 39.9023Z" fill="#EBEBEB"/>
<path d="M35.741 44.7148H33.9349C33.4024 44.7148 32.9707 45.1465 32.9707 45.679V47.4852C32.9707 48.0177 33.4024 48.4493 33.9349 48.4493H35.741C36.2735 48.4493 36.7052 48.0177 36.7052 47.4852V45.679C36.7052 45.1465 36.2735 44.7148 35.741 44.7148Z" fill="#EBEBEB"/>
<path d="M35.741 49.4023H33.9349C33.4024 49.4023 32.9707 49.834 32.9707 50.3665V52.1727C32.9707 52.7052 33.4024 53.1368 33.9349 53.1368H35.741C36.2735 53.1368 36.7052 52.7052 36.7052 52.1727V50.3665C36.7052 49.834 36.2735 49.4023 35.741 49.4023Z" fill="#EBEBEB"/>
<path d="M35.741 54.0879H33.9349C33.4024 54.0879 32.9707 54.5196 32.9707 55.0521V56.8582C32.9707 57.3907 33.4024 57.8224 33.9349 57.8224H35.741C36.2735 57.8224 36.7052 57.3907 36.7052 56.8582V55.0521C36.7052 54.5196 36.2735 54.0879 35.741 54.0879Z" fill="#EBEBEB"/>
<path d="M35.741 58.7734H33.9349C33.4024 58.7734 32.9707 59.2051 32.9707 59.7376V61.5438C32.9707 62.0763 33.4024 62.5079 33.9349 62.5079H35.741C36.2735 62.5079 36.7052 62.0763 36.7052 61.5438V59.7376C36.7052 59.2051 36.2735 58.7734 35.741 58.7734Z" fill="#EBEBEB"/>
<path d="M35.741 63.459H33.9349C33.4024 63.459 32.9707 63.8907 32.9707 64.4232V66.2293C32.9707 66.7618 33.4024 67.1935 33.9349 67.1935H35.741C36.2735 67.1935 36.7052 66.7618 36.7052 66.2293V64.4232C36.7052 63.8907 36.2735 63.459 35.741 63.459Z" fill="#EBEBEB"/>
<path d="M35.741 68.1465H33.9349C33.4024 68.1465 32.9707 68.5782 32.9707 69.1107V70.9168C32.9707 71.4493 33.4024 71.881 33.9349 71.881H35.741C36.2735 71.881 36.7052 71.4493 36.7052 70.9168V69.1107C36.7052 68.5782 36.2735 68.1465 35.741 68.1465Z" fill="#EBEBEB"/>
<path d="M40.5418 39.9023H38.7357C38.2032 39.9023 37.7715 40.334 37.7715 40.8665V42.6727C37.7715 43.2052 38.2032 43.6368 38.7357 43.6368H40.5418C41.0743 43.6368 41.506 43.2052 41.506 42.6727V40.8665C41.506 40.334 41.0743 39.9023 40.5418 39.9023Z" fill="#EBEBEB"/>
<path d="M40.5418 44.7148H38.7357C38.2032 44.7148 37.7715 45.1465 37.7715 45.679V47.4852C37.7715 48.0177 38.2032 48.4493 38.7357 48.4493H40.5418C41.0743 48.4493 41.506 48.0177 41.506 47.4852V45.679C41.506 45.1465 41.0743 44.7148 40.5418 44.7148Z" fill="#EBEBEB"/>
<path d="M40.5418 49.4023H38.7357C38.2032 49.4023 37.7715 49.834 37.7715 50.3665V52.1727C37.7715 52.7052 38.2032 53.1368 38.7357 53.1368H40.5418C41.0743 53.1368 41.506 52.7052 41.506 52.1727V50.3665C41.506 49.834 41.0743 49.4023 40.5418 49.4023Z" fill="#EBEBEB"/>
<path d="M40.5418 54.0879H38.7357C38.2032 54.0879 37.7715 54.5196 37.7715 55.0521V56.8582C37.7715 57.3907 38.2032 57.8224 38.7357 57.8224H40.5418C41.0743 57.8224 41.506 57.3907 41.506 56.8582V55.0521C41.506 54.5196 41.0743 54.0879 40.5418 54.0879Z" fill="#EBEBEB"/>
<path d="M40.5418 58.7734H38.7357C38.2032 58.7734 37.7715 59.2051 37.7715 59.7376V61.5438C37.7715 62.0763 38.2032 62.5079 38.7357 62.5079H40.5418C41.0743 62.5079 41.506 62.0763 41.506 61.5438V59.7376C41.506 59.2051 41.0743 58.7734 40.5418 58.7734Z" fill="#EBEBEB"/>
<path d="M40.5418 63.459H38.7357C38.2032 63.459 37.7715 63.8907 37.7715 64.4232V66.2293C37.7715 66.7618 38.2032 67.1935 38.7357 67.1935H40.5418C41.0743 67.1935 41.506 66.7618 41.506 66.2293V64.4232C41.506 63.8907 41.0743 63.459 40.5418 63.459Z" fill="#EBEBEB"/>
<path d="M40.5418 68.1465H38.7357C38.2032 68.1465 37.7715 68.5782 37.7715 69.1107V70.9168C37.7715 71.4493 38.2032 71.881 38.7357 71.881H40.5418C41.0743 71.881 41.506 71.4493 41.506 70.9168V69.1107C41.506 68.5782 41.0743 68.1465 40.5418 68.1465Z" fill="#EBEBEB"/>
<path d="M45.3465 39.9023H43.5403C43.0078 39.9023 42.5762 40.334 42.5762 40.8665V42.6727C42.5762 43.2052 43.0078 43.6368 43.5403 43.6368H45.3465C45.879 43.6368 46.3107 43.2052 46.3107 42.6727V40.8665C46.3107 40.334 45.879 39.9023 45.3465 39.9023Z" fill="#EBEBEB"/>
<path d="M45.3465 44.7148H43.5403C43.0078 44.7148 42.5762 45.1465 42.5762 45.679V47.4852C42.5762 48.0177 43.0078 48.4493 43.5403 48.4493H45.3465C45.879 48.4493 46.3107 48.0177 46.3107 47.4852V45.679C46.3107 45.1465 45.879 44.7148 45.3465 44.7148Z" fill="#EBEBEB"/>
<path d="M45.3465 49.4023H43.5403C43.0078 49.4023 42.5762 49.834 42.5762 50.3665V52.1727C42.5762 52.7052 43.0078 53.1368 43.5403 53.1368H45.3465C45.879 53.1368 46.3107 52.7052 46.3107 52.1727V50.3665C46.3107 49.834 45.879 49.4023 45.3465 49.4023Z" fill="#EBEBEB"/>
<path d="M45.3465 54.0879H43.5403C43.0078 54.0879 42.5762 54.5196 42.5762 55.0521V56.8582C42.5762 57.3907 43.0078 57.8224 43.5403 57.8224H45.3465C45.879 57.8224 46.3107 57.3907 46.3107 56.8582V55.0521C46.3107 54.5196 45.879 54.0879 45.3465 54.0879Z" fill="#EBEBEB"/>
<path d="M45.3465 58.7734H43.5403C43.0078 58.7734 42.5762 59.2051 42.5762 59.7376V61.5438C42.5762 62.0763 43.0078 62.5079 43.5403 62.5079H45.3465C45.879 62.5079 46.3107 62.0763 46.3107 61.5438V59.7376C46.3107 59.2051 45.879 58.7734 45.3465 58.7734Z" fill="#EBEBEB"/>
<path d="M45.3465 63.459H43.5403C43.0078 63.459 42.5762 63.8907 42.5762 64.4232V66.2293C42.5762 66.7618 43.0078 67.1935 43.5403 67.1935H45.3465C45.879 67.1935 46.3107 66.7618 46.3107 66.2293V64.4232C46.3107 63.8907 45.879 63.459 45.3465 63.459Z" fill="#EBEBEB"/>
<path d="M45.3465 68.1465H43.5403C43.0078 68.1465 42.5762 68.5782 42.5762 69.1107V70.9168C42.5762 71.4493 43.0078 71.881 43.5403 71.881H45.3465C45.879 71.881 46.3107 71.4493 46.3107 70.9168V69.1107C46.3107 68.5782 45.879 68.1465 45.3465 68.1465Z" fill="#EBEBEB"/>
<path d="M50.2684 39.9023H48.4622C47.9297 39.9023 47.498 40.334 47.498 40.8665V42.6727C47.498 43.2052 47.9297 43.6368 48.4622 43.6368H50.2684C50.8009 43.6368 51.2325 43.2052 51.2325 42.6727V40.8665C51.2325 40.334 50.8009 39.9023 50.2684 39.9023Z" fill="#EBEBEB"/>
<path d="M50.2684 44.7148H48.4622C47.9297 44.7148 47.498 45.1465 47.498 45.679V47.4852C47.498 48.0177 47.9297 48.4493 48.4622 48.4493H50.2684C50.8009 48.4493 51.2325 48.0177 51.2325 47.4852V45.679C51.2325 45.1465 50.8009 44.7148 50.2684 44.7148Z" fill="#EBEBEB"/>
<path d="M50.2684 49.4023H48.4622C47.9297 49.4023 47.498 49.834 47.498 50.3665V52.1727C47.498 52.7052 47.9297 53.1368 48.4622 53.1368H50.2684C50.8009 53.1368 51.2325 52.7052 51.2325 52.1727V50.3665C51.2325 49.834 50.8009 49.4023 50.2684 49.4023Z" fill="#EBEBEB"/>
<path d="M50.2684 54.0879H48.4622C47.9297 54.0879 47.498 54.5196 47.498 55.0521V56.8582C47.498 57.3907 47.9297 57.8224 48.4622 57.8224H50.2684C50.8009 57.8224 51.2325 57.3907 51.2325 56.8582V55.0521C51.2325 54.5196 50.8009 54.0879 50.2684 54.0879Z" fill="#EBEBEB"/>
<path d="M50.2684 58.7734H48.4622C47.9297 58.7734 47.498 59.2051 47.498 59.7376V61.5438C47.498 62.0763 47.9297 62.5079 48.4622 62.5079H50.2684C50.8009 62.5079 51.2325 62.0763 51.2325 61.5438V59.7376C51.2325 59.2051 50.8009 58.7734 50.2684 58.7734Z" fill="#EBEBEB"/>
<path d="M50.2684 63.459H48.4622C47.9297 63.459 47.498 63.8907 47.498 64.4232V66.2293C47.498 66.7618 47.9297 67.1935 48.4622 67.1935H50.2684C50.8009 67.1935 51.2325 66.7618 51.2325 66.2293V64.4232C51.2325 63.8907 50.8009 63.459 50.2684 63.459Z" fill="#EBEBEB"/>
<path d="M50.2684 68.1465H48.4622C47.9297 68.1465 47.498 68.5782 47.498 69.1107V70.9168C47.498 71.4493 47.9297 71.881 48.4622 71.881H50.2684C50.8009 71.881 51.2325 71.4493 51.2325 70.9168V69.1107C51.2325 68.5782 50.8009 68.1465 50.2684 68.1465Z" fill="#EBEBEB"/>
<path d="M55.0711 39.9023H53.265C52.7325 39.9023 52.3008 40.334 52.3008 40.8665V42.6727C52.3008 43.2052 52.7325 43.6368 53.265 43.6368H55.0711C55.6036 43.6368 56.0353 43.2052 56.0353 42.6727V40.8665C56.0353 40.334 55.6036 39.9023 55.0711 39.9023Z" fill="#EBEBEB"/>
<path d="M55.0711 44.7148H53.265C52.7325 44.7148 52.3008 45.1465 52.3008 45.679V47.4852C52.3008 48.0177 52.7325 48.4493 53.265 48.4493H55.0711C55.6036 48.4493 56.0353 48.0177 56.0353 47.4852V45.679C56.0353 45.1465 55.6036 44.7148 55.0711 44.7148Z" fill="#EBEBEB"/>
<path d="M55.0711 49.4023H53.265C52.7325 49.4023 52.3008 49.834 52.3008 50.3665V52.1727C52.3008 52.7052 52.7325 53.1368 53.265 53.1368H55.0711C55.6036 53.1368 56.0353 52.7052 56.0353 52.1727V50.3665C56.0353 49.834 55.6036 49.4023 55.0711 49.4023Z" fill="#EBEBEB"/>
<path d="M55.0711 54.0879H53.265C52.7325 54.0879 52.3008 54.5196 52.3008 55.0521V56.8582C52.3008 57.3907 52.7325 57.8224 53.265 57.8224H55.0711C55.6036 57.8224 56.0353 57.3907 56.0353 56.8582V55.0521C56.0353 54.5196 55.6036 54.0879 55.0711 54.0879Z" fill="#EBEBEB"/>
<path d="M55.0711 58.7734H53.265C52.7325 58.7734 52.3008 59.2051 52.3008 59.7376V61.5438C52.3008 62.0763 52.7325 62.5079 53.265 62.5079H55.0711C55.6036 62.5079 56.0353 62.0763 56.0353 61.5438V59.7376C56.0353 59.2051 55.6036 58.7734 55.0711 58.7734Z" fill="#EBEBEB"/>
<path d="M55.0711 63.459H53.265C52.7325 63.459 52.3008 63.8907 52.3008 64.4232V66.2293C52.3008 66.7618 52.7325 67.1935 53.265 67.1935H55.0711C55.6036 67.1935 56.0353 66.7618 56.0353 66.2293V64.4232C56.0353 63.8907 55.6036 63.459 55.0711 63.459Z" fill="#EBEBEB"/>
<path d="M55.0711 68.1465H53.265C52.7325 68.1465 52.3008 68.5782 52.3008 69.1107V70.9168C52.3008 71.4493 52.7325 71.881 53.265 71.881H55.0711C55.6036 71.881 56.0353 71.4493 56.0353 70.9168V69.1107C56.0353 68.5782 55.6036 68.1465 55.0711 68.1465Z" fill="#EBEBEB"/>
<path d="M59.8738 39.9023H58.0677C57.5352 39.9023 57.1035 40.334 57.1035 40.8665V42.6727C57.1035 43.2052 57.5352 43.6368 58.0677 43.6368H59.8738C60.4063 43.6368 60.838 43.2052 60.838 42.6727V40.8665C60.838 40.334 60.4063 39.9023 59.8738 39.9023Z" fill="#EBEBEB"/>
<path d="M59.8738 44.7148H58.0677C57.5352 44.7148 57.1035 45.1465 57.1035 45.679V47.4852C57.1035 48.0177 57.5352 48.4493 58.0677 48.4493H59.8738C60.4063 48.4493 60.838 48.0177 60.838 47.4852V45.679C60.838 45.1465 60.4063 44.7148 59.8738 44.7148Z" fill="#EBEBEB"/>
<path d="M59.8738 49.4023H58.0677C57.5352 49.4023 57.1035 49.834 57.1035 50.3665V52.1727C57.1035 52.7052 57.5352 53.1368 58.0677 53.1368H59.8738C60.4063 53.1368 60.838 52.7052 60.838 52.1727V50.3665C60.838 49.834 60.4063 49.4023 59.8738 49.4023Z" fill="#EBEBEB"/>
<path d="M59.8738 54.0879H58.0677C57.5352 54.0879 57.1035 54.5196 57.1035 55.0521V56.8582C57.1035 57.3907 57.5352 57.8224 58.0677 57.8224H59.8738C60.4063 57.8224 60.838 57.3907 60.838 56.8582V55.0521C60.838 54.5196 60.4063 54.0879 59.8738 54.0879Z" fill="#EBEBEB"/>
<path d="M59.8738 58.7734H58.0677C57.5352 58.7734 57.1035 59.2051 57.1035 59.7376V61.5438C57.1035 62.0763 57.5352 62.5079 58.0677 62.5079H59.8738C60.4063 62.5079 60.838 62.0763 60.838 61.5438V59.7376C60.838 59.2051 60.4063 58.7734 59.8738 58.7734Z" fill="#EBEBEB"/>
<path d="M59.8738 63.459H58.0677C57.5352 63.459 57.1035 63.8907 57.1035 64.4232V66.2293C57.1035 66.7618 57.5352 67.1935 58.0677 67.1935H59.8738C60.4063 67.1935 60.838 66.7618 60.838 66.2293V64.4232C60.838 63.8907 60.4063 63.459 59.8738 63.459Z" fill="#EBEBEB"/>
<path d="M59.8738 68.1465H58.0677C57.5352 68.1465 57.1035 68.5782 57.1035 69.1107V70.9168C57.1035 71.4493 57.5352 71.881 58.0677 71.881H59.8738C60.4063 71.881 60.838 71.4493 60.838 70.9168V69.1107C60.838 68.5782 60.4063 68.1465 59.8738 68.1465Z" fill="#EBEBEB"/>
<path d="M64.6785 39.9023H62.8724C62.3399 39.9023 61.9082 40.334 61.9082 40.8665V42.6727C61.9082 43.2052 62.3399 43.6368 62.8724 43.6368H64.6785C65.211 43.6368 65.6427 43.2052 65.6427 42.6727V40.8665C65.6427 40.334 65.211 39.9023 64.6785 39.9023Z" fill="#EBEBEB"/>
<path d="M64.6785 44.7148H62.8724C62.3399 44.7148 61.9082 45.1465 61.9082 45.679V47.4852C61.9082 48.0177 62.3399 48.4493 62.8724 48.4493H64.6785C65.211 48.4493 65.6427 48.0177 65.6427 47.4852V45.679C65.6427 45.1465 65.211 44.7148 64.6785 44.7148Z" fill="#EBEBEB"/>
<path d="M64.6785 49.4023H62.8724C62.3399 49.4023 61.9082 49.834 61.9082 50.3665V52.1727C61.9082 52.7052 62.3399 53.1368 62.8724 53.1368H64.6785C65.211 53.1368 65.6427 52.7052 65.6427 52.1727V50.3665C65.6427 49.834 65.211 49.4023 64.6785 49.4023Z" fill="#EBEBEB"/>
<path d="M64.6785 54.0879H62.8724C62.3399 54.0879 61.9082 54.5196 61.9082 55.0521V56.8582C61.9082 57.3907 62.3399 57.8224 62.8724 57.8224H64.6785C65.211 57.8224 65.6427 57.3907 65.6427 56.8582V55.0521C65.6427 54.5196 65.211 54.0879 64.6785 54.0879Z" fill="#EBEBEB"/>
<path d="M64.6785 58.7734H62.8724C62.3399 58.7734 61.9082 59.2051 61.9082 59.7376V61.5438C61.9082 62.0763 62.3399 62.5079 62.8724 62.5079H64.6785C65.211 62.5079 65.6427 62.0763 65.6427 61.5438V59.7376C65.6427 59.2051 65.211 58.7734 64.6785 58.7734Z" fill="#EBEBEB"/>
<path d="M64.6785 63.459H62.8724C62.3399 63.459 61.9082 63.8907 61.9082 64.4232V66.2293C61.9082 66.7618 62.3399 67.1935 62.8724 67.1935H64.6785C65.211 67.1935 65.6427 66.7618 65.6427 66.2293V64.4232C65.6427 63.8907 65.211 63.459 64.6785 63.459Z" fill="#EBEBEB"/>
<path d="M64.6785 68.1465H62.8724C62.3399 68.1465 61.9082 68.5782 61.9082 69.1107V70.9168C61.9082 71.4493 62.3399 71.881 62.8724 71.881H64.6785C65.211 71.881 65.6427 71.4493 65.6427 70.9168V69.1107C65.6427 68.5782 65.211 68.1465 64.6785 68.1465Z" fill="#EBEBEB"/>
<path d="M69.409 39.9023H67.6029C67.0704 39.9023 66.6387 40.334 66.6387 40.8665V42.6727C66.6387 43.2052 67.0704 43.6368 67.6029 43.6368H69.409C69.9415 43.6368 70.3732 43.2052 70.3732 42.6727V40.8665C70.3732 40.334 69.9415 39.9023 69.409 39.9023Z" fill="#EBEBEB"/>
<path d="M69.409 44.7148H67.6029C67.0704 44.7148 66.6387 45.1465 66.6387 45.679V47.4852C66.6387 48.0177 67.0704 48.4493 67.6029 48.4493H69.409C69.9415 48.4493 70.3732 48.0177 70.3732 47.4852V45.679C70.3732 45.1465 69.9415 44.7148 69.409 44.7148Z" fill="#EBEBEB"/>
<path d="M69.409 49.4023H67.6029C67.0704 49.4023 66.6387 49.834 66.6387 50.3665V52.1727C66.6387 52.7052 67.0704 53.1368 67.6029 53.1368H69.409C69.9415 53.1368 70.3732 52.7052 70.3732 52.1727V50.3665C70.3732 49.834 69.9415 49.4023 69.409 49.4023Z" fill="#EBEBEB"/>
<path d="M69.409 54.0879H67.6029C67.0704 54.0879 66.6387 54.5196 66.6387 55.0521V56.8582C66.6387 57.3907 67.0704 57.8224 67.6029 57.8224H69.409C69.9415 57.8224 70.3732 57.3907 70.3732 56.8582V55.0521C70.3732 54.5196 69.9415 54.0879 69.409 54.0879Z" fill="#EBEBEB"/>
<path d="M69.409 58.7734H67.6029C67.0704 58.7734 66.6387 59.2051 66.6387 59.7376V61.5438C66.6387 62.0763 67.0704 62.5079 67.6029 62.5079H69.409C69.9415 62.5079 70.3732 62.0763 70.3732 61.5438V59.7376C70.3732 59.2051 69.9415 58.7734 69.409 58.7734Z" fill="#EBEBEB"/>
<path d="M69.409 63.459H67.6029C67.0704 63.459 66.6387 63.8907 66.6387 64.4232V66.2293C66.6387 66.7618 67.0704 67.1935 67.6029 67.1935H69.409C69.9415 67.1935 70.3732 66.7618 70.3732 66.2293V64.4232C70.3732 63.8907 69.9415 63.459 69.409 63.459Z" fill="#EBEBEB"/>
<path d="M69.409 68.1465H67.6029C67.0704 68.1465 66.6387 68.5782 66.6387 69.1107V70.9168C66.6387 71.4493 67.0704 71.881 67.6029 71.881H69.409C69.9415 71.881 70.3732 71.4493 70.3732 70.9168V69.1107C70.3732 68.5782 69.9415 68.1465 69.409 68.1465Z" fill="#EBEBEB"/>
<path d="M74.2137 39.9023H72.4075C71.875 39.9023 71.4434 40.334 71.4434 40.8665V42.6727C71.4434 43.2052 71.875 43.6368 72.4075 43.6368H74.2137C74.7462 43.6368 75.1779 43.2052 75.1779 42.6727V40.8665C75.1779 40.334 74.7462 39.9023 74.2137 39.9023Z" fill="#EBEBEB"/>
<path d="M74.2137 44.7148H72.4075C71.875 44.7148 71.4434 45.1465 71.4434 45.679V47.4852C71.4434 48.0177 71.875 48.4493 72.4075 48.4493H74.2137C74.7462 48.4493 75.1779 48.0177 75.1779 47.4852V45.679C75.1779 45.1465 74.7462 44.7148 74.2137 44.7148Z" fill="#EBEBEB"/>
<path d="M74.2137 49.4023H72.4075C71.875 49.4023 71.4434 49.834 71.4434 50.3665V52.1727C71.4434 52.7052 71.875 53.1368 72.4075 53.1368H74.2137C74.7462 53.1368 75.1779 52.7052 75.1779 52.1727V50.3665C75.1779 49.834 74.7462 49.4023 74.2137 49.4023Z" fill="#EBEBEB"/>
<path d="M74.2137 54.0879H72.4075C71.875 54.0879 71.4434 54.5196 71.4434 55.0521V56.8582C71.4434 57.3907 71.875 57.8224 72.4075 57.8224H74.2137C74.7462 57.8224 75.1779 57.3907 75.1779 56.8582V55.0521C75.1779 54.5196 74.7462 54.0879 74.2137 54.0879Z" fill="#EBEBEB"/>
<path d="M74.2137 58.7734H72.4075C71.875 58.7734 71.4434 59.2051 71.4434 59.7376V61.5438C71.4434 62.0763 71.875 62.5079 72.4075 62.5079H74.2137C74.7462 62.5079 75.1779 62.0763 75.1779 61.5438V59.7376C75.1779 59.2051 74.7462 58.7734 74.2137 58.7734Z" fill="#EBEBEB"/>
<path d="M74.2137 63.459H72.4075C71.875 63.459 71.4434 63.8907 71.4434 64.4232V66.2293C71.4434 66.7618 71.875 67.1935 72.4075 67.1935H74.2137C74.7462 67.1935 75.1779 66.7618 75.1779 66.2293V64.4232C75.1779 63.8907 74.7462 63.459 74.2137 63.459Z" fill="#EBEBEB"/>
<path d="M74.2137 68.1465H72.4075C71.875 68.1465 71.4434 68.5782 71.4434 69.1107V70.9168C71.4434 71.4493 71.875 71.881 72.4075 71.881H74.2137C74.7462 71.881 75.1779 71.4493 75.1779 70.9168V69.1107C75.1779 68.5782 74.7462 68.1465 74.2137 68.1465Z" fill="#EBEBEB"/>
<path d="M79.0164 39.9023H77.2103C76.6778 39.9023 76.2461 40.334 76.2461 40.8665V42.6727C76.2461 43.2052 76.6778 43.6368 77.2103 43.6368H79.0164C79.5489 43.6368 79.9806 43.2052 79.9806 42.6727V40.8665C79.9806 40.334 79.5489 39.9023 79.0164 39.9023Z" fill="#EBEBEB"/>
<path d="M79.0164 44.7148H77.2103C76.6778 44.7148 76.2461 45.1465 76.2461 45.679V47.4852C76.2461 48.0177 76.6778 48.4493 77.2103 48.4493H79.0164C79.5489 48.4493 79.9806 48.0177 79.9806 47.4852V45.679C79.9806 45.1465 79.5489 44.7148 79.0164 44.7148Z" fill="#EBEBEB"/>
<path d="M79.0164 49.4023H77.2103C76.6778 49.4023 76.2461 49.834 76.2461 50.3665V52.1727C76.2461 52.7052 76.6778 53.1368 77.2103 53.1368H79.0164C79.5489 53.1368 79.9806 52.7052 79.9806 52.1727V50.3665C79.9806 49.834 79.5489 49.4023 79.0164 49.4023Z" fill="#EBEBEB"/>
<path d="M79.0164 54.0879H77.2103C76.6778 54.0879 76.2461 54.5196 76.2461 55.0521V56.8582C76.2461 57.3907 76.6778 57.8224 77.2103 57.8224H79.0164C79.5489 57.8224 79.9806 57.3907 79.9806 56.8582V55.0521C79.9806 54.5196 79.5489 54.0879 79.0164 54.0879Z" fill="#EBEBEB"/>
<path d="M79.0164 58.7734H77.2103C76.6778 58.7734 76.2461 59.2051 76.2461 59.7376V61.5438C76.2461 62.0763 76.6778 62.5079 77.2103 62.5079H79.0164C79.5489 62.5079 79.9806 62.0763 79.9806 61.5438V59.7376C79.9806 59.2051 79.5489 58.7734 79.0164 58.7734Z" fill="#EBEBEB"/>
<path d="M79.0164 63.459H77.2103C76.6778 63.459 76.2461 63.8907 76.2461 64.4232V66.2293C76.2461 66.7618 76.6778 67.1935 77.2103 67.1935H79.0164C79.5489 67.1935 79.9806 66.7618 79.9806 66.2293V64.4232C79.9806 63.8907 79.5489 63.459 79.0164 63.459Z" fill="#EBEBEB"/>
<path d="M79.0164 68.1465H77.2103C76.6778 68.1465 76.2461 68.5782 76.2461 69.1107V70.9168C76.2461 71.4493 76.6778 71.881 77.2103 71.881H79.0164C79.5489 71.881 79.9806 71.4493 79.9806 70.9168V69.1107C79.9806 68.5782 79.5489 68.1465 79.0164 68.1465Z" fill="#EBEBEB"/>
<path d="M83.8191 39.9023H82.013C81.4805 39.9023 81.0488 40.334 81.0488 40.8665V42.6727C81.0488 43.2052 81.4805 43.6368 82.013 43.6368H83.8191C84.3516 43.6368 84.7833 43.2052 84.7833 42.6727V40.8665C84.7833 40.334 84.3516 39.9023 83.8191 39.9023Z" fill="#EBEBEB"/>
<path d="M83.8191 44.7148H82.013C81.4805 44.7148 81.0488 45.1465 81.0488 45.679V47.4852C81.0488 48.0177 81.4805 48.4493 82.013 48.4493H83.8191C84.3516 48.4493 84.7833 48.0177 84.7833 47.4852V45.679C84.7833 45.1465 84.3516 44.7148 83.8191 44.7148Z" fill="#EBEBEB"/>
<path d="M83.8191 49.4023H82.013C81.4805 49.4023 81.0488 49.834 81.0488 50.3665V52.1727C81.0488 52.7052 81.4805 53.1368 82.013 53.1368H83.8191C84.3516 53.1368 84.7833 52.7052 84.7833 52.1727V50.3665C84.7833 49.834 84.3516 49.4023 83.8191 49.4023Z" fill="#EBEBEB"/>
<path d="M83.8191 54.0879H82.013C81.4805 54.0879 81.0488 54.5196 81.0488 55.0521V56.8582C81.0488 57.3907 81.4805 57.8224 82.013 57.8224H83.8191C84.3516 57.8224 84.7833 57.3907 84.7833 56.8582V55.0521C84.7833 54.5196 84.3516 54.0879 83.8191 54.0879Z" fill="#EBEBEB"/>
<path d="M83.8191 58.7734H82.013C81.4805 58.7734 81.0488 59.2051 81.0488 59.7376V61.5438C81.0488 62.0763 81.4805 62.5079 82.013 62.5079H83.8191C84.3516 62.5079 84.7833 62.0763 84.7833 61.5438V59.7376C84.7833 59.2051 84.3516 58.7734 83.8191 58.7734Z" fill="#EBEBEB"/>
<path d="M83.8191 63.459H82.013C81.4805 63.459 81.0488 63.8907 81.0488 64.4232V66.2293C81.0488 66.7618 81.4805 67.1935 82.013 67.1935H83.8191C84.3516 67.1935 84.7833 66.7618 84.7833 66.2293V64.4232C84.7833 63.8907 84.3516 63.459 83.8191 63.459Z" fill="#EBEBEB"/>
<path d="M83.8191 68.1465H82.013C81.4805 68.1465 81.0488 68.5782 81.0488 69.1107V70.9168C81.0488 71.4493 81.4805 71.881 82.013 71.881H83.8191C84.3516 71.881 84.7833 71.4493 84.7833 70.9168V69.1107C84.7833 68.5782 84.3516 68.1465 83.8191 68.1465Z" fill="#EBEBEB"/>
<path d="M89.001 39.9645C88.9005 39.9297 88.795 39.9113 88.6887 39.9102H86.995C86.861 39.9099 86.7282 39.9361 86.6042 39.9873C86.4803 40.0385 86.3677 40.1137 86.2729 40.2085C86.1781 40.3033 86.103 40.4159 86.0518 40.5398C86.0006 40.6637 85.9744 40.7965 85.9746 40.9306V42.6242C85.9744 42.7583 86.0006 42.8911 86.0518 43.015C86.103 43.1389 86.1781 43.2515 86.2729 43.3463C86.3677 43.4412 86.4803 43.5163 86.6042 43.5675C86.7282 43.6187 86.861 43.6449 86.995 43.6447H88.6887C88.7948 43.6432 88.9002 43.6255 89.001 43.5923V39.9645Z" fill="#EBEBEB"/>
<path d="M89.001 44.7692C88.9005 44.7344 88.795 44.716 88.6887 44.7148H86.995C86.7244 44.7148 86.4649 44.8224 86.2735 45.0137C86.0821 45.2051 85.9746 45.4646 85.9746 45.7353V47.4289C85.9744 47.5631 86.0006 47.696 86.0517 47.82C86.1029 47.944 86.178 48.0568 86.2728 48.1517C86.3676 48.2467 86.4802 48.322 86.6041 48.3734C86.728 48.4248 86.8609 48.4513 86.995 48.4513H88.6887C88.7949 48.4492 88.9003 48.4308 89.001 48.397V44.7692Z" fill="#EBEBEB"/>
<path d="M89.001 49.4547C88.9002 49.4215 88.7948 49.4038 88.6887 49.4023H86.995C86.861 49.4021 86.7282 49.4283 86.6042 49.4795C86.4803 49.5307 86.3677 49.6058 86.2729 49.7007C86.1781 49.7955 86.103 49.9081 86.0518 50.032C86.0006 50.1559 85.9744 50.2887 85.9746 50.4228V52.1164C85.9746 52.387 86.0821 52.6466 86.2735 52.838C86.4649 53.0293 86.7244 53.1368 86.995 53.1368H88.6887C88.795 53.1357 88.9005 53.1173 89.001 53.0825V49.4547Z" fill="#EBEBEB"/>
<path d="M89.001 54.1422C88.9005 54.1074 88.795 54.0891 88.6887 54.0879H86.995C86.7244 54.0879 86.4649 54.1954 86.2735 54.3868C86.0821 54.5781 85.9746 54.8377 85.9746 55.1083V56.802C85.9744 56.9361 86.0006 57.069 86.0517 57.1931C86.1029 57.3171 86.178 57.4298 86.2728 57.5248C86.3676 57.6197 86.4802 57.6951 86.6041 57.7465C86.728 57.7979 86.8609 57.8243 86.995 57.8243H88.6887C88.7949 57.8222 88.9003 57.8039 89.001 57.77V54.1422Z" fill="#EBEBEB"/>
<path d="M89.001 58.8258C88.9002 58.7926 88.7948 58.7749 88.6887 58.7734H86.995C86.861 58.7732 86.7282 58.7994 86.6042 58.8506C86.4803 58.9018 86.3677 58.9769 86.2729 59.0718C86.1781 59.1666 86.103 59.2792 86.0518 59.4031C86.0006 59.527 85.9744 59.6598 85.9746 59.7939V61.4972C85.9746 61.7678 86.0821 62.0274 86.2735 62.2188C86.4649 62.4101 86.7244 62.5176 86.995 62.5176H88.6887C88.795 62.5165 88.9005 62.4981 89.001 62.4633V58.8258Z" fill="#EBEBEB"/>
<path d="M89.001 63.5133C88.9005 63.4785 88.795 63.4602 88.6887 63.459H86.995C86.7244 63.459 86.4649 63.5665 86.2735 63.7579C86.0821 63.9492 85.9746 64.2088 85.9746 64.4794V66.173C85.9744 66.3072 86.0006 66.4401 86.0517 66.5642C86.1029 66.6882 86.178 66.8009 86.2728 66.8959C86.3676 66.9908 86.4802 67.0662 86.6041 67.1176C86.728 67.169 86.8609 67.1954 86.995 67.1954H88.6887C88.7949 67.1933 88.9003 67.175 89.001 67.1411V63.5133Z" fill="#EBEBEB"/>
<path d="M89.001 68.1989C88.9002 68.1656 88.7948 68.148 88.6887 68.1465H86.995C86.861 68.1462 86.7282 68.1725 86.6042 68.2236C86.4803 68.2748 86.3677 68.35 86.2729 68.4448C86.1781 68.5396 86.103 68.6522 86.0518 68.7761C86.0006 68.9 85.9744 69.0329 85.9746 69.1669V70.8606C85.9746 71.1312 86.0821 71.3907 86.2735 71.5821C86.4649 71.7735 86.7244 71.881 86.995 71.881H88.6887C88.795 71.8798 88.9005 71.8615 89.001 71.8267V68.1989Z" fill="#EBEBEB"/>
<path d="M57.8217 10.6602H41.8652V27.5983H57.8217V10.6602Z" fill="#F5F5F5"/>
<path d="M45.3537 11.6582H42.7891V14.382H45.3537V11.6582Z" fill="#EBEBEB"/>
<path d="M48.2405 11.6582H45.6758V14.382H48.2405V11.6582Z" fill="#EBEBEB"/>
<path d="M51.1252 11.6582H48.5605V14.382H51.1252V11.6582Z" fill="#EBEBEB"/>
<path d="M54.0119 11.6582H51.4473V14.382H54.0119V11.6582Z" fill="#EBEBEB"/>
<path d="M56.8967 11.6582H54.332V14.382H56.8967V11.6582Z" fill="#EBEBEB"/>
<path d="M45.3537 14.7129H42.7891V17.4367H45.3537V14.7129Z" fill="#EBEBEB"/>
<path d="M48.2405 14.7129H45.6758V17.4367H48.2405V14.7129Z" fill="#EBEBEB"/>
<path d="M51.1252 14.7129H48.5605V17.4367H51.1252V14.7129Z" fill="#EBEBEB"/>
<path d="M54.0119 14.7129H51.4473V17.4367H54.0119V14.7129Z" fill="#EBEBEB"/>
<path d="M56.8967 14.7129H54.332V17.4367H56.8967V14.7129Z" fill="#EBEBEB"/>
<path d="M45.3537 17.7676H42.7891V20.4913H45.3537V17.7676Z" fill="#EBEBEB"/>
<path d="M48.2405 17.7676H45.6758V20.4913H48.2405V17.7676Z" fill="#EBEBEB"/>
<path d="M51.1252 17.7676H48.5605V20.4913H51.1252V17.7676Z" fill="#EBEBEB"/>
<path d="M54.0119 17.7676H51.4473V20.4913H54.0119V17.7676Z" fill="#EBEBEB"/>
<path d="M56.8967 17.7676H54.332V20.4913H56.8967V17.7676Z" fill="#EBEBEB"/>
<path d="M45.3537 20.8242H42.7891V23.548H45.3537V20.8242Z" fill="#EBEBEB"/>
<path d="M48.2405 20.8242H45.6758V23.548H48.2405V20.8242Z" fill="#EBEBEB"/>
<path d="M51.1252 20.8242H48.5605V23.548H51.1252V20.8242Z" fill="#EBEBEB"/>
<path d="M54.0119 20.8242H51.4473V23.548H54.0119V20.8242Z" fill="#EBEBEB"/>
<path d="M56.8967 20.8242H54.332V23.548H56.8967V20.8242Z" fill="#EBEBEB"/>
<path d="M45.3537 23.8789H42.7891V26.6027H45.3537V23.8789Z" fill="#EBEBEB"/>
<path d="M48.2405 23.8789H45.6758V26.6027H48.2405V23.8789Z" fill="#EBEBEB"/>
<path d="M51.1252 23.8789H48.5605V26.6027H51.1252V23.8789Z" fill="#EBEBEB"/>
<path d="M54.0119 23.8789H51.4473V26.6027H54.0119V23.8789Z" fill="#EBEBEB"/>
<path d="M56.8967 23.8789H54.332V26.6027H56.8967V23.8789Z" fill="#EBEBEB"/>
<g opacity="0.8">
<path d="M45.3537 11.6582L42.7891 14.382H43.2702L45.3537 12.2053V11.6582Z" fill="#FAFAFA"/>
<path d="M45.3537 12.5762L43.6543 14.3823H43.9725L45.3537 12.939V12.5762Z" fill="#FAFAFA"/>
</g>
<g opacity="0.8">
<path d="M48.2405 11.6582L45.6758 14.382H46.1569L48.2405 12.2053V11.6582Z" fill="#FAFAFA"/>
<path d="M48.2404 12.5762L46.5391 14.3823H46.8592L48.2404 12.939V12.5762Z" fill="#FAFAFA"/>
</g>
<g opacity="0.8">
<path d="M51.1272 11.6582L48.5605 14.382H49.0417L51.1272 12.2053V11.6582Z" fill="#FAFAFA"/>
<path d="M51.1272 12.5762L49.4258 14.3823H49.7439L51.1272 12.939V12.5762Z" fill="#FAFAFA"/>
</g>
<g opacity="0.8">
<path d="M54.0119 11.6582L51.4473 14.382H51.9284L54.0119 12.2053V11.6582Z" fill="#FAFAFA"/>
<path d="M54.0119 12.5762L52.3105 14.3823H52.6306L54.0119 12.939V12.5762Z" fill="#FAFAFA"/>
</g>
<g opacity="0.8">
<path d="M56.8987 11.6582L54.332 14.382H54.8132L56.8987 12.2053V11.6582Z" fill="#FAFAFA"/>
<path d="M56.8986 12.5762L55.1973 14.3823H55.5154L56.8986 12.939V12.5762Z" fill="#FAFAFA"/>
</g>
<g opacity="0.8">
<path d="M45.3537 14.7129L42.7891 17.4367H43.2702L45.3537 15.26V14.7129Z" fill="#FAFAFA"/>
<path d="M45.3537 15.6309L43.6543 17.437H43.9725L45.3537 15.9936V15.6309Z" fill="#FAFAFA"/>
</g>
<g opacity="0.8">
<path d="M48.2405 14.7129L45.6758 17.4367H46.1569L48.2405 15.26V14.7129Z" fill="#FAFAFA"/>
<path d="M48.2404 15.6309L46.5391 17.437H46.8592L48.2404 15.9936V15.6309Z" fill="#FAFAFA"/>
</g>
<g opacity="0.8">
<path d="M51.1272 14.7129L48.5605 17.4367H49.0417L51.1272 15.26V14.7129Z" fill="#FAFAFA"/>
<path d="M51.1272 15.6309L49.4258 17.437H49.7439L51.1272 15.9936V15.6309Z" fill="#FAFAFA"/>
</g>
<g opacity="0.8">
<path d="M54.0119 14.7129L51.4473 17.4367H51.9284L54.0119 15.26V14.7129Z" fill="#FAFAFA"/>
<path d="M54.0119 15.6309L52.3105 17.437H52.6306L54.0119 15.9936V15.6309Z" fill="#FAFAFA"/>
</g>
<g opacity="0.8">
<path d="M56.8987 14.7129L54.332 17.4367H54.8132L56.8987 15.26V14.7129Z" fill="#FAFAFA"/>
<path d="M56.8986 15.6309L55.1973 17.437H55.5154L56.8986 15.9936V15.6309Z" fill="#FAFAFA"/>
</g>
<g opacity="0.8">
<path d="M45.3537 17.7676L42.7891 20.4913H43.2702L45.3537 18.3147V17.7676Z" fill="#FAFAFA"/>
<path d="M45.3537 18.6855L43.6543 20.4917H43.9725L45.3537 19.0483V18.6855Z" fill="#FAFAFA"/>
</g>
<g opacity="0.8">
<path d="M48.2405 17.7676L45.6758 20.4913H46.1569L48.2405 18.3147V17.7676Z" fill="#FAFAFA"/>
<path d="M48.2404 18.6855L46.5391 20.4917H46.8592L48.2404 19.0483V18.6855Z" fill="#FAFAFA"/>
</g>
<g opacity="0.8">
<path d="M51.1272 17.7676L48.5605 20.4913H49.0417L51.1272 18.3147V17.7676Z" fill="#FAFAFA"/>
<path d="M51.1272 18.6855L49.4258 20.4917H49.7439L51.1272 19.0483V18.6855Z" fill="#FAFAFA"/>
</g>
<g opacity="0.8">
<path d="M54.0119 17.7676L51.4473 20.4913H51.9284L54.0119 18.3147V17.7676Z" fill="#FAFAFA"/>
<path d="M54.0119 18.6855L52.3105 20.4917H52.6306L54.0119 19.0483V18.6855Z" fill="#FAFAFA"/>
</g>
<g opacity="0.8">
<path d="M56.8987 17.7676L54.332 20.4913H54.8132L56.8987 18.3147V17.7676Z" fill="#FAFAFA"/>
<path d="M56.8986 18.6855L55.1973 20.4917H55.5154L56.8986 19.0483V18.6855Z" fill="#FAFAFA"/>
</g>
<g opacity="0.8">
<path d="M45.3537 20.8242L42.7891 23.548H43.2702L45.3537 21.3713V20.8242Z" fill="#FAFAFA"/>
<path d="M45.3537 21.7422L43.6543 23.5483H43.9725L45.3537 22.105V21.7422Z" fill="#FAFAFA"/>
</g>
<g opacity="0.8">
<path d="M48.2405 20.8242L45.6758 23.548H46.1569L48.2405 21.3713V20.8242Z" fill="#FAFAFA"/>
<path d="M48.2404 21.7422L46.5391 23.5483H46.8592L48.2404 22.105V21.7422Z" fill="#FAFAFA"/>
</g>
<g opacity="0.8">
<path d="M51.1272 20.8242L48.5605 23.548H49.0417L51.1272 21.3713V20.8242Z" fill="#FAFAFA"/>
<path d="M51.1272 21.7422L49.4258 23.5483H49.7439L51.1272 22.105V21.7422Z" fill="#FAFAFA"/>
</g>
<g opacity="0.8">
<path d="M54.0119 20.8242L51.4473 23.548H51.9284L54.0119 21.3713V20.8242Z" fill="#FAFAFA"/>
<path d="M54.0119 21.7422L52.3105 23.5483H52.6306L54.0119 22.105V21.7422Z" fill="#FAFAFA"/>
</g>
<g opacity="0.8">
<path d="M56.8987 20.8242L54.332 23.548H54.8132L56.8987 21.3713V20.8242Z" fill="#FAFAFA"/>
<path d="M56.8986 21.7422L55.1973 23.5483H55.5154L56.8986 22.105V21.7422Z" fill="#FAFAFA"/>
</g>
<g opacity="0.8">
<path d="M45.3537 23.8789L42.7891 26.6027H43.2702L45.3537 24.426V23.8789Z" fill="#FAFAFA"/>
<path d="M45.3537 24.7969L43.6543 26.603H43.9725L45.3537 25.1597V24.7969Z" fill="#FAFAFA"/>
</g>
<g opacity="0.8">
<path d="M48.2405 23.8789L45.6758 26.6027H46.1569L48.2405 24.426V23.8789Z" fill="#FAFAFA"/>
<path d="M48.2404 24.7969L46.5391 26.603H46.8592L48.2404 25.1597V24.7969Z" fill="#FAFAFA"/>
</g>
<g opacity="0.8">
<path d="M51.1272 23.8789L48.5605 26.6027H49.0417L51.1272 24.426V23.8789Z" fill="#FAFAFA"/>
<path d="M51.1272 24.7969L49.4258 26.603H49.7439L51.1272 25.1597V24.7969Z" fill="#FAFAFA"/>
</g>
<g opacity="0.8">
<path d="M54.0119 23.8789L51.4473 26.6027H51.9284L54.0119 24.426V23.8789Z" fill="#FAFAFA"/>
<path d="M54.0119 24.7969L52.3105 26.603H52.6306L54.0119 25.1597V24.7969Z" fill="#FAFAFA"/>
</g>
<g opacity="0.8">
<path d="M56.8987 23.8789L54.332 26.6027H54.8132L56.8987 24.426V23.8789Z" fill="#FAFAFA"/>
<path d="M56.8986 24.7969L55.1973 26.603H55.5154L56.8986 25.1597V24.7969Z" fill="#FAFAFA"/>
</g>
<path d="M74.2299 10.6602H58.2734V27.5983H74.2299V10.6602Z" fill="#F5F5F5"/>
<path d="M61.7639 11.6582H59.1992V14.382H61.7639V11.6582Z" fill="#EBEBEB"/>
<path d="M64.6487 11.6582H62.084V14.382H64.6487V11.6582Z" fill="#EBEBEB"/>
<path d="M67.5354 11.6582H64.9707V14.382H67.5354V11.6582Z" fill="#EBEBEB"/>
<path d="M70.4201 11.6582H67.8555V14.382H70.4201V11.6582Z" fill="#EBEBEB"/>
<path d="M73.3069 11.6582H70.7422V14.382H73.3069V11.6582Z" fill="#EBEBEB"/>
<path d="M61.7639 14.7129H59.1992V17.4367H61.7639V14.7129Z" fill="#EBEBEB"/>
<path d="M64.6487 14.7129H62.084V17.4367H64.6487V14.7129Z" fill="#EBEBEB"/>
<path d="M67.5354 14.7129H64.9707V17.4367H67.5354V14.7129Z" fill="#EBEBEB"/>
<path d="M70.4201 14.7129H67.8555V17.4367H70.4201V14.7129Z" fill="#EBEBEB"/>
<path d="M73.3069 14.7129H70.7422V17.4367H73.3069V14.7129Z" fill="#EBEBEB"/>
<path d="M61.7639 17.7676H59.1992V20.4913H61.7639V17.7676Z" fill="#EBEBEB"/>
<path d="M64.6487 17.7676H62.084V20.4913H64.6487V17.7676Z" fill="#EBEBEB"/>
<path d="M67.5354 17.7676H64.9707V20.4913H67.5354V17.7676Z" fill="#EBEBEB"/>
<path d="M70.4201 17.7676H67.8555V20.4913H70.4201V17.7676Z" fill="#EBEBEB"/>
<path d="M73.3069 17.7676H70.7422V20.4913H73.3069V17.7676Z" fill="#EBEBEB"/>
<path d="M61.7639 20.8242H59.1992V23.548H61.7639V20.8242Z" fill="#EBEBEB"/>
<path d="M64.6487 20.8242H62.084V23.548H64.6487V20.8242Z" fill="#EBEBEB"/>
<path d="M67.5354 20.8242H64.9707V23.548H67.5354V20.8242Z" fill="#EBEBEB"/>
<path d="M70.4201 20.8242H67.8555V23.548H70.4201V20.8242Z" fill="#EBEBEB"/>
<path d="M73.3069 20.8242H70.7422V23.548H73.3069V20.8242Z" fill="#EBEBEB"/>
<path d="M61.7639 23.8789H59.1992V26.6027H61.7639V23.8789Z" fill="#EBEBEB"/>
<path d="M64.6487 23.8789H62.084V26.6027H64.6487V23.8789Z" fill="#EBEBEB"/>
<path d="M67.5354 23.8789H64.9707V26.6027H67.5354V23.8789Z" fill="#EBEBEB"/>
<path d="M70.4201 23.8789H67.8555V26.6027H70.4201V23.8789Z" fill="#EBEBEB"/>
<path d="M73.3069 23.8789H70.7422V26.6027H73.3069V23.8789Z" fill="#EBEBEB"/>
<g opacity="0.8">
<path d="M61.7639 11.6582L59.1992 14.382H59.6803L61.7639 12.2053V11.6582Z" fill="#FAFAFA"/>
<path d="M61.7639 12.5762L60.0645 14.3823H60.3826L61.7639 12.939V12.5762Z" fill="#FAFAFA"/>
</g>
<g opacity="0.8">
<path d="M64.6506 11.6582L62.084 14.382H62.5651L64.6506 12.2053V11.6582Z" fill="#FAFAFA"/>
<path d="M64.6506 12.5762L62.9492 14.3823H63.2674L64.6506 12.939V12.5762Z" fill="#FAFAFA"/>
</g>
<g opacity="0.8">
<path d="M67.5354 11.6582L64.9707 14.382H65.4518L67.5354 12.2053V11.6582Z" fill="#FAFAFA"/>
<path d="M67.5354 12.5762L65.8359 14.3823H66.1541L67.5354 12.939V12.5762Z" fill="#FAFAFA"/>
</g>
<g opacity="0.8">
<path d="M70.4221 11.6582L67.8555 14.382H68.3366L70.4221 12.2053V11.6582Z" fill="#FAFAFA"/>
<path d="M70.4221 12.5762L68.7207 14.3823H69.0389L70.4221 12.939V12.5762Z" fill="#FAFAFA"/>
</g>
<g opacity="0.8">
<path d="M73.3069 11.6582L70.7422 14.382H71.2233L73.3069 12.2053V11.6582Z" fill="#FAFAFA"/>
<path d="M73.3069 12.5762L71.6074 14.3823H71.9256L73.3069 12.939V12.5762Z" fill="#FAFAFA"/>
</g>
<g opacity="0.8">
<path d="M61.7639 14.7129L59.1992 17.4367H59.6803L61.7639 15.26V14.7129Z" fill="#FAFAFA"/>
<path d="M61.7639 15.6309L60.0645 17.437H60.3826L61.7639 15.9936V15.6309Z" fill="#FAFAFA"/>
</g>
<g opacity="0.8">
<path d="M64.6506 14.7129L62.084 17.4367H62.5651L64.6506 15.26V14.7129Z" fill="#FAFAFA"/>
<path d="M64.6506 15.6309L62.9492 17.437H63.2674L64.6506 15.9936V15.6309Z" fill="#FAFAFA"/>
</g>
<g opacity="0.8">
<path d="M67.5354 14.7129L64.9707 17.4367H65.4518L67.5354 15.26V14.7129Z" fill="#FAFAFA"/>
<path d="M67.5354 15.6309L65.8359 17.437H66.1541L67.5354 15.9936V15.6309Z" fill="#FAFAFA"/>
</g>
<g opacity="0.8">
<path d="M70.4221 14.7129L67.8555 17.4367H68.3366L70.4221 15.26V14.7129Z" fill="#FAFAFA"/>
<path d="M70.4221 15.6309L68.7207 17.437H69.0389L70.4221 15.9936V15.6309Z" fill="#FAFAFA"/>
</g>
<g opacity="0.8">
<path d="M73.3069 14.7129L70.7422 17.4367H71.2233L73.3069 15.26V14.7129Z" fill="#FAFAFA"/>
<path d="M73.3069 15.6309L71.6074 17.437H71.9256L73.3069 15.9936V15.6309Z" fill="#FAFAFA"/>
</g>
<g opacity="0.8">
<path d="M61.7639 17.7676L59.1992 20.4913H59.6803L61.7639 18.3147V17.7676Z" fill="#FAFAFA"/>
<path d="M61.7639 18.6855L60.0645 20.4917H60.3826L61.7639 19.0483V18.6855Z" fill="#FAFAFA"/>
</g>
<g opacity="0.8">
<path d="M64.6506 17.7676L62.084 20.4913H62.5651L64.6506 18.3147V17.7676Z" fill="#FAFAFA"/>
<path d="M64.6506 18.6855L62.9492 20.4917H63.2674L64.6506 19.0483V18.6855Z" fill="#FAFAFA"/>
</g>
<g opacity="0.8">
<path d="M67.5354 17.7676L64.9707 20.4913H65.4518L67.5354 18.3147V17.7676Z" fill="#FAFAFA"/>
<path d="M67.5354 18.6855L65.8359 20.4917H66.1541L67.5354 19.0483V18.6855Z" fill="#FAFAFA"/>
</g>
<g opacity="0.8">
<path d="M70.4221 17.7676L67.8555 20.4913H68.3366L70.4221 18.3147V17.7676Z" fill="#FAFAFA"/>
<path d="M70.4221 18.6855L68.7207 20.4917H69.0389L70.4221 19.0483V18.6855Z" fill="#FAFAFA"/>
</g>
<g opacity="0.8">
<path d="M73.3069 17.7676L70.7422 20.4913H71.2233L73.3069 18.3147V17.7676Z" fill="#FAFAFA"/>
<path d="M73.3069 18.6855L71.6074 20.4917H71.9256L73.3069 19.0483V18.6855Z" fill="#FAFAFA"/>
</g>
<g opacity="0.8">
<path d="M61.7639 20.8242L59.1992 23.548H59.6803L61.7639 21.3713V20.8242Z" fill="#FAFAFA"/>
<path d="M61.7639 21.7422L60.0645 23.5483H60.3826L61.7639 22.105V21.7422Z" fill="#FAFAFA"/>
</g>
<g opacity="0.8">
<path d="M64.6506 20.8242L62.084 23.548H62.5651L64.6506 21.3713V20.8242Z" fill="#FAFAFA"/>
<path d="M64.6506 21.7422L62.9492 23.5483H63.2674L64.6506 22.105V21.7422Z" fill="#FAFAFA"/>
</g>
<g opacity="0.8">
<path d="M67.5354 20.8242L64.9707 23.548H65.4518L67.5354 21.3713V20.8242Z" fill="#FAFAFA"/>
<path d="M67.5354 21.7422L65.8359 23.5483H66.1541L67.5354 22.105V21.7422Z" fill="#FAFAFA"/>
</g>
<g opacity="0.8">
<path d="M70.4221 20.8242L67.8555 23.548H68.3366L70.4221 21.3713V20.8242Z" fill="#FAFAFA"/>
<path d="M70.4221 21.7422L68.7207 23.5483H69.0389L70.4221 22.105V21.7422Z" fill="#FAFAFA"/>
</g>
<g opacity="0.8">
<path d="M73.3069 20.8242L70.7422 23.548H71.2233L73.3069 21.3713V20.8242Z" fill="#FAFAFA"/>
<path d="M73.3069 21.7422L71.6074 23.5483H71.9256L73.3069 22.105V21.7422Z" fill="#FAFAFA"/>
</g>
<g opacity="0.8">
<path d="M61.7639 23.8789L59.1992 26.6027H59.6803L61.7639 24.426V23.8789Z" fill="#FAFAFA"/>
<path d="M61.7639 24.7969L60.0645 26.603H60.3826L61.7639 25.1597V24.7969Z" fill="#FAFAFA"/>
</g>
<g opacity="0.8">
<path d="M64.6506 23.8789L62.084 26.6027H62.5651L64.6506 24.426V23.8789Z" fill="#FAFAFA"/>
<path d="M64.6506 24.7969L62.9492 26.603H63.2674L64.6506 25.1597V24.7969Z" fill="#FAFAFA"/>
</g>
<g opacity="0.8">
<path d="M67.5354 23.8789L64.9707 26.6027H65.4518L67.5354 24.426V23.8789Z" fill="#FAFAFA"/>
<path d="M67.5354 24.7969L65.8359 26.603H66.1541L67.5354 25.1597V24.7969Z" fill="#FAFAFA"/>
</g>
<g opacity="0.8">
<path d="M70.4221 23.8789L67.8555 26.6027H68.3366L70.4221 24.426V23.8789Z" fill="#FAFAFA"/>
<path d="M70.4221 24.7969L68.7207 26.603H69.0389L70.4221 25.1597V24.7969Z" fill="#FAFAFA"/>
</g>
<g opacity="0.8">
<path d="M73.3069 23.8789L70.7422 26.6027H71.2233L73.3069 24.426V23.8789Z" fill="#FAFAFA"/>
<path d="M73.3069 24.7969L71.6074 26.603H71.9256L73.3069 25.1597V24.7969Z" fill="#FAFAFA"/>
</g>
<path d="M48.4994 82.9468C69.2734 82.9468 86.1141 81.9636 86.1141 80.7508C86.1141 79.5379 69.2734 78.5547 48.4994 78.5547C27.7254 78.5547 10.8848 79.5379 10.8848 80.7508C10.8848 81.9636 27.7254 82.9468 48.4994 82.9468Z" fill="#F5F5F5"/>
<path d="M88.8774 19.623H85.4844V38.0162H88.8774V19.623Z" fill="#151F6D"/>
<path opacity="0.2" d="M88.8781 19.623H86.1543V38.0162H88.8781V19.623Z" fill="white"/>
<path d="M88.2698 54.4405C88.0475 54.4405 87.8273 54.4843 87.622 54.5695C87.4166 54.6546 87.23 54.7794 87.0729 54.9367C86.9158 55.094 86.7912 55.2807 86.7063 55.4861C86.6214 55.6916 86.5779 55.9118 86.5781 56.1341V60.5282C86.5781 61.0307 85.5519 61.0637 85.4859 60.5282V52.5742H84.2676V60.5593C84.2676 62.7767 87.8876 62.7767 87.8876 60.5263V56.3107C87.8874 56.2356 87.9019 56.1612 87.9305 56.0918C87.959 56.0224 88.001 55.9593 88.054 55.9061C88.107 55.8529 88.1699 55.8107 88.2393 55.782C88.3086 55.7532 88.3829 55.7384 88.458 55.7384H88.9895V54.4405H88.2698Z" fill="#263238"/>
<path opacity="0.3" d="M88.2698 54.4405C88.0475 54.4405 87.8273 54.4843 87.622 54.5695C87.4166 54.6546 87.23 54.7794 87.0729 54.9367C86.9158 55.094 86.7912 55.2807 86.7063 55.4861C86.6214 55.6916 86.5779 55.9118 86.5781 56.1341V60.5282C86.5781 61.0307 85.5519 61.0637 85.4859 60.5282V52.5742H84.2676V60.5593C84.2676 62.7767 87.8876 62.7767 87.8876 60.5263V56.3107C87.8874 56.2356 87.9019 56.1612 87.9305 56.0918C87.959 56.0224 88.001 55.9593 88.054 55.9061C88.107 55.8529 88.1699 55.8107 88.2393 55.782C88.3086 55.7532 88.3829 55.7384 88.458 55.7384H88.9895V54.4405H88.2698Z" fill="white"/>
<path opacity="0.2" d="M85.3055 53.1992H85.1309V59.8166C85.1306 59.9314 85.1544 60.0451 85.2007 60.1502L85.3055 60.383V53.1992Z" fill="white"/>
<path opacity="0.2" d="M87.662 56.2598V60.6442C87.6931 61.2456 87.0063 62.0022 86.207 62.0022C86.983 61.8314 87.4894 61.2397 87.4719 60.6442V56.6924C87.4719 56.5643 87.5476 56.3102 87.662 56.2598Z" fill="white"/>
<path opacity="0.1" d="M84.3633 53.1992V60.6391L84.437 60.1813C84.4379 60.171 84.4379 60.1606 84.437 60.1502V53.1992H84.3633Z" fill="white"/>
<path opacity="0.1" d="M86.6663 55.9711C86.6256 55.4841 87.2619 54.6402 87.8187 54.5801C87.5215 54.6814 87.2602 54.8667 87.0663 55.1136C86.8724 55.3605 86.7544 55.6584 86.7265 55.9711V60.7667C86.7265 61.0015 86.387 61.1179 86.1328 61.1004C86.3714 61.0907 86.6683 61.0054 86.6721 60.7687L86.6663 55.9711Z" fill="white"/>
<path d="M84.0378 53.2009H85.8634C85.8879 53.2009 85.912 53.1949 85.9337 53.1834C85.9553 53.1719 85.9738 53.1553 85.9875 53.1349L86.9575 51.7168H82.9863L83.9136 53.133C83.9272 53.1536 83.9457 53.1705 83.9673 53.1824C83.9889 53.1942 84.0131 53.2006 84.0378 53.2009Z" fill="#263238"/>
<path opacity="0.1" d="M84.0378 53.2009H85.8634C85.8879 53.2009 85.912 53.1949 85.9337 53.1834C85.9553 53.1719 85.9738 53.1553 85.9875 53.1349L86.9575 51.7168H82.9863L83.9136 53.133C83.9272 53.1536 83.9457 53.1705 83.9673 53.1824C83.9889 53.1942 84.0131 53.2006 84.0378 53.2009Z" fill="white"/>
<path opacity="0.2" d="M86.4156 51.7148L85.7113 53.2009H85.4824L86.0276 51.7148H86.4156Z" fill="white"/>
<path opacity="0.1" d="M83.1738 51.7148L84.0973 53.2009H84.1826L83.3814 51.7148H83.1738Z" fill="white"/>
<path d="M86.1543 42.567C86.1543 42.6737 86.1679 42.761 86.1873 42.761H86.552C86.5695 42.761 86.585 42.6737 86.585 42.567C86.585 42.4603 86.5695 42.373 86.552 42.373H86.1873C86.1679 42.373 86.1543 42.4603 86.1543 42.567Z" fill="#263238"/>
<path opacity="0.2" d="M86.1543 42.567C86.1543 42.6737 86.1679 42.761 86.1873 42.761H86.552C86.5695 42.761 86.585 42.6737 86.585 42.567C86.585 42.4603 86.5695 42.373 86.552 42.373H86.1873C86.1679 42.373 86.1543 42.4603 86.1543 42.567Z" fill="white"/>
<path d="M85.6699 45.251C85.8847 45.3934 86.1368 45.4694 86.3945 45.4694C86.6522 45.4694 86.9043 45.3934 87.1191 45.251L86.7175 42.8066H86.0075L85.6699 45.251Z" fill="#263238"/>
<path opacity="0.7" d="M85.6699 45.251C85.8847 45.3934 86.1368 45.4694 86.3945 45.4694C86.6522 45.4694 86.9043 45.3934 87.1191 45.251L86.7175 42.8066H86.0075L85.6699 45.251Z" fill="white"/>
<path d="M85.123 42.6608C85.123 42.7122 85.1435 42.7616 85.1799 42.798C85.2163 42.8344 85.2656 42.8548 85.317 42.8548H87.4743C87.5258 42.8548 87.5751 42.8344 87.6115 42.798C87.6479 42.7616 87.6683 42.7122 87.6683 42.6608C87.6683 42.6093 87.6479 42.56 87.6115 42.5236C87.5751 42.4872 87.5258 42.4668 87.4743 42.4668H85.317C85.2656 42.4668 85.2163 42.4872 85.1799 42.5236C85.1435 42.56 85.123 42.6093 85.123 42.6608Z" fill="#263238"/>
<path opacity="0.4" d="M85.123 42.6608C85.123 42.7122 85.1435 42.7616 85.1799 42.798C85.2163 42.8344 85.2656 42.8548 85.317 42.8548H87.4743C87.5258 42.8548 87.5751 42.8344 87.6115 42.798C87.6479 42.7616 87.6683 42.7122 87.6683 42.6608C87.6683 42.6093 87.6479 42.56 87.6115 42.5236C87.5751 42.4872 87.5258 42.4668 87.4743 42.4668H85.317C85.2656 42.4668 85.2163 42.4872 85.1799 42.5236C85.1435 42.56 85.123 42.6093 85.123 42.6608Z" fill="white"/>
<path d="M85.4112 43.1247L85.9641 43.0762C86.0227 43.095 86.072 43.1352 86.1022 43.1888C86.1324 43.2424 86.1413 43.3054 86.1271 43.3652C86.1271 43.5476 86.0379 43.6465 85.8943 43.6388L85.5684 43.6019C85.4843 43.5897 85.3988 43.6111 85.3305 43.6616C85.2622 43.7121 85.2166 43.7876 85.2037 43.8716V43.9356L84.8467 43.9201C84.8393 43.7994 84.8458 43.6784 84.8661 43.5592C84.9042 43.4412 84.9762 43.337 85.0731 43.2598C85.1701 43.1825 85.2877 43.1355 85.4112 43.1247Z" fill="#263238"/>
<g opacity="0.4">
<path d="M85.4112 43.1247L85.9641 43.0762C86.0227 43.095 86.072 43.1352 86.1022 43.1888C86.1324 43.2424 86.1413 43.3054 86.1271 43.3652C86.1271 43.5476 86.0379 43.6465 85.8943 43.6388L85.5684 43.6019C85.4843 43.5897 85.3988 43.6111 85.3305 43.6616C85.2622 43.7121 85.2166 43.7876 85.2037 43.8716V43.9356L84.8467 43.9201C84.8393 43.7994 84.8458 43.6784 84.8661 43.5592C84.9042 43.4412 84.9762 43.337 85.0731 43.2598C85.1701 43.1825 85.2877 43.1355 85.4112 43.1247Z" fill="white"/>
</g>
<path d="M75.9927 45.168H88.3311C88.5047 45.168 88.6712 45.2368 88.7941 45.3593C88.917 45.4819 88.9864 45.6482 88.9869 45.8217V51.2673C88.9862 51.3562 88.9525 51.4416 88.8922 51.5069C88.8319 51.5722 88.7495 51.6127 88.6609 51.6204C80.6798 52.2606 77.0209 51.5467 75.498 46.5764V45.6568C75.4996 45.5267 75.5524 45.4023 75.645 45.3108C75.7376 45.2193 75.8625 45.168 75.9927 45.168Z" fill="#151F6D"/>
<path opacity="0.2" d="M75.9927 45.168H88.3311C88.5047 45.168 88.6712 45.2368 88.7941 45.3593C88.917 45.4819 88.9864 45.6482 88.9869 45.8217V51.2673C88.9862 51.3562 88.9525 51.4416 88.8922 51.5069C88.8319 51.5722 88.7495 51.6127 88.6609 51.6204C80.6798 52.2606 77.0209 51.5467 75.498 46.5764V45.6568C75.4996 45.5267 75.5524 45.4023 75.645 45.3108C75.7376 45.2193 75.8625 45.168 75.9927 45.168Z" fill="white"/>
<path opacity="0.2" d="M75.9927 45.168H88.3311C88.5047 45.168 88.6712 45.2368 88.7941 45.3593C88.917 45.4819 88.9864 45.6482 88.9869 45.8217V46.5357L75.498 46.5822V45.6627C75.498 45.5315 75.5502 45.4056 75.6429 45.3129C75.7357 45.2201 75.8615 45.168 75.9927 45.168Z" fill="black"/>
<path opacity="0.1" d="M77.1275 45.168H88.331C88.5046 45.168 88.6711 45.2368 88.794 45.3593C88.9169 45.4819 88.9862 45.6482 88.9867 45.8217V46.5357L76.6328 46.5822V45.6627C76.6328 45.5315 76.6849 45.4056 76.7777 45.3129C76.8705 45.2201 76.9963 45.168 77.1275 45.168Z" fill="white"/>
<path opacity="0.1" d="M88.9867 46.5371V51.2688C88.9861 51.3576 88.9524 51.4431 88.8921 51.5084C88.8318 51.5737 88.7493 51.6141 88.6608 51.6218C80.6797 52.262 78.1615 51.5481 76.6328 46.5778L88.9867 46.5371Z" fill="white"/>
<path d="M32.2783 29.8174C32.0182 29.6567 31.7074 29.5992 31.4071 29.6563C30.5558 29.8174 30.3529 30.6508 30.4663 31.2694C30.5153 31.5202 30.631 31.7531 30.8011 31.9439C30.9711 32.1346 31.1894 32.276 31.433 32.3534C32.1033 32.5225 32.694 31.9019 32.8671 31.4364C32.9769 31.1406 32.9779 30.8153 32.8701 30.5188C32.7622 30.2222 32.5525 29.9736 32.2783 29.8174Z" fill="#263238"/>
<path d="M47.2871 38.9651L50.6506 38.0223C50.6506 38.0223 50.6506 37.8234 51.1737 37.4514C51.6968 37.0795 53.0971 36.7871 53.0971 36.7871C53.0971 36.7871 53.7415 38.6508 53.5327 38.7026C53.3238 38.7543 51.4362 39.3848 51.3308 39.1759L47.7506 40.1884L47.2871 38.9651Z" fill="#B97964"/>
<path d="M37.0392 35.0762C39.0024 35.7107 42.0595 39.1736 42.6562 39.3824C43.2529 39.5913 48.9655 38.3561 48.9655 38.3561L49.7611 39.826C49.7611 39.826 44.518 41.7235 42.6503 41.5764C40.7826 41.4292 38.346 38.6604 36.5996 38.2606L37.0392 35.0762Z" fill="#151F6D"/>
<path opacity="0.5" d="M49.7668 39.826C49.7668 39.826 44.5237 41.7235 42.6559 41.5764C41.4486 41.4809 40.0065 40.2934 38.6779 39.3566C37.9399 38.8434 37.2338 38.4038 36.6152 38.2606L36.842 36.5938L37.0409 35.0762C39.0041 35.7107 42.0612 39.1716 42.6579 39.3824C43.2546 39.5933 48.9672 38.3561 48.9672 38.3561L49.7668 39.826Z" fill="white"/>
<path opacity="0.2" d="M38.6681 39.3585C37.9302 38.8453 37.2241 38.4057 36.6055 38.2625L36.8322 36.5957C37.3951 37.1427 38.2623 38.1372 38.6681 39.3585Z" fill="black"/>
<path d="M39.9314 77.7887L38.6047 78.0214L38.0617 76.2153L37.5664 74.5585L39.094 74.0254L39.5375 76.0164L39.9314 77.7887Z" fill="#E4897B"/>
<path d="M38.3068 77.9868C38.285 77.8396 40.097 77.6387 40.097 77.6387C40.097 77.6387 41.3998 78.5656 42.5176 78.6332C43.6355 78.7008 43.1482 79.4447 41.9488 79.6575L38.9851 80.1807C38.1338 80.3259 38.5396 79.5084 38.3068 77.9868Z" fill="#263238"/>
<path d="M40.9916 77.9407C40.7713 77.9306 40.553 77.8945 40.3411 77.8333C40.3358 77.8344 40.3304 77.8344 40.3252 77.8333C40.3196 77.8303 40.3154 77.8253 40.3132 77.8194C40.3132 77.8194 40.3132 77.8194 40.3132 77.8075C40.3123 77.8002 40.3123 77.7928 40.3132 77.7856C40.3132 77.7657 40.3948 77.32 40.6196 77.1768C40.6535 77.1543 40.6919 77.1396 40.7322 77.1337C40.7724 77.1279 40.8135 77.131 40.8524 77.143C40.9419 77.1669 40.9896 77.2106 40.9976 77.2723C41.0095 77.3678 40.8981 77.4852 40.7648 77.5886C40.8961 77.5412 41.0381 77.5315 41.1746 77.5608C41.2004 77.5694 41.224 77.5832 41.2442 77.6013C41.2644 77.6195 41.2807 77.6416 41.292 77.6662C41.3117 77.6956 41.3222 77.7303 41.3222 77.7657C41.3222 77.8011 41.3117 77.8357 41.292 77.8651C41.2499 77.8978 41.2014 77.9214 41.1497 77.9344C41.098 77.9474 41.0442 77.9496 40.9916 77.9407ZM40.5002 77.7756C40.7827 77.8413 41.1289 77.8811 41.2025 77.7975C41.2025 77.7975 41.2284 77.7677 41.2025 77.7C41.197 77.687 41.1885 77.6754 41.1778 77.6661C41.1672 77.6568 41.1545 77.65 41.1408 77.6463C40.9936 77.5946 40.6932 77.6941 40.5002 77.7756ZM40.7648 77.2206C40.7285 77.2204 40.6931 77.2315 40.6634 77.2524C40.5379 77.3692 40.4534 77.5234 40.4227 77.6921C40.6713 77.5448 40.9041 77.3598 40.8941 77.2783C40.8941 77.2524 40.8464 77.2365 40.8185 77.2285C40.801 77.2239 40.783 77.2213 40.7648 77.2206Z" fill="#151F6D"/>
<path opacity="0.2" d="M39.5454 76.058L38.0676 76.253L37.5703 74.5762L39.0959 74.0332L39.5454 76.058Z" fill="black"/>
<path d="M31.0846 78.3547H29.738L29.5173 76.483L29.3184 74.7625L30.9156 74.5039L31.0051 76.5427L31.0846 78.3547Z" fill="#E4897B"/>
<path d="M29.4517 78.2691C29.4517 78.1199 31.2777 78.2372 31.2777 78.2372C31.2777 78.2372 32.3995 79.3769 33.4875 79.6296C34.5755 79.8822 33.9688 80.5385 32.7515 80.5385H29.7401C28.8749 80.5425 29.4159 79.8066 29.4517 78.2691Z" fill="#263238"/>
<path d="M32.2346 78.7133C31.9717 78.6809 31.7166 78.6028 31.4806 78.4825C31.4736 78.4804 31.4673 78.4763 31.4627 78.4705V78.4606C31.4577 78.4485 31.4577 78.4349 31.4627 78.4228C31.4627 78.4049 31.6219 77.9792 31.8606 77.8777C31.8973 77.8605 31.9374 77.8516 31.978 77.8516C32.0185 77.8516 32.0586 77.8605 32.0953 77.8777C32.1789 77.9175 32.2187 77.9692 32.2147 78.0309C32.2147 78.1264 32.0794 78.2298 31.9322 78.3014C32.0665 78.2804 32.2041 78.2962 32.3301 78.3472C32.3543 78.3595 32.3756 78.3768 32.3924 78.3981C32.4093 78.4194 32.4213 78.4441 32.4276 78.4705C32.4426 78.504 32.4464 78.5414 32.4385 78.5772C32.4306 78.6131 32.4115 78.6454 32.3838 78.6695C32.3401 78.6998 32.2878 78.7151 32.2346 78.7133ZM31.6378 78.4526C31.9064 78.566 32.2346 78.6675 32.3261 78.5959C32.3261 78.5959 32.3579 78.572 32.3381 78.5004C32.335 78.4865 32.3287 78.4735 32.3197 78.4624C32.3107 78.4514 32.2993 78.4426 32.2863 78.4367C32.163 78.3512 31.8507 78.3969 31.6457 78.4427L31.6378 78.4526ZM31.964 77.9513C31.9388 77.9513 31.9139 77.956 31.8904 77.9652C31.7466 78.0612 31.6372 78.2006 31.5781 78.3631C31.8487 78.2617 32.1093 78.1184 32.1132 78.0369C32.1132 78.013 32.0735 77.9891 32.0476 77.9772C32.0255 77.9596 31.9996 77.9473 31.972 77.9414L31.964 77.9513Z" fill="#151F6D"/>
<path opacity="0.2" d="M31.0051 76.5843L29.5173 76.5187L29.3184 74.7822L30.9156 74.5117L31.0051 76.5843Z" fill="black"/>
<path d="M39.6687 75.0046L37.4807 75.3885C35.2928 69.9127 33.7195 65.3419 32.6156 61.5488C32.0188 59.502 31.5574 57.6821 31.2013 56.067L31.3008 62.0341V75.5695H29.0969C23.7166 49.9109 27.5296 44.0472 27.5296 44.0472L33.9661 42.9473C34.2208 44.1356 34.4008 45.3386 34.5051 46.5494L34.7955 48.6777L37.3117 61.6701L39.6687 75.0046Z" fill="#151F6D"/>
<path opacity="0.5" d="M39.6687 75.0046L37.4807 75.3885C35.2928 69.9127 33.7195 65.3419 32.6156 61.5488C32.0188 59.502 31.5574 57.6821 31.2013 56.067L31.3008 62.0341V75.5695H29.0969C23.7166 49.9109 27.5296 44.0472 27.5296 44.0472L33.9661 42.9473C34.2208 44.1356 34.4008 45.3386 34.5051 46.5494L34.7955 48.6777L37.3117 61.6701L39.6687 75.0046Z" fill="white"/>
<path d="M37.1504 75.1197L39.8515 74.2246L39.8137 75.3723L37.58 76.0863L37.1504 75.1197Z" fill="#151F6D"/>
<path d="M28.8105 75.2457L31.627 74.834L31.3903 75.9578L29.0671 76.2721L28.8105 75.2457Z" fill="#151F6D"/>
<path opacity="0.2" d="M32.6251 61.5499C32.0284 59.5031 31.567 57.6832 31.2109 56.0681C31.2412 54.1562 31.38 52.2477 31.6266 50.3516C31.6266 50.3516 32.5695 57.7249 32.6251 61.5499Z" fill="black"/>
<path d="M35.0281 47.8827L32.2793 48.8136L31.7701 47.1408L31.2132 48.6823L26.2227 47.5207C26.6503 44.4576 28.3589 42.0131 28.6274 41.0862C28.9974 39.8053 29.2878 37.3548 29.0352 35.7695V35.7496C29.01 35.5897 29.0181 35.4262 29.0589 35.2695C29.0998 35.1129 29.1725 34.9663 29.2726 34.839C29.3726 34.7117 29.4978 34.6064 29.6404 34.5296C29.783 34.4529 29.9399 34.4064 30.1013 34.3931C30.5826 34.3553 31.068 34.3374 31.5533 34.3354C32.5154 34.3241 33.4772 34.3806 34.4314 34.5045C35.6567 34.7034 37.043 35.0694 37.043 35.0694C37.043 35.0694 37.2419 35.1509 37.1465 36.4617C37.0649 37.6133 36.8441 41.1916 34.4891 44.2189L35.0281 47.8827Z" fill="#151F6D"/>
<path opacity="0.6" d="M35.0281 47.8827L32.2793 48.8136L31.7701 47.1408L31.2132 48.6823L26.2227 47.5207C26.6503 44.4576 28.3589 42.0131 28.6274 41.0862C28.9974 39.8053 29.2878 37.3548 29.0352 35.7695V35.7496C29.01 35.5897 29.0181 35.4262 29.0589 35.2695C29.0998 35.1129 29.1725 34.9663 29.2726 34.839C29.3726 34.7117 29.4978 34.6064 29.6404 34.5296C29.783 34.4529 29.9399 34.4064 30.1013 34.3931C30.5826 34.3553 31.068 34.3374 31.5533 34.3354C32.5154 34.3241 33.4772 34.3806 34.4314 34.5045C35.6567 34.7034 37.043 35.0694 37.043 35.0694C37.043 35.0694 37.2419 35.1509 37.1465 36.4617C37.0649 37.6133 36.8441 41.1916 34.4891 44.2189L35.0281 47.8827Z" fill="white"/>
<path d="M32.2283 36.786C32.2283 36.786 33.3262 37.7387 33.6465 40.1872L34.8857 36.7641L35.737 37.0247C35.737 37.0247 35.0806 33.9198 32.9523 33.8621C30.824 33.8044 30.9832 37.0247 30.9832 37.0247L32.2283 36.786Z" fill="#151F6D"/>
<path opacity="0.5" d="M32.2283 36.786C32.2283 36.786 33.3262 37.7387 33.6465 40.1872L34.8857 36.7641L35.737 37.0247C35.737 37.0247 35.0806 33.9198 32.9523 33.8621C30.824 33.8044 30.9832 37.0247 30.9832 37.0247L32.2283 36.786Z" fill="white"/>
<path d="M35.3154 33.2938C35.3154 33.2938 34.5357 33.797 34.4005 34.1312C34.3921 34.1518 34.3854 34.1731 34.3806 34.1949C34.3433 34.3848 34.3174 34.5767 34.303 34.7697C34.8997 36.0526 33.756 38.2604 33.756 38.2604C33.2905 36.956 32.6313 35.7289 31.8008 34.6205C33.0519 34.1312 33.2906 31.7324 33.2906 31.7324L33.8873 32.1998L35.3154 33.2938Z" fill="#B97964"/>
<path opacity="0.2" d="M35.3164 33.2943C35.3164 33.2943 34.5367 33.7976 34.4015 34.1317C34.3931 34.1523 34.3864 34.1736 34.3816 34.1954C34.0513 33.9432 33.7879 33.6139 33.6145 33.2362C33.4411 32.8586 33.363 32.4442 33.3871 32.0293L33.8943 32.2004L35.3164 33.2943Z" fill="black"/>
<path d="M36.1816 27.6717C36.1816 27.6717 37.7589 27.2302 38.5227 28.5032C39.2865 29.7761 38.6759 30.7408 38.1448 31.2003" stroke="#263238" stroke-width="0.488465" stroke-linecap="round" stroke-linejoin="round"/>
<path d="M36.8111 27.5925C36.8111 27.5925 38.0961 27.6323 38.4521 28.7183C38.8081 29.8044 38.5436 31.0236 36.6361 32.3364C35.7033 32.9789 33.386 31.7238 33.386 31.7238L33.201 32.2847C32.8914 32.0604 32.6102 31.7992 32.3637 31.507C31.6138 30.6278 31.8067 27.7159 33.8873 27.145C36.0593 26.5582 36.8111 27.5925 36.8111 27.5925Z" fill="#263238"/>
<path d="M35.5842 27.9667C37.2172 28.1875 37.6249 29.1343 37.5156 30.8349C37.3783 32.9572 36.708 34.3893 34.7309 33.6613C32.0357 32.6728 32.8751 27.5948 35.5842 27.9667Z" fill="#B97964"/>
<path d="M36.472 30.5977C36.57 30.8594 36.6989 31.1086 36.856 31.3397C36.7989 31.4011 36.726 31.4456 36.6452 31.468C36.5644 31.4905 36.479 31.4902 36.3984 31.467L36.472 30.5977Z" fill="#A24E3F"/>
<path d="M35.4927 30.3297C35.4768 30.463 35.3912 30.5644 35.2938 30.5545C35.1963 30.5445 35.1446 30.4272 35.1585 30.2919C35.1724 30.1566 35.2599 30.0571 35.3574 30.0671C35.4549 30.077 35.5066 30.1944 35.4927 30.3297Z" fill="#263238"/>
<path d="M35.3184 30.0679L35.6227 29.9863C35.6227 29.9863 35.4497 30.2171 35.3184 30.0679Z" fill="#263238"/>
<path d="M37.1666 30.4881C37.1527 30.6234 37.0671 30.7249 36.9776 30.7149C36.8881 30.705 36.8264 30.5876 36.8423 30.4523C36.8583 30.317 36.9418 30.2156 37.0413 30.2275C37.1408 30.2395 37.1825 30.3548 37.1666 30.4881Z" fill="#263238"/>
<path d="M36.9922 30.23L37.2986 30.1484C37.2986 30.1484 37.1255 30.3792 36.9922 30.23Z" fill="#263238"/>
<path d="M35.6288 29.1986C35.5019 29.1649 35.369 29.1608 35.2403 29.1867C35.1117 29.2126 34.9907 29.2677 34.8867 29.3478" stroke="#263238" stroke-width="0.707962" stroke-linecap="round" stroke-linejoin="round"/>
<path d="M36.8242 29.2901C36.9397 29.2769 37.0566 29.2902 37.1661 29.3288C37.2757 29.3674 37.3751 29.4303 37.4568 29.5129" stroke="#263238" stroke-width="0.707962" stroke-linecap="round" stroke-linejoin="round"/>
<path d="M33.4254 30.4743C33.4254 30.4743 34.3721 29.2371 34.398 28.1849C34.398 28.1849 37.8152 27.3038 37.5268 30.6115C37.5268 30.6115 38.2408 27.7374 35.4422 27.2898C32.6437 26.8423 31.9972 30.6971 33.2742 32.1192C33.2742 32.1192 32.8386 31.25 33.4254 30.4743Z" fill="#263238"/>
<path d="M33.6448 30.8557C33.6541 30.6647 33.5876 30.4778 33.4599 30.3355C33.3321 30.1933 33.1534 30.1071 32.9626 30.0958C32.4494 30.0819 32.0655 31.0904 33.2908 31.5101C33.4718 31.5717 33.5931 31.4066 33.6448 30.8557Z" fill="#B97964"/>
<path d="M36.3121 31.9538C36.2435 32.1486 36.189 32.348 36.149 32.5506H36.0396C35.5462 32.5267 35.3254 32.3517 35.2299 32.1686C35.1844 32.0773 35.1618 31.9762 35.1642 31.8742C35.1638 31.8165 35.1712 31.7589 35.1861 31.7031C35.4847 31.852 35.8116 31.9354 36.145 31.9478C36.2584 31.9538 36.3121 31.9538 36.3121 31.9538Z" fill="#263238"/>
<path d="M36.1448 31.9439L36.0911 32.119C35.6276 32.0951 35.2954 32.0175 35.1641 31.8703C35.1637 31.8126 35.171 31.755 35.186 31.6992C35.4845 31.8481 35.8114 31.9315 36.1448 31.9439Z" fill="white"/>
<path d="M36.0402 32.548C35.5468 32.5241 35.326 32.349 35.2305 32.166C35.4173 32.1779 35.6006 32.2231 35.7716 32.2993C35.8849 32.352 35.9789 32.439 36.0402 32.548Z" fill="#DE5753"/>
<path d="M31.961 29.5126L32.0803 26.9706L31.6328 26.2685C32.7942 25.8425 34.0517 25.7502 35.2628 26.002L36.8162 27.5932C36.8162 27.5932 33.8128 26.8553 31.961 29.5126Z" fill="#151F6D"/>
<path opacity="0.6" d="M36.8103 27.5941C35.6787 27.3672 34.5034 27.5438 33.4886 28.0934C32.8781 28.4411 32.3555 28.9242 31.961 29.5056L32.0803 26.9636L31.6328 26.2615C32.795 25.8382 34.0524 25.7486 35.2628 26.0029L36.8103 27.5941Z" fill="white"/>
<path opacity="0.1" d="M33.4886 28.1014C32.8781 28.4491 32.3555 28.9323 31.961 29.5137L32.0803 26.9717L31.6328 26.2695L33.4886 28.1014Z" fill="black"/>
<path d="M39.6392 45.9297L41.8272 46.4349C42.3733 46.4675 42.9142 46.5595 43.4403 46.7094C44.2677 46.9521 45.1628 47.3061 45.0315 47.5209C44.9002 47.7357 43.4681 48.8874 43.0107 48.8138C42.5532 48.7402 41.2663 48.0182 41.4194 47.6602L39.2832 47.141L39.6392 45.9297Z" fill="#B97964"/>
<path d="M29.6337 34.5364C30.4174 34.3077 31.939 41.697 33.0609 42.9481C34.1827 44.1992 40.9454 46.0411 40.9454 46.0411L40.6033 47.5209C40.6033 47.5209 32.313 46.5125 31.211 44.9351C30.1091 43.3578 28.5756 39.1311 28.3806 37.0247C28.1857 34.9183 29.1723 34.6737 29.6337 34.5364Z" fill="#151F6D"/>
<path opacity="0.5" d="M29.6337 34.5364C30.4174 34.3077 31.939 41.697 33.0609 42.9481C34.1827 44.1992 40.9454 46.0411 40.9454 46.0411L40.6033 47.5209C40.6033 47.5209 32.313 46.5125 31.211 44.9351C30.1091 43.3578 28.5756 39.1311 28.3806 37.0247C28.1857 34.9183 29.1723 34.6737 29.6337 34.5364Z" fill="white"/>
<path d="M36.7269 40.7825L34.543 40.6353L34.6981 39.416L36.8841 39.5632L36.7269 40.7825Z" fill="#151F6D"/>
<path opacity="0.5" d="M36.6121 40.6853L34.7305 40.558L34.8657 39.5098L36.7454 39.6371L36.6121 40.6853Z" fill="white"/>
<path d="M35.8554 39.084L35.6445 39.6728H35.9967V39.084H35.8554Z" fill="#263238"/>
<path d="M42.4711 47.6561L40.4344 48.04C40.4344 48.04 38.3041 47.5745 37.9341 47.6561C37.5642 47.7376 36.6055 49.6173 36.6055 49.6173C36.6055 49.6173 39.8774 50.3313 40.2951 50.1921C40.7128 50.0529 41.0589 49.5099 41.0589 49.5099L42.6502 49.2155L42.4711 47.6561Z" fill="#E4897B"/>
<path d="M46.6273 38.0176C45.6646 39.4636 47.0629 45.3293 47.1505 45.7012C47.238 46.0732 41.4141 47.6485 41.4141 47.6485L42.2534 50.2164C42.2534 50.2164 49.5114 49.379 50.317 48.5137C51.1226 47.6485 50.2156 40.5357 50.2156 40.5357L46.6353 38.0176H46.6273Z" fill="#151F6D"/>
<path opacity="0.4" d="M50.317 48.5137C49.6308 49.2517 44.2524 49.9697 42.6831 50.1646L42.2534 50.2164L41.4141 47.6485L41.796 47.5431C43.0908 47.1851 47.224 46.0155 47.1505 45.7012C47.0629 45.3293 45.6646 39.4636 46.6273 38.0176L47.2499 38.2801L49.3105 39.8475L50.2156 40.5357C50.2156 40.5357 50.5776 43.3084 50.6372 45.5899C50.679 46.9762 50.6193 48.1875 50.317 48.5137Z" fill="black"/>
<path opacity="0.1" d="M42.6831 50.1645L42.2534 50.2162L41.4141 47.6484L41.796 47.543L42.6831 50.1645Z" fill="black"/>
<path opacity="0.2" d="M50.6392 45.5881C49.4458 43.6766 49.3284 41.5821 49.3125 39.8457L50.2175 40.5339C50.2175 40.5339 50.5795 43.3066 50.6392 45.5881Z" fill="black"/>
<path d="M33.5665 80.5383L34.9588 57.8374H46.2307L47.623 80.5383H48.6175L46.8154 51.3571C46.772 50.6936 46.4801 50.0708 45.9979 49.613C45.5157 49.1551 44.8787 48.8958 44.2138 48.8867H37.0135C36.3429 48.8883 35.698 49.1445 35.2091 49.6035C34.7202 50.0624 34.4238 50.69 34.38 51.3591L32.5898 80.5383H33.5665ZM35.3566 51.4208C35.3838 51.0039 35.5685 50.6129 35.8732 50.3271C36.1779 50.0412 36.5798 49.8819 36.9976 49.8812H44.2138C44.6309 49.8823 45.032 50.0417 45.3363 50.327C45.6405 50.6124 45.825 51.0026 45.8528 51.4188L46.1869 56.8429H35.0284L35.3566 51.4208Z" fill="#151F6D"/>
<path d="M54.3767 79.0335L52.8212 79.487L51.9043 76.1195L53.4597 75.6641L54.3767 79.0335Z" fill="#B97964"/>
<path d="M52.6532 78.7637H54.5568C54.5878 78.7639 54.618 78.7746 54.6422 78.7941C54.6664 78.8136 54.6833 78.8407 54.69 78.8711L54.9983 80.2634C55.0108 80.3233 54.9992 80.3856 54.966 80.4369C54.9329 80.4883 54.8809 80.5246 54.8213 80.5379C54.8041 80.5399 54.7868 80.5399 54.7696 80.5379C54.155 80.528 53.7094 80.4902 52.9377 80.4902C52.4623 80.4902 51.0302 80.5399 50.3738 80.5399C49.7174 80.5399 49.6319 79.8935 49.9004 79.8338C51.1058 79.5712 52.0108 79.2072 52.3967 78.8612C52.4668 78.7975 52.5585 78.7627 52.6532 78.7637Z" fill="#263238"/>
<path opacity="0.2" d="M53.4597 75.6641L51.9043 76.1195L52.3777 77.856L53.9351 77.4025L53.4597 75.6641Z" fill="black"/>
<path d="M59.4364 46.8027C59.8611 48.9461 60.0379 51.1311 59.9635 53.3148C59.8242 56.8175 51.9078 61.1656 51.7567 62.3888C51.6055 63.6121 54.1933 76.4036 54.1933 76.4036L51.4623 77.3743C51.4623 77.3743 46.066 65.7941 46.0044 62.9597C45.9427 60.1253 51.9078 53.3148 53.5349 51.4372C54.1674 50.7072 53.5448 47.7694 53.5448 47.7694L59.4364 46.8027Z" fill="#263238"/>
<path opacity="0.3" d="M59.9635 53.3149C59.9137 54.5819 58.8456 55.9583 57.4951 57.2592C55.3529 59.3317 52.4747 61.2094 51.8701 62.1283C51.8131 62.2055 51.7744 62.2946 51.7567 62.3889C51.6075 63.6141 54.1933 76.4037 54.1933 76.4037L51.4623 77.3723C51.4623 77.3723 46.066 65.7941 46.0044 62.9597C45.9427 60.1254 51.9078 53.3149 53.5349 51.4372C54.1674 50.7073 53.5448 47.7694 53.5448 47.7694L59.4384 46.8008C59.8623 48.9449 60.0385 51.1306 59.9635 53.3149Z" fill="white"/>
<path d="M51.2928 77.8516L54.6184 76.7238L54.344 75.7969L50.8711 76.9068L51.2928 77.8516Z" fill="#151F6D"/>
<path opacity="0.6" d="M51.2928 77.8516L54.6184 76.7238L54.344 75.7969L50.8711 76.9068L51.2928 77.8516Z" fill="white"/>
<path opacity="0.2" d="M57.4941 57.259C55.3519 59.3316 52.4738 61.2092 51.8691 62.1281C51.9845 58.0088 56.9571 53.625 56.9571 53.625L57.4941 57.259Z" fill="black"/>
<path d="M61.9099 79.0335L60.3545 79.487L59.4355 76.1195L60.993 75.6641L61.9099 79.0335Z" fill="#B97964"/>
<path d="M60.1861 78.7638H62.0836C62.1147 78.764 62.1449 78.7747 62.1691 78.7942C62.1933 78.8137 62.2101 78.8409 62.2169 78.8712L62.5252 80.2635C62.5376 80.3236 62.5257 80.3862 62.4922 80.4376C62.4587 80.489 62.4062 80.5251 62.3462 80.538C62.3297 80.54 62.313 80.54 62.2965 80.538C61.6818 80.5281 61.2343 80.4903 60.4646 80.4903C59.9892 80.4903 58.5551 80.54 57.9007 80.54C57.2463 80.54 57.1588 79.8936 57.4273 79.8339C58.6307 79.5714 59.5377 79.2074 59.9235 78.8613C59.9952 78.7962 60.0893 78.7613 60.1861 78.7638Z" fill="#263238"/>
<path opacity="0.2" d="M60.993 75.6641L59.4355 76.1195L59.9109 77.856L61.4664 77.4025L60.993 75.6641Z" fill="black"/>
<path d="M62.5287 46.0918C63.412 48.1024 63.8406 50.2832 63.7838 52.4786C63.6445 55.9793 59.4397 61.1627 59.2885 62.386C59.1374 63.6093 61.7171 76.4028 61.7171 76.4028L58.9842 77.3734C58.9842 77.3734 53.5879 65.7932 53.5243 62.9588C53.4606 60.1245 56.9494 53.6243 56.9494 53.6243L56.2234 47.1798L62.5287 46.0918Z" fill="#263238"/>
<path opacity="0.3" d="M62.5287 46.0918C63.412 48.1024 63.8406 50.2832 63.7838 52.4786C63.6445 55.9793 59.4397 61.1627 59.2885 62.386C59.1374 63.6093 61.7171 76.4028 61.7171 76.4028L58.9842 77.3734C58.9842 77.3734 53.5879 65.7932 53.5243 62.9588C53.4606 60.1245 56.9494 53.6243 56.9494 53.6243L56.2234 47.1798L62.5287 46.0918Z" fill="white"/>
<path d="M58.822 77.8516L62.1497 76.7238L61.8732 75.7969L58.4023 76.9068L58.822 77.8516Z" fill="#151F6D"/>
<path opacity="0.6" d="M58.822 77.8516L62.1497 76.7238L61.8732 75.7969L58.4023 76.9068L58.822 77.8516Z" fill="white"/>
<path d="M63.7943 50.212C63.7943 50.212 54.3026 51.6441 53.3598 50.8823C51.9675 49.7605 50.43 40.3762 46.6289 38.0172C47.0199 37.3904 47.4951 36.8202 48.0411 36.3225C49.2194 35.2106 50.6438 34.3927 52.1982 33.9357C53.3808 33.5936 54.6096 33.4386 55.8401 33.4762C55.8401 33.4762 63.2911 38.7711 63.7943 50.212Z" fill="#151F6D"/>
<path opacity="0.3" d="M63.7943 50.2117C63.7943 50.2117 54.3026 51.6438 53.3598 50.882C53.2574 50.7944 53.1689 50.6918 53.0973 50.5777C51.7686 48.6145 50.1933 40.2347 46.6289 38.0169C47.0199 37.39 47.4951 36.8198 48.0411 36.3222L48.2002 36.175C49.3482 35.1396 50.7147 34.3761 52.1982 33.9413C52.2758 33.9175 52.3553 33.8956 52.4349 33.8757C53.5445 33.5777 54.6917 33.4436 55.8401 33.4779C55.8401 33.4779 57.501 34.6574 59.307 37.1059C60.3889 38.5765 61.2885 40.1727 61.9863 41.8597C62.9627 44.2379 63.5543 46.7564 63.7386 49.3206C63.7625 49.617 63.7804 49.9113 63.7943 50.2117Z" fill="black"/>
<path opacity="0.1" d="M52.4339 33.875C52.1339 35.4115 51.6808 36.9141 51.0813 38.3603C51.0813 38.3603 49.1341 37.6403 48.1992 36.1723C49.3472 35.1369 50.7137 34.3734 52.1972 33.9386C52.2748 33.9168 52.3543 33.8949 52.4339 33.875Z" fill="black"/>
<path opacity="0.1" d="M63.7928 50.2113C63.7928 50.2113 54.3011 51.6434 53.3583 50.8816C53.2559 50.794 53.1674 50.6914 53.0957 50.5773C56.6844 50.6681 60.2676 50.2461 63.7371 49.3242C63.7609 49.6166 63.7788 49.911 63.7928 50.2113Z" fill="black"/>
<path opacity="0.2" d="M61.9859 41.8632C58.6582 40.986 56.9277 37.2426 56.9277 37.2426L59.3146 37.1094C60.3936 38.5804 61.2906 40.1766 61.9859 41.8632Z" fill="black"/>
<path d="M51.9718 34.0802C51.395 36.1846 50.5576 36.5466 49.9012 36.4232C49.5124 36.3255 49.1597 36.1184 48.8848 35.8265C48.9528 35.7011 48.9845 35.5592 48.9763 35.4168C48.9633 35.2611 48.9157 35.1103 48.8369 34.9754C48.7581 34.8405 48.6501 34.7249 48.5209 34.6371C48.3946 34.5397 48.2617 34.4513 48.123 34.3725L48.1648 33.8315L48.3637 31.2637C48.7294 31.8231 49.1356 32.3549 49.579 32.8549C49.7282 33.018 49.8853 33.1771 50.0465 33.3223C50.6491 33.8733 51.3214 34.2413 51.9718 34.0802Z" fill="#E4897B"/>
<path opacity="0.2" d="M49.8973 36.4232C49.5085 36.3255 49.1558 36.1185 48.8809 35.8265C48.9489 35.7011 48.9806 35.5592 48.9724 35.4168C48.9594 35.2611 48.9118 35.1103 48.833 34.9754C48.7541 34.8405 48.6462 34.7249 48.5169 34.6371C48.3907 34.5397 48.2578 34.4513 48.1191 34.3726L48.1609 33.8315L50.0445 33.3184C50.0445 33.3184 50.5159 35.204 49.8973 36.4232Z" fill="black"/>
<path d="M45.1922 31.1613C45.1922 31.1613 44.6293 31.1017 44.5378 31.8336C44.4463 32.5656 44.6949 32.5795 44.6949 32.5795C44.6949 32.5795 44.496 33.1921 44.7427 33.3652C44.9893 33.5382 45.1922 34.2702 45.1922 34.2702L45.7491 33.2478L45.1922 31.1613Z" fill="#263238"/>
<path opacity="0.6" d="M45.1922 31.1613C45.1922 31.1613 44.6293 31.1017 44.5378 31.8336C44.4463 32.5656 44.6949 32.5795 44.6949 32.5795C44.6949 32.5795 44.496 33.1921 44.7427 33.3652C44.9893 33.5382 45.1922 34.2702 45.1922 34.2702L45.7491 33.2478L45.1922 31.1613Z" fill="white"/>
<path d="M49.5403 34.9198C49.5009 35.002 49.4564 35.0818 49.4071 35.1585C49.1704 35.559 48.8083 35.8703 48.3768 36.0443C47.9453 36.2183 47.4686 36.2453 47.0202 36.1212C46.4364 35.9739 45.9311 35.6088 45.608 35.1008C45.5609 35.0313 45.5184 34.9589 45.4807 34.884C45.4071 34.7328 45.3335 34.5677 45.2679 34.3907C44.7348 32.9645 44.1819 31.0093 45.9064 29.979C46.9924 29.3246 48.8163 29.2431 49.4667 30.335C49.7049 30.7333 49.8586 31.1764 49.9181 31.6367C49.9777 32.0969 49.9418 32.5645 49.8128 33.0103C49.9123 33.5712 50.0098 33.977 49.5403 34.9198Z" fill="#E4897B"/>
<path d="M50.2547 31.6736C50.2547 31.6736 50.5431 31.6597 50.4258 31.2758C50.3084 30.8919 49.8151 30.6413 49.8151 30.6413C49.8151 30.6413 50.213 30.3788 49.6918 30.1301C49.4256 30.0083 49.1236 29.9899 48.8445 30.0784C48.6714 29.9332 47.1518 28.7139 46.1195 29.4399C46.1103 29.448 46.1044 29.459 46.1029 29.4711C46.1014 29.4832 46.1043 29.4954 46.1112 29.5054C46.118 29.5155 46.1283 29.5227 46.1401 29.5256C46.1519 29.5286 46.1644 29.5271 46.1752 29.5215C47.0762 28.889 48.4348 29.8815 48.7331 30.1182L48.6575 30.154C48.3472 30.0148 46.0618 29.0342 45.2941 30.1858C45.2903 30.1913 45.2877 30.1975 45.2864 30.2039C45.2851 30.2104 45.2851 30.2171 45.2864 30.2236C45.2877 30.2301 45.2903 30.2362 45.294 30.2417C45.2977 30.2472 45.3024 30.2518 45.308 30.2555C45.3133 30.2591 45.3193 30.2617 45.3256 30.263C45.3319 30.2643 45.3385 30.2643 45.3448 30.263C45.3511 30.2617 45.3571 30.2591 45.3624 30.2554C45.3677 30.2517 45.3722 30.247 45.3756 30.2415C46.0499 29.2311 48.0767 30.0148 48.5481 30.2157C48.4969 30.2474 48.4483 30.2833 48.4029 30.3231C47.9295 30.1938 46.4298 29.8397 45.5308 30.3231C45.3776 30.4029 45.243 30.5142 45.1357 30.6496C45.0285 30.7849 44.9509 30.9414 44.9082 31.1088C44.9064 31.1149 44.9058 31.1213 44.9066 31.1277C44.9073 31.134 44.9093 31.1402 44.9125 31.1458C44.9156 31.1513 44.9199 31.1562 44.9249 31.1601C44.93 31.164 44.9358 31.1668 44.942 31.1684H44.9559C44.9667 31.1684 44.9772 31.1649 44.9858 31.1585C44.9944 31.152 45.0006 31.1429 45.0037 31.1326C45.0436 30.9785 45.1154 30.8344 45.2144 30.7097C45.3134 30.585 45.4374 30.4824 45.5785 30.4086C46.4 29.9611 47.8022 30.2614 48.3194 30.3967C48.2364 30.4906 48.1693 30.5975 48.1205 30.7129C47.848 31.3693 48.2896 31.6179 48.578 31.9481C48.8664 32.2783 48.7331 32.8233 48.7291 32.8412C48.592 33.1621 48.3839 33.4477 48.1205 33.6766C47.9362 33.6015 47.7299 33.6015 47.5457 33.6766C47.2959 33.7907 47.0959 33.9913 46.9828 34.2415C46.1096 34.15 45.9683 34.8641 45.9683 34.8641C45.5861 34.5845 45.2815 34.2121 45.0832 33.782C44.9957 34.5776 45.2821 35.4091 45.5626 35.7492C45.843 36.0893 45.9823 35.7492 45.9823 35.7492C45.9823 35.7492 46.0479 36.4175 46.4218 36.6681C46.7958 36.9187 46.9271 36.6144 46.9271 36.6144C46.9271 36.6144 47.126 37.0341 47.8321 37.2111C48.5382 37.3881 48.7629 36.3717 48.7629 36.3717C49.5367 36.9685 49.471 35.5582 49.471 35.5582C49.471 35.5582 49.8509 35.6636 49.8151 34.9754C49.7853 34.4384 49.3079 33.4001 49.0971 32.9645C49.4114 32.9148 49.8927 33.6328 49.8927 33.6328C51.2512 33.7601 50.2547 31.6736 50.2547 31.6736Z" fill="#263238"/>
<path opacity="0.6" d="M50.2547 31.6736C50.2547 31.6736 50.5431 31.6597 50.4258 31.2758C50.3084 30.8919 49.8151 30.6413 49.8151 30.6413C49.8151 30.6413 50.213 30.3788 49.6918 30.1301C49.4256 30.0083 49.1236 29.9899 48.8445 30.0784C48.6714 29.9332 47.1518 28.7139 46.1195 29.4399C46.1103 29.448 46.1044 29.459 46.1029 29.4711C46.1014 29.4832 46.1043 29.4954 46.1112 29.5054C46.118 29.5155 46.1283 29.5227 46.1401 29.5256C46.1519 29.5286 46.1644 29.5271 46.1752 29.5215C47.0762 28.889 48.4348 29.8815 48.7331 30.1182L48.6575 30.154C48.3472 30.0148 46.0618 29.0342 45.2941 30.1858C45.2903 30.1913 45.2877 30.1975 45.2864 30.2039C45.2851 30.2104 45.2851 30.2171 45.2864 30.2236C45.2877 30.2301 45.2903 30.2362 45.294 30.2417C45.2977 30.2472 45.3024 30.2518 45.308 30.2555C45.3133 30.2591 45.3193 30.2617 45.3256 30.263C45.3319 30.2643 45.3385 30.2643 45.3448 30.263C45.3511 30.2617 45.3571 30.2591 45.3624 30.2554C45.3677 30.2517 45.3722 30.247 45.3756 30.2415C46.0499 29.2311 48.0767 30.0148 48.5481 30.2157C48.4969 30.2474 48.4483 30.2833 48.4029 30.3231C47.9295 30.1938 46.4298 29.8397 45.5308 30.3231C45.3776 30.4029 45.243 30.5142 45.1357 30.6496C45.0285 30.7849 44.9509 30.9414 44.9082 31.1088C44.9064 31.1149 44.9058 31.1213 44.9066 31.1277C44.9073 31.134 44.9093 31.1402 44.9125 31.1458C44.9156 31.1513 44.9199 31.1562 44.9249 31.1601C44.93 31.164 44.9358 31.1668 44.942 31.1684H44.9559C44.9667 31.1684 44.9772 31.1649 44.9858 31.1585C44.9944 31.152 45.0006 31.1429 45.0037 31.1326C45.0436 30.9785 45.1154 30.8344 45.2144 30.7097C45.3134 30.585 45.4374 30.4824 45.5785 30.4086C46.4 29.9611 47.8022 30.2614 48.3194 30.3967C48.2364 30.4906 48.1693 30.5975 48.1205 30.7129C47.848 31.3693 48.2896 31.6179 48.578 31.9481C48.8664 32.2783 48.7331 32.8233 48.7291 32.8412C48.592 33.1621 48.3839 33.4477 48.1205 33.6766C47.9362 33.6015 47.7299 33.6015 47.5457 33.6766C47.2959 33.7907 47.0959 33.9913 46.9828 34.2415C46.1096 34.15 45.9683 34.8641 45.9683 34.8641C45.5861 34.5845 45.2815 34.2121 45.0832 33.782C44.9957 34.5776 45.2821 35.4091 45.5626 35.7492C45.843 36.0893 45.9823 35.7492 45.9823 35.7492C45.9823 35.7492 46.0479 36.4175 46.4218 36.6681C46.7958 36.9187 46.9271 36.6144 46.9271 36.6144C46.9271 36.6144 47.126 37.0341 47.8321 37.2111C48.5382 37.3881 48.7629 36.3717 48.7629 36.3717C49.5367 36.9685 49.471 35.5582 49.471 35.5582C49.471 35.5582 49.8509 35.6636 49.8151 34.9754C49.7853 34.4384 49.3079 33.4001 49.0971 32.9645C49.4114 32.9148 49.8927 33.6328 49.8927 33.6328C51.2512 33.7601 50.2547 31.6736 50.2547 31.6736Z" fill="white"/>
<path d="M47.1368 32.5436C47.1765 32.6729 47.1228 32.8003 47.0353 32.8202C46.9478 32.8401 46.8523 32.7485 46.8204 32.6212C46.7886 32.4939 46.8364 32.3626 46.9239 32.3427C47.0114 32.3228 47.1049 32.4084 47.1368 32.5436Z" fill="#263238"/>
<path d="M45.6309 32.8911C45.6528 32.9416 45.6542 32.9986 45.6349 33.0502C45.6157 33.1017 45.5771 33.1438 45.5275 33.1676C45.44 33.1875 45.3445 33.096 45.3126 32.9686C45.2808 32.8413 45.3285 32.71 45.4161 32.6901C45.5036 32.6702 45.6071 32.7657 45.6309 32.8911Z" fill="#263238"/>
<path d="M46.1221 32.8457C46.0578 33.2907 45.932 33.7246 45.748 34.1348C45.8551 34.1793 45.9705 34.1998 46.0863 34.195C46.2021 34.1902 46.3155 34.1602 46.4185 34.107L46.1221 32.8457Z" fill="#DE5753"/>
<path d="M47.4931 31.9456C47.4792 31.9508 47.4642 31.9522 47.4495 31.9498C47.4349 31.9473 47.4211 31.9411 47.4096 31.9317C47.3336 31.8652 47.2432 31.8172 47.1455 31.7916C47.0477 31.7661 46.9454 31.7637 46.8466 31.7845C46.8265 31.7908 46.8048 31.7888 46.7862 31.7791C46.7676 31.7694 46.7535 31.7528 46.7471 31.7328C46.7415 31.7125 46.7439 31.6908 46.7539 31.6722C46.7639 31.6537 46.7807 31.6397 46.8008 31.6333C46.925 31.6035 47.0546 31.604 47.1785 31.6348C47.3025 31.6657 47.4172 31.7259 47.513 31.8104C47.5293 31.8236 47.5397 31.8427 47.5419 31.8636C47.5442 31.8845 47.5381 31.9054 47.525 31.9218C47.5157 31.9314 47.505 31.9395 47.4931 31.9456Z" fill="#263238"/>
<path d="M44.8606 32.5191C44.8476 32.5293 44.8313 32.5343 44.8149 32.533C44.7946 32.5282 44.7769 32.5159 44.7654 32.4985C44.754 32.4811 44.7496 32.46 44.7532 32.4395C44.7786 32.3143 44.8338 32.197 44.9142 32.0976C44.9945 31.9982 45.0976 31.9197 45.2147 31.8685C45.2246 31.8647 45.2352 31.863 45.2458 31.8633C45.2564 31.8637 45.2669 31.8662 45.2765 31.8706C45.2861 31.8751 45.2948 31.8814 45.302 31.8892C45.3091 31.8971 45.3146 31.9063 45.3182 31.9163C45.3243 31.9364 45.3228 31.958 45.314 31.9771C45.3052 31.9962 45.2897 32.0114 45.2704 32.0197C45.1789 32.0627 45.0987 32.1264 45.0361 32.2058C44.9736 32.2853 44.9305 32.3782 44.9103 32.4773C44.9057 32.4875 44.8988 32.4966 44.8902 32.5038C44.8816 32.511 44.8715 32.5162 44.8606 32.5191Z" fill="#263238"/>
<path opacity="0.6" d="M47.4931 31.9456C47.4792 31.9508 47.4642 31.9522 47.4495 31.9498C47.4349 31.9473 47.4211 31.9411 47.4096 31.9317C47.3336 31.8652 47.2432 31.8172 47.1455 31.7916C47.0477 31.7661 46.9454 31.7637 46.8466 31.7845C46.8265 31.7908 46.8048 31.7888 46.7862 31.7791C46.7676 31.7694 46.7535 31.7528 46.7471 31.7328C46.7415 31.7125 46.7439 31.6908 46.7539 31.6722C46.7639 31.6537 46.7807 31.6397 46.8008 31.6333C46.925 31.6035 47.0546 31.604 47.1785 31.6348C47.3025 31.6657 47.4172 31.7259 47.513 31.8104C47.5293 31.8236 47.5397 31.8427 47.5419 31.8636C47.5442 31.8845 47.5381 31.9054 47.525 31.9218C47.5157 31.9314 47.505 31.9395 47.4931 31.9456Z" fill="white"/>
<path opacity="0.6" d="M44.8606 32.5191C44.8476 32.5293 44.8313 32.5343 44.8149 32.533C44.7946 32.5282 44.7769 32.5159 44.7654 32.4985C44.754 32.4811 44.7496 32.46 44.7532 32.4395C44.7786 32.3143 44.8338 32.197 44.9142 32.0976C44.9945 31.9982 45.0976 31.9197 45.2147 31.8685C45.2246 31.8647 45.2352 31.863 45.2458 31.8633C45.2564 31.8637 45.2669 31.8662 45.2765 31.8706C45.2861 31.8751 45.2948 31.8814 45.302 31.8892C45.3091 31.8971 45.3146 31.9063 45.3182 31.9163C45.3243 31.9364 45.3228 31.958 45.314 31.9771C45.3052 31.9962 45.2897 32.0114 45.2704 32.0197C45.1789 32.0627 45.0987 32.1264 45.0361 32.2058C44.9736 32.2853 44.9305 32.3782 44.9103 32.4773C44.9057 32.4875 44.8988 32.4966 44.8902 32.5038C44.8816 32.511 44.8715 32.5162 44.8606 32.5191Z" fill="white"/>
<path opacity="0.2" d="M46.1367 35.0953C46.1367 35.0953 46.2819 35.2405 46.4768 35.0177C46.4768 35.0177 46.7533 35.4493 47.0417 34.4926C47.0417 34.4926 47.8135 34.6477 48.0243 34.4926C48.1695 34.3872 48.0243 34.1962 48.0243 34.1962C48.0243 34.1962 48.3406 34.1644 48.4221 33.9297C48.4221 33.9297 48.6727 34.8665 47.2287 34.6895C47.2247 34.6895 46.7613 35.6999 46.1367 35.0953Z" fill="black"/>
<path d="M50.5461 32.6877C50.4989 32.8923 50.4117 33.0855 50.2895 33.2561C50.1673 33.4268 50.0125 33.5716 49.8341 33.6822C49.3567 33.9766 48.9629 33.5848 48.9649 33.0537C48.9649 32.5803 49.2234 31.8424 49.7605 31.7708C50.2975 31.6992 50.6575 32.1805 50.5461 32.6877Z" fill="#E4897B"/>
<path opacity="0.2" d="M46.8105 32.7656C46.8105 32.7656 46.8861 33.1476 47.3437 33.0282" stroke="black" stroke-width="0.5" stroke-linecap="round" stroke-linejoin="round"/>
<path opacity="0.2" d="M45.6993 33.0605C45.6993 33.0605 45.6893 33.5141 45.375 33.4783" stroke="black" stroke-width="0.5" stroke-linecap="round" stroke-linejoin="round"/>
<path opacity="0.2" d="M45.1328 31.6092C45.5887 31.3554 46.1079 31.2381 46.6286 31.2711" stroke="black" stroke-width="0.5" stroke-linecap="round" stroke-linejoin="round"/>
<path opacity="0.2" d="M45.1328 31.3721C45.3299 31.1882 45.5715 31.0589 45.8338 30.9968C46.096 30.9347 46.37 30.942 46.6286 31.018" stroke="black" stroke-width="0.5" stroke-linecap="round" stroke-linejoin="round"/>
<path opacity="0.2" d="M45.3242 30.9513C45.517 30.807 45.7422 30.7122 45.9802 30.6754C46.2182 30.6386 46.4616 30.661 46.6889 30.7405" stroke="black" stroke-width="0.5" stroke-linecap="round" stroke-linejoin="round"/>
<path d="M64.398 44.6016L63.4035 45.7015C63.4035 45.7015 62.6994 46.1272 62.6576 46.3698C62.6159 46.6125 63.5328 49.7611 63.5328 49.7611C63.5328 49.7611 64.7799 48.8024 64.7402 48.514C64.7004 48.2256 64.1116 46.8014 64.1116 46.8014L65.2076 45.7811L64.398 44.6016Z" fill="#E4897B"/>
<path d="M55.8392 33.4824C55.8392 33.4824 64.5751 34.0791 67.8013 37.8086C71.0275 41.538 64.7322 46.801 64.7322 46.801L63.5965 44.8697C63.5965 44.8697 66.1504 42.2839 65.2056 40.5356C64.2608 38.7872 59.4374 38.9344 59.4374 38.9344C59.4374 38.9344 54.7373 36.9971 55.8392 33.4824Z" fill="#151F6D"/>
<path opacity="0.4" d="M65.1997 46.3794C64.9133 46.6499 64.7323 46.801 64.7323 46.801L63.5965 44.8697C63.5965 44.8697 63.694 44.7722 63.8432 44.6011C64.4578 43.897 65.9675 41.9498 65.2057 40.5356C64.2609 38.7812 59.4374 38.9344 59.4374 38.9344C59.4374 38.9344 54.7393 36.9971 55.8413 33.4824C55.8413 33.4824 64.5771 34.0791 67.8033 37.8066C70.4806 40.9035 66.594 45.0586 65.1997 46.3794Z" fill="black"/>
<path opacity="0.1" d="M65.2008 46.3798C64.9144 46.6503 64.7334 46.8014 64.7334 46.8014L63.5977 44.8701C63.5977 44.8701 63.6951 44.7726 63.8443 44.6016L65.2008 46.3798Z" fill="black"/>
<path d="M46.4305 53.7348H34.9836C34.8517 53.7348 34.7252 53.6824 34.632 53.5891C34.5387 53.4959 34.4863 53.3694 34.4863 53.2375C34.4863 53.1056 34.5387 52.9791 34.632 52.8859C34.7252 52.7926 34.8517 52.7402 34.9836 52.7402H46.4305C46.5624 52.7402 46.6889 52.7926 46.7821 52.8859C46.8754 52.9791 46.9278 53.1056 46.9278 53.2375C46.9278 53.3694 46.8754 53.4959 46.7821 53.5891C46.6889 53.6824 46.5624 53.7348 46.4305 53.7348Z" fill="#151F6D"/>
<g opacity="0.2">
<path d="M46.4305 53.7348H34.9836C34.8517 53.7348 34.7252 53.6824 34.632 53.5891C34.5387 53.4959 34.4863 53.3694 34.4863 53.2375C34.4863 53.1056 34.5387 52.9791 34.632 52.8859C34.7252 52.7926 34.8517 52.7402 34.9836 52.7402H46.4305C46.5624 52.7402 46.6889 52.7926 46.7821 52.8859C46.8754 52.9791 46.9278 53.1056 46.9278 53.2375C46.9278 53.3694 46.8754 53.4959 46.7821 53.5891C46.6889 53.6824 46.5624 53.7348 46.4305 53.7348Z" fill="white"/>
</g>
<path d="M45.4344 68.8402H33.9875C33.8556 68.8402 33.7291 68.7878 33.6359 68.6946C33.5426 68.6013 33.4902 68.4748 33.4902 68.343C33.4902 68.2111 33.5426 68.0846 33.6359 67.9913C33.7291 67.8981 33.8556 67.8457 33.9875 67.8457H45.4344C45.5663 67.8457 45.6928 67.8981 45.786 67.9913C45.8793 68.0846 45.9317 68.2111 45.9317 68.343C45.9317 68.4748 45.8793 68.6013 45.786 68.6946C45.6928 68.7878 45.5663 68.8402 45.4344 68.8402Z" fill="#151F6D"/>
<g opacity="0.2">
<path d="M45.4344 68.8402H33.9875C33.8556 68.8402 33.7291 68.7878 33.6359 68.6946C33.5426 68.6013 33.4902 68.4748 33.4902 68.343C33.4902 68.2111 33.5426 68.0846 33.6359 67.9913C33.7291 67.8981 33.8556 67.8457 33.9875 67.8457H45.4344C45.5663 67.8457 45.6928 67.8981 45.786 67.9913C45.8793 68.0846 45.9317 68.2111 45.9317 68.343C45.9317 68.4748 45.8793 68.6013 45.786 68.6946C45.6928 68.7878 45.5663 68.8402 45.4344 68.8402Z" fill="white"/>
</g>
<path d="M45.3008 80.5383L46.6932 57.8374H57.9651L59.3673 80.5383H60.3618L58.5598 51.3571C58.5162 50.6919 58.2228 50.0677 57.7385 49.6096C57.2543 49.1515 56.6148 48.8933 55.9482 48.8867H48.7478C48.0773 48.8883 47.4323 49.1445 46.9434 49.6035C46.4546 50.0624 46.1582 50.69 46.1144 51.3591L44.3242 80.5383H45.3008ZM47.091 51.4208C47.1182 51.0039 47.3029 50.6129 47.6076 50.3271C47.9122 50.0412 48.3142 49.8819 48.7319 49.8812H55.9482C56.3653 49.8823 56.7664 50.0417 57.0706 50.327C57.3748 50.6124 57.5594 51.0026 57.5871 51.4188L57.9213 56.8429H46.7628L47.091 51.4208Z" fill="#151F6D"/>
<path opacity="0.2" d="M45.3008 80.5383L46.6932 57.8374H57.9651L59.3673 80.5383H60.3618L58.5598 51.3571C58.5162 50.6919 58.2228 50.0677 57.7385 49.6096C57.2543 49.1515 56.6148 48.8933 55.9482 48.8867H48.7478C48.0773 48.8883 47.4323 49.1445 46.9434 49.6035C46.4546 50.0624 46.1582 50.69 46.1144 51.3591L44.3242 80.5383H45.3008ZM47.091 51.4208C47.1182 51.0039 47.3029 50.6129 47.6076 50.3271C47.9122 50.0412 48.3142 49.8819 48.7319 49.8812H55.9482C56.3653 49.8823 56.7664 50.0417 57.0706 50.327C57.3748 50.6124 57.5594 51.0026 57.5871 51.4188L57.9213 56.8429H46.7628L47.091 51.4208Z" fill="white"/>
</svg>
