<svg width="25" height="25" viewBox="0 0 25 25" fill="none" xmlns="http://www.w3.org/2000/svg">
<g filter="url(#filter0_d_61_4612)">
<circle cx="8.5" cy="8.5" r="8.5" transform="matrix(1 0 0 -1 4 21)" fill="#151F6D"/>
</g>
<path d="M13.1812 14.7407H11.3135C11.3184 14.3013 11.3525 13.9229 11.416 13.6055C11.4844 13.2832 11.5991 12.9927 11.7603 12.7339C11.9263 12.4751 12.146 12.2188 12.4194 11.9648C12.6489 11.7598 12.8491 11.5645 13.02 11.3789C13.1909 11.1934 13.3252 11.0029 13.4229 10.8076C13.5205 10.6074 13.5693 10.3853 13.5693 10.1411C13.5693 9.85791 13.5254 9.62354 13.4375 9.43799C13.3545 9.24756 13.2275 9.10352 13.0566 9.00586C12.8906 8.9082 12.6807 8.85938 12.4268 8.85938C12.2168 8.85938 12.0215 8.90576 11.8408 8.99854C11.6602 9.08643 11.5112 9.22314 11.394 9.40869C11.2817 9.59424 11.2231 9.83838 11.2183 10.1411H9.09424C9.10889 9.47217 9.2627 8.92041 9.55566 8.48584C9.85352 8.04639 10.2515 7.72168 10.7495 7.51172C11.2476 7.29688 11.8066 7.18945 12.4268 7.18945C13.1104 7.18945 13.6963 7.30176 14.1846 7.52637C14.6729 7.74609 15.0464 8.0708 15.3052 8.50049C15.564 8.92529 15.6934 9.44287 15.6934 10.0532C15.6934 10.478 15.6104 10.8564 15.4443 11.1885C15.2783 11.5156 15.061 11.8208 14.7925 12.104C14.5239 12.3872 14.2285 12.6802 13.9062 12.9829C13.6279 13.2319 13.4375 13.4932 13.335 13.7666C13.2373 14.04 13.186 14.3647 13.1812 14.7407ZM11.0938 17.0039C11.0938 16.6914 11.2012 16.4326 11.416 16.2275C11.6309 16.0176 11.9189 15.9126 12.2803 15.9126C12.6367 15.9126 12.9224 16.0176 13.1372 16.2275C13.3569 16.4326 13.4668 16.6914 13.4668 17.0039C13.4668 17.3066 13.3569 17.563 13.1372 17.7729C12.9224 17.9829 12.6367 18.0879 12.2803 18.0879C11.9189 18.0879 11.6309 17.9829 11.416 17.7729C11.2012 17.563 11.0938 17.3066 11.0938 17.0039Z" fill="white"/>
<defs>
<filter id="filter0_d_61_4612" x="0" y="0" width="25" height="25" filterUnits="userSpaceOnUse" color-interpolation-filters="sRGB">
<feFlood flood-opacity="0" result="BackgroundImageFix"/>
<feColorMatrix in="SourceAlpha" type="matrix" values="0 0 0 0 0 0 0 0 0 0 0 0 0 0 0 0 0 0 127 0" result="hardAlpha"/>
<feOffset/>
<feGaussianBlur stdDeviation="2"/>
<feComposite in2="hardAlpha" operator="out"/>
<feColorMatrix type="matrix" values="0 0 0 0 0 0 0 0 0 0 0 0 0 0 0 0 0 0 0.25 0"/>
<feBlend mode="normal" in2="BackgroundImageFix" result="effect1_dropShadow_61_4612"/>
<feBlend mode="normal" in="SourceGraphic" in2="effect1_dropShadow_61_4612" result="shape"/>
</filter>
</defs>
</svg>
