<svg width="38" height="50" viewBox="0 0 38 50" fill="none" xmlns="http://www.w3.org/2000/svg">
<path d="M20.2999 0.69664C20.1573 0.482643 19.9639 0.307182 19.7372 0.185827C19.5104 0.0644716 19.2572 0.000976563 18.9999 0.000976562C18.7427 0.000976562 18.4895 0.0644716 18.2627 0.185827C18.036 0.307182 17.8426 0.482643 17.6999 0.69664L8.32495 14.7591C8.16837 14.9944 8.07854 15.2678 8.06504 15.5501C8.05153 15.8324 8.11486 16.1131 8.24826 16.3623C8.38166 16.6114 8.58015 16.8198 8.82258 16.965C9.06502 17.1103 9.34232 17.1871 9.62495 17.1873H9.9312L3.61245 27.2966C3.46462 27.5332 3.3828 27.8049 3.37548 28.0838C3.36816 28.3626 3.43561 28.6383 3.57082 28.8822C3.70602 29.1262 3.90407 29.3295 4.14439 29.471C4.3847 29.6126 4.65853 29.6873 4.93745 29.6873H5.53432L0.415573 39.9248C0.296203 40.163 0.239734 40.4278 0.251533 40.694C0.263332 40.9601 0.343006 41.2189 0.482984 41.4456C0.622961 41.6723 0.818592 41.8595 1.05128 41.9893C1.28398 42.1191 1.546 42.1873 1.81245 42.1873H15.8749V49.9998H22.1249V42.1873H36.1875C36.4539 42.1873 36.7159 42.1191 36.9486 41.9893C37.1813 41.8595 37.3769 41.6723 37.5169 41.4456C37.6569 41.2189 37.7366 40.9601 37.7484 40.694C37.7602 40.4278 37.7037 40.163 37.5843 39.9248L32.4687 29.6873H33.0656C33.3445 29.6873 33.6183 29.6126 33.8586 29.471C34.099 29.3295 34.297 29.1262 34.4322 28.8822C34.5674 28.6383 34.6349 28.3626 34.6275 28.0838C34.6202 27.8049 34.5384 27.5332 34.3906 27.2966L28.0687 17.1873H28.3749C28.6576 17.1871 28.9349 17.1103 29.1773 16.965C29.4197 16.8198 29.6182 16.6114 29.7516 16.3623C29.885 16.1131 29.9484 15.8324 29.9349 15.5501C29.9214 15.2678 29.8315 14.9944 29.6749 14.7591L20.2999 0.69664ZM14.1156 14.8685C13.9806 14.6245 13.7828 14.421 13.5426 14.2793C13.3025 14.1375 13.0288 14.0626 12.7499 14.0623H12.5437L18.9999 4.37789L25.4562 14.0623H25.2499C24.971 14.0623 24.6972 14.1369 24.4569 14.2785C24.2166 14.4201 24.0185 14.6234 23.8833 14.8673C23.7481 15.1113 23.6807 15.387 23.688 15.6658C23.6953 15.9446 23.7771 16.2164 23.9249 16.4529L30.2437 26.5623H29.9374C29.671 26.5623 29.409 26.6304 29.1763 26.7602C28.9436 26.89 28.748 27.0772 28.608 27.3039C28.468 27.5306 28.3883 27.7894 28.3765 28.0556C28.3647 28.3218 28.4212 28.5865 28.5406 28.8248L33.6562 39.0623H4.34057L9.45932 28.8248C9.57869 28.5865 9.63516 28.3218 9.62336 28.0556C9.61156 27.7894 9.53189 27.5306 9.39191 27.3039C9.25193 27.0772 9.0563 26.89 8.82361 26.7602C8.59092 26.6304 8.3289 26.5623 8.06245 26.5623H7.7562L14.0749 16.4529C14.2224 16.2164 14.3039 15.9448 14.3111 15.6662C14.3182 15.3877 14.2507 15.1122 14.1156 14.8685Z" fill="white"/>
</svg>
