<svg width="19" height="24" viewBox="0 0 19 24" fill="none" xmlns="http://www.w3.org/2000/svg">
<path d="M4.94086 6.52999C4.78709 6.37584 4.70073 6.167 4.70073 5.94926C4.70073 5.73153 4.78709 5.52268 4.94086 5.36853L9.25782 1.05158C9.41371 0.897168 9.62426 0.810547 9.84369 0.810547C10.0631 0.810547 10.2737 0.897168 10.4296 1.05158L14.7465 5.36853C14.9003 5.52268 14.9866 5.73153 14.9866 5.94926C14.9866 6.167 14.9003 6.37584 14.7465 6.52999C14.67 6.60769 14.5788 6.66939 14.4782 6.7115C14.3776 6.75361 14.2697 6.7753 14.1606 6.7753C14.0516 6.7753 13.9436 6.75361 13.8431 6.7115C13.7425 6.66939 13.6513 6.60769 13.5748 6.52999L10.666 3.62119V13.1493C10.666 13.3674 10.5793 13.5766 10.4251 13.7308C10.2709 13.885 10.0618 13.9716 9.84369 13.9716C9.62561 13.9716 9.41646 13.885 9.26225 13.7308C9.10804 13.5766 9.02141 13.3674 9.02141 13.1493V3.62119L6.11261 6.52999C6.03609 6.60769 5.94489 6.66939 5.84431 6.7115C5.74373 6.75361 5.63578 6.7753 5.52674 6.7753C5.41769 6.7753 5.30974 6.75361 5.20916 6.7115C5.10858 6.66939 5.01738 6.60769 4.94086 6.52999ZM17.2442 9.03794H14.7773C14.5593 9.03794 14.3501 9.12457 14.1959 9.27878C14.0417 9.43298 13.9551 9.64213 13.9551 9.86021C13.9551 10.0783 14.0417 10.2874 14.1959 10.4417C14.3501 10.5959 14.5593 10.6825 14.7773 10.6825H17.2442V21.3721H2.4432V10.6825H4.91003C5.12811 10.6825 5.33726 10.5959 5.49146 10.4417C5.64567 10.2874 5.7323 10.0783 5.7323 9.86021C5.7323 9.64213 5.64567 9.43298 5.49146 9.27878C5.33726 9.12457 5.12811 9.03794 4.91003 9.03794H2.4432C2.00704 9.03794 1.58874 9.2112 1.28032 9.51962C0.97191 9.82803 0.798645 10.2463 0.798645 10.6825V21.3721C0.798645 21.8082 0.97191 22.2265 1.28032 22.535C1.58874 22.8434 2.00704 23.0166 2.4432 23.0166H17.2442C17.6803 23.0166 18.0986 22.8434 18.407 22.535C18.7155 22.2265 18.8887 21.8082 18.8887 21.3721V10.6825C18.8887 10.2463 18.7155 9.82803 18.407 9.51962C18.0986 9.2112 17.6803 9.03794 17.2442 9.03794Z" fill="#151F6D"/>
</svg>
