<svg width="25" height="50" viewBox="0 0 25 50" fill="none" xmlns="http://www.w3.org/2000/svg">
<path d="M18.6875 4.6875C18.6875 5.9307 18.1937 7.12299 17.3146 8.00206C16.4355 8.88114 15.2432 9.375 14 9.375C12.7568 9.375 11.5645 8.88114 10.6854 8.00206C9.80637 7.12299 9.31251 5.9307 9.31251 4.6875C9.31251 3.4443 9.80637 2.25201 10.6854 1.37294C11.5645 0.49386 12.7568 0 14 0C15.2432 0 16.4355 0.49386 17.3146 1.37294C18.1937 2.25201 18.6875 3.4443 18.6875 4.6875ZM9.12501 11.725C9.34463 11.4777 9.6141 11.2797 9.91572 11.1439C10.2173 11.0082 10.5443 10.9379 10.875 10.9375H15.3906C17.7094 10.9375 19.5156 12.9469 19.275 15.25L17.9313 28.0094C17.8863 28.4299 17.794 28.8439 17.6563 29.2437L16.6625 32.075L17.3281 32.8312C17.4703 32.9972 17.59 33.181 17.6844 33.3781L23.9344 46.6594C24.0748 46.939 24.1578 47.2439 24.1785 47.5561C24.1992 47.8683 24.1572 48.1815 24.0549 48.4772C23.9526 48.7729 23.7922 49.0451 23.583 49.2779C23.3739 49.5106 23.1202 49.699 22.8371 49.8322C22.5539 49.9653 22.247 50.0404 21.9344 50.053C21.6217 50.0656 21.3097 50.0155 21.0168 49.9056C20.7238 49.7957 20.4558 49.6283 20.2286 49.4132C20.0014 49.1981 19.8195 48.9396 19.6938 48.6531L13.5813 35.6719L8.33126 29.6688C7.92721 29.2096 7.71861 28.6108 7.75001 28L8.18126 19.8344L6.82189 21.3625L5.37189 30.0687C5.26994 30.6821 4.92854 31.2298 4.42278 31.5914C3.91701 31.9529 3.28832 32.0988 2.67501 31.9969C2.0617 31.8949 1.514 31.5535 1.15241 31.0478C0.790813 30.542 0.644943 29.9133 0.746886 29.3L2.30939 19.925C2.38264 19.4892 2.57765 19.0829 2.87189 18.7531L9.12189 11.7219L9.12501 11.725Z" fill="white"/>
</svg>
