<svg width="40" height="41" viewBox="0 0 40 41" fill="none" xmlns="http://www.w3.org/2000/svg">
<g clip-path="url(#clip0_356_2372)">
<path d="M23.75 4.25C23.75 5.24456 23.3549 6.19839 22.6517 6.90165C21.9484 7.60491 20.9946 8 20 8C19.0055 8 18.0516 7.60491 17.3484 6.90165C16.6451 6.19839 16.25 5.24456 16.25 4.25C16.25 3.25544 16.6451 2.30161 17.3484 1.59835C18.0516 0.895088 19.0055 0.5 20 0.5C20.9946 0.5 21.9484 0.895088 22.6517 1.59835C23.3549 2.30161 23.75 3.25544 23.75 4.25ZM16.1 9.88C16.2757 9.68215 16.4913 9.52373 16.7326 9.41515C16.9739 9.30656 17.2354 9.25028 17.5 9.25H21.1125C22.9675 9.25 24.4125 10.8575 24.22 12.7L23.145 22.9075C23.109 23.2439 23.0352 23.5751 22.925 23.895L22.13 26.16L22.6625 26.765C22.7762 26.8978 22.872 27.0448 22.9475 27.2025L27.9475 37.8275C28.0598 38.0512 28.1263 38.2951 28.1428 38.5449C28.1594 38.7946 28.1257 39.0452 28.0439 39.2818C27.9621 39.5183 27.8338 39.7361 27.6664 39.9223C27.4991 40.1084 27.2962 40.2592 27.0697 40.3657C26.8432 40.4722 26.5976 40.5323 26.3475 40.5424C26.0974 40.5525 25.8478 40.5124 25.6134 40.4245C25.379 40.3366 25.1647 40.2026 24.9829 40.0305C24.8011 39.8584 24.6556 39.6517 24.555 39.4225L19.665 29.0375L15.465 24.235C15.1418 23.8677 14.9749 23.3886 15 22.9L15.345 16.3675L14.2575 17.59L13.0975 24.555C13.016 25.0457 12.7428 25.4838 12.3382 25.7731C11.9336 26.0624 11.4307 26.1791 10.94 26.0975C10.4494 26.0159 10.0112 25.7428 9.72194 25.3382C9.43266 24.9336 9.31597 24.4307 9.39752 23.94L10.6475 16.44C10.7061 16.0913 10.8621 15.7663 11.0975 15.5025L16.0975 9.8775L16.1 9.88Z" fill="#151F6D"/>
<path d="M15.625 29.8624V26.3174L18.635 29.7549L19.2875 31.0649C19.2197 31.2725 19.1184 31.4676 18.9875 31.6424L12.7375 39.7674C12.4345 40.162 11.9872 40.4199 11.494 40.4846C11.0008 40.5493 10.502 40.4155 10.1075 40.1124C9.71301 39.8094 9.45503 39.3621 9.39033 38.8689C9.32563 38.3757 9.45951 37.877 9.76252 37.4824L15.625 29.8624ZM26.175 19.3249L24.94 18.0899L25.4525 13.4824L25.4675 13.3149L28.2775 16.1249H31.8775C32.3748 16.1249 32.8517 16.3225 33.2033 16.6741C33.555 17.0257 33.7525 17.5027 33.7525 17.9999C33.7525 18.4972 33.555 18.9741 33.2033 19.3258C32.8517 19.6774 32.3748 19.8749 31.8775 19.8749H27.5C27.2535 19.8751 27.0093 19.8265 26.7815 19.7322C26.5537 19.6378 26.3468 19.4994 26.1725 19.3249H26.175Z" fill="#151F6D"/>
</g>
<defs>
<clipPath id="clip0_356_2372">
<rect width="40" height="40" fill="white" transform="translate(0 0.5)"/>
</clipPath>
</defs>
</svg>
