<svg width="17" height="17" viewBox="0 0 17 17" fill="none" xmlns="http://www.w3.org/2000/svg">
<g clip-path="url(#clip0_384_1650)">
<path d="M8.14376 2.80453C8.16336 2.79378 8.1854 2.78827 8.20776 2.78853C8.22977 2.78844 8.25145 2.79394 8.27076 2.80453C8.2935 2.81839 8.31214 2.83807 8.32476 2.86153L15.1818 14.5285C15.2178 14.5885 15.2168 14.6525 15.1838 14.7115C15.17 14.735 15.1516 14.7554 15.1298 14.7715C15.1104 14.7847 15.0871 14.7908 15.0638 14.7885H1.35176C1.32844 14.7908 1.30509 14.7847 1.28576 14.7715C1.26387 14.7554 1.24549 14.735 1.23176 14.7115C1.2157 14.6836 1.20741 14.6519 1.20776 14.6198C1.20812 14.5876 1.21709 14.5561 1.23376 14.5285L8.08976 2.86153C8.10238 2.83807 8.12102 2.81839 8.14376 2.80453ZM9.18776 2.35453C9.08877 2.18209 8.94603 2.03883 8.77396 1.9392C8.60189 1.83957 8.40659 1.78711 8.20776 1.78711C8.00893 1.78711 7.81362 1.83957 7.64155 1.9392C7.46948 2.03883 7.32675 2.18209 7.22776 2.35453L0.370756 14.0215C-0.0862435 14.7995 0.461756 15.7885 1.35076 15.7885H15.0638C15.9528 15.7885 16.5018 14.7985 16.0438 14.0215L9.18776 2.35453Z" fill="white"/>
<path d="M7.20776 12.7887C7.20776 12.6574 7.23363 12.5273 7.28388 12.406C7.33414 12.2847 7.4078 12.1744 7.50066 12.0816C7.59352 11.9887 7.70375 11.9151 7.82508 11.8648C7.94641 11.8146 8.07644 11.7887 8.20776 11.7887C8.33909 11.7887 8.46912 11.8146 8.59045 11.8648C8.71177 11.9151 8.82201 11.9887 8.91487 12.0816C9.00773 12.1744 9.08139 12.2847 9.13164 12.406C9.1819 12.5273 9.20776 12.6574 9.20776 12.7887C9.20776 13.0539 9.10241 13.3083 8.91487 13.4958C8.72733 13.6833 8.47298 13.7887 8.20776 13.7887C7.94255 13.7887 7.68819 13.6833 7.50066 13.4958C7.31312 13.3083 7.20776 13.0539 7.20776 12.7887ZM7.30576 6.78369C7.29245 6.65753 7.3058 6.52998 7.34496 6.40932C7.38413 6.28866 7.44822 6.17757 7.53308 6.08328C7.61795 5.98898 7.72169 5.91359 7.83757 5.86197C7.95346 5.81036 8.0789 5.78369 8.20576 5.78369C8.33262 5.78369 8.45807 5.81036 8.57395 5.86197C8.68984 5.91359 8.79358 5.98898 8.87844 6.08328C8.96331 6.17757 9.0274 6.28866 9.06656 6.40932C9.10573 6.52998 9.11908 6.65753 9.10576 6.78369L8.75576 10.2907C8.744 10.4285 8.68097 10.5568 8.57912 10.6503C8.47727 10.7439 8.34404 10.7957 8.20576 10.7957C8.06749 10.7957 7.93425 10.7439 7.83241 10.6503C7.73056 10.5568 7.66752 10.4285 7.65576 10.2907L7.30576 6.78369Z" fill="white"/>
</g>
<defs>
<clipPath id="clip0_384_1650">
<rect width="16" height="16" fill="white" transform="translate(0.205811 0.788574)"/>
</clipPath>
</defs>
</svg>
