<svg width="40" height="41" viewBox="0 0 40 41" fill="none" xmlns="http://www.w3.org/2000/svg">
<path d="M31.6667 3.83332H27.435C26.2826 2.51967 24.8012 1.53655 23.143 0.984999C21.4848 0.433445 19.7097 0.333346 18 0.694987C15.9178 1.1196 14.0355 2.22344 12.6483 3.83332H8.33333C6.12401 3.83597 4.00593 4.71479 2.4437 6.27702C0.88147 7.83925 0.00264643 9.95733 0 12.1667L0 32.1667C0.00264643 34.376 0.88147 36.4941 2.4437 38.0563C4.00593 39.6185 6.12401 40.4973 8.33333 40.5H31.6667C33.876 40.4973 35.9941 39.6185 37.5563 38.0563C39.1185 36.4941 39.9974 34.376 40 32.1667V12.1667C39.9974 9.95733 39.1185 7.83925 37.5563 6.27702C35.9941 4.71479 33.876 3.83597 31.6667 3.83332ZM20 3.83332C21.7681 3.83332 23.4638 4.5357 24.714 5.78594C25.9643 7.03619 26.6667 8.73188 26.6667 10.5C26.6667 10.942 26.4911 11.3659 26.1785 11.6785C25.8659 11.9911 25.442 12.1667 25 12.1667H21.4467L23.0533 9.75832C23.2987 9.39055 23.3878 8.9404 23.3013 8.50687C23.2147 8.07335 22.9594 7.69198 22.5917 7.44665C22.2239 7.20133 21.7737 7.11215 21.3402 7.19873C20.9067 7.28531 20.5253 7.54055 20.28 7.90832L17.4417 12.1667H15C14.558 12.1667 14.134 11.9911 13.8215 11.6785C13.5089 11.3659 13.3333 10.942 13.3333 10.5C13.3333 8.73188 14.0357 7.03619 15.286 5.78594C16.5362 4.5357 18.2319 3.83332 20 3.83332ZM36.6667 32.1667C36.6667 33.4927 36.1399 34.7645 35.2022 35.7022C34.2645 36.6399 32.9927 37.1667 31.6667 37.1667H8.33333C7.00725 37.1667 5.73548 36.6399 4.7978 35.7022C3.86012 34.7645 3.33333 33.4927 3.33333 32.1667V12.1667C3.33333 10.8406 3.86012 9.5688 4.7978 8.63112C5.73548 7.69344 7.00725 7.16665 8.33333 7.16665H10.655C10.2232 8.34963 10.0015 9.599 10 10.8583C10.0013 12.089 10.4908 13.2688 11.361 14.139C12.2312 15.0092 13.411 15.4987 14.6417 15.5H25.3583C26.5533 15.511 27.7058 15.0568 28.572 14.2335C29.4382 13.4102 29.9503 12.2823 30 11.0883C30.0167 9.75905 29.8232 8.4355 29.4267 7.16665H31.6667C32.9927 7.16665 34.2645 7.69344 35.2022 8.63112C36.1399 9.5688 36.6667 10.8406 36.6667 12.1667V32.1667Z" fill="#151F6D"/>
</svg>
