<svg width="22" height="25" viewBox="0 0 22 25" fill="none" xmlns="http://www.w3.org/2000/svg">
<path d="M13.2812 6.25H10.1562V3.125H11.7188V4.6875H13.2812V6.25ZM19.5312 18.8477C19.873 18.9372 20.1864 19.0796 20.4712 19.2749C20.756 19.4702 21.0002 19.7021 21.2036 19.9707C21.4071 20.2393 21.5698 20.5363 21.6919 20.8618C21.814 21.1873 21.875 21.5251 21.875 21.875C21.875 22.3063 21.7936 22.7091 21.6309 23.0835C21.4681 23.4578 21.2443 23.7915 20.9595 24.0845C20.6746 24.3774 20.3451 24.6012 19.9707 24.7559C19.5964 24.9105 19.1895 24.9919 18.75 25C18.3187 25 17.9159 24.9186 17.5415 24.7559C17.1672 24.5931 16.8335 24.3693 16.5405 24.0845C16.2476 23.7996 16.0238 23.4701 15.8691 23.0957C15.7145 22.7214 15.6331 22.3145 15.625 21.875C15.625 21.5251 15.682 21.1873 15.7959 20.8618C15.9098 20.5363 16.0685 20.2393 16.272 19.9707C16.4754 19.7021 16.7236 19.4702 17.0166 19.2749C17.3096 19.0796 17.627 18.9372 17.9688 18.8477V15.625H11.7188V18.8477C12.0605 18.9372 12.3739 19.0796 12.6587 19.2749C12.9435 19.4702 13.1877 19.7021 13.3911 19.9707C13.5946 20.2393 13.7573 20.5363 13.8794 20.8618C14.0015 21.1873 14.0625 21.5251 14.0625 21.875C14.0625 22.3063 13.9811 22.7091 13.8184 23.0835C13.6556 23.4578 13.4318 23.7915 13.147 24.0845C12.8621 24.3774 12.5326 24.6012 12.1582 24.7559C11.7839 24.9105 11.377 24.9919 10.9375 25C10.5062 25 10.1034 24.9186 9.729 24.7559C9.35466 24.5931 9.021 24.3693 8.72803 24.0845C8.43506 23.7996 8.21126 23.4701 8.05664 23.0957C7.90202 22.7214 7.82064 22.3145 7.8125 21.875C7.8125 21.5251 7.86947 21.1873 7.9834 20.8618C8.09733 20.5363 8.25602 20.2393 8.45947 19.9707C8.66292 19.7021 8.91113 19.4702 9.2041 19.2749C9.49707 19.0796 9.81445 18.9372 10.1562 18.8477V15.625H3.90625V18.8477C4.24805 18.9372 4.56136 19.0796 4.84619 19.2749C5.13102 19.4702 5.37516 19.7021 5.57861 19.9707C5.78206 20.2393 5.94482 20.5363 6.06689 20.8618C6.18896 21.1873 6.25 21.5251 6.25 21.875C6.25 22.3063 6.16862 22.7091 6.00586 23.0835C5.8431 23.4578 5.6193 23.7915 5.33447 24.0845C5.04964 24.3774 4.72005 24.6012 4.3457 24.7559C3.97135 24.9105 3.56445 24.9919 3.125 25C2.69368 25 2.29085 24.9186 1.9165 24.7559C1.54215 24.5931 1.2085 24.3693 0.915527 24.0845C0.622559 23.7996 0.398763 23.4701 0.244141 23.0957C0.0895182 22.7214 0.00813802 22.3145 0 21.875C0 21.5251 0.0569661 21.1873 0.170898 20.8618C0.284831 20.5363 0.443522 20.2393 0.646973 19.9707C0.850423 19.7021 1.09863 19.4702 1.3916 19.2749C1.68457 19.0796 2.00195 18.9372 2.34375 18.8477V14.0625H10.1562V10.8765C9.48079 10.7869 8.85824 10.5835 8.28857 10.2661C7.71891 9.94873 7.22249 9.5459 6.79932 9.05762C6.37614 8.56934 6.05062 8.02002 5.82275 7.40967C5.59489 6.79932 5.47689 6.15234 5.46875 5.46875C5.46875 4.71191 5.61117 4.00391 5.896 3.34473C6.18083 2.68555 6.57145 2.10368 7.06787 1.59912C7.56429 1.09456 8.14209 0.703939 8.80127 0.427246C9.46045 0.150553 10.1725 0.00813802 10.9375 0C11.6943 0 12.4023 0.142415 13.0615 0.427246C13.7207 0.712077 14.3026 1.1027 14.8071 1.59912C15.3117 2.09554 15.7023 2.67334 15.979 3.33252C16.2557 3.9917 16.3981 4.70378 16.4062 5.46875C16.4062 6.14421 16.2882 6.78711 16.0522 7.39746C15.8162 8.00781 15.4907 8.55713 15.0757 9.04541C14.6606 9.53369 14.1683 9.93652 13.5986 10.2539C13.029 10.5713 12.4023 10.7788 11.7188 10.8765V14.0625H19.5312V18.8477ZM7.03125 5.46875C7.03125 6.00586 7.13298 6.51042 7.33643 6.98242C7.53988 7.45443 7.81657 7.86947 8.1665 8.22754C8.51644 8.58561 8.93148 8.86637 9.41162 9.06982C9.89176 9.27327 10.4004 9.375 10.9375 9.375C11.4746 9.375 11.9792 9.27327 12.4512 9.06982C12.9232 8.86637 13.3341 8.58968 13.6841 8.23975C14.034 7.88981 14.3148 7.47477 14.5264 6.99463C14.738 6.51449 14.8438 6.00586 14.8438 5.46875C14.8438 4.93164 14.742 4.42708 14.5386 3.95508C14.3351 3.48307 14.0544 3.0721 13.6963 2.72217C13.3382 2.37223 12.9232 2.09147 12.4512 1.87988C11.9792 1.66829 11.4746 1.5625 10.9375 1.5625C10.4004 1.5625 9.89583 1.66423 9.42383 1.86768C8.95182 2.07113 8.53678 2.35189 8.17871 2.70996C7.82064 3.06803 7.53988 3.48307 7.33643 3.95508C7.13298 4.42708 7.03125 4.93164 7.03125 5.46875ZM4.6875 21.875C4.6875 21.6553 4.64681 21.4518 4.56543 21.2646C4.48405 21.0775 4.37419 20.9147 4.23584 20.7764C4.09749 20.638 3.93066 20.5241 3.73535 20.4346C3.54004 20.3451 3.33659 20.3044 3.125 20.3125C2.90527 20.3125 2.70182 20.3532 2.51465 20.4346C2.32747 20.516 2.16471 20.6258 2.02637 20.7642C1.88802 20.9025 1.77409 21.0693 1.68457 21.2646C1.59505 21.46 1.55436 21.6634 1.5625 21.875C1.5625 22.0947 1.60319 22.2982 1.68457 22.4854C1.76595 22.6725 1.87581 22.8353 2.01416 22.9736C2.15251 23.112 2.31934 23.2259 2.51465 23.3154C2.70996 23.4049 2.91341 23.4456 3.125 23.4375C3.34473 23.4375 3.54818 23.3968 3.73535 23.3154C3.92253 23.234 4.08529 23.1242 4.22363 22.9858C4.36198 22.8475 4.47591 22.6807 4.56543 22.4854C4.65495 22.29 4.69564 22.0866 4.6875 21.875ZM12.5 21.875C12.5 21.6553 12.4593 21.4518 12.3779 21.2646C12.2965 21.0775 12.1867 20.9147 12.0483 20.7764C11.91 20.638 11.7432 20.5241 11.5479 20.4346C11.3525 20.3451 11.1491 20.3044 10.9375 20.3125C10.7178 20.3125 10.5143 20.3532 10.3271 20.4346C10.14 20.516 9.97721 20.6258 9.83887 20.7642C9.70052 20.9025 9.58659 21.0693 9.49707 21.2646C9.40755 21.46 9.36686 21.6634 9.375 21.875C9.375 22.0947 9.41569 22.2982 9.49707 22.4854C9.57845 22.6725 9.68831 22.8353 9.82666 22.9736C9.96501 23.112 10.1318 23.2259 10.3271 23.3154C10.5225 23.4049 10.7259 23.4456 10.9375 23.4375C11.1572 23.4375 11.3607 23.3968 11.5479 23.3154C11.735 23.234 11.8978 23.1242 12.0361 22.9858C12.1745 22.8475 12.2884 22.6807 12.3779 22.4854C12.4674 22.29 12.5081 22.0866 12.5 21.875ZM18.75 23.4375C18.9697 23.4375 19.1732 23.3968 19.3604 23.3154C19.5475 23.234 19.7103 23.1242 19.8486 22.9858C19.987 22.8475 20.1009 22.6807 20.1904 22.4854C20.2799 22.29 20.3206 22.0866 20.3125 21.875C20.3125 21.6553 20.2718 21.4518 20.1904 21.2646C20.109 21.0775 19.9992 20.9147 19.8608 20.7764C19.7225 20.638 19.5557 20.5241 19.3604 20.4346C19.165 20.3451 18.9616 20.3044 18.75 20.3125C18.5303 20.3125 18.3268 20.3532 18.1396 20.4346C17.9525 20.516 17.7897 20.6258 17.6514 20.7642C17.513 20.9025 17.3991 21.0693 17.3096 21.2646C17.2201 21.46 17.1794 21.6634 17.1875 21.875C17.1875 22.0947 17.2282 22.2982 17.3096 22.4854C17.391 22.6725 17.5008 22.8353 17.6392 22.9736C17.7775 23.112 17.9443 23.2259 18.1396 23.3154C18.335 23.4049 18.5384 23.4456 18.75 23.4375Z" fill="white"/>
</svg>
