<svg width="18" height="20" viewBox="0 0 18 20" fill="none" xmlns="http://www.w3.org/2000/svg">
<path d="M16 17.7778H2V2.22222H16M16 0H2C1.46957 0 0.960859 0.234126 0.585786 0.650874C0.210714 1.06762 0 1.63285 0 2.22222V17.7778C0 18.3671 0.210714 18.9324 0.585786 19.3491C0.960859 19.7659 1.46957 20 2 20H16C16.5304 20 17.0391 19.7659 17.4142 19.3491C17.7893 18.9324 18 18.3671 18 17.7778V2.22222C18 1.63285 17.7893 1.06762 17.4142 0.650874C17.0391 0.234126 16.5304 0 16 0ZM13.5 14.7222C13.5 13.0556 10.5 12.2222 9 12.2222C7.5 12.2222 4.5 13.0556 4.5 14.7222V15.5556H13.5M9 10.2778C9.59674 10.2778 10.169 10.0144 10.591 9.54554C11.0129 9.0767 11.25 8.44082 11.25 7.77778C11.25 7.11474 11.0129 6.47885 10.591 6.01001C10.169 5.54117 9.59674 5.27778 9 5.27778C8.40326 5.27778 7.83097 5.54117 7.40901 6.01001C6.98705 6.47885 6.75 7.11474 6.75 7.77778C6.75 8.44082 6.98705 9.0767 7.40901 9.54554C7.83097 10.0144 8.40326 10.2778 9 10.2778Z" fill="white"/>
</svg>
