<svg width="20" height="18" viewBox="0 0 20 18" fill="none" xmlns="http://www.w3.org/2000/svg">
<path d="M10 14.5C11.25 14.5 12.3127 14.0627 13.188 13.188C14.0633 12.3133 14.5007 11.2507 14.5 10C14.5 8.75 14.0627 7.68767 13.188 6.813C12.3133 5.93833 11.2507 5.50067 10 5.5C8.75 5.5 7.68767 5.93767 6.813 6.813C5.93833 7.68833 5.50067 8.75067 5.5 10C5.5 11.25 5.93767 12.3127 6.813 13.188C7.68833 14.0633 8.75067 14.5007 10 14.5ZM10 12.5C9.3 12.5 8.70833 12.2583 8.225 11.775C7.74167 11.2917 7.5 10.7 7.5 10C7.5 9.3 7.74167 8.70833 8.225 8.225C8.70833 7.74167 9.3 7.5 10 7.5C10.7 7.5 11.2917 7.74167 11.775 8.225C12.2583 8.70833 12.5 9.3 12.5 10C12.5 10.7 12.2583 11.2917 11.775 11.775C11.2917 12.2583 10.7 12.5 10 12.5ZM2 18C1.45 18 0.979333 17.8043 0.588 17.413C0.196667 17.0217 0.000666667 16.5507 0 16V4C0 3.45 0.196 2.97933 0.588 2.588C0.98 2.19667 1.45067 2.00067 2 2H5.15L7 0H13L14.85 2H18C18.55 2 19.021 2.196 19.413 2.588C19.805 2.98 20.0007 3.45067 20 4V16C20 16.55 19.8043 17.021 19.413 17.413C19.0217 17.805 18.5507 18.0007 18 18H2Z" fill="white"/>
</svg>
