<svg width="16" height="16" viewBox="0 0 16 16" fill="none" xmlns="http://www.w3.org/2000/svg">
<path d="M9.99999 12.796V3.20398L4.51899 7.99998L9.99999 12.796ZM9.34099 13.549L3.86099 8.75298C3.75358 8.65912 3.6675 8.54337 3.60851 8.41349C3.54953 8.28362 3.51901 8.14262 3.51901 7.99998C3.51901 7.85734 3.54953 7.71635 3.60851 7.58647C3.6675 7.4566 3.75358 7.34084 3.86099 7.24698L9.34099 2.45098C9.48559 2.32429 9.66364 2.24197 9.85381 2.21387C10.044 2.18577 10.2382 2.21308 10.4133 2.29253C10.5884 2.37199 10.7368 2.50022 10.8409 2.66187C10.9449 2.82352 11.0002 3.01174 11 3.20398V12.796C11.0002 12.9882 10.9449 13.1764 10.8409 13.3381C10.7368 13.4997 10.5884 13.628 10.4133 13.7074C10.2382 13.7869 10.044 13.8142 9.85381 13.7861C9.66364 13.758 9.48559 13.6757 9.34099 13.549Z" fill="white"/>
</svg>
