<svg width="16" height="22" viewBox="0 0 16 22" fill="none" xmlns="http://www.w3.org/2000/svg">
<path d="M1 21V18.7778C1 17.599 1.46825 16.4686 2.30175 15.6351C3.13524 14.8016 4.2657 14.3333 5.44444 14.3333H9.88889C11.0676 14.3333 12.1981 14.8016 13.0316 15.6351C13.8651 16.4686 14.3333 17.599 14.3333 18.7778V21M3.22222 5.44444C3.22222 6.62318 3.69047 7.75365 4.52397 8.58714C5.35746 9.42064 6.48793 9.88889 7.66667 9.88889C8.84541 9.88889 9.97587 9.42064 10.8094 8.58714C11.6429 7.75365 12.1111 6.62318 12.1111 5.44444C12.1111 4.2657 11.6429 3.13524 10.8094 2.30175C9.97587 1.46825 8.84541 1 7.66667 1C6.48793 1 5.35746 1.46825 4.52397 2.30175C3.69047 3.13524 3.22222 4.2657 3.22222 5.44444Z" stroke="white" stroke-width="2" stroke-linecap="round" stroke-linejoin="round"/>
</svg>
