<svg width="8" height="12" viewBox="0 0 8 12" fill="none" xmlns="http://www.w3.org/2000/svg">
<path d="M1 10.796V1.20401L6.481 6.00001L1 10.796ZM1.659 11.549L7.139 6.75301C7.24641 6.65915 7.3325 6.5434 7.39148 6.41352C7.45046 6.28364 7.48098 6.14265 7.48098 6.00001C7.48098 5.85737 7.45046 5.71638 7.39148 5.5865C7.3325 5.45663 7.24641 5.34087 7.139 5.24701L1.66 0.451011C1.011 -0.114989 -1.09131e-07 0.345011 -1.09131e-07 1.20401V10.796C-0.000164936 10.9883 0.0550874 11.1765 0.15914 11.3381C0.263194 11.4998 0.411637 11.628 0.586693 11.7075C0.761749 11.7869 0.955998 11.8142 1.14618 11.7861C1.33636 11.758 1.5144 11.6757 1.659 11.549Z" fill="white"/>
</svg>
