<svg width="18" height="22" viewBox="0 0 18 22" fill="none" xmlns="http://www.w3.org/2000/svg">
<path d="M0 0H12.414L18 5.586V22H0V0ZM2 2V20H16V6.414L11.586 2H2ZM9 8C8.60218 8 8.22064 8.15804 7.93934 8.43934C7.65804 8.72064 7.5 9.10218 7.5 9.5C7.5 9.89782 7.65804 10.2794 7.93934 10.5607C8.22064 10.842 8.60218 11 9 11C9.39782 11 9.77936 10.842 10.0607 10.5607C10.342 10.2794 10.5 9.89782 10.5 9.5C10.5 9.10218 10.342 8.72064 10.0607 8.43934C9.77936 8.15804 9.39782 8 9 8ZM5.5 9.5C5.5 9.04037 5.59053 8.58525 5.76642 8.16061C5.94231 7.73597 6.20012 7.35013 6.52513 7.02513C6.85013 6.70012 7.23597 6.44231 7.66061 6.26642C8.08525 6.09053 8.54037 6 9 6C9.45963 6 9.91475 6.09053 10.3394 6.26642C10.764 6.44231 11.1499 6.70012 11.4749 7.02513C11.7999 7.35013 12.0577 7.73597 12.2336 8.16061C12.4095 8.58525 12.5 9.04037 12.5 9.5C12.5 10.4283 12.1313 11.3185 11.4749 11.9749C10.8185 12.6313 9.92826 13 9 13C8.07174 13 7.1815 12.6313 6.52513 11.9749C5.86875 11.3185 5.5 10.4283 5.5 9.5ZM3 18C3 16.9391 3.42143 15.9217 4.17157 15.1716C4.92172 14.4214 5.93913 14 7 14H11C12.0609 14 13.0783 14.4214 13.8284 15.1716C14.5786 15.9217 15 16.9391 15 18V19H13V18C13 17.4696 12.7893 16.9609 12.4142 16.5858C12.0391 16.2107 11.5304 16 11 16H7C6.46957 16 5.96086 16.2107 5.58579 16.5858C5.21071 16.9609 5 17.4696 5 18V19H3V18Z" fill="white"/>
</svg>
