<svg width="20" height="20" viewBox="0 0 20 20" fill="none" xmlns="http://www.w3.org/2000/svg">
<path fill-rule="evenodd" clip-rule="evenodd" d="M9.97361 11.1109H10.0181C13.0863 11.1109 15.5735 8.62373 15.5735 5.55546C15.5735 2.48718 13.0863 0 10.0181 0H9.97361C6.92589 0.0238885 4.4626 2.50218 4.4626 5.55546C4.4626 8.60873 6.92589 11.087 9.97361 11.1109ZM14.428 6.111H13.3169C13.2869 6.61821 13.2158 7.10543 13.1091 7.56375H13.9835C14.2145 7.10882 14.3649 6.6173 14.428 6.111ZM13.1836 8.67484H12.7586C12.6769 8.87651 12.5863 9.06817 12.4897 9.24983C12.74 9.08208 12.9726 8.88944 13.1841 8.67484H13.1836ZM11.963 7.56375C12.0841 7.12098 12.1686 6.63266 12.2036 6.111H10.5736V7.56375H11.963ZM10.5736 8.67484H11.5369C11.4941 8.75706 11.4503 8.83595 11.4047 8.91206C11.1269 9.37372 10.8397 9.65927 10.5736 9.82093V8.67484ZM9.46251 7.56375V6.111H7.79698C7.83198 6.63266 7.91643 7.12098 8.03753 7.56375H9.46251ZM8.46364 8.67484H9.46251V9.84149C9.18696 9.68427 8.88585 9.39483 8.59586 8.91206C8.54935 8.83437 8.50526 8.75526 8.46364 8.67484ZM6.89145 7.56375C6.78147 7.0862 6.71196 6.60023 6.68367 6.111H5.60814C5.67258 6.62766 5.82591 7.11765 6.05257 7.56375H6.89145ZM6.85256 8.67484H7.24144C7.3181 8.86262 7.40144 9.0415 7.49088 9.2115C7.26166 9.05292 7.04832 8.87325 6.85256 8.67484ZM13.3169 4.99991C13.2886 4.51067 13.2191 4.0247 13.1091 3.54716H13.9835C14.2147 4.00202 14.3651 4.49358 14.428 4.99991H13.3169ZM13.1836 2.43607H12.7586C12.6769 2.2344 12.5863 2.04274 12.4897 1.86108C12.7402 2.02941 12.973 2.22218 13.1841 2.43607H13.1836ZM10.5736 2.43607H11.5369C11.4953 2.35565 11.4512 2.27654 11.4047 2.19885C11.1269 1.73664 10.8397 1.45164 10.5736 1.28998V2.43607ZM11.963 3.54716H10.5736V4.99991H12.2036C12.1717 4.50888 12.0911 4.02224 11.963 3.54716ZM9.46251 1.26942V2.43607H8.46364C8.50642 2.35385 8.55086 2.27496 8.59586 2.19885C8.8853 1.71608 9.18696 1.4272 9.46251 1.26942ZM9.46251 3.54716H8.03753C7.91643 3.98993 7.83198 4.47825 7.79698 4.99991H9.46251V3.54716ZM7.49032 1.89941C7.40144 2.06941 7.3181 2.24829 7.24199 2.43607H6.85256C7.04755 2.23774 7.26088 2.0583 7.49032 1.89941ZM6.89145 3.54716H6.05257C5.82158 4.00209 5.67121 4.49361 5.60814 4.99991H6.68367C6.71367 4.49214 6.78478 4.00548 6.89145 3.54716ZM1.5171 6.111C0.940441 6.09767 0.361563 6.45155 0.174344 7.00265C0.127679 7.14043 0.102123 7.32042 0.0837905 7.48431C0.0643464 7.66319 0.0493465 7.87819 0.0376801 8.11207C0.0135999 8.64766 0.0011898 9.1837 0.000458587 9.71982C-0.00398578 10.8409 0.0243471 12.0076 0.064902 12.3692C0.136012 13.0025 0.500449 13.5925 0.81711 14.1059L0.852665 14.1631C0.948775 14.3186 1.04377 14.4736 1.1371 14.6331C1.55599 15.3503 2.01153 15.8336 2.4243 16.2719L2.43375 16.2814C2.66597 16.5275 2.88096 16.7564 3.08374 17.0114C2.88702 17.2178 2.77757 17.4923 2.77819 17.7775V18.8885C2.77819 19.1832 2.89525 19.4658 3.10362 19.6742C3.31199 19.8826 3.5946 19.9996 3.88928 19.9996H8.33364C8.62832 19.9996 8.91093 19.8826 9.1193 19.6742C9.32767 19.4658 9.44473 19.1832 9.44473 18.8885V17.7775C9.44472 17.4962 9.33808 17.2255 9.14632 17.0198C8.95455 16.8141 8.69193 16.6888 8.41142 16.6691C8.33642 16.038 8.2392 15.1858 8.23031 14.9431C8.22253 14.7342 8.15253 14.5303 8.08698 14.3753C8.01818 14.2155 7.93913 14.0604 7.85032 13.9109C7.759 13.7555 7.66114 13.6041 7.55699 13.457L7.53532 13.427L7.52977 13.4186L7.52754 13.4159L7.52643 13.4142L7.52088 13.4064L5.71869 11.1342L5.70202 11.1176V11.1165L5.6998 11.1142L5.68647 11.0998C5.60361 11.0081 5.52394 10.9136 5.44758 10.8165C5.27758 10.6041 5.12943 10.3752 5.00537 10.1332C4.8787 9.87315 4.63871 9.62372 4.27038 9.60538C3.9565 9.58872 3.71039 9.75538 3.56706 9.88371C3.48812 9.95486 3.41613 10.0334 3.35206 10.1181L3.32706 9.78371L3.32429 9.74705C3.26984 9.01484 3.20373 8.12874 2.98874 7.41931C2.73652 6.58932 2.17597 6.12711 1.51654 6.11156L1.5171 6.111ZM7.29199 16.6664C7.21977 16.0553 7.12977 15.2569 7.11977 14.9836C7.11776 14.9672 7.11423 14.951 7.10922 14.9353C7.09656 14.8912 7.08116 14.848 7.06311 14.8058C7.01302 14.6912 6.95568 14.5799 6.89145 14.4725C6.81656 14.3451 6.73631 14.2209 6.65089 14.1003L6.63645 14.0797L4.87648 11.8609L4.86648 11.8498C4.76489 11.7373 4.66724 11.6213 4.57371 11.502C4.424 11.3122 4.2865 11.1131 4.16205 10.9059L4.15816 10.912C4.10816 11.0048 4.08039 11.0898 4.07205 11.1454C4.0415 11.342 4.05705 11.4776 4.07261 11.5509C4.07729 11.5743 4.08379 11.5974 4.09205 11.6198V11.6215L5.10981 13.6425L4.16483 14.2197L4.15094 14.2009L4.11261 14.1481C3.91428 13.8745 3.71798 13.5995 3.52373 13.3231C3.18651 12.8431 2.78319 12.2542 2.5843 11.9009C2.43541 11.637 2.36653 11.2876 2.32264 10.9715C2.27737 10.6082 2.24309 10.2435 2.21986 9.87815L2.21875 9.86593C2.16097 9.08928 2.10098 8.32152 1.92542 7.74208C1.84876 7.48931 1.74987 7.36209 1.67876 7.30042C1.62766 7.25261 1.56093 7.22497 1.49099 7.22265C1.33932 7.21876 1.23877 7.32376 1.22599 7.36153C1.22488 7.36487 1.21988 7.38376 1.21266 7.42487C1.20263 7.48441 1.19448 7.54425 1.18821 7.60431C1.1721 7.75319 1.15822 7.9443 1.1471 8.16763C1.12417 8.68619 1.1125 9.2052 1.11211 9.72427C1.10711 10.857 1.13766 11.9587 1.16988 12.2453C1.20988 12.6037 1.43321 12.9864 1.79876 13.5798L1.80043 13.5825C1.89487 13.7359 1.99653 13.9009 2.09709 14.0731C2.44875 14.6753 2.82763 15.0792 3.24262 15.5192L3.25207 15.5292C3.56095 15.8569 3.8965 16.2125 4.21316 16.6664H7.29199ZM4.33371 10.692C4.33371 10.692 4.33149 10.6926 4.3276 10.6959C4.32979 10.6949 4.33184 10.6936 4.33371 10.692ZM8.33364 18.8885V17.7775H3.88928V18.8885H8.33364ZM19.8262 7.00265C19.6384 6.45155 19.0601 6.09767 18.4835 6.11156C17.8246 6.12711 17.264 6.58932 17.0118 7.41931C16.7968 8.12874 16.7307 9.01484 16.6763 9.74705L16.6735 9.78371L16.6485 10.1181C16.5818 10.0309 16.5096 9.95149 16.4335 9.88371C16.2902 9.75593 16.0446 9.58927 15.7302 9.60483C15.3618 9.62371 15.1219 9.87315 14.9952 10.1326C14.8709 10.3747 14.7226 10.6036 14.5524 10.8159C14.4761 10.9133 14.3964 11.008 14.3135 11.0998L14.3008 11.1142L14.2985 11.117L14.2819 11.1342L12.4802 13.4064L12.4741 13.4142L12.473 13.4159L12.4713 13.4186L12.4652 13.427C12.3529 13.5832 12.2478 13.7445 12.1502 13.9103C12.0612 14.06 11.982 14.2154 11.913 14.3753C11.848 14.5303 11.778 14.7342 11.7702 14.9431C11.7614 15.1858 11.6647 16.038 11.5891 16.6691C11.3086 16.6888 11.046 16.8141 10.8542 17.0198C10.6625 17.2255 10.5558 17.4962 10.5558 17.7775V18.8885C10.5558 19.1832 10.6729 19.4658 10.8813 19.6742C11.0896 19.8826 11.3722 19.9996 11.6669 19.9996H16.1113C16.406 19.9996 16.6886 19.8826 16.8969 19.6742C17.1053 19.4658 17.2224 19.1832 17.2224 18.8885V17.7775C17.2226 17.4921 17.113 17.2176 16.9163 17.0108C17.1196 16.7564 17.334 16.5275 17.5663 16.2814L17.5757 16.2714C17.9885 15.8336 18.444 15.3503 18.8629 14.6331C18.9562 14.4736 19.0518 14.3192 19.1473 14.1631L19.1829 14.1059C19.4995 13.5925 19.864 13.0025 19.9351 12.3692C19.9757 12.0076 20.004 10.8409 19.9995 9.71982C19.999 9.18371 19.9868 8.64766 19.9629 8.11207C19.9534 7.90243 19.938 7.69309 19.9168 7.48431C19.899 7.32042 19.8734 7.13987 19.8262 7.00265ZM15.788 16.6664C16.1046 16.2125 16.4396 15.8569 16.749 15.5292L16.7579 15.5192C17.1729 15.0792 17.5524 14.6747 17.9035 14.0731C18.0035 13.9009 18.1051 13.7364 18.2001 13.5825L18.2018 13.5798C18.5679 12.9864 18.7907 12.6037 18.8307 12.2453C18.8629 11.9587 18.8929 10.857 18.8885 9.72427C18.8862 9.16539 18.8757 8.61318 18.8535 8.16763C18.8423 7.9443 18.8285 7.75319 18.8123 7.60431C18.8061 7.54425 18.7979 7.48441 18.7879 7.42487C18.7845 7.40355 18.78 7.38242 18.7746 7.36153C18.7618 7.32376 18.6612 7.21876 18.5101 7.22265C18.44 7.22484 18.373 7.25249 18.3218 7.30042C18.2507 7.36153 18.1518 7.48931 18.0751 7.74208C17.8996 8.32096 17.8396 9.08928 17.7818 9.86593L17.7807 9.87815C17.7529 10.2581 17.724 10.6415 17.6779 10.9715C17.6346 11.2876 17.5651 11.637 17.4168 11.9015C17.2174 12.2542 16.814 12.8431 16.4768 13.3236C16.2826 13.5999 16.0863 13.8747 15.8879 14.1481L15.8491 14.2009L15.8357 14.2197L14.8907 13.642L15.9079 11.6215L15.9085 11.6198C15.9167 11.5974 15.9232 11.5743 15.9279 11.5509C15.9435 11.4776 15.9591 11.342 15.9285 11.1454C15.9127 11.0634 15.8836 10.9846 15.8424 10.912L15.8385 10.9059C15.7018 11.1365 15.5513 11.3431 15.4274 11.5015C15.3337 11.621 15.2359 11.7371 15.1341 11.8498L15.1235 11.8609L13.3641 14.0797L13.3497 14.1003C13.2643 14.2209 13.184 14.3451 13.1091 14.4725C13.0424 14.5858 12.9813 14.702 12.9374 14.8058C12.9158 14.8575 12.9008 14.9003 12.8913 14.9347C12.8864 14.9507 12.8828 14.967 12.8808 14.9836C12.8708 15.2569 12.7808 16.0558 12.7086 16.6664H15.788ZM15.6668 10.692C15.6668 10.692 15.6691 10.6926 15.673 10.6959C15.6708 10.6949 15.6687 10.6936 15.6668 10.692ZM11.6669 18.8885V17.7775H16.1113V18.8885H11.6669Z" fill="#7A7A7A"/>
</svg>
