<svg width="24" height="27" viewBox="0 0 24 27" fill="none" xmlns="http://www.w3.org/2000/svg">
<path d="M12.5 12.5L11.3333 16L12.5 19.5M12.5 12.5L9.58333 10.75L9 16M12.5 12.5L16.5833 14.8333V21.25M12.5 19.5H10.75L9 16M12.5 19.5L16.5833 21.25M9 16V6.66667L13.6667 2M9 16L10.1667 19.5M10.1667 19.5H5.5L2 25.3333M10.1667 19.5L11.3333 11.9167L10.1667 15.4167V19.5ZM22.4167 25.3333L16.5833 21.25M14.8333 9.58333C14.5239 9.58333 14.2272 9.46042 14.0084 9.24162C13.7896 9.02283 13.6667 8.72609 13.6667 8.41667C13.6667 8.10725 13.7896 7.8105 14.0084 7.59171C14.2272 7.37292 14.5239 7.25 14.8333 7.25C15.1428 7.25 15.4395 7.37292 15.6583 7.59171C15.8771 7.8105 16 8.10725 16 8.41667C16 8.72609 15.8771 9.02283 15.6583 9.24162C15.4395 9.46042 15.1428 9.58333 14.8333 9.58333Z" stroke="#434343" stroke-width="2.33333" stroke-linecap="round" stroke-linejoin="round"/>
</svg>
