<svg width="102" height="102" viewBox="0 0 102 102" fill="none" xmlns="http://www.w3.org/2000/svg">
<g clip-path="url(#clip0_60_158)">
<path d="M70.125 38.25C70.125 43.3223 68.1101 48.1868 64.5234 51.7734C60.9368 55.3601 56.0723 57.375 51 57.375C45.9277 57.375 41.0632 55.3601 37.4766 51.7734C33.89 48.1868 31.875 43.3223 31.875 38.25C31.875 33.1777 33.89 28.3132 37.4766 24.7266C41.0632 21.14 45.9277 19.125 51 19.125C56.0723 19.125 60.9368 21.14 64.5234 24.7266C68.1101 28.3132 70.125 33.1777 70.125 38.25Z" fill="#9F9F9F"/>
<path fill-rule="evenodd" clip-rule="evenodd" d="M0 51C0 37.474 5.3732 24.5019 14.9376 14.9376C24.5019 5.3732 37.474 0 51 0C64.526 0 77.4981 5.3732 87.0624 14.9376C96.6268 24.5019 102 37.474 102 51C102 64.526 96.6268 77.4981 87.0624 87.0624C77.4981 96.6268 64.526 102 51 102C37.474 102 24.5019 96.6268 14.9376 87.0624C5.3732 77.4981 0 64.526 0 51ZM51 6.375C42.5963 6.37545 34.3636 8.74881 27.2493 13.2219C20.135 17.695 14.4284 24.0861 10.7863 31.6595C7.14412 39.2329 5.71446 47.6808 6.66186 56.0309C7.60927 64.381 10.8952 72.2938 16.1415 78.8587C20.6677 71.5658 30.6319 63.75 51 63.75C71.3681 63.75 81.3259 71.5594 85.8585 78.8587C91.1048 72.2938 94.3907 64.381 95.3381 56.0309C96.2855 47.6808 94.8559 39.2329 91.2137 31.6595C87.5716 24.0861 81.865 17.695 74.7507 13.2219C67.6364 8.74881 59.4037 6.37545 51 6.375Z" fill="#9F9F9F"/>
</g>
<defs>
<clipPath id="clip0_60_158">
<rect width="102" height="102" fill="white"/>
</clipPath>
</defs>
</svg>
