<svg width="29" height="29" viewBox="0 0 29 29" fill="none" xmlns="http://www.w3.org/2000/svg">
<g clip-path="url(#clip0_566_3040)">
<path d="M15.9879 13.3871V7.78711H13.1879V13.3871H7.58789V16.1871H13.1879V21.7871H15.9879V16.1871H21.5879V13.3871H15.9879ZM14.5879 28.7871C10.8749 28.7871 7.3139 27.3121 4.6884 24.6866C2.06289 22.0611 0.587891 18.5001 0.587891 14.7871C0.587891 11.0741 2.06289 7.51312 4.6884 4.88761C7.3139 2.26211 10.8749 0.787109 14.5879 0.787109C18.3009 0.787109 21.8619 2.26211 24.4874 4.88761C27.1129 7.51312 28.5879 11.0741 28.5879 14.7871C28.5879 18.5001 27.1129 22.0611 24.4874 24.6866C21.8619 27.3121 18.3009 28.7871 14.5879 28.7871Z" fill="#151F6D"/>
</g>
<defs>
<clipPath id="clip0_566_3040">
<rect width="28" height="28" fill="white" transform="translate(0.587891 0.787109)"/>
</clipPath>
</defs>
</svg>
