<svg width="8" height="12" viewBox="0 0 8 12" fill="none" xmlns="http://www.w3.org/2000/svg">
<path d="M7.19043 6.00049C7.19043 5.72754 7.09521 5.50537 6.87305 5.2959L2.00439 0.535156C1.83936 0.36377 1.63623 0.28125 1.38867 0.28125C0.899902 0.28125 0.5 0.674805 0.5 1.16357C0.5 1.40479 0.601562 1.62695 0.779297 1.80469L5.0957 5.99414L0.779297 10.1963C0.601562 10.3677 0.5 10.5898 0.5 10.8374C0.5 11.3262 0.899902 11.7197 1.38867 11.7197C1.62988 11.7197 1.83936 11.6372 2.00439 11.4658L6.87305 6.70508C7.09521 6.49561 7.19043 6.26709 7.19043 6.00049Z" fill="#191919"/>
</svg>
