<svg width="8" height="12" viewBox="0 0 8 12" fill="none" xmlns="http://www.w3.org/2000/svg">
<path d="M0.80957 5.99951C0.80957 6.27246 0.904785 6.49463 1.12695 6.7041L5.99561 11.4648C6.16064 11.6362 6.36377 11.7188 6.61133 11.7188C7.1001 11.7188 7.5 11.3252 7.5 10.8364C7.5 10.5952 7.39844 10.373 7.2207 10.1953L2.9043 6.00586L7.2207 1.80371C7.39844 1.63232 7.5 1.41016 7.5 1.1626C7.5 0.673828 7.1001 0.280273 6.61133 0.280274C6.37012 0.280274 6.16064 0.362793 5.9956 0.53418L1.12695 5.29492C0.904785 5.5044 0.80957 5.73291 0.80957 5.99951Z" fill="#191919"/>
</svg>
