<svg width="17" height="20" viewBox="0 0 17 20" fill="none" xmlns="http://www.w3.org/2000/svg">
<path d="M0 13.8571H16.7143M1.92857 13.8571V7.42857C1.92857 5.72361 2.60587 4.08848 3.81146 2.88288C5.01705 1.67729 6.65218 1 8.35714 1C10.0621 1 11.6972 1.67729 12.9028 2.88288C14.1084 4.08848 14.7857 5.72361 14.7857 7.42857V13.8571M5.78571 15.7857V16.4286C5.78571 17.1106 6.05663 17.7646 6.53887 18.2468C7.02111 18.7291 7.67516 19 8.35714 19C9.03913 19 9.69318 18.7291 10.1754 18.2468C10.6577 17.7646 10.9286 17.1106 10.9286 16.4286V15.7857" stroke="black" stroke-width="1.5"/>
</svg>
