<svg width="18" height="17" viewBox="0 0 18 17" fill="none" xmlns="http://www.w3.org/2000/svg">
<path d="M1.61539 8.04838C1.61539 5.14761 1.61539 3.69684 2.51693 2.79607C3.41769 1.89453 4.86846 1.89453 7.76923 1.89453H10.8462C13.7469 1.89453 15.1977 1.89453 16.0985 2.79607C17 3.69684 17 5.14761 17 8.04838V9.58684C17 12.4876 17 13.9384 16.0985 14.8391C15.1977 15.7407 13.7469 15.7407 10.8462 15.7407H7.76923C4.86846 15.7407 3.41769 15.7407 2.51693 14.8391C1.61539 13.9384 1.61539 12.4876 1.61539 9.58684V8.04838Z" stroke="black" stroke-width="1.5"/>
<path opacity="0.5" d="M5.46154 1.89408V0.740234M13.1538 1.89408V0.740234M2 5.74023H16.6154" stroke="black" stroke-width="1.5" stroke-linecap="round"/>
<path d="M13.9231 11.894C13.9231 12.098 13.842 12.2937 13.6978 12.4379C13.5535 12.5822 13.3579 12.6632 13.1539 12.6632C12.9498 12.6632 12.7542 12.5822 12.6099 12.4379C12.4657 12.2937 12.3846 12.098 12.3846 11.894C12.3846 11.69 12.4657 11.4943 12.6099 11.3501C12.7542 11.2058 12.9498 11.1248 13.1539 11.1248C13.3579 11.1248 13.5535 11.2058 13.6978 11.3501C13.842 11.4943 13.9231 11.69 13.9231 11.894ZM13.9231 8.81708C13.9231 9.0211 13.842 9.21675 13.6978 9.36101C13.5535 9.50527 13.3579 9.58631 13.1539 9.58631C12.9498 9.58631 12.7542 9.50527 12.6099 9.36101C12.4657 9.21675 12.3846 9.0211 12.3846 8.81708C12.3846 8.61307 12.4657 8.41741 12.6099 8.27315C12.7542 8.1289 12.9498 8.04785 13.1539 8.04785C13.3579 8.04785 13.5535 8.1289 13.6978 8.27315C13.842 8.41741 13.9231 8.61307 13.9231 8.81708ZM10.0769 11.894C10.0769 12.098 9.99589 12.2937 9.85163 12.4379C9.70738 12.5822 9.51172 12.6632 9.30771 12.6632C9.10369 12.6632 8.90804 12.5822 8.76378 12.4379C8.61952 12.2937 8.53848 12.098 8.53848 11.894C8.53848 11.69 8.61952 11.4943 8.76378 11.3501C8.90804 11.2058 9.10369 11.1248 9.30771 11.1248C9.51172 11.1248 9.70738 11.2058 9.85163 11.3501C9.99589 11.4943 10.0769 11.69 10.0769 11.894ZM10.0769 8.81708C10.0769 9.0211 9.99589 9.21675 9.85163 9.36101C9.70738 9.50527 9.51172 9.58631 9.30771 9.58631C9.10369 9.58631 8.90804 9.50527 8.76378 9.36101C8.61952 9.21675 8.53848 9.0211 8.53848 8.81708C8.53848 8.61307 8.61952 8.41741 8.76378 8.27315C8.90804 8.1289 9.10369 8.04785 9.30771 8.04785C9.51172 8.04785 9.70738 8.1289 9.85163 8.27315C9.99589 8.41741 10.0769 8.61307 10.0769 8.81708ZM6.23078 11.894C6.23078 12.098 6.14974 12.2937 6.00548 12.4379C5.86122 12.5822 5.66557 12.6632 5.46155 12.6632C5.25754 12.6632 5.06188 12.5822 4.91762 12.4379C4.77337 12.2937 4.69232 12.098 4.69232 11.894C4.69232 11.69 4.77337 11.4943 4.91762 11.3501C5.06188 11.2058 5.25754 11.1248 5.46155 11.1248C5.66557 11.1248 5.86122 11.2058 6.00548 11.3501C6.14974 11.4943 6.23078 11.69 6.23078 11.894ZM6.23078 8.81708C6.23078 9.0211 6.14974 9.21675 6.00548 9.36101C5.86122 9.50527 5.66557 9.58631 5.46155 9.58631C5.25754 9.58631 5.06188 9.50527 4.91762 9.36101C4.77337 9.21675 4.69232 9.0211 4.69232 8.81708C4.69232 8.61307 4.77337 8.41741 4.91762 8.27315C5.06188 8.1289 5.25754 8.04785 5.46155 8.04785C5.66557 8.04785 5.86122 8.1289 6.00548 8.27315C6.14974 8.41741 6.23078 8.61307 6.23078 8.81708Z" fill="black"/>
</svg>
