<svg width="71" height="71" viewBox="0 0 71 71" fill="none" xmlns="http://www.w3.org/2000/svg">
<path d="M56.0046 6.1535H48.5991C46.5824 3.85461 43.9899 2.13416 41.0881 1.16894C38.1863 0.203719 35.0798 0.0285453 32.0879 0.661418C28.444 1.4045 25.15 3.33621 22.7225 6.1535H15.1712C11.3049 6.15813 7.59827 7.69607 4.86437 10.43C2.13046 13.1639 0.592522 16.8705 0.587891 20.7368L0.587891 55.7368C0.592522 59.6031 2.13046 63.3098 4.86437 66.0437C7.59827 68.7776 11.3049 70.3155 15.1712 70.3202H56.0046C59.8709 70.3155 63.5775 68.7776 66.3114 66.0437C69.0453 63.3098 70.5833 59.6031 70.5879 55.7368V20.7368C70.5833 16.8705 69.0453 13.1639 66.3114 10.43C63.5775 7.69607 59.8709 6.15813 56.0046 6.1535ZM35.5879 6.1535C38.6821 6.1535 41.6495 7.38266 43.8375 9.57059C46.0254 11.7585 47.2546 14.726 47.2546 17.8202C47.2546 18.5937 46.9473 19.3356 46.4003 19.8826C45.8533 20.4295 45.1114 20.7368 44.3379 20.7368H38.1196L40.9312 16.5223C41.3605 15.8787 41.5166 15.0909 41.3651 14.3322C41.2136 13.5736 40.7669 12.9062 40.1233 12.4768C39.4797 12.0475 38.6919 11.8914 37.9333 12.043C37.1746 12.1945 36.5072 12.6412 36.0779 13.2848L31.1108 20.7368H26.8379C26.0643 20.7368 25.3225 20.4295 24.7755 19.8826C24.2285 19.3356 23.9212 18.5937 23.9212 17.8202C23.9212 14.726 25.1504 11.7585 27.3383 9.57059C29.5262 7.38266 32.4937 6.1535 35.5879 6.1535ZM64.7546 55.7368C64.7546 58.0575 63.8327 60.2831 62.1917 61.924C60.5508 63.565 58.3252 64.4868 56.0046 64.4868H15.1712C12.8506 64.4868 10.625 63.565 8.98404 61.924C7.3431 60.2831 6.42122 58.0575 6.42122 55.7368V20.7368C6.42122 18.4162 7.3431 16.1906 8.98404 14.5497C10.625 12.9087 12.8506 11.9868 15.1712 11.9868H19.2341C18.4784 14.057 18.0905 16.2434 18.0879 18.4473C18.0902 20.6009 18.9468 22.6656 20.4696 24.1885C21.9924 25.7113 24.0572 26.5679 26.2108 26.5702H44.965C47.0562 26.5894 49.073 25.7946 50.5889 24.3538C52.1047 22.9131 53.0009 20.9393 53.0879 18.8498C53.1172 16.5235 52.7786 14.2073 52.0846 11.9868H56.0046C58.3252 11.9868 60.5508 12.9087 62.1917 14.5497C63.8327 16.1906 64.7546 18.4162 64.7546 20.7368V55.7368Z" fill="#151F6D"/>
</svg>
