<svg width="16" height="14" viewBox="0 0 16 14" fill="none" xmlns="http://www.w3.org/2000/svg">
<path d="M12.08 1.12567L13.1 2.48567H15.4C15.7325 2.48567 16 2.75317 16 3.08567C16 3.41817 15.7325 3.68567 15.4 3.68567H12.8C12.61 3.68567 12.4325 3.59567 12.32 3.44567L11.7175 2.64317L10.5425 5.14067C10.45 5.33567 10.26 5.46817 10.045 5.48317C9.83 5.49817 9.6225 5.39817 9.5025 5.21817L8.48 3.68567H5.4C5.0675 3.68567 4.8 3.41817 4.8 3.08567C4.8 2.75317 5.0675 2.48567 5.4 2.48567H8.8C9 2.48567 9.1875 2.58567 9.3 2.75317L9.91 3.66817L11.0575 1.23067C11.1475 1.04067 11.33 0.910674 11.54 0.888174C11.75 0.865674 11.955 0.955674 12.08 1.12567ZM8 4.88567H8.3175L8.835 5.66317C9.115 6.08317 9.6 6.32067 10.1025 6.28317C10.605 6.24567 11.05 5.94067 11.265 5.48317L11.5475 4.88567H13.6C14.925 4.88567 16 5.96067 16 7.28567V12.8857C16 13.3282 15.6425 13.6857 15.2 13.6857C14.7575 13.6857 14.4 13.3282 14.4 12.8857V12.0857H8.8H8H1.6V12.8857C1.6 13.3282 1.2425 13.6857 0.8 13.6857C0.3575 13.6857 0 13.3282 0 12.8857V3.28567C0 2.84317 0.3575 2.48567 0.8 2.48567C1.2425 2.48567 1.6 2.84317 1.6 3.28567V9.68567H7.2V5.68567C7.2 5.24317 7.5575 4.88567 8 4.88567ZM4.4 4.88567C4.93043 4.88567 5.43914 5.09639 5.81421 5.47146C6.18929 5.84653 6.4 6.35524 6.4 6.88567C6.4 7.41611 6.18929 7.92481 5.81421 8.29989C5.43914 8.67496 4.93043 8.88567 4.4 8.88567C3.86957 8.88567 3.36086 8.67496 2.98579 8.29989C2.61071 7.92481 2.4 7.41611 2.4 6.88567C2.4 6.35524 2.61071 5.84653 2.98579 5.47146C3.36086 5.09639 3.86957 4.88567 4.4 4.88567Z" fill="#151F6D"/>
</svg>
