<svg width="30" height="30" viewBox="0 0 30 30" fill="none" xmlns="http://www.w3.org/2000/svg">
<g clip-path="url(#clip0_323_1205)">
<g clip-path="url(#clip1_323_1205)">
<path d="M8.01477 27.0116L7.95285 26.4295L7.38759 26.5816C7.1277 26.6516 6.84929 26.6875 6.5625 26.6875C4.77028 26.6875 3.3125 25.2297 3.3125 23.4375C3.3125 23.0621 3.37854 22.6957 3.49559 22.3598L3.65596 21.8996L3.20002 21.7275C1.6197 21.131 0.5 19.6027 0.5 17.8125C0.5 16.1435 1.478 14.6986 2.89713 14.0283L3.46871 13.7583L3.07438 13.2643C2.63409 12.7126 2.375 12.0136 2.375 11.25C2.375 9.69202 3.47122 8.39068 4.93497 8.07048L5.45768 7.95614L5.30822 7.44237C5.22861 7.1687 5.1875 6.87027 5.1875 6.5625C5.1875 5.04498 6.23366 3.764 7.64008 3.40859L7.97764 3.32329L8.01473 2.97709C8.16353 1.58829 9.34567 0.5 10.7812 0.5C12.3157 0.5 13.5625 1.74685 13.5625 3.28125V26.7188C13.5625 28.2532 12.3157 29.5 10.7812 29.5C9.34671 29.5 8.16384 28.4128 8.01477 27.0116ZM21.9855 2.97885L22.0237 3.32392L22.3603 3.40869C23.7719 3.76413 24.8125 5.0388 24.8125 6.5625C24.8125 6.87027 24.7714 7.1687 24.6918 7.44237L24.5418 7.95785L25.0666 8.07083C26.5278 8.38538 27.625 9.69077 27.625 11.25C27.625 12.0136 27.3659 12.7126 26.9256 13.2643L26.5313 13.7583L27.1029 14.0283C28.522 14.6986 29.5 16.1435 29.5 17.8125C29.5 19.6027 28.3803 21.131 26.8 21.7275L26.344 21.8996L26.5044 22.3598C26.6215 22.6957 26.6875 23.0621 26.6875 23.4375C26.6875 25.2297 25.2297 26.6875 23.4375 26.6875C23.1507 26.6875 22.8723 26.6516 22.6124 26.5816L22.0472 26.4295L21.9852 27.0116C21.8362 28.4128 20.6533 29.5 19.2188 29.5C17.6843 29.5 16.4375 28.2532 16.4375 26.7188V3.28125C16.4375 1.74685 17.6843 0.5 19.2188 0.5C20.6529 0.5 21.8314 1.58715 21.9855 2.97885Z" fill="#A9AFE0" stroke="#6C78D8"/>
</g>
</g>
<defs>
<clipPath id="clip0_323_1205">
<rect width="30" height="30" fill="white"/>
</clipPath>
<clipPath id="clip1_323_1205">
<rect width="30" height="30" fill="white"/>
</clipPath>
</defs>
</svg>
