<svg width="20" height="20" viewBox="0 0 20 20" fill="none" xmlns="http://www.w3.org/2000/svg">
<g clip-path="url(#clip0_128_6571)">
<path d="M17.9167 3.33398H16.1111V4.4451H17.7778V16.6673H2.22222V4.4451H3.88888V3.33398H2.08333C1.95346 3.33615 1.82529 3.36389 1.70614 3.4156C1.58699 3.46731 1.4792 3.54199 1.38892 3.63537C1.29863 3.72875 1.22763 3.839 1.17996 3.95982C1.1323 4.08064 1.1089 4.20967 1.1111 4.33954V16.7729C1.1089 16.9027 1.1323 17.0318 1.17996 17.1526C1.22763 17.2734 1.29863 17.3837 1.38892 17.477C1.4792 17.5704 1.58699 17.6451 1.70614 17.6968C1.82529 17.7485 1.95346 17.7763 2.08333 17.7784H17.9167C18.0465 17.7763 18.1747 17.7485 18.2938 17.6968C18.413 17.6451 18.5208 17.5704 18.6111 17.477C18.7014 17.3837 18.7724 17.2734 18.82 17.1526C18.8677 17.0318 18.8911 16.9027 18.8889 16.7729V4.33954C18.8911 4.20967 18.8677 4.08064 18.82 3.95982C18.7724 3.839 18.7014 3.72875 18.6111 3.63537C18.5208 3.54199 18.413 3.46731 18.2938 3.4156C18.1747 3.36389 18.0465 3.33615 17.9167 3.33398Z" fill="black"/>
<path d="M4.44446 7.77734H5.55557V8.88845H4.44446V7.77734Z" fill="black"/>
<path d="M7.77777 7.77734H8.88888V8.88845H7.77777V7.77734Z" fill="black"/>
<path d="M11.1111 7.77734H12.2222V8.88845H11.1111V7.77734Z" fill="black"/>
<path d="M14.4445 7.77734H15.5556V8.88845H14.4445V7.77734Z" fill="black"/>
<path d="M4.44446 10.5547H5.55557V11.6658H4.44446V10.5547Z" fill="black"/>
<path d="M7.77777 10.5547H8.88888V11.6658H7.77777V10.5547Z" fill="black"/>
<path d="M11.1111 10.5547H12.2222V11.6658H11.1111V10.5547Z" fill="black"/>
<path d="M14.4445 10.5547H15.5556V11.6658H14.4445V10.5547Z" fill="black"/>
<path d="M4.44446 13.334H5.55557V14.4451H4.44446V13.334Z" fill="black"/>
<path d="M7.77777 13.334H8.88888V14.4451H7.77777V13.334Z" fill="black"/>
<path d="M11.1111 13.334H12.2222V14.4451H11.1111V13.334Z" fill="black"/>
<path d="M14.4445 13.334H15.5556V14.4451H14.4445V13.334Z" fill="black"/>
<path d="M5.55556 5.55577C5.7029 5.55577 5.84421 5.49724 5.94839 5.39305C6.05258 5.28887 6.11111 5.14756 6.11111 5.00022V1.66688C6.11111 1.51954 6.05258 1.37823 5.94839 1.27405C5.84421 1.16986 5.7029 1.11133 5.55556 1.11133C5.40821 1.11133 5.26691 1.16986 5.16272 1.27405C5.05853 1.37823 5 1.51954 5 1.66688V5.00022C5 5.14756 5.05853 5.28887 5.16272 5.39305C5.26691 5.49724 5.40821 5.55577 5.55556 5.55577Z" fill="black"/>
<path d="M14.4445 5.55577C14.5918 5.55577 14.7331 5.49724 14.8373 5.39305C14.9415 5.28887 15 5.14756 15 5.00022V1.66688C15 1.51954 14.9415 1.37823 14.8373 1.27405C14.7331 1.16986 14.5918 1.11133 14.4445 1.11133C14.2971 1.11133 14.1558 1.16986 14.0516 1.27405C13.9474 1.37823 13.8889 1.51954 13.8889 1.66688V5.00022C13.8889 5.14756 13.9474 5.28887 14.0516 5.39305C14.1558 5.49724 14.2971 5.55577 14.4445 5.55577Z" fill="black"/>
<path d="M7.22223 3.33398H12.7778V4.4451H7.22223V3.33398Z" fill="black"/>
</g>
<defs>
<clipPath id="clip0_128_6571">
<rect width="20" height="20" fill="white"/>
</clipPath>
</defs>
</svg>
