<svg width="28" height="28" viewBox="0 0 28 28" fill="none" xmlns="http://www.w3.org/2000/svg">
<path d="M7 0.875C7 0.642936 6.90781 0.420376 6.74372 0.256282C6.57962 0.0921872 6.35706 0 6.125 0C5.89294 0 5.67038 0.0921872 5.50628 0.256282C5.34219 0.420376 5.25 0.642936 5.25 0.875V1.75H3.5C2.57174 1.75 1.6815 2.11875 1.02513 2.77513C0.368749 3.4315 0 4.32174 0 5.25L0 7H28V5.25C28 4.32174 27.6313 3.4315 26.9749 2.77513C26.3185 2.11875 25.4283 1.75 24.5 1.75H22.75V0.875C22.75 0.642936 22.6578 0.420376 22.4937 0.256282C22.3296 0.0921872 22.1071 0 21.875 0C21.6429 0 21.4204 0.0921872 21.2563 0.256282C21.0922 0.420376 21 0.642936 21 0.875V1.75H7V0.875ZM16.4535 17.9305C17.5473 17.9305 18.5255 17.0835 18.5255 15.8655C18.5255 14.4095 17.6032 13.713 16.4955 13.713C15.47 13.713 14.4515 14.3902 14.4515 15.8305C14.4515 17.2602 15.4018 17.9305 16.4535 17.9305Z" fill="#fff"/>
<path d="M28 24.5V8.75H0V24.5C0 25.4283 0.368749 26.3185 1.02513 26.9749C1.6815 27.6313 2.57174 28 3.5 28H24.5C25.4283 28 26.3185 27.6313 26.9749 26.9749C27.6313 26.3185 28 25.4283 28 24.5ZM16.338 22.3825C14.3955 22.3825 13.44 21.0403 13.3577 19.9203H14.553C14.6283 20.5678 15.2302 21.3553 16.3923 21.3553C17.8692 21.3553 18.669 19.8712 18.676 17.5682H18.6287C18.361 18.2927 17.514 18.9508 16.2085 18.9508C14.7175 18.9508 13.2755 17.8833 13.2755 15.8533C13.2755 13.8635 14.7998 12.6875 16.4202 12.6875C18.4713 12.6875 19.838 13.972 19.838 17.3565C19.838 20.5153 18.5395 22.3807 16.338 22.3807V22.3825ZM11.2805 12.8713V22.2023H10.0975V14.1383H10.0765C9.569 14.4113 8.53125 15.0482 7.875 15.498V14.28C8.61147 13.764 9.37882 13.2935 10.1728 12.8713H11.2805Z" fill="#fff"/>
</svg>
