<svg width="41" height="41" viewBox="0 0 41 41" fill="none" xmlns="http://www.w3.org/2000/svg">
<g clip-path="url(#clip0_1_19802)">
<path d="M25.8359 29.5098V27.5098C25.8359 26.4489 25.4145 25.4315 24.6644 24.6813C23.9142 23.9312 22.8968 23.5098 21.8359 23.5098H13.8359C12.7751 23.5098 11.7577 23.9312 11.0075 24.6813C10.2574 25.4315 9.83594 26.4489 9.83594 27.5098V29.5098M31.8359 29.5098V27.5098C31.8353 26.6235 31.5403 25.7625 30.9973 25.0621C30.4543 24.3616 29.6941 23.8613 28.8359 23.6398M24.8359 11.6398C25.6964 11.8601 26.459 12.3605 27.0036 13.0621C27.5482 13.7637 27.8438 14.6266 27.8438 15.5148C27.8438 16.4029 27.5482 17.2658 27.0036 17.9675C26.459 18.6691 25.6964 19.1695 24.8359 19.3898M21.8359 15.5098C21.8359 17.7189 20.0451 19.5098 17.8359 19.5098C15.6268 19.5098 13.8359 17.7189 13.8359 15.5098C13.8359 13.3006 15.6268 11.5098 17.8359 11.5098C20.0451 11.5098 21.8359 13.3006 21.8359 15.5098Z" stroke="#3C3C43" stroke-opacity="0.6" stroke-width="2" stroke-linecap="round" stroke-linejoin="round"/>
</g>
<defs>
<clipPath id="clip0_1_19802">
<rect width="24" height="24" fill="white" transform="translate(8.83594 8.50977)"/>
</clipPath>
</defs>
</svg>
