<svg width="24" height="23" viewBox="0 0 24 23" fill="none" xmlns="http://www.w3.org/2000/svg">
<path fill-rule="evenodd" clip-rule="evenodd" d="M0 3.6C0 2.64522 0.379285 1.72955 1.05442 1.05442C1.72955 0.379285 2.64522 0 3.6 0H20.4C21.3548 0 22.2705 0.379285 22.9456 1.05442C23.6207 1.72955 24 2.64522 24 3.6V15.6C24 16.5548 23.6207 17.4705 22.9456 18.1456C22.2705 18.8207 21.3548 19.2 20.4 19.2H11.1996L7.2 22.2C6.2112 22.9416 4.8 22.236 4.8 21V19.2H3.6C2.64522 19.2 1.72955 18.8207 1.05442 18.1456C0.379285 17.4705 0 16.5548 0 15.6V3.6ZM3.6 2.4C3.28174 2.4 2.97652 2.52643 2.75147 2.75147C2.52643 2.97652 2.4 3.28174 2.4 3.6V15.6C2.4 15.9183 2.52643 16.2235 2.75147 16.4485C2.97652 16.6736 3.28174 16.8 3.6 16.8H5.4C5.87739 16.8 6.33523 16.9896 6.67279 17.3272C7.01036 17.6648 7.2 18.1226 7.2 18.6V19.2L9.7596 17.28C10.175 16.9684 10.6803 16.8 11.1996 16.8H20.4C20.7183 16.8 21.0235 16.6736 21.2485 16.4485C21.4736 16.2235 21.6 15.9183 21.6 15.6V3.6C21.6 3.28174 21.4736 2.97652 21.2485 2.75147C21.0235 2.52643 20.7183 2.4 20.4 2.4H3.6Z" fill="#767579"/>
</svg>
