<svg width="41" height="41" viewBox="0 0 41 41" fill="none" xmlns="http://www.w3.org/2000/svg">
<path d="M29.086 13.0098H12.586C12.1881 13.0098 11.8066 13.1678 11.5253 13.4491C11.244 13.7304 11.086 14.1119 11.086 14.5098V29.5098C11.0842 29.7958 11.1652 30.0763 11.319 30.3174C11.4728 30.5586 11.693 30.7501 11.9532 30.8691C12.1514 30.9614 12.3673 31.0094 12.586 31.0098C12.9381 31.0089 13.2785 30.8834 13.5469 30.6554C13.5514 30.6525 13.5555 30.649 13.5591 30.6451L16.5703 28.0098H29.086C29.4838 28.0098 29.8653 27.8517 30.1466 27.5704C30.4279 27.2891 30.586 26.9076 30.586 26.5098V14.5098C30.586 14.1119 30.4279 13.7304 30.1466 13.4491C29.8653 13.1678 29.4838 13.0098 29.086 13.0098ZM29.086 26.5098H16.5703C16.2171 26.5096 15.8752 26.6341 15.6047 26.8613L15.5935 26.8716L12.586 29.5098V14.5098H29.086V26.5098Z" fill="#767579"/>
</svg>
