<svg width="26" height="26" viewBox="0 0 26 26" fill="none" xmlns="http://www.w3.org/2000/svg">
<path d="M12.74 24.48C19.2238 24.48 24.48 19.2238 24.48 12.74C24.48 6.25618 19.2238 1 12.74 1C6.25618 1 1 6.25618 1 12.74C1 19.2238 6.25618 24.48 12.74 24.48Z" fill="#3AB549" stroke="white" stroke-width="1.66667" stroke-linecap="round" stroke-linejoin="round"/>
<path d="M8.82715 8.82666H8.84019H8.82715ZM16.6538 8.82666H16.6669H16.6538ZM7.52271 14.0444C7.52271 15.4283 8.07243 16.7554 9.05096 17.734C10.0295 18.7125 11.3566 19.2622 12.7405 19.2622C14.1243 19.2622 15.4515 18.7125 16.43 17.734C17.4085 16.7554 17.9583 15.4283 17.9583 14.0444M17.9583 14.0444H7.52271H17.9583Z" fill="#3AB549"/>
<path d="M8.82715 8.82666H8.84019M16.6538 8.82666H16.6669M7.52271 14.0444C7.52271 15.4283 8.07243 16.7554 9.05096 17.734C10.0295 18.7125 11.3566 19.2622 12.7405 19.2622C14.1243 19.2622 15.4515 18.7125 16.43 17.734C17.4085 16.7554 17.9583 15.4283 17.9583 14.0444M17.9583 14.0444H7.52271" stroke="white" stroke-width="1.66667" stroke-linecap="round" stroke-linejoin="round"/>
</svg>
