<svg width="81" height="81" viewBox="0 0 81 81" fill="none" xmlns="http://www.w3.org/2000/svg">
<g clip-path="url(#clip0_65_1616)">
<mask id="mask0_65_1616" style="mask-type:alpha" maskUnits="userSpaceOnUse" x="5" y="-1" width="140" height="139">
<rect x="5.58594" y="-1" width="138.828" height="138.828" fill="#D9D9D9"/>
</mask>
<g mask="url(#mask0_65_1616)">
<path d="M77.8435 49.332H-18.8438V121.73H77.8435V49.332Z" fill="#F5F5F5"/>
<path d="M6.23318 53.1035H2.89393C1.90943 53.1035 1.11133 53.967 1.11133 55.0322V58.645C1.11133 59.7102 1.90943 60.5737 2.89393 60.5737H6.23318C7.21768 60.5737 8.01578 59.7102 8.01578 58.645V55.0322C8.01578 53.967 7.21768 53.1035 6.23318 53.1035Z" fill="#EBEBEB"/>
<path d="M6.23318 62.7324H2.89393C1.90943 62.7324 1.11133 63.5959 1.11133 64.6611V68.2739C1.11133 69.3391 1.90943 70.2026 2.89393 70.2026H6.23318C7.21768 70.2026 8.01578 69.3391 8.01578 68.2739V64.6611C8.01578 63.5959 7.21768 62.7324 6.23318 62.7324Z" fill="#EBEBEB"/>
<path d="M6.23318 72.1074H2.89393C1.90943 72.1074 1.11133 72.9709 1.11133 74.0361V77.6489C1.11133 78.7141 1.90943 79.5776 2.89393 79.5776H6.23318C7.21768 79.5776 8.01578 78.7141 8.01578 77.6489V74.0361C8.01578 72.9709 7.21768 72.1074 6.23318 72.1074Z" fill="#EBEBEB"/>
<path d="M15.1121 53.1035H11.7728C10.7883 53.1035 9.99023 53.967 9.99023 55.0322V58.645C9.99023 59.7102 10.7883 60.5737 11.7728 60.5737H15.1121C16.0966 60.5737 16.8947 59.7102 16.8947 58.645V55.0322C16.8947 53.967 16.0966 53.1035 15.1121 53.1035Z" fill="#EBEBEB"/>
<path d="M15.1121 62.7324H11.7728C10.7883 62.7324 9.99023 63.5959 9.99023 64.6611V68.2739C9.99023 69.3391 10.7883 70.2026 11.7728 70.2026H15.1121C16.0966 70.2026 16.8947 69.3391 16.8947 68.2739V64.6611C16.8947 63.5959 16.0966 62.7324 15.1121 62.7324Z" fill="#EBEBEB"/>
<path d="M15.1121 72.1074H11.7728C10.7883 72.1074 9.99023 72.9709 9.99023 74.0361V77.6489C9.99023 78.7141 10.7883 79.5776 11.7728 79.5776H15.1121C16.0966 79.5776 16.8947 78.7141 16.8947 77.6489V74.0361C16.8947 72.9709 16.0966 72.1074 15.1121 72.1074Z" fill="#EBEBEB"/>
<path d="M23.9929 53.1035H20.6537C19.6692 53.1035 18.8711 53.967 18.8711 55.0322V58.645C18.8711 59.7102 19.6692 60.5737 20.6537 60.5737H23.9929C24.9774 60.5737 25.7755 59.7102 25.7755 58.645V55.0322C25.7755 53.967 24.9774 53.1035 23.9929 53.1035Z" fill="#EBEBEB"/>
<path d="M23.9929 62.7324H20.6537C19.6692 62.7324 18.8711 63.5959 18.8711 64.6611V68.2739C18.8711 69.3391 19.6692 70.2026 20.6537 70.2026H23.9929C24.9774 70.2026 25.7755 69.3391 25.7755 68.2739V64.6611C25.7755 63.5959 24.9774 62.7324 23.9929 62.7324Z" fill="#EBEBEB"/>
<path d="M23.9929 72.1074H20.6537C19.6692 72.1074 18.8711 72.9709 18.8711 74.0361V77.6489C18.8711 78.7141 19.6692 79.5776 20.6537 79.5776H23.9929C24.9774 79.5776 25.7755 78.7141 25.7755 77.6489V74.0361C25.7755 72.9709 24.9774 72.1074 23.9929 72.1074Z" fill="#EBEBEB"/>
<path d="M32.8719 53.1035H29.5326C28.5481 53.1035 27.75 53.967 27.75 55.0322V58.645C27.75 59.7102 28.5481 60.5737 29.5326 60.5737H32.8719C33.8564 60.5737 34.6545 59.7102 34.6545 58.645V55.0322C34.6545 53.967 33.8564 53.1035 32.8719 53.1035Z" fill="#EBEBEB"/>
<path d="M32.8719 62.7324H29.5326C28.5481 62.7324 27.75 63.5959 27.75 64.6611V68.2739C27.75 69.3391 28.5481 70.2026 29.5326 70.2026H32.8719C33.8564 70.2026 34.6545 69.3391 34.6545 68.2739V64.6611C34.6545 63.5959 33.8564 62.7324 32.8719 62.7324Z" fill="#EBEBEB"/>
<path d="M32.8719 72.1074H29.5326C28.5481 72.1074 27.75 72.9709 27.75 74.0361V77.6489C27.75 78.7141 28.5481 79.5776 29.5326 79.5776H32.8719C33.8564 79.5776 34.6545 78.7141 34.6545 77.6489V74.0361C34.6545 72.9709 33.8564 72.1074 32.8719 72.1074Z" fill="#EBEBEB"/>
<path d="M41.6238 53.1035H38.2846C37.3001 53.1035 36.502 53.967 36.502 55.0322V58.645C36.502 59.7102 37.3001 60.5737 38.2846 60.5737H41.6238C42.6083 60.5737 43.4064 59.7102 43.4064 58.645V55.0322C43.4064 53.967 42.6083 53.1035 41.6238 53.1035Z" fill="#EBEBEB"/>
<path d="M41.6238 62.7324H38.2846C37.3001 62.7324 36.502 63.5959 36.502 64.6611V68.2739C36.502 69.3391 37.3001 70.2026 38.2846 70.2026H41.6238C42.6083 70.2026 43.4064 69.3391 43.4064 68.2739V64.6611C43.4064 63.5959 42.6083 62.7324 41.6238 62.7324Z" fill="#EBEBEB"/>
<path d="M41.6238 72.1074H38.2846C37.3001 72.1074 36.502 72.9709 36.502 74.0361V77.6489C36.502 78.7141 37.3001 79.5776 38.2846 79.5776H41.6238C42.6083 79.5776 43.4064 78.7141 43.4064 77.6489V74.0361C43.4064 72.9709 42.6083 72.1074 41.6238 72.1074Z" fill="#EBEBEB"/>
<path d="M50.5027 53.1035H47.1635C46.179 53.1035 45.3809 53.967 45.3809 55.0322V58.645C45.3809 59.7102 46.179 60.5737 47.1635 60.5737H50.5027C51.4872 60.5737 52.2853 59.7102 52.2853 58.645V55.0322C52.2853 53.967 51.4872 53.1035 50.5027 53.1035Z" fill="#EBEBEB"/>
<path d="M50.5027 62.7324H47.1635C46.179 62.7324 45.3809 63.5959 45.3809 64.6611V68.2739C45.3809 69.3391 46.179 70.2026 47.1635 70.2026H50.5027C51.4872 70.2026 52.2853 69.3391 52.2853 68.2739V64.6611C52.2853 63.5959 51.4872 62.7324 50.5027 62.7324Z" fill="#EBEBEB"/>
<path d="M50.5027 72.1074H47.1635C46.179 72.1074 45.3809 72.9709 45.3809 74.0361V77.6489C45.3809 78.7141 46.179 79.5776 47.1635 79.5776H50.5027C51.4872 79.5776 52.2853 78.7141 52.2853 77.6489V74.0361C52.2853 72.9709 51.4872 72.1074 50.5027 72.1074Z" fill="#EBEBEB"/>
<path d="M59.3836 53.1035H56.0443C55.0598 53.1035 54.2617 53.967 54.2617 55.0322V58.645C54.2617 59.7102 55.0598 60.5737 56.0443 60.5737H59.3836C60.3681 60.5737 61.1662 59.7102 61.1662 58.645V55.0322C61.1662 53.967 60.3681 53.1035 59.3836 53.1035Z" fill="#EBEBEB"/>
<path d="M59.3836 62.7324H56.0443C55.0598 62.7324 54.2617 63.5959 54.2617 64.6611V68.2739C54.2617 69.3391 55.0598 70.2026 56.0443 70.2026H59.3836C60.3681 70.2026 61.1662 69.3391 61.1662 68.2739V64.6611C61.1662 63.5959 60.3681 62.7324 59.3836 62.7324Z" fill="#EBEBEB"/>
<path d="M59.3836 72.1074H56.0443C55.0598 72.1074 54.2617 72.9709 54.2617 74.0361V77.6489C54.2617 78.7141 55.0598 79.5776 56.0443 79.5776H59.3836C60.3681 79.5776 61.1662 78.7141 61.1662 77.6489V74.0361C61.1662 72.9709 60.3681 72.1074 59.3836 72.1074Z" fill="#EBEBEB"/>
<path d="M68.2664 53.1035H64.9271C63.9426 53.1035 63.1445 53.967 63.1445 55.0322V58.645C63.1445 59.7102 63.9426 60.5737 64.9271 60.5737H68.2664C69.2509 60.5737 70.049 59.7102 70.049 58.645V55.0322C70.049 53.967 69.2509 53.1035 68.2664 53.1035Z" fill="#EBEBEB"/>
<path d="M68.2664 62.7324H64.9271C63.9426 62.7324 63.1445 63.5959 63.1445 64.6611V68.2739C63.1445 69.3391 63.9426 70.2026 64.9271 70.2026H68.2664C69.2509 70.2026 70.049 69.3391 70.049 68.2739V64.6611C70.049 63.5959 69.2509 62.7324 68.2664 62.7324Z" fill="#EBEBEB"/>
<path d="M68.2664 72.1074H64.9271C63.9426 72.1074 63.1445 72.9709 63.1445 74.0361V77.6489C63.1445 78.7141 63.9426 79.5776 64.9271 79.5776H68.2664C69.2509 79.5776 70.049 78.7141 70.049 77.6489V74.0361C70.049 72.9709 69.2509 72.1074 68.2664 72.1074Z" fill="#EBEBEB"/>
<path d="M77.8472 53.2278C77.6614 53.1582 77.4664 53.1215 77.2698 53.1191H74.1386C73.8907 53.1186 73.6451 53.1711 73.416 53.2735C73.1869 53.3759 72.9788 53.5262 72.8035 53.7159C72.6282 53.9055 72.4892 54.1307 72.3946 54.3786C72.3 54.6265 72.2515 54.8921 72.252 55.1603V58.5481C72.2515 58.8163 72.3 59.082 72.3946 59.3298C72.4892 59.5777 72.6282 59.803 72.8035 59.9926C72.9788 60.1822 73.1869 60.3326 73.416 60.435C73.6451 60.5374 73.8907 60.5898 74.1386 60.5893H77.2698C77.4661 60.5864 77.6608 60.551 77.8472 60.4845V53.2278Z" fill="#EBEBEB"/>
<path d="M77.8472 62.8411C77.6614 62.7714 77.4664 62.7348 77.2698 62.7324H74.1386C73.6382 62.7324 73.1583 62.9475 72.8045 63.3303C72.4507 63.7131 72.252 64.2323 72.252 64.7736V68.1614C72.2515 68.4298 72.2999 68.6956 72.3945 68.9437C72.4891 69.1918 72.628 69.4173 72.8033 69.6072C72.9785 69.7972 73.1866 69.9479 73.4158 70.0507C73.6449 70.1535 73.8905 70.2065 74.1386 70.2065H77.2698C77.4663 70.2022 77.661 70.1656 77.8472 70.0978V62.8411Z" fill="#EBEBEB"/>
<path d="M77.8472 72.2122C77.6608 72.1457 77.4661 72.1104 77.2698 72.1074H74.1386C73.8907 72.1069 73.6451 72.1594 73.416 72.2618C73.1869 72.3642 72.9788 72.5145 72.8035 72.7041C72.6282 72.8938 72.4892 73.119 72.3946 73.3669C72.3 73.6148 72.2515 73.8804 72.252 74.1486V77.5364C72.252 78.0778 72.4507 78.5969 72.8045 78.9797C73.1583 79.3625 73.6382 79.5776 74.1386 79.5776H77.2698C77.4664 79.5753 77.6614 79.5386 77.8472 79.4689V72.2122Z" fill="#EBEBEB"/>
<path d="M11.6268 3.05469H5.71289V9.85005H11.6268V3.05469Z" fill="#EBEBEB"/>
<path d="M18.2831 3.05469H12.3691V9.85005H18.2831V3.05469Z" fill="#EBEBEB"/>
<path d="M24.9354 3.05469H19.0215V9.85005H24.9354V3.05469Z" fill="#EBEBEB"/>
<path d="M11.6268 10.6777H5.71289V17.4731H11.6268V10.6777Z" fill="#EBEBEB"/>
<path d="M18.2831 10.6777H12.3691V17.4731H18.2831V10.6777Z" fill="#EBEBEB"/>
<path d="M24.9354 10.6777H19.0215V17.4731H24.9354V10.6777Z" fill="#EBEBEB"/>
<path d="M11.6268 18.3008H5.71289V25.0961H11.6268V18.3008Z" fill="#EBEBEB"/>
<path d="M18.2831 18.3008H12.3691V25.0961H18.2831V18.3008Z" fill="#EBEBEB"/>
<path d="M24.9354 18.3008H19.0215V25.0961H24.9354V18.3008Z" fill="#EBEBEB"/>
<path d="M11.6268 25.9238H5.71289V32.7192H11.6268V25.9238Z" fill="#EBEBEB"/>
<path d="M18.2831 25.9238H12.3691V32.7192H18.2831V25.9238Z" fill="#EBEBEB"/>
<path d="M24.9354 25.9238H19.0215V32.7192H24.9354V25.9238Z" fill="#EBEBEB"/>
<path d="M11.6268 33.5469H5.71289V40.3422H11.6268V33.5469Z" fill="#EBEBEB"/>
<path d="M18.2831 33.5469H12.3691V40.3422H18.2831V33.5469Z" fill="#EBEBEB"/>
<path d="M24.9354 33.5469H19.0215V40.3422H24.9354V33.5469Z" fill="#EBEBEB"/>
<g opacity="0.8">
<path d="M11.6333 3.05469L5.71484 9.85005H6.82426L11.6333 4.41957V3.05469Z" fill="#FAFAFA"/>
<path d="M11.6361 5.3457L7.71289 9.85174H8.44654L11.6361 6.25078V5.3457Z" fill="#FAFAFA"/>
</g>
<g opacity="0.8">
<path d="M18.2811 3.05469L12.3672 9.85005H13.4766L18.2811 4.41957V3.05469Z" fill="#FAFAFA"/>
<path d="M18.2826 5.3457L14.3594 9.85174H15.0975L18.2826 6.25078V5.3457Z" fill="#FAFAFA"/>
</g>
<g opacity="0.8">
<path d="M24.9418 3.05469L19.0234 9.85005H20.1329L24.9418 4.41957V3.05469Z" fill="#FAFAFA"/>
<path d="M24.9428 5.3457L21.0195 9.85174H21.7532L24.9428 6.25078V5.3457Z" fill="#FAFAFA"/>
</g>
<g opacity="0.8">
<path d="M11.6333 10.6777L5.71484 17.4731H6.82426L11.6333 12.0426V10.6777Z" fill="#FAFAFA"/>
<path d="M11.6361 12.9688L7.71289 17.4748H8.44654L11.6361 13.8738V12.9688Z" fill="#FAFAFA"/>
</g>
<g opacity="0.8">
<path d="M18.2811 10.6777L12.3672 17.4731H13.4766L18.2811 12.0426V10.6777Z" fill="#FAFAFA"/>
<path d="M18.2826 12.9688L14.3594 17.4748H15.0975L18.2826 13.8738V12.9688Z" fill="#FAFAFA"/>
</g>
<g opacity="0.8">
<path d="M24.9418 10.6777L19.0234 17.4731H20.1329L24.9418 12.0426V10.6777Z" fill="#FAFAFA"/>
<path d="M24.9428 12.9688L21.0195 17.4748H21.7532L24.9428 13.8738V12.9688Z" fill="#FAFAFA"/>
</g>
<g opacity="0.8">
<path d="M11.6333 18.2988L5.71484 25.0942H6.82426L11.6333 19.6637V18.2988Z" fill="#FAFAFA"/>
<path d="M11.6361 20.5898L7.71289 25.0959H8.44654L11.6361 21.4949V20.5898Z" fill="#FAFAFA"/>
</g>
<g opacity="0.8">
<path d="M18.2811 18.2988L12.3672 25.0942H13.4766L18.2811 19.6637V18.2988Z" fill="#FAFAFA"/>
<path d="M18.2826 20.5898L14.3594 25.0959H15.0975L18.2826 21.4949V20.5898Z" fill="#FAFAFA"/>
</g>
<g opacity="0.8">
<path d="M24.9418 18.2988L19.0234 25.0942H20.1329L24.9418 19.6637V18.2988Z" fill="#FAFAFA"/>
<path d="M24.9428 20.5898L21.0195 25.0959H21.7532L24.9428 21.4949V20.5898Z" fill="#FAFAFA"/>
</g>
<g opacity="0.8">
<path d="M11.6333 25.9219L5.71484 32.7172H6.82426L11.6333 27.2868V25.9219Z" fill="#FAFAFA"/>
<path d="M11.6361 28.2129L7.71289 32.7189H8.44654L11.6361 29.118V28.2129Z" fill="#FAFAFA"/>
</g>
<g opacity="0.8">
<path d="M18.2811 25.9219L12.3672 32.7172H13.4766L18.2811 27.2868V25.9219Z" fill="#FAFAFA"/>
<path d="M18.2826 28.2129L14.3594 32.7189H15.0975L18.2826 29.118V28.2129Z" fill="#FAFAFA"/>
</g>
<g opacity="0.8">
<path d="M24.9418 25.9219L19.0234 32.7172H20.1329L24.9418 27.2868V25.9219Z" fill="#FAFAFA"/>
<path d="M24.9428 28.2129L21.0195 32.7189H21.7532L24.9428 29.118V28.2129Z" fill="#FAFAFA"/>
</g>
<g opacity="0.8">
<path d="M11.6333 33.5469L5.71484 40.3422H6.82426L11.6333 34.9118V33.5469Z" fill="#FAFAFA"/>
<path d="M11.6361 35.8379L7.71289 40.3439H8.44654L11.6361 36.743V35.8379Z" fill="#FAFAFA"/>
</g>
<g opacity="0.8">
<path d="M18.2811 33.5469L12.3672 40.3422H13.4766L18.2811 34.9118V33.5469Z" fill="#FAFAFA"/>
<path d="M18.2826 35.8379L14.3594 40.3439H15.0975L18.2826 36.743V35.8379Z" fill="#FAFAFA"/>
</g>
<g opacity="0.8">
<path d="M24.9418 33.5469L19.0234 40.3422H20.1329L24.9418 34.9118V33.5469Z" fill="#FAFAFA"/>
<path d="M24.9428 35.8379L21.0195 40.3439H21.7532L24.9428 36.743V35.8379Z" fill="#FAFAFA"/>
</g>
<path d="M36.16 3.05469H30.2461V9.85005H36.16V3.05469Z" fill="#EBEBEB"/>
<path d="M42.8104 3.05469H36.8965V9.85005H42.8104V3.05469Z" fill="#EBEBEB"/>
<path d="M49.4725 3.05469H43.5586V9.85005H49.4725V3.05469Z" fill="#EBEBEB"/>
<path d="M56.1229 3.05469H50.209V9.85005H56.1229V3.05469Z" fill="#EBEBEB"/>
<path d="M62.7753 3.05469H56.8613V9.85005H62.7753V3.05469Z" fill="#EBEBEB"/>
<path d="M36.16 10.6777H30.2461V17.4731H36.16V10.6777Z" fill="#EBEBEB"/>
<path d="M42.8104 10.6777H36.8965V17.4731H42.8104V10.6777Z" fill="#EBEBEB"/>
<path d="M49.4725 10.6777H43.5586V17.4731H49.4725V10.6777Z" fill="#EBEBEB"/>
<path d="M56.1229 10.6777H50.209V17.4731H56.1229V10.6777Z" fill="#EBEBEB"/>
<path d="M62.7753 10.6777H56.8613V17.4731H62.7753V10.6777Z" fill="#EBEBEB"/>
<path d="M36.16 18.3008H30.2461V25.0961H36.16V18.3008Z" fill="#EBEBEB"/>
<path d="M42.8104 18.3008H36.8965V25.0961H42.8104V18.3008Z" fill="#EBEBEB"/>
<path d="M49.4725 18.3008H43.5586V25.0961H49.4725V18.3008Z" fill="#EBEBEB"/>
<path d="M56.1229 18.3008H50.209V25.0961H56.1229V18.3008Z" fill="#EBEBEB"/>
<path d="M62.7753 18.3008H56.8613V25.0961H62.7753V18.3008Z" fill="#EBEBEB"/>
<path d="M36.16 25.9238H30.2461V32.7192H36.16V25.9238Z" fill="#EBEBEB"/>
<path d="M42.8104 25.9238H36.8965V32.7192H42.8104V25.9238Z" fill="#EBEBEB"/>
<path d="M49.4725 25.9238H43.5586V32.7192H49.4725V25.9238Z" fill="#EBEBEB"/>
<path d="M56.1229 25.9238H50.209V32.7192H56.1229V25.9238Z" fill="#EBEBEB"/>
<path d="M62.7753 25.9238H56.8613V32.7192H62.7753V25.9238Z" fill="#EBEBEB"/>
<path d="M36.16 33.5469H30.2461V40.3422H36.16V33.5469Z" fill="#EBEBEB"/>
<path d="M42.8104 33.5469H36.8965V40.3422H42.8104V33.5469Z" fill="#EBEBEB"/>
<path d="M49.4725 33.5469H43.5586V40.3422H49.4725V33.5469Z" fill="#EBEBEB"/>
<path d="M56.1229 33.5469H50.209V40.3422H56.1229V33.5469Z" fill="#EBEBEB"/>
<path d="M62.7753 33.5469H56.8613V40.3422H62.7753V33.5469Z" fill="#EBEBEB"/>
<g opacity="0.8">
<path d="M36.1581 3.05469L30.2441 9.85005H31.3536L36.1581 4.41957V3.05469Z" fill="#FAFAFA"/>
<path d="M36.159 5.3457L32.2402 9.85174H32.9739L36.159 6.25078V5.3457Z" fill="#FAFAFA"/>
</g>
<g opacity="0.8">
<path d="M42.8149 3.05469L36.8965 9.85005H38.0059L42.8149 4.41957V3.05469Z" fill="#FAFAFA"/>
<path d="M42.8158 5.3457L38.8926 9.85174H39.6262L42.8158 6.25078V5.3457Z" fill="#FAFAFA"/>
</g>
<g opacity="0.8">
<path d="M49.4647 3.05469L43.5508 9.85005H44.6602L49.4647 4.41957V3.05469Z" fill="#FAFAFA"/>
<path d="M49.4656 5.3457L45.5469 9.85174H46.2805L49.4656 6.25078V5.3457Z" fill="#FAFAFA"/>
</g>
<g opacity="0.8">
<path d="M56.1235 3.05469L50.2051 9.85005H51.3145L56.1235 4.41957V3.05469Z" fill="#FAFAFA"/>
<path d="M56.1225 5.3457L52.1992 9.85174H52.9329L56.1225 6.25078V5.3457Z" fill="#FAFAFA"/>
</g>
<g opacity="0.8">
<path d="M62.7811 3.05469L56.8672 9.85005H57.9766L62.7811 4.41957V3.05469Z" fill="#FAFAFA"/>
<path d="M62.782 5.3457L58.8633 9.85174H59.5969L62.782 6.25078V5.3457Z" fill="#FAFAFA"/>
</g>
<g opacity="0.8">
<path d="M36.1581 10.6777L30.2441 17.4731H31.3536L36.1581 12.0426V10.6777Z" fill="#FAFAFA"/>
<path d="M36.159 12.9688L32.2402 17.4748H32.9739L36.159 13.8738V12.9688Z" fill="#FAFAFA"/>
</g>
<g opacity="0.8">
<path d="M42.8149 10.6777L36.8965 17.4731H38.0059L42.8149 12.0426V10.6777Z" fill="#FAFAFA"/>
<path d="M42.8158 12.9688L38.8926 17.4748H39.6262L42.8158 13.8738V12.9688Z" fill="#FAFAFA"/>
</g>
<g opacity="0.8">
<path d="M49.4647 10.6777L43.5508 17.4731H44.6602L49.4647 12.0426V10.6777Z" fill="#FAFAFA"/>
<path d="M49.4656 12.9688L45.5469 17.4748H46.2805L49.4656 13.8738V12.9688Z" fill="#FAFAFA"/>
</g>
<g opacity="0.8">
<path d="M56.1235 10.6777L50.2051 17.4731H51.3145L56.1235 12.0426V10.6777Z" fill="#FAFAFA"/>
<path d="M56.1244 12.9688L52.2012 17.4748H52.9348L56.1244 13.8738V12.9688Z" fill="#FAFAFA"/>
</g>
<g opacity="0.8">
<path d="M62.7811 10.6777L56.8672 17.4731H57.9766L62.7811 12.0426V10.6777Z" fill="#FAFAFA"/>
<path d="M62.782 12.9688L58.8633 17.4748H59.5969L62.782 13.8738V12.9688Z" fill="#FAFAFA"/>
</g>
<g opacity="0.8">
<path d="M36.1581 18.2988L30.2441 25.0942H31.3536L36.1581 19.6637V18.2988Z" fill="#FAFAFA"/>
<path d="M36.159 20.5898L32.2402 25.0959H32.9739L36.159 21.4949V20.5898Z" fill="#FAFAFA"/>
</g>
<g opacity="0.8">
<path d="M42.8149 18.2988L36.8965 25.0942H38.0059L42.8149 19.6637V18.2988Z" fill="#FAFAFA"/>
<path d="M42.8158 20.5898L38.8926 25.0959H39.6262L42.8158 21.4949V20.5898Z" fill="#FAFAFA"/>
</g>
<g opacity="0.8">
<path d="M49.4647 18.2988L43.5508 25.0942H44.6602L49.4647 19.6637V18.2988Z" fill="#FAFAFA"/>
<path d="M49.4656 20.5898L45.5469 25.0959H46.2805L49.4656 21.4949V20.5898Z" fill="#FAFAFA"/>
</g>
<g opacity="0.8">
<path d="M56.1235 18.2988L50.2051 25.0942H51.3145L56.1235 19.6637V18.2988Z" fill="#FAFAFA"/>
<path d="M56.1244 20.5898L52.2012 25.0959H52.9348L56.1244 21.4949V20.5898Z" fill="#FAFAFA"/>
</g>
<g opacity="0.8">
<path d="M62.7811 18.2988L56.8672 25.0942H57.9766L62.7811 19.6637V18.2988Z" fill="#FAFAFA"/>
<path d="M62.782 20.5898L58.8633 25.0959H59.5969L62.782 21.4949V20.5898Z" fill="#FAFAFA"/>
</g>
<g opacity="0.8">
<path d="M36.1581 25.9219L30.2441 32.7172H31.3536L36.1581 27.2868V25.9219Z" fill="#FAFAFA"/>
<path d="M36.159 28.2129L32.2402 32.7189H32.9739L36.159 29.118V28.2129Z" fill="#FAFAFA"/>
</g>
<g opacity="0.8">
<path d="M42.8149 25.9219L36.8965 32.7172H38.0059L42.8149 27.2868V25.9219Z" fill="#FAFAFA"/>
<path d="M42.8158 28.2129L38.8926 32.7189H39.6262L42.8158 29.118V28.2129Z" fill="#FAFAFA"/>
</g>
<g opacity="0.8">
<path d="M49.4647 25.9219L43.5508 32.7172H44.6602L49.4647 27.2868V25.9219Z" fill="#FAFAFA"/>
<path d="M49.4656 28.2129L45.5469 32.7189H46.2805L49.4656 29.118V28.2129Z" fill="#FAFAFA"/>
</g>
<g opacity="0.8">
<path d="M56.1235 25.9219L50.2051 32.7172H51.3145L56.1235 27.2868V25.9219Z" fill="#FAFAFA"/>
<path d="M56.1244 28.2129L52.2012 32.7189H52.9348L56.1244 29.118V28.2129Z" fill="#FAFAFA"/>
</g>
<g opacity="0.8">
<path d="M62.7811 25.9219L56.8672 32.7172H57.9766L62.7811 27.2868V25.9219Z" fill="#FAFAFA"/>
<path d="M62.782 28.2129L58.8633 32.7189H59.5969L62.782 29.118V28.2129Z" fill="#FAFAFA"/>
</g>
<g opacity="0.8">
<path d="M36.1581 33.5469L30.2441 40.3422H31.3536L36.1581 34.9118V33.5469Z" fill="#FAFAFA"/>
<path d="M36.159 35.8379L32.2402 40.3439H32.9739L36.159 36.743V35.8379Z" fill="#FAFAFA"/>
</g>
<g opacity="0.8">
<path d="M42.8149 33.5469L36.8965 40.3422H38.0059L42.8149 34.9118V33.5469Z" fill="#FAFAFA"/>
<path d="M42.8158 35.8379L38.8926 40.3439H39.6262L42.8158 36.743V35.8379Z" fill="#FAFAFA"/>
</g>
<g opacity="0.8">
<path d="M49.4647 33.5469L43.5508 40.3422H44.6602L49.4647 34.9118V33.5469Z" fill="#FAFAFA"/>
<path d="M49.4656 35.8379L45.5469 40.3439H46.2805L49.4656 36.743V35.8379Z" fill="#FAFAFA"/>
</g>
<g opacity="0.8">
<path d="M56.1235 33.5469L50.2051 40.3422H51.3145L56.1235 34.9118V33.5469Z" fill="#FAFAFA"/>
<path d="M56.1225 35.8379L52.1992 40.3439H52.9329L56.1225 36.743V35.8379Z" fill="#FAFAFA"/>
</g>
<g opacity="0.8">
<path d="M62.7811 33.5469L56.8672 40.3422H57.9766L62.7811 34.9118V33.5469Z" fill="#FAFAFA"/>
<path d="M62.782 35.8379L58.8633 40.3439H59.5969L62.782 36.743V35.8379Z" fill="#FAFAFA"/>
</g>
<path d="M76.3848 12.5391H69.5977V49.3311H76.3848V12.5391Z" fill="#151F6D"/>
<path opacity="0.2" d="M76.3859 12.5391H70.9375V49.3311H76.3859V12.5391Z" fill="white"/>
<path d="M76.4041 78.2038C75.9594 78.2038 75.5191 78.2915 75.1083 78.4618C74.6975 78.6321 74.3243 78.8817 74.01 79.1963C73.6957 79.511 73.4465 79.8845 73.2767 80.2955C73.1069 80.7065 73.0197 81.1469 73.0202 81.5916V90.3812C73.0202 91.3863 70.9674 91.4522 70.8355 90.3812V74.4707H68.3984V90.4433C68.3984 94.8788 75.6396 94.8788 75.6396 90.3773V81.9447C75.6391 81.7946 75.6683 81.6458 75.7254 81.5069C75.7825 81.3681 75.8664 81.2419 75.9724 81.1355C76.0784 81.0292 76.2044 80.9448 76.343 80.8872C76.4817 80.8296 76.6304 80.8 76.7805 80.8H77.8438V78.2038H76.4041Z" fill="#263238"/>
<path opacity="0.3" d="M76.4041 78.2038C75.9594 78.2038 75.5191 78.2915 75.1083 78.4618C74.6975 78.6321 74.3243 78.8817 74.01 79.1963C73.6957 79.511 73.4465 79.8845 73.2767 80.2955C73.1069 80.7065 73.0197 81.1469 73.0202 81.5916V90.3812C73.0202 91.3863 70.9674 91.4522 70.8355 90.3812V74.4707H68.3984V90.4433C68.3984 94.8788 75.6396 94.8788 75.6396 90.3773V81.9447C75.6391 81.7946 75.6683 81.6458 75.7254 81.5069C75.7825 81.3681 75.8664 81.2419 75.9724 81.1355C76.0784 81.0292 76.2044 80.9448 76.343 80.8872C76.4817 80.8296 76.6304 80.8 76.7805 80.8H77.8438V78.2038H76.4041Z" fill="white"/>
<path opacity="0.2" d="M70.4743 75.7227H70.125V88.9594C70.1245 89.1892 70.172 89.4166 70.2647 89.6269L70.4743 90.0925V75.7227Z" fill="white"/>
<path opacity="0.1" d="M68.5918 75.7227V90.6048L68.7393 89.6889C68.7411 89.6683 68.7411 89.6475 68.7393 89.6269V75.7227H68.5918Z" fill="white"/>
<path opacity="0.1" d="M73.198 81.2668C73.1165 80.2927 74.3894 78.6047 75.5031 78.4844C74.9087 78.687 74.3859 79.0577 73.9981 79.5516C73.6103 80.0455 73.3741 80.6413 73.3183 81.2668V90.8596C73.3183 91.3292 72.6392 91.562 72.1309 91.5271C72.6082 91.5077 73.2019 91.3369 73.2097 90.8635L73.198 81.2668Z" fill="white"/>
<path d="M67.9392 75.7245H71.5909C71.6399 75.7246 71.6882 75.7126 71.7315 75.6896C71.7749 75.6666 71.8118 75.6333 71.8392 75.5926L73.7795 72.7559H65.8359L67.6909 75.5887C67.7181 75.6299 67.7549 75.6638 67.7982 75.6874C67.8415 75.7111 67.8899 75.7238 67.9392 75.7245Z" fill="#263238"/>
<path opacity="0.1" d="M67.9392 75.7245H71.5909C71.6399 75.7246 71.6882 75.7126 71.7315 75.6896C71.7749 75.6666 71.8118 75.6333 71.8392 75.5926L73.7795 72.7559H65.8359L67.6909 75.5887C67.7181 75.6299 67.7549 75.6638 67.7982 75.6874C67.8415 75.7111 67.8899 75.7238 67.9392 75.7245Z" fill="white"/>
<path opacity="0.2" d="M72.6986 72.752L71.2899 75.7245H70.832L71.9225 72.752H72.6986Z" fill="white"/>
<path opacity="0.1" d="M66.2129 72.752L68.0601 75.7245H68.2308L66.6281 72.752H66.2129Z" fill="white"/>
<path d="M72.1738 54.4545C72.1738 54.6679 72.201 54.8425 72.2398 54.8425H72.9693C73.0043 54.8425 73.0353 54.6679 73.0353 54.4545C73.0353 54.241 73.0043 54.0664 72.9693 54.0664H72.2398C72.201 54.0664 72.1738 54.241 72.1738 54.4545Z" fill="#263238"/>
<path opacity="0.2" d="M72.1738 54.4545C72.1738 54.6679 72.201 54.8425 72.2398 54.8425H72.9693C73.0043 54.8425 73.0353 54.6679 73.0353 54.4545C73.0353 54.241 73.0043 54.0664 72.9693 54.0664H72.2398C72.201 54.0664 72.1738 54.241 72.1738 54.4545Z" fill="white"/>
<path d="M71.2031 59.8251C71.6328 60.11 72.137 60.2619 72.6525 60.2619C73.1681 60.2619 73.6722 60.11 74.1019 59.8251L73.2986 54.9355H71.8783L71.2031 59.8251Z" fill="#263238"/>
<path opacity="0.7" d="M71.2031 59.8251C71.6328 60.11 72.137 60.2619 72.6525 60.2619C73.1681 60.2619 73.6722 60.11 74.1019 59.8251L73.2986 54.9355H71.8783L71.2031 59.8251Z" fill="white"/>
<path d="M70.1094 54.64C70.1094 54.7429 70.1503 54.8416 70.223 54.9144C70.2958 54.9872 70.3945 55.0281 70.4974 55.0281H74.8127C74.9156 55.0281 75.0143 54.9872 75.0871 54.9144C75.1598 54.8416 75.2007 54.7429 75.2007 54.64C75.2007 54.5371 75.1598 54.4384 75.0871 54.3656C75.0143 54.2928 74.9156 54.252 74.8127 54.252H70.4974C70.3945 54.252 70.2958 54.2928 70.223 54.3656C70.1503 54.4384 70.1094 54.5371 70.1094 54.64Z" fill="#263238"/>
<path opacity="0.4" d="M70.1094 54.64C70.1094 54.7429 70.1503 54.8416 70.223 54.9144C70.2958 54.9872 70.3945 55.0281 70.4974 55.0281H74.8127C74.9156 55.0281 75.0143 54.9872 75.0871 54.9144C75.1598 54.8416 75.2007 54.7429 75.2007 54.64C75.2007 54.5371 75.1598 54.4384 75.0871 54.3656C75.0143 54.2928 74.9156 54.252 74.8127 54.252H70.4974C70.3945 54.252 70.2958 54.2928 70.223 54.3656C70.1503 54.4384 70.1094 54.5371 70.1094 54.64Z" fill="white"/>
<path d="M70.6879 55.5677L71.7939 55.4707C71.911 55.5084 72.0096 55.5889 72.07 55.696C72.1304 55.8032 72.1482 55.9292 72.1198 56.0489C72.1198 56.4137 71.9413 56.6116 71.6542 56.5961L71.0022 56.5223C70.834 56.4978 70.663 56.5408 70.5264 56.6418C70.3897 56.7429 70.2985 56.8938 70.2727 57.0618V57.1898L69.5586 57.1588C69.5439 56.9175 69.5569 56.6753 69.5974 56.437C69.6736 56.2009 69.8176 55.9925 70.0116 55.8379C70.2055 55.6833 70.4408 55.5893 70.6879 55.5677Z" fill="#263238"/>
<g opacity="0.4">
<path d="M70.6879 55.5677L71.7939 55.4707C71.911 55.5084 72.0096 55.5889 72.07 55.696C72.1304 55.8032 72.1482 55.9292 72.1198 56.0489C72.1198 56.4137 71.9413 56.6116 71.6542 56.5961L71.0022 56.5223C70.834 56.4978 70.663 56.5408 70.5264 56.6418C70.3897 56.7429 70.2985 56.8938 70.2727 57.0618V57.1898L69.5586 57.1588C69.5439 56.9175 69.5569 56.6753 69.5974 56.437C69.6736 56.2009 69.8176 55.9925 70.0116 55.8379C70.2055 55.6833 70.4408 55.5893 70.6879 55.5677Z" fill="white"/>
</g>
<path d="M51.847 59.6582H76.5276C76.8748 59.6582 77.2078 59.7959 77.4537 60.041C77.6996 60.2861 77.8382 60.6188 77.8393 60.966V71.8588C77.838 72.0366 77.7705 72.2075 77.6499 72.3381C77.5293 72.4687 77.3644 72.5496 77.1873 72.5651C61.2225 73.8457 53.9037 72.4176 50.8574 62.4755V60.6361C50.8605 60.3757 50.9661 60.127 51.1513 59.9439C51.3366 59.7608 51.5865 59.6582 51.847 59.6582Z" fill="#151F6D"/>
<path opacity="0.2" d="M51.847 59.6582H76.5276C76.8748 59.6582 77.2078 59.7959 77.4537 60.041C77.6996 60.2861 77.8382 60.6188 77.8393 60.966V71.8588C77.838 72.0366 77.7705 72.2075 77.6499 72.3381C77.5293 72.4687 77.3644 72.5496 77.1873 72.5651C61.2225 73.8457 53.9037 72.4176 50.8574 62.4755V60.6361C50.8605 60.3757 50.9661 60.127 51.1513 59.9439C51.3366 59.7608 51.5865 59.6582 51.847 59.6582Z" fill="white"/>
<path opacity="0.2" d="M51.847 59.6582H76.5276C76.8748 59.6582 77.2078 59.7959 77.4537 60.041C77.6996 60.2861 77.8382 60.6188 77.8393 60.966V62.394L50.8574 62.4872V60.6478C50.8574 60.3853 50.9617 60.1336 51.1472 59.948C51.3328 59.7625 51.5845 59.6582 51.847 59.6582Z" fill="black"/>
<path opacity="0.1" d="M54.1165 59.6582H76.527C76.8742 59.6582 77.2072 59.7959 77.4531 60.041C77.699 60.2861 77.8376 60.6188 77.8386 60.966V62.394L53.127 62.4872V60.6478C53.127 60.3853 53.2312 60.1336 53.4168 59.948C53.6024 59.7625 53.8541 59.6582 54.1165 59.6582Z" fill="white"/>
<path opacity="0.1" d="M77.8386 62.3945V71.8593C77.8374 72.0371 77.7699 72.208 77.6493 72.3386C77.5287 72.4692 77.3638 72.5501 77.1867 72.5656C61.2219 73.8462 56.1849 72.4181 53.127 62.476L77.8386 62.3945Z" fill="white"/>
<path d="M25.2909 23.8705C26.0654 25.9421 26.9999 29.0047 25.737 30.6838C27.9579 31.5083 30.0203 32.7089 31.8339 34.2331C31.8974 34.2857 31.9707 34.3252 32.0496 34.3494C32.1285 34.3735 32.2113 34.3818 32.2934 34.3739C32.3755 34.3659 32.4553 34.3418 32.528 34.3029C32.6008 34.264 32.6651 34.2111 32.7173 34.1473C32.7639 34.0917 32.8001 34.0283 32.8244 33.96C33.9858 30.6772 32.4083 29.5849 32.4083 29.5849C30.9632 29.6008 30.8509 28.3231 30.983 26.5904L25.2909 23.8705Z" fill="#7A5332"/>
<path opacity="0.2" d="M26.9943 25.2205L30.0144 26.1216L30.9922 26.5857C30.8786 27.3171 30.9194 28.0642 31.1119 28.779C29.249 28.6735 26.7145 26.7965 26.9943 25.2205Z" fill="black"/>
<path d="M24.2241 18.8448C24.455 22.4796 24.4753 24.0364 26.3092 25.8687C29.0755 28.669 33.4865 27.5926 34.3432 23.9656C35.1042 20.7028 34.6356 15.3042 31.0562 13.8675C30.2713 13.5473 29.4176 13.4332 28.5762 13.5362C27.7348 13.6392 26.9338 13.9558 26.2493 14.4558C25.5649 14.9559 25.0198 15.6228 24.6659 16.393C24.312 17.1633 24.1611 18.0113 24.2275 18.8563L24.2241 18.8448Z" fill="#7A5332"/>
<path d="M31.5207 23.9924C31.6731 23.975 31.8235 23.9437 31.9702 23.899C31.9815 23.8967 31.9921 23.8922 32.0015 23.8858C32.011 23.8793 32.019 23.8709 32.0251 23.8613C32.0312 23.8516 32.0353 23.8408 32.037 23.8295C32.0388 23.8181 32.0383 23.8066 32.0355 23.7955C32.0284 23.7721 32.0123 23.7524 31.9908 23.7408C31.9692 23.7292 31.9439 23.7267 31.9205 23.7337C31.5519 23.8446 31.1624 23.8673 30.7834 23.8002C30.4044 23.7331 30.0464 23.5779 29.7383 23.3472C29.72 23.3321 29.6966 23.3246 29.6729 23.3262C29.6492 23.3279 29.6271 23.3386 29.6111 23.3562C29.5959 23.3745 29.5884 23.3979 29.5901 23.4216C29.5918 23.4453 29.6025 23.4674 29.6201 23.4834C29.8866 23.6912 30.1922 23.8433 30.5187 23.9307C30.8452 24.0182 31.1859 24.0391 31.5207 23.9924Z" fill="#263238"/>
<path opacity="0.2" d="M29.0753 19.8256C28.5636 19.9443 28.0286 19.9149 27.533 19.741C28.0485 19.6949 28.568 19.7234 29.0753 19.8256Z" fill="black"/>
<path opacity="0.2" d="M29.7793 22.2871C29.5548 22.669 28.9352 22.9351 28.82 23.9168C29.075 23.3379 29.3969 22.791 29.7793 22.2871Z" fill="black"/>
<path opacity="0.2" d="M29.1068 19.5536C28.6497 19.5984 28.191 19.485 27.8075 19.2323C28.2561 19.2618 28.6961 19.3705 29.1068 19.5536Z" fill="black"/>
<path d="M30.02 19.789C30.0215 20.0861 30.1808 20.3231 30.3737 20.3236C30.5667 20.3242 30.7209 20.085 30.723 19.7995C30.725 19.5139 30.5634 19.2693 30.3731 19.2637C30.1829 19.2581 30.0336 19.5 30.02 19.789Z" fill="#263238"/>
<path d="M33.3678 19.7928C33.3642 20.0872 33.5297 20.3307 33.7177 20.3286C33.9056 20.3265 34.0649 20.09 34.0707 19.8033C34.0766 19.5165 33.91 19.2692 33.7209 19.2674C33.5318 19.2657 33.3817 19.4911 33.3678 19.7928Z" fill="#263238"/>
<path d="M33.625 19.2507L34.3281 19.0391C34.3281 19.0391 33.9701 19.6036 33.625 19.2507Z" fill="#263238"/>
<path d="M32.3434 20.349C32.6068 21.0232 32.9615 21.658 33.3974 22.2358C33.2466 22.3435 33.0743 22.4172 32.8922 22.4517C32.7102 22.4863 32.5228 22.4809 32.343 22.4359L32.3434 20.349Z" fill="#463221"/>
<path d="M23.2833 21.74C23.4131 22.0639 23.6055 22.359 23.8496 22.6084C24.0936 22.8578 24.3845 23.0566 24.7055 23.1934C25.5618 23.56 26.1168 22.8146 25.9684 21.9458C25.837 21.1473 25.244 20.0268 24.3363 20.0318C24.1377 20.0384 23.9438 20.094 23.7719 20.1937C23.6 20.2934 23.4555 20.4341 23.3512 20.6033C23.247 20.7724 23.1862 20.9648 23.1743 21.1631C23.1625 21.3615 23.1999 21.5597 23.2833 21.74Z" fill="#7A5332"/>
<path d="M29.1881 17.8548C29.2229 17.8665 29.2604 17.8672 29.2955 17.8566C29.3306 17.846 29.3616 17.8248 29.3841 17.7958C29.9331 17.2115 30.9555 17.3228 30.9632 17.3204C31.0085 17.3268 31.0544 17.3149 31.0909 17.2874C31.1274 17.2599 31.1515 17.2191 31.1579 17.1738C31.1643 17.128 31.1523 17.0815 31.1247 17.0443C31.097 17.0072 31.0559 16.9824 31.0102 16.9753C30.9641 16.9892 29.7921 16.8265 29.1237 17.5432C29.1083 17.5599 29.0964 17.5794 29.0886 17.6008C29.0809 17.6221 29.0774 17.6447 29.0783 17.6674C29.0793 17.6901 29.0848 17.7123 29.0944 17.7329C29.104 17.7534 29.1175 17.7719 29.1343 17.7872C29.1471 17.8134 29.1655 17.8364 29.1881 17.8548Z" fill="#263238"/>
<path opacity="0.8" d="M29.1881 17.8548C29.2229 17.8665 29.2604 17.8672 29.2955 17.8566C29.3306 17.846 29.3616 17.8248 29.3841 17.7958C29.9331 17.2115 30.9555 17.3228 30.9632 17.3204C31.0085 17.3268 31.0544 17.3149 31.0909 17.2874C31.1274 17.2599 31.1515 17.2191 31.1579 17.1738C31.1643 17.128 31.1523 17.0815 31.1247 17.0443C31.097 17.0072 31.0559 16.9824 31.0102 16.9753C30.9641 16.9892 29.7921 16.8265 29.1237 17.5432C29.1083 17.5599 29.0964 17.5794 29.0886 17.6008C29.0809 17.6221 29.0774 17.6447 29.0783 17.6674C29.0793 17.6901 29.0848 17.7123 29.0944 17.7329C29.104 17.7534 29.1175 17.7719 29.1343 17.7872C29.1471 17.8134 29.1655 17.8364 29.1881 17.8548Z" fill="white"/>
<path d="M32.9556 17.4194C32.9224 17.4014 32.8961 17.3731 32.8806 17.3388C32.865 17.3044 32.8612 17.2659 32.8696 17.2292C32.878 17.1924 32.8983 17.1594 32.9272 17.1353C32.9561 17.1111 32.9922 17.0971 33.0298 17.0953C33.3031 17.0774 33.5766 17.1247 33.828 17.2334C34.0793 17.3421 34.3011 17.509 34.4751 17.7204C34.4891 17.7387 34.4992 17.7597 34.5048 17.782C34.5104 17.8044 34.5113 17.8277 34.5076 17.8504C34.5038 17.8731 34.4954 17.8948 34.483 17.9142C34.4705 17.9336 34.4541 17.9502 34.435 17.963C34.4168 17.9765 34.3961 17.9862 34.3741 17.9917C34.3521 17.9971 34.3292 17.9982 34.3068 17.9949C34.2844 17.9915 34.2628 17.9837 34.2434 17.972C34.224 17.9603 34.2071 17.9449 34.1936 17.9267C34.052 17.7589 33.8725 17.6272 33.6699 17.5424C33.4674 17.4577 33.2476 17.4223 33.0286 17.4393C33.0032 17.4377 32.9783 17.4309 32.9556 17.4194Z" fill="#263238"/>
<path opacity="0.8" d="M32.9556 17.4194C32.9224 17.4014 32.8961 17.3731 32.8806 17.3388C32.865 17.3044 32.8612 17.2659 32.8696 17.2292C32.878 17.1924 32.8983 17.1594 32.9272 17.1353C32.9561 17.1111 32.9922 17.0971 33.0298 17.0953C33.3031 17.0774 33.5766 17.1247 33.828 17.2334C34.0793 17.3421 34.3011 17.509 34.4751 17.7204C34.4891 17.7387 34.4992 17.7597 34.5048 17.782C34.5104 17.8044 34.5113 17.8277 34.5076 17.8504C34.5038 17.8731 34.4954 17.8948 34.483 17.9142C34.4705 17.9336 34.4541 17.9502 34.435 17.963C34.4168 17.9765 34.3961 17.9862 34.3741 17.9917C34.3521 17.9971 34.3292 17.9982 34.3068 17.9949C34.2844 17.9915 34.2628 17.9837 34.2434 17.972C34.224 17.9603 34.2071 17.9449 34.1936 17.9267C34.052 17.7589 33.8725 17.6272 33.6699 17.5424C33.4674 17.4577 33.2476 17.4223 33.0286 17.4393C33.0032 17.4377 32.9783 17.4309 32.9556 17.4194Z" fill="white"/>
<path d="M30.3066 19.3562L31.0098 19.1445C31.0098 19.1445 30.6594 19.7067 30.3066 19.3562Z" fill="#263238"/>
<path d="M18.8549 20.459C18.4126 20.093 18.062 19.6286 17.831 19.103C17.6 18.5774 17.4951 18.0051 17.5246 17.4317C17.6968 15.8043 19.1808 14.6788 20.5343 13.7601L22.3967 12.4997C22.8487 12.1918 23.385 11.8711 23.9336 12.037C24.4821 12.2029 24.7791 12.8971 24.6959 13.4837C24.5655 14.0669 24.3234 14.6193 23.983 15.1105C23.1634 16.6435 22.5889 18.2953 22.2804 20.0061C21.7744 22.153 20.2201 21.6948 18.8549 20.459Z" fill="#263238"/>
<path opacity="0.9" d="M18.8549 20.459C18.4126 20.093 18.062 19.6286 17.831 19.103C17.6 18.5774 17.4951 18.0051 17.5246 17.4317C17.6968 15.8043 19.1808 14.6788 20.5343 13.7601L22.3967 12.4997C22.8487 12.1918 23.385 11.8711 23.9336 12.037C24.4821 12.2029 24.7791 12.8971 24.6959 13.4837C24.5655 14.0669 24.3234 14.6193 23.983 15.1105C23.1634 16.6435 22.5889 18.2953 22.2804 20.0061C21.7744 22.153 20.2201 21.6948 18.8549 20.459Z" fill="white"/>
<path d="M23.8728 25.101C24.4761 25.3795 25.1546 25.4507 25.8027 25.3036C25.2861 24.6905 24.9142 23.9689 24.7146 23.1924C24.3936 23.056 24.1029 22.8572 23.8594 22.6075C23.6159 22.3578 23.4245 22.0622 23.2962 21.7379C23.2249 21.5874 23.1856 21.4237 23.1808 21.2572C23.1764 21.0085 23.2491 20.7645 23.3891 20.5587C23.529 20.353 23.7292 20.1957 23.9622 20.1085C24.0713 20.0646 24.1871 20.0396 24.3046 20.0348L24.343 20.0232C25.1086 20.019 25.6524 20.8233 25.8825 21.546C26.4203 20.8268 26.4035 19.713 26.687 18.7896C26.9774 17.9154 27.5664 17.1713 28.3507 16.6881C28.668 16.4803 29.0118 16.3162 29.3729 16.2002C30.6285 15.8354 31.9718 15.9183 33.173 16.4349C33.3751 16.5231 33.5817 16.6008 33.792 16.6676C33.907 16.6997 34.0252 16.7189 34.1444 16.7249C34.3139 16.7386 34.4834 16.6981 34.6283 16.6092C34.7733 16.5204 34.8863 16.3878 34.9511 16.2306C34.9678 16.0622 34.9446 15.8922 34.8833 15.7345C34.822 15.5767 34.7243 15.4357 34.5982 15.3228C33.0445 13.5561 30.9018 12.4141 28.5689 12.1094C28.2629 12.0674 27.9577 12.0419 27.6522 12.0292C27.4493 12.0232 27.2563 12.0226 27.0796 12.0339L27.0296 12.049L26.7571 12.0765L26.5773 12.1055C24.1337 12.4933 21.5904 14.2478 21.094 16.4966C20.4434 19.3743 21.1307 23.9821 23.8728 25.101Z" fill="#263238"/>
<path opacity="0.8" d="M23.8728 25.101C24.4761 25.3795 25.1546 25.4507 25.8027 25.3036C25.2861 24.6905 24.9142 23.9689 24.7146 23.1924C24.3936 23.056 24.1029 22.8572 23.8594 22.6075C23.6159 22.3578 23.4245 22.0622 23.2962 21.7379C23.2249 21.5874 23.1856 21.4237 23.1808 21.2572C23.1764 21.0085 23.2491 20.7645 23.3891 20.5587C23.529 20.353 23.7292 20.1957 23.9622 20.1085C24.0713 20.0646 24.1871 20.0396 24.3046 20.0348L24.343 20.0232C25.1086 20.019 25.6524 20.8233 25.8825 21.546C26.4203 20.8268 26.4035 19.713 26.687 18.7896C26.9774 17.9154 27.5664 17.1713 28.3507 16.6881C28.668 16.4803 29.0118 16.3162 29.3729 16.2002C30.6285 15.8354 31.9718 15.9183 33.173 16.4349C33.3751 16.5231 33.5817 16.6008 33.792 16.6676C33.907 16.6997 34.0252 16.7189 34.1444 16.7249C34.3139 16.7386 34.4834 16.6981 34.6283 16.6092C34.7733 16.5204 34.8863 16.3878 34.9511 16.2306C34.9678 16.0622 34.9446 15.8922 34.8833 15.7345C34.822 15.5767 34.7243 15.4357 34.5982 15.3228C33.0445 13.5561 30.9018 12.4141 28.5689 12.1094C28.2629 12.0674 27.9577 12.0419 27.6522 12.0292C27.4493 12.0232 27.2563 12.0226 27.0796 12.0339L27.0296 12.049L26.7571 12.0765L26.5773 12.1055C24.1337 12.4933 21.5904 14.2478 21.094 16.4966C20.4434 19.3743 21.1307 23.9821 23.8728 25.101Z" fill="white"/>
<path d="M33.8178 18.8661C33.9794 18.7918 34.1596 18.768 34.335 18.7979C34.5103 18.8278 34.6725 18.91 34.8004 19.0337C34.9282 19.1574 35.0157 19.3168 35.0513 19.491C35.087 19.6653 35.0692 19.8463 35.0003 20.0102C34.9082 20.2496 34.7846 20.4757 34.6327 20.6824C34.4837 20.9818 34.2231 21.2107 33.9069 21.3199C33.7864 21.3337 33.6642 21.3214 33.5488 21.2838C33.4334 21.2463 33.3274 21.1843 33.238 21.1022C33.0574 20.9437 32.9015 20.759 32.7755 20.5542C32.6716 20.4226 32.5926 20.2732 32.5422 20.1132C32.4164 19.5561 33.3759 18.9991 33.8178 18.8661Z" stroke="#263238" stroke-width="0.5" stroke-linecap="round" stroke-linejoin="round"/>
<path d="M29.9469 18.7442C29.4119 18.6371 28.789 18.7953 28.6269 19.2171C28.5895 19.3448 28.5812 19.4792 28.6026 19.6106C28.624 19.7419 28.6746 19.8668 28.7506 19.976C28.9101 20.2224 29.1016 20.4466 29.32 20.6426C29.5728 20.9493 29.9217 21.1617 30.3102 21.2455C30.4473 21.2619 30.5863 21.2498 30.7186 21.21C30.8508 21.1702 30.9734 21.1035 31.0786 21.0142C31.2569 20.8465 31.4045 20.6489 31.5147 20.4303C31.6106 20.2871 31.6747 20.1249 31.7025 19.9548C31.7443 19.3555 30.4947 18.8517 29.9469 18.7442Z" stroke="#263238" stroke-width="0.5" stroke-linecap="round" stroke-linejoin="round"/>
<path d="M32.6127 20.2096C32.6315 20.2076 32.6497 20.2021 32.6665 20.1934C32.6828 20.1724 32.6905 20.1459 32.688 20.1194C32.6855 20.0929 32.6729 20.0683 32.6529 20.0508C32.5702 19.9869 32.4755 19.9404 32.3744 19.9139C32.2734 19.8874 32.168 19.8815 32.0646 19.8966C31.9613 19.9117 31.862 19.9474 31.7727 20.0017C31.6834 20.056 31.606 20.1277 31.545 20.2125C31.5328 20.2357 31.5302 20.2628 31.5378 20.288C31.5454 20.3131 31.5625 20.3343 31.5855 20.347C31.5969 20.3536 31.6095 20.3577 31.6226 20.3593C31.6357 20.3608 31.6489 20.3596 31.6615 20.3558C31.6741 20.352 31.6858 20.3457 31.6958 20.3372C31.7059 20.3287 31.7141 20.3183 31.72 20.3065C31.7651 20.2454 31.8221 20.1941 31.8876 20.1556C31.9531 20.1172 32.0257 20.0924 32.101 20.0828C32.1765 20.0698 32.2539 20.0727 32.3281 20.0915C32.4023 20.1103 32.4718 20.1445 32.5319 20.1919C32.5435 20.2002 32.5566 20.2061 32.5705 20.2091C32.5844 20.2121 32.5987 20.2123 32.6127 20.2096Z" fill="#263238"/>
<path d="M36.2714 26.4694C36.287 26.4633 36.3008 26.4534 36.3116 26.4407C36.3224 26.4279 36.3298 26.4126 36.3332 26.3963C36.4068 25.9562 36.3354 25.5042 36.1298 25.1082L36.0847 24.9584C35.9421 24.5822 35.8106 24.0478 36.1085 23.715C36.2442 23.5755 36.4096 23.4684 36.5925 23.4017C36.7637 23.3295 36.9238 23.2334 37.068 23.1161C37.6037 22.6406 37.4894 21.7321 37.0861 21.158C36.9198 20.9218 36.7385 20.6964 36.5436 20.4832C36.2873 20.2181 36.0656 19.9216 35.884 19.6006C35.6192 18.9569 35.5071 18.2606 35.5566 17.5663C35.5564 17.3988 35.5513 17.2285 35.5473 17.0621C35.5157 16.2335 35.3087 15.1561 34.4816 14.6634C34.322 14.593 34.1482 14.5605 33.974 14.5686C33.7997 14.5767 33.6297 14.6251 33.4774 14.7101C33.2139 14.8431 32.9893 15.042 32.8253 15.2874C32.6613 15.5328 32.5635 15.8164 32.5413 16.1107C32.5381 16.1384 32.5457 16.1663 32.5626 16.1885C32.5794 16.2108 32.6042 16.2257 32.6317 16.2301C32.6601 16.2333 32.6886 16.2257 32.7115 16.2087C32.7344 16.1917 32.7499 16.1666 32.755 16.1385C32.7721 15.8792 32.8565 15.6289 33 15.4122C33.1436 15.1956 33.3411 15.0201 33.5732 14.9033C33.6931 14.8326 33.8278 14.7906 33.9666 14.7808C34.1055 14.771 34.2447 14.7936 34.3734 14.8468C35.1182 15.2888 35.3044 16.2971 35.3324 17.0723C35.3403 17.2376 35.3404 17.4051 35.3456 17.5754C35.2654 18.1279 35.3171 18.6915 35.4967 19.2201C35.6762 19.7488 35.9784 20.2274 36.3785 20.6167C36.5727 20.8293 36.7515 21.0556 36.9133 21.2938C37.2547 21.8154 37.3757 22.5793 36.9264 22.966C36.7966 23.0671 36.6542 23.1508 36.5027 23.215C36.2939 23.2976 36.1047 23.4231 35.9473 23.5834C35.6686 23.9103 35.6491 24.4023 35.8869 25.0389L35.9331 25.1926C36.1166 25.5483 36.1854 25.952 36.1302 26.3484C36.1226 26.3758 36.126 26.4051 36.1398 26.4299C36.1535 26.4548 36.1765 26.4732 36.2037 26.4813C36.2269 26.4825 36.25 26.4784 36.2714 26.4694Z" fill="#263238"/>
<g opacity="0.9">
<path opacity="0.7" d="M36.2733 26.4674C36.2889 26.4613 36.3027 26.4515 36.3135 26.4387C36.3243 26.4259 36.3317 26.4107 36.3351 26.3943C36.4087 25.9543 36.3374 25.5022 36.1318 25.1063L36.0867 24.9564C35.9441 24.5803 35.8125 24.0458 36.1105 23.7131C36.2461 23.5735 36.4116 23.4664 36.5944 23.3998C36.7657 23.3276 36.9258 23.2314 37.0699 23.1142C37.6056 22.6386 37.4914 21.7302 37.0881 21.156C36.9217 20.9198 36.7405 20.6945 36.5455 20.4813C36.2892 20.2162 36.0676 19.9196 35.886 19.5987C35.6212 18.955 35.5091 18.2587 35.5585 17.5644C35.5584 17.3968 35.5532 17.2266 35.5492 17.0602C35.5177 16.2316 35.3107 15.1541 34.4835 14.6614C34.3239 14.591 34.1502 14.5586 33.9759 14.5667C33.8017 14.5748 33.6317 14.6232 33.4793 14.7081C33.2159 14.8412 32.9913 15.04 32.8273 15.2854C32.6633 15.5308 32.5654 15.8144 32.5433 16.1087C32.54 16.1364 32.5477 16.1643 32.5645 16.1866C32.5814 16.2088 32.6061 16.2237 32.6337 16.2282C32.662 16.2314 32.6905 16.2237 32.7134 16.2067C32.7363 16.1897 32.7519 16.1646 32.757 16.1366C32.774 15.8773 32.8585 15.6269 33.002 15.4103C33.1455 15.1936 33.3431 15.0182 33.5752 14.9013C33.6951 14.8306 33.8298 14.7887 33.9686 14.7789C34.1075 14.7691 34.2467 14.7917 34.3753 14.8449C35.1202 15.2869 35.3064 16.2952 35.3344 17.0704C35.3422 17.2356 35.3424 17.4032 35.3475 17.5734C35.2673 18.1259 35.3191 18.6895 35.4986 19.2182C35.6781 19.7468 35.9803 20.2254 36.3804 20.6148C36.5747 20.8274 36.7534 21.0536 36.9153 21.2918C37.2567 21.8134 37.3777 22.5774 36.9284 22.964C36.7986 23.0651 36.6561 23.1488 36.5047 23.2131C36.2958 23.2957 36.1066 23.4211 35.9493 23.5814C35.6706 23.9084 35.6511 24.4003 35.8888 25.0369L35.9351 25.1906C36.1185 25.5463 36.1874 25.9501 36.1322 26.3465C36.1245 26.3738 36.128 26.4031 36.1417 26.428C36.1555 26.4528 36.1785 26.4713 36.2057 26.4794C36.2289 26.4806 36.252 26.4765 36.2733 26.4674Z" fill="white"/>
</g>
<path d="M36.0273 30.3349L39.0287 37.4851C44.0002 37.4129 48.2895 35.4107 52.0131 31.7914C52.4143 31.3901 52.3301 30.8043 52.0131 30.3188C50.5164 28.0116 49.2685 26.5511 39.9756 24.0312L39.2333 25.4958C41.7532 26.7397 43.8998 28.144 45.4767 29.7852C42.4505 30.8984 39.1622 31.0897 36.0273 30.3349Z" fill="#7A5332"/>
<path opacity="0.2" d="M45.4712 29.7832C45.8387 30.2381 46.2794 30.6287 46.7752 30.9388C45.6806 30.5847 44.539 30.3967 43.3887 30.3811C44.094 30.223 44.7894 30.0234 45.4712 29.7832Z" fill="black"/>
<path d="M22.944 61.1953H39.684C41.289 69.8864 46.2605 100.646 42.6854 128.055L37.0157 127.349C37.0157 127.349 37.5414 90.968 32.5378 77.5141C31.964 84.7165 31.2779 92.3603 30.684 96.449C29.2275 106.48 26.1098 128.404 26.1098 128.404H20.3398C20.3398 128.404 21.5195 107.419 22.0652 97.5605C22.6631 86.8592 22.9199 63.3942 22.944 61.1953Z" fill="#151F6D"/>
<path opacity="0.6" d="M20.3398 128.407H26.1098C26.1098 128.407 29.2275 106.483 30.684 96.4515C31.2779 92.3789 31.96 84.719 32.5378 77.5206C33.3616 79.8785 33.9871 82.3011 34.4076 84.7631C37.3969 100.897 37.0157 127.356 37.0157 127.356L42.6854 128.058C46.2605 100.649 41.277 69.8247 39.684 61.3984H22.944C22.9199 63.4047 22.6631 86.962 22.0652 97.6633C21.5195 107.522 20.3398 128.407 20.3398 128.407Z" fill="white"/>
<path opacity="0.3" d="M21.6758 128.407C24.2103 106.167 25.0701 83.7675 24.2478 61.3984H24.8777C25.9477 84.4381 25.1225 106.774 22.402 128.407H21.6758Z" fill="white"/>
<path opacity="0.2" d="M32.541 77.521C33.3648 79.879 33.9903 82.3016 34.4108 84.7636C34.8763 78.3436 33.0065 71.5625 33.0065 71.5625L32.541 77.521Z" fill="black"/>
<path d="M31.7811 24.3518C31.413 24.3449 31.0519 24.2495 30.7285 24.0734C30.4051 23.8974 30.1289 23.6461 29.9233 23.3407C29.9139 23.3223 29.9116 23.3011 29.9168 23.2812C29.9219 23.2612 29.9343 23.2438 29.9514 23.2323C29.9691 23.2216 29.9902 23.2181 30.0104 23.2226C30.0306 23.2271 30.0482 23.2392 30.0597 23.2564C30.2561 23.535 30.5146 23.7641 30.8147 23.9257C31.1148 24.0872 31.4484 24.1768 31.7891 24.1873C31.8097 24.1873 31.8295 24.1952 31.8445 24.2094C31.8594 24.2236 31.8683 24.243 31.8694 24.2635C31.8694 24.2831 31.8619 24.3019 31.8485 24.3161C31.835 24.3303 31.8167 24.3387 31.7971 24.3398L31.7811 24.3518Z" fill="#2E353A"/>
<path d="M20.3125 31.8107C21.2488 35.1757 21.9289 38.6068 22.3468 42.0746C22.4792 43.15 22.5876 44.2052 22.6759 45.2284C22.7922 46.5285 22.8725 47.7804 22.9367 48.9681C23.0169 50.4727 23.041 52.2503 23.037 53.9997C23.037 58.0122 22.8685 61.8843 22.8685 61.8843C26.0785 62.6868 35.3553 62.1531 40.4231 61.7839C41.0201 56.9382 41.1759 52.0484 40.8885 47.1745C40.7198 43.956 40.3648 40.75 39.8252 37.5726C39.553 35.8761 39.1751 34.1983 38.6937 32.549C38.5074 31.9643 38.1574 31.4454 37.6852 31.0535C37.213 30.6617 36.6384 30.4134 36.0294 30.3381C35.4155 30.2619 34.7053 30.1856 33.959 30.1415C33.6701 30.1415 33.3812 30.1134 33.0883 30.1094C30.6946 30.1366 28.3044 30.3028 25.93 30.6069C25.4806 30.6591 25.0232 30.7273 24.5818 30.7995C23.1353 31.029 21.7082 31.367 20.3125 31.8107Z" fill="#7A5332"/>
<path d="M20.3125 31.8119C21.2488 35.177 21.9289 38.6081 22.3468 42.0759C22.4792 43.1512 22.5876 44.2065 22.6759 45.2297C22.7922 46.5297 22.8725 47.7816 22.9367 48.9693C23.0169 50.474 23.041 52.2515 23.037 54.001C23.037 58.0135 22.8685 61.8855 22.8685 61.8855C26.0785 62.688 35.3553 62.1543 40.4231 61.7852C41.0201 56.9395 41.1759 52.0496 40.8885 47.1757C40.7198 43.9573 40.3648 40.7513 39.8252 37.5739C39.553 35.8774 39.1751 34.1996 38.6937 32.5502C38.5074 31.9656 38.1574 31.4466 37.6852 31.0548C37.213 30.663 36.6384 30.4147 36.0294 30.3393C35.4155 30.2631 34.7053 30.1869 33.959 30.1427C33.6701 30.1427 33.0923 29.8177 33.0883 30.1106C33.0883 36.7714 30.1993 35.5716 25.93 30.6082C25.6371 30.2631 25.0232 30.7286 24.5818 30.8008C23.1353 31.0303 21.7082 31.3683 20.3125 31.8119Z" fill="#151F6D"/>
<path opacity="0.2" d="M22.3472 42.0761C24.9473 42.5656 28.9277 42.6217 33.1809 42.5937L21.9219 38.9824L22.3472 42.0761Z" fill="black"/>
<path d="M34.2614 23.6598C34.2633 23.6329 34.2561 23.6062 34.2409 23.5841C34.2218 23.5569 34.1927 23.5385 34.16 23.5328C34.1273 23.5271 34.0937 23.5347 34.0666 23.5538L34.0538 23.5628C34.0302 23.5358 33.9988 23.5169 33.9639 23.5086C33.9818 23.4936 33.9951 23.4738 34.0024 23.4516C34.0096 23.4293 34.0105 23.4055 34.0048 23.3827C33.9992 23.36 33.9873 23.3394 33.9705 23.3231C33.9537 23.3068 33.9326 23.2955 33.9098 23.2906C33.8869 23.2857 33.8631 23.2873 33.8411 23.2952C33.819 23.3031 33.7997 23.3171 33.7852 23.3355C33.7707 23.3538 33.7617 23.3759 33.7591 23.3992C33.7566 23.4224 33.7606 23.446 33.7707 23.4671C33.7562 23.4601 33.7411 23.4543 33.7257 23.4496C33.7199 23.4274 33.7106 23.4063 33.6981 23.3871C33.6792 23.359 33.6532 23.3363 33.6228 23.3214C33.5924 23.3066 33.5585 23.3 33.5247 23.3025C33.491 23.3049 33.4584 23.3162 33.4304 23.3353C33.4024 23.3543 33.3799 23.3805 33.3653 23.411C33.2741 23.4036 33.1832 23.428 33.1081 23.4801C33.0427 23.5263 32.9932 23.5916 32.9665 23.6671C32.9195 23.6668 32.8728 23.6755 32.829 23.6929C32.8518 23.6451 32.8645 23.5931 32.8663 23.5401C32.868 23.4872 32.8588 23.4345 32.8392 23.3853C32.8703 23.3375 32.8911 23.2838 32.9003 23.2276C32.9315 23.2059 32.9545 23.1743 32.9656 23.1379C32.9996 23.1387 33.0332 23.1299 33.0625 23.1127C33.0918 23.0954 33.1158 23.0703 33.1316 23.0402C33.1633 23.0756 33.2068 23.0983 33.2539 23.1038C33.3011 23.1093 33.3487 23.0974 33.3877 23.0703C33.4304 23.039 33.4593 22.9922 33.468 22.94C33.4876 22.941 33.5071 22.9373 33.525 22.9294C33.543 22.9215 33.5588 22.9094 33.5712 22.8942C33.5836 22.8791 33.5922 22.8612 33.5965 22.8421C33.6007 22.8229 33.6004 22.8031 33.5955 22.7841C33.5907 22.7651 33.5814 22.7475 33.5685 22.7328C33.5557 22.718 33.5395 22.7065 33.5213 22.6991C33.5032 22.6918 33.4835 22.6888 33.464 22.6904C33.4445 22.692 33.4256 22.6982 33.4089 22.7085C33.3956 22.7153 33.3833 22.7239 33.3724 22.7342C33.3453 22.7162 33.3141 22.7053 33.2817 22.7024C33.2754 22.6764 33.2645 22.6517 33.2495 22.6295C33.2349 22.6081 33.2161 22.5899 33.1943 22.576C33.1725 22.562 33.1481 22.5525 33.1226 22.548C33.0971 22.5436 33.071 22.5443 33.0457 22.5501C33.0205 22.5559 32.9967 22.5667 32.9757 22.5819C32.9479 22.6018 32.9265 22.6292 32.9138 22.6609C32.8977 22.6598 32.8816 22.6602 32.8655 22.6621C32.8329 22.6407 32.7947 22.6296 32.7557 22.6303C32.7167 22.6309 32.6788 22.6433 32.6469 22.6658C32.6108 22.6928 32.5849 22.7312 32.5735 22.7748C32.521 22.764 32.4669 22.7641 32.4145 22.7751C32.3621 22.7861 32.3126 22.8078 32.269 22.8389C32.2382 22.861 32.2108 22.8876 32.1879 22.9178C32.1235 22.9251 32.0618 22.948 32.0081 22.9843L31.9935 22.9946C31.9269 22.9419 31.8451 22.9122 31.7603 22.9099C31.6755 22.9076 31.5922 22.9328 31.5228 22.9817C31.4698 23.0192 31.4273 23.0698 31.3995 23.1286L31.3504 23.1441C31.3504 23.1441 31.3401 23.1295 31.3362 23.124C31.3007 23.075 31.2545 23.0346 31.2012 23.006C31.1917 22.9462 31.1694 22.8893 31.1357 22.8391C31.063 22.7277 30.9514 22.6475 30.8227 22.614C30.694 22.5806 30.5575 22.5964 30.4399 22.6584C30.3222 22.7204 30.2319 22.824 30.1867 22.949C30.1414 23.0741 30.1445 23.2115 30.1952 23.3344C30.2136 23.3601 30.2348 23.3836 30.2583 23.4047C30.2974 23.6247 30.3317 23.8455 30.3612 24.0669C30.3689 24.0797 30.3775 24.0919 30.3869 24.1035C30.2882 24.1614 30.2143 24.2535 30.1791 24.3624C30.1438 24.4712 30.1498 24.5893 30.1959 24.694C30.242 24.7987 30.3249 24.8829 30.429 24.9305C30.533 24.9781 30.651 24.9858 30.7603 24.9522C30.7654 25.0213 30.7888 25.0879 30.828 25.145C30.8673 25.2022 30.9211 25.2478 30.9838 25.2773C31.0465 25.3068 31.116 25.3191 31.185 25.3129C31.2541 25.3067 31.3203 25.2823 31.3767 25.2421C31.4093 25.2823 31.4501 25.315 31.4963 25.3382C31.4765 25.3711 31.4667 25.409 31.468 25.4473C31.4693 25.4857 31.4817 25.5228 31.5036 25.5543C31.525 25.5843 31.5547 25.6076 31.589 25.6212C31.6233 25.6348 31.6608 25.6383 31.697 25.6312C31.7629 25.6851 31.8446 25.716 31.9297 25.7192C32.0148 25.7224 32.0986 25.6978 32.1684 25.649L32.2177 25.6143C32.2453 25.6226 32.2745 25.6247 32.303 25.6202C32.3316 25.6157 32.3587 25.6049 32.3825 25.5884C32.4476 25.6543 32.5339 25.6949 32.6262 25.703C32.7184 25.7111 32.8105 25.6862 32.8861 25.6327C32.9392 25.5942 32.9822 25.5434 33.0113 25.4846C33.0771 25.5291 33.1549 25.5526 33.2343 25.5518C33.3138 25.551 33.3911 25.526 33.456 25.4801C33.5132 25.439 33.5584 25.3835 33.587 25.3192C33.6157 25.2549 33.6267 25.1841 33.619 25.1141C33.6844 25.1075 33.747 25.0841 33.8007 25.0464C33.7903 24.9745 33.8 24.9011 33.8287 24.8344C33.8574 24.7676 33.9041 24.7102 33.9635 24.6684C34.0229 24.6266 34.0927 24.602 34.1652 24.5975C34.2377 24.593 34.3101 24.6086 34.3742 24.6427C34.4595 24.5827 34.5174 24.4913 34.5353 24.3886C34.5531 24.2859 34.5294 24.1803 34.4694 24.095C34.4563 24.0725 34.4413 24.0511 34.4244 24.0311C34.4401 24.01 34.4488 23.9845 34.4493 23.9582C34.4499 23.9318 34.4423 23.906 34.4275 23.8842C34.4074 23.8574 34.378 23.8392 34.3451 23.833C34.3467 23.7942 34.336 23.7558 34.3144 23.7235C34.3014 23.6987 34.2833 23.677 34.2614 23.6598ZM32.1083 24.9621C32.1163 24.9424 32.122 24.9219 32.1253 24.901L32.1083 24.9621ZM32.639 24.3154C32.639 24.3154 32.639 24.3154 32.6326 24.3063L32.6545 24.2909L32.639 24.3154Z" fill="#F0F0F0"/>
<path d="M35.9001 26.0254C36.0485 26.0022 36.2004 26.0135 36.3437 26.0587C36.4871 26.1038 36.618 26.1814 36.7264 26.2855C36.8348 26.3896 36.9177 26.5174 36.9685 26.6588C37.0194 26.8002 37.0368 26.9515 37.0196 27.1008L35.8158 30.5475H34.0182L33.5207 27.1329C33.4941 26.9406 33.5439 26.7455 33.6594 26.5895C33.7749 26.4335 33.9469 26.329 34.1386 26.2983L35.9001 26.0254Z" fill="#7A5332"/>
<path d="M33.554 24.0371L33.2852 24.5989L36.443 25.8267L36.5794 25.4254L33.554 24.0371Z" fill="#2E353A"/>
<path d="M35.8587 22.8743L39.9675 24.0219L39.2252 25.4864L35.2649 25.6951C35.1186 25.707 34.973 25.665 34.8555 25.577C34.738 25.4891 34.6567 25.3613 34.6269 25.2176C34.5185 24.6077 34.7673 23.9055 35.1966 23.1592C35.2629 23.048 35.3625 22.9605 35.4815 22.9094C35.6004 22.8582 35.7324 22.8459 35.8587 22.8743Z" fill="#7A5332"/>
<path d="M20.3083 31.8171C20.3083 31.8171 19.3212 33.9798 20.3403 37.1417C21.6605 41.2264 29.8219 42.1813 33.2967 42.5746C38.0113 43.1042 35.8285 30.5371 35.8285 30.5371H34.0309C34.0309 30.5371 33.6939 35.5367 32.6667 38.1087C31.0176 37.4225 29.4005 36.0743 24.5454 33.382C22.5633 32.2986 21.841 32.2504 20.3083 31.8171Z" fill="#7A5332"/>
<path opacity="0.2" d="M30.8887 37.1758C31.1294 37.2962 32.4937 38.0385 32.6662 38.1187C32.8111 38.369 32.9179 38.6395 32.9832 38.9212C32.7585 38.4197 31.2939 37.4125 30.8887 37.1758Z" fill="black"/>
</g>
<path d="M74.2162 16.3867H71.3828V31.7459H74.2162V16.3867Z" fill="#151F6D"/>
<path opacity="0.2" d="M74.2159 16.3867H71.9414V31.7459H74.2159V16.3867Z" fill="white"/>
</g>
<defs>
<clipPath id="clip0_65_1616">
<rect width="81" height="81" fill="white"/>
</clipPath>
</defs>
</svg>
