<svg width="86" height="87" viewBox="0 0 86 87" fill="none" xmlns="http://www.w3.org/2000/svg">
<g clip-path="url(#clip0_65_804)">
<path d="M39.7193 80.333C66.0276 80.333 87.3546 79.0819 87.3546 77.5386C87.3546 75.9953 66.0276 74.7441 39.7193 74.7441C13.411 74.7441 -7.91602 75.9953 -7.91602 77.5386C-7.91602 79.0819 13.411 80.333 39.7193 80.333Z" fill="#F5F5F5"/>
<path d="M88.8323 74.3555H80.6953V74.4172H88.8323V74.3555Z" fill="#EBEBEB"/>
<path d="M59.674 75.0273H57.5391V75.0891H59.674V75.0273Z" fill="#EBEBEB"/>
<path d="M80.449 72.0645H75.7344V72.1262H80.449V72.0645Z" fill="#EBEBEB"/>
<path d="M1.79852 72.4785H-8.8125V72.5402H1.79852V72.4785Z" fill="#EBEBEB"/>
<path d="M5.5415 72.4785H3.98633V72.5402H5.5415V72.4785Z" fill="#EBEBEB"/>
<path d="M33.6151 73.5215H10.5996V73.5832H33.6151V73.5215Z" fill="#EBEBEB"/>
<path d="M81.6657 3.31055H2.50195V69.8022H81.6657V3.31055Z" fill="#F0F0F0"/>
<path d="M78.0341 6.94336H6.60938V69.7988H78.0341V6.94336Z" fill="#EBEBEB"/>
<path d="M14.2765 7.30078H13.709V69.8032H14.2765V7.30078Z" fill="#FAFAFA"/>
<path d="M78.3175 6.89062H77.75V69.8028H78.3175V6.89062Z" fill="#FAFAFA"/>
<path d="M6.26088 6.89062H5.69336V69.8028H6.26088V6.89062Z" fill="#FAFAFA"/>
<path d="M27.8546 7.30078H27.2871V69.8032H27.8546V7.30078Z" fill="#FAFAFA"/>
<path d="M41.2472 7.30078H40.6797V69.8032H41.2472V7.30078Z" fill="#FAFAFA"/>
<path d="M40.9676 15.5469H13.9941V16.3664H40.9676V15.5469Z" fill="#FAFAFA"/>
<path d="M78.0357 6.89062H6.50781V7.7102H78.0357V6.89062Z" fill="#FAFAFA"/>
<path d="M41.4072 39.5332H13.709V40.3528H41.4072V39.5332Z" fill="#FAFAFA"/>
<path d="M27.7153 33.4746H13.709V34.2942H27.7153V33.4746Z" fill="#FAFAFA"/>
<path d="M27.0435 34.4395H14.5137V39.3668H27.0435V34.4395Z" fill="#FAFAFA"/>
<path d="M13.9913 32.8945H6.50781V33.4747H13.9913V32.8945Z" fill="#FAFAFA"/>
<path d="M13.9913 40.9102H6.50781V41.4903H13.9913V40.9102Z" fill="#FAFAFA"/>
<path d="M13.9913 48.9863H6.50781V49.5664H13.9913V48.9863Z" fill="#FAFAFA"/>
<path d="M13.9913 56.9961H6.50781V57.5762H13.9913V56.9961Z" fill="#FAFAFA"/>
<path d="M27.0271 57.2793H14.5293V61.7351H27.0271V57.2793Z" fill="#FAFAFA"/>
<path d="M27.0271 62.0176H14.5293V67.0288H27.0271V62.0176Z" fill="#FAFAFA"/>
<path d="M40.3473 57.2793H28.1836V61.7351H40.3473V57.2793Z" fill="#FAFAFA"/>
<path d="M40.3473 62.0176H28.1836V67.0288H40.3473V62.0176Z" fill="#FAFAFA"/>
<path d="M13.4631 61.9531H6.50781V67.8234H13.4631V61.9531Z" fill="#FAFAFA"/>
<path d="M13.9913 25.0078H6.50781V25.5879H13.9913V25.0078Z" fill="#FAFAFA"/>
<path d="M13.9913 17.123H6.50781V17.7032H13.9913V17.123Z" fill="#FAFAFA"/>
<path d="M54.7654 17.123H40.9434V17.7032H54.7654V17.123Z" fill="#FAFAFA"/>
<path d="M54.7654 21.0625H40.9434V21.3513H54.7654V21.0625Z" fill="#FAFAFA"/>
<path d="M55.2173 56.1992H41.0488V56.7793H55.2173V56.1992Z" fill="#FAFAFA"/>
<path d="M41.4072 47.6113H13.709V48.4309H41.4072V47.6113Z" fill="#FAFAFA"/>
<path d="M40.9674 56.1758H13.709V56.9954H40.9674V56.1758Z" fill="#FAFAFA"/>
<path d="M41.0511 67.4102H13.9941V68.2297H41.0511V67.4102Z" fill="#FAFAFA"/>
<path d="M65.3457 4.94336L77.5242 7.30087V69.8033L65.3457 72.5755V4.94336Z" fill="#E0E0E0"/>
<path d="M51.1033 12.3867H56.4518C56.5443 12.3867 56.633 12.4237 56.6985 12.4894C56.7639 12.5551 56.8006 12.6443 56.8006 12.7373V16.9339H50.752V12.7373C50.752 12.691 50.7611 12.6452 50.7787 12.6025C50.7964 12.5599 50.8223 12.5211 50.855 12.4885C50.8877 12.4559 50.9264 12.4302 50.969 12.4127C51.0116 12.3952 51.0573 12.3864 51.1033 12.3867Z" fill="#FAFAFA"/>
<path d="M42.4339 60.543H56.4378C56.5303 60.543 56.6191 60.5799 56.6845 60.6456C56.7499 60.7114 56.7867 60.8005 56.7867 60.8935V68.2302H42.09V60.9034C42.0887 60.8569 42.0966 60.8107 42.1132 60.7673C42.1298 60.724 42.1549 60.6844 42.1869 60.6509C42.2189 60.6173 42.2572 60.5905 42.2996 60.572C42.342 60.5535 42.3877 60.5436 42.4339 60.543Z" fill="#FAFAFA"/>
<path d="M51.7962 26.8489C51.3909 30.9171 51.6931 34.035 51.8478 37.7601C52.0075 41.7098 51.3565 45.5954 51.4646 49.7723C51.7102 49.6168 51.9289 49.5402 52.15 49.7723C52.4743 49.9994 52.7544 50.0734 53.0075 49.7723C53.3342 49.7723 53.5578 49.6143 53.7445 49.7723C53.9902 46.5285 54.3194 43.1268 53.9902 40.91C53.946 40.4583 55.2972 40.5792 55.3267 39.9423C55.4692 37.0146 54.8624 31.6429 54.3587 26.8785C54.3625 26.8449 54.3625 26.8109 54.3587 26.7773L53.7912 24.3581C53.7619 24.2318 53.7048 24.1137 53.6241 24.0125L53.4718 23.8199L53.2261 22.5856V21.0625H53.0836V22.5758L52.6463 23.2793L51.2754 24.5013L51.7962 26.8489Z" fill="#FAFAFA"/>
<path d="M52.5176 7.88099L64.6174 4.94336V72.5755L52.5176 69.3935V7.88099Z" fill="#E0E0E0"/>
<path d="M68.0254 8.25195V68.8239L75.4548 67.4119V9.93553L68.0254 8.25195Z" fill="#EBEBEB"/>
<path d="M62.1818 8.90039L54.7695 10.4285V66.8655L62.1818 69.149V8.90039Z" fill="#EBEBEB"/>
<path d="M25.4448 32.1914H16.5216C16.295 32.1914 16.1113 32.376 16.1113 32.6037V32.9419C16.1113 33.1695 16.295 33.3541 16.5216 33.3541H25.4448C25.6714 33.3541 25.8551 33.1695 25.8551 32.9419V32.6037C25.8551 32.376 25.6714 32.1914 25.4448 32.1914Z" fill="#FAFAFA"/>
<path d="M20.709 52.8765V54.2737C20.709 55.2192 20.822 55.9869 20.9547 55.9869H26.3425C26.4801 55.9869 26.5882 55.2192 26.5882 54.2737V52.8765C26.5882 51.9285 26.4776 51.1484 26.3425 51.1484H20.9571C20.8146 51.1608 20.709 51.9285 20.709 52.8765Z" fill="#FAFAFA"/>
<path d="M15.7461 31.239V31.5747C15.7487 31.6863 15.7951 31.7922 15.8752 31.8695C15.9553 31.9467 16.0626 31.989 16.1736 31.987H25.4284C25.5394 31.989 25.6467 31.9467 25.7268 31.8695C25.8069 31.7922 25.8533 31.6863 25.8559 31.5747V31.239C25.855 31.1836 25.8431 31.1289 25.8211 31.078C25.7991 31.0272 25.7674 30.9812 25.7277 30.9427C25.688 30.9042 25.6411 30.8739 25.5898 30.8536C25.5384 30.8333 25.4836 30.8233 25.4284 30.8243H16.1736C16.1184 30.8233 16.0636 30.8333 16.0122 30.8536C15.9609 30.8739 15.914 30.9042 15.8743 30.9427C15.8346 30.9812 15.8029 31.0272 15.7809 31.078C15.7589 31.1289 15.7471 31.1836 15.7461 31.239Z" fill="#FAFAFA"/>
<path d="M16.1113 29.913V30.2487C16.1129 30.3045 16.1254 30.3594 16.1481 30.4103C16.1709 30.4612 16.2033 30.5071 16.2437 30.5454C16.2841 30.5836 16.3316 30.6136 16.3835 30.6334C16.4354 30.6532 16.4907 30.6626 16.5462 30.6609H25.973C26.0285 30.6626 26.0838 30.6532 26.1357 30.6334C26.1876 30.6136 26.2351 30.5836 26.2755 30.5454C26.3159 30.5071 26.3483 30.4612 26.371 30.4103C26.3938 30.3594 26.4063 30.3045 26.4079 30.2487V29.913C26.4066 29.857 26.3943 29.8018 26.3717 29.7506C26.3492 29.6994 26.3167 29.6532 26.2763 29.6147C26.2359 29.5761 26.1883 29.546 26.1362 29.526C26.0842 29.506 26.0287 29.4966 25.973 29.4982H16.5462C16.4905 29.4966 16.435 29.506 16.383 29.526C16.3309 29.546 16.2833 29.5761 16.2429 29.6147C16.2025 29.6532 16.17 29.6994 16.1475 29.7506C16.1249 29.8018 16.1126 29.857 16.1113 29.913Z" fill="#FAFAFA"/>
<path d="M25.5973 28.1758H16.6447C16.4181 28.1758 16.2344 28.3604 16.2344 28.588V28.9262C16.2344 29.1539 16.4181 29.3385 16.6447 29.3385H25.5973C25.8239 29.3385 26.0076 29.1539 26.0076 28.9262V28.588C26.0076 28.3604 25.8239 28.1758 25.5973 28.1758Z" fill="#FAFAFA"/>
<path d="M16.8501 27.2428V27.5786C16.8448 27.6823 16.8806 27.7839 16.9496 27.8612C17.0187 27.9385 17.1154 27.9851 17.2187 27.9908H25.2132C25.3164 27.9851 25.4131 27.9385 25.4822 27.8612C25.5513 27.7839 25.587 27.6823 25.5817 27.5786V27.2428C25.5871 27.1389 25.5514 27.037 25.4823 26.9593C25.4133 26.8816 25.3166 26.8345 25.2132 26.8281H17.2187C17.1152 26.8345 17.0185 26.8816 16.9495 26.9593C16.8805 27.037 16.8448 27.1389 16.8501 27.2428Z" fill="#FAFAFA"/>
<path d="M17.3613 14.8174V15.0445C17.3706 15.1271 17.4119 15.2028 17.4763 15.255C17.5407 15.3072 17.623 15.3318 17.7053 15.3235H25.147C25.2291 15.3318 25.311 15.3071 25.375 15.2548C25.439 15.2025 25.4798 15.1269 25.4885 15.0445V14.8174C25.4792 14.7353 25.4382 14.6601 25.3744 14.6079C25.3106 14.5558 25.2289 14.5308 25.147 14.5385H17.7053C17.6231 14.5308 17.5412 14.5557 17.4769 14.6078C17.4127 14.6599 17.3712 14.7351 17.3613 14.8174Z" fill="#FAFAFA"/>
<path d="M29.9473 14.8174V15.0445C29.9559 15.1269 29.9967 15.2025 30.0607 15.2548C30.1247 15.3071 30.2067 15.3318 30.2888 15.3235H37.7305C37.8128 15.3318 37.8951 15.3072 37.9595 15.255C38.0238 15.2028 38.0652 15.1271 38.0744 15.0445V14.8174C38.0645 14.7351 38.0231 14.6599 37.9588 14.6078C37.8946 14.5557 37.8127 14.5308 37.7305 14.5385H30.2888C30.2068 14.5308 30.1252 14.5558 30.0614 14.6079C29.9975 14.6601 29.9566 14.7353 29.9473 14.8174Z" fill="#FAFAFA"/>
<path d="M30.7559 13.8084V14.038C30.7584 14.1142 30.7909 14.1862 30.8461 14.2385C30.9013 14.2908 30.9748 14.319 31.0507 14.317H37.4507C37.4883 14.3183 37.5259 14.3121 37.5611 14.2987C37.5963 14.2854 37.6286 14.2652 37.656 14.2392C37.6834 14.2133 37.7054 14.1822 37.7208 14.1476C37.7362 14.1131 37.7446 14.0758 37.7455 14.038V13.8084C37.7446 13.7706 37.7362 13.7333 37.7208 13.6988C37.7054 13.6643 37.6834 13.6331 37.656 13.6072C37.6286 13.5812 37.5963 13.561 37.5611 13.5477C37.5259 13.5343 37.4883 13.5282 37.4507 13.5295H31.0507C30.9748 13.5275 30.9013 13.5557 30.8461 13.6079C30.7909 13.6602 30.7584 13.7322 30.7559 13.8084Z" fill="#FAFAFA"/>
<path d="M30.7715 12.799V13.0286C30.7759 13.1068 30.811 13.18 30.869 13.2322C30.927 13.2845 31.0032 13.3116 31.081 13.3075H37.7661C37.8437 13.3109 37.9196 13.2836 37.9775 13.2315C38.0353 13.1794 38.0706 13.1065 38.0756 13.0286V12.799C38.0706 12.7211 38.0353 12.6482 37.9775 12.5961C37.9196 12.544 37.8437 12.5167 37.7661 12.5201H31.0835C31.0448 12.5177 31.006 12.5231 30.9693 12.5359C30.9326 12.5486 30.8988 12.5685 30.8699 12.5945C30.8409 12.6204 30.8173 12.6518 30.8004 12.6869C30.7835 12.722 30.7737 12.7601 30.7715 12.799Z" fill="#FAFAFA"/>
<path d="M17.7734 46.9006V47.1277C17.7785 47.2056 17.8137 47.2785 17.8716 47.3306C17.9295 47.3827 18.0053 47.41 18.083 47.4066H24.7656C24.8434 47.4107 24.9196 47.3836 24.9776 47.3313C25.0356 47.2791 25.0707 47.2059 25.0751 47.1277V46.9006C25.0732 46.8618 25.0637 46.8237 25.0471 46.7886C25.0305 46.7535 25.0071 46.7221 24.9783 46.6962C24.9495 46.6702 24.9159 46.6503 24.8794 46.6375C24.8428 46.6247 24.8042 46.6193 24.7656 46.6216H18.083C18.0052 46.6176 17.9289 46.6447 17.8709 46.6969C17.8129 46.7492 17.7779 46.8224 17.7734 46.9006Z" fill="#FAFAFA"/>
<path d="M30.6159 46.6729V47.0037C30.6053 47.0984 30.6316 47.1934 30.6893 47.2689C30.7471 47.3444 30.8317 47.3945 30.9254 47.4086H37.608C37.7014 47.3939 37.7857 47.3437 37.8433 47.2683C37.9009 47.193 37.9275 47.0982 37.9175 47.0037V46.6729C37.9282 46.578 37.9019 46.4827 37.8442 46.4068C37.7865 46.3309 37.7019 46.2803 37.608 46.2656H30.9254C30.8312 46.2797 30.7462 46.3301 30.6884 46.4062C30.6306 46.4822 30.6046 46.5779 30.6159 46.6729Z" fill="#FAFAFA"/>
<path d="M29.7487 45.3267V45.6575C29.7374 45.7522 29.7631 45.8475 29.8204 45.9235C29.8777 45.9995 29.9621 46.0502 30.0558 46.0648H36.7408C36.8346 46.0502 36.919 45.9995 36.9763 45.9235C37.0336 45.8475 37.0592 45.7522 37.0479 45.6575V45.3267C37.0592 45.2324 37.0334 45.1373 36.9761 45.0617C36.9188 44.9861 36.8344 44.936 36.7408 44.9219H30.0558C29.9623 44.936 29.8779 44.9861 29.8205 45.0617C29.7632 45.1373 29.7374 45.2324 29.7487 45.3267Z" fill="#FAFAFA"/>
<path d="M30.6159 55.2393V55.5701C30.6053 55.6648 30.6316 55.7598 30.6893 55.8353C30.7471 55.9108 30.8317 55.9609 30.9254 55.975H37.608C37.7014 55.9603 37.7857 55.9101 37.8433 55.8347C37.9009 55.7594 37.9275 55.6646 37.9175 55.5701V55.2393C37.9282 55.1444 37.9019 55.0491 37.8442 54.9732C37.7865 54.8973 37.7019 54.8467 37.608 54.832H30.9254C30.8312 54.8461 30.7462 54.8966 30.6884 54.9726C30.6306 55.0486 30.6046 55.1443 30.6159 55.2393Z" fill="#FAFAFA"/>
<path d="M30.1933 53.8755V54.2063C30.1836 54.3023 30.2115 54.3984 30.2711 54.474C30.3308 54.5496 30.4175 54.5988 30.5127 54.6112H37.4409C37.5357 54.5982 37.6218 54.5488 37.6809 54.4732C37.7401 54.3977 37.7677 54.302 37.7579 54.2063V53.8755C37.7677 53.7799 37.7401 53.6842 37.6809 53.6087C37.6218 53.5331 37.5357 53.4837 37.4409 53.4707H30.5127C30.4175 53.4831 30.3308 53.5323 30.2711 53.6079C30.2115 53.6835 30.1836 53.7796 30.1933 53.8755Z" fill="#FAFAFA"/>
<path d="M30.3965 52.2639V52.7182C30.3965 53.0267 30.5488 53.2785 30.738 53.2785H38.1084C38.2976 53.2785 38.4475 53.0317 38.4475 52.7182V52.2639C38.4475 51.9529 38.2976 51.7036 38.1084 51.7036H30.738C30.5439 51.6912 30.3965 51.9405 30.3965 52.2639Z" fill="#FAFAFA"/>
<path d="M17.3613 13.8272V14.0568C17.3712 14.1391 17.4127 14.2143 17.4769 14.2664C17.5412 14.3185 17.6231 14.3434 17.7053 14.3357H25.147C25.2289 14.3434 25.3106 14.3184 25.3744 14.2663C25.4382 14.2141 25.4792 14.1389 25.4885 14.0568V13.8272C25.4792 13.7451 25.4382 13.6698 25.3744 13.6177C25.3106 13.5655 25.2289 13.5406 25.147 13.5482H17.7053C17.6231 13.5406 17.5412 13.5654 17.4769 13.6175C17.4127 13.6696 17.3712 13.7448 17.3613 13.8272Z" fill="#FAFAFA"/>
<path d="M18.1566 23.4918V23.7214C18.1521 23.7539 18.1541 23.7869 18.1625 23.8186C18.1709 23.8503 18.1854 23.8799 18.2053 23.9059C18.2252 23.9319 18.25 23.9536 18.2784 23.9698C18.3067 23.986 18.338 23.9964 18.3704 24.0004H23.0383C23.0709 23.9967 23.1025 23.9866 23.1311 23.9705C23.1597 23.9544 23.1848 23.9327 23.205 23.9067C23.2251 23.8807 23.2399 23.8509 23.2484 23.8191C23.2569 23.7873 23.259 23.7541 23.2545 23.7214V23.4918C23.259 23.4592 23.2569 23.426 23.2484 23.3942C23.2399 23.3623 23.2251 23.3326 23.205 23.3066C23.1848 23.2806 23.1597 23.2589 23.1311 23.2428C23.1025 23.2267 23.0709 23.2165 23.0383 23.2129H18.3704C18.338 23.2168 18.3067 23.2272 18.2784 23.2434C18.25 23.2597 18.2252 23.2814 18.2053 23.3074C18.1854 23.3333 18.1709 23.363 18.1625 23.3947C18.1541 23.4263 18.1521 23.4594 18.1566 23.4918Z" fill="#FAFAFA"/>
<path d="M17.7305 12.84V13.0671C17.7349 13.1453 17.77 13.2185 17.828 13.2708C17.886 13.3231 17.9622 13.3501 18.04 13.3461H24.7472C24.8248 13.3495 24.9007 13.3222 24.9585 13.27C25.0164 13.2179 25.0516 13.1451 25.0567 13.0671V12.84C25.0523 12.7619 25.0172 12.6886 24.9592 12.6364C24.9012 12.5841 24.825 12.557 24.7472 12.5611H18.04C18.0014 12.5587 17.9627 12.5641 17.9262 12.5769C17.8897 12.5897 17.8561 12.6097 17.8273 12.6356C17.7985 12.6616 17.7751 12.693 17.7585 12.7281C17.7419 12.7632 17.7323 12.8012 17.7305 12.84Z" fill="#FAFAFA"/>
<path d="M17.916 11.9V12.1272C17.916 12.2007 17.9449 12.2713 17.9965 12.3235C18.048 12.3758 18.118 12.4055 18.1912 12.4061H24.1785C24.2519 12.4055 24.3221 12.3759 24.3741 12.3237C24.426 12.2715 24.4554 12.2009 24.4561 12.1272V11.9C24.4554 11.8263 24.426 11.7557 24.3741 11.7035C24.3221 11.6513 24.2519 11.6217 24.1785 11.6211H18.1912C18.118 11.6217 18.048 11.6514 17.9965 11.7037C17.9449 11.7559 17.916 11.8265 17.916 11.9Z" fill="#FAFAFA"/>
<path d="M18.6465 11.0016V11.2312C18.6465 11.3047 18.6754 11.3753 18.7269 11.4276C18.7785 11.4798 18.8484 11.5095 18.9216 11.5101H24.9089C24.9824 11.5095 25.0526 11.4799 25.1045 11.4277C25.1564 11.3756 25.1859 11.305 25.1865 11.2312V11.0016C25.1859 10.9278 25.1564 10.8572 25.1045 10.8051C25.0526 10.7529 24.9824 10.7233 24.9089 10.7227H18.9216C18.8484 10.7233 18.7785 10.753 18.7269 10.8052C18.6754 10.8575 18.6465 10.9281 18.6465 11.0016Z" fill="#FAFAFA"/>
<path d="M6.50781 24.2095H12.871C12.9146 24.2095 12.9565 24.2269 12.9874 24.2579C13.0182 24.289 13.0356 24.331 13.0356 24.3749V24.6538C13.0356 24.6977 13.0182 24.7398 12.9874 24.7708C12.9565 24.8018 12.9146 24.8192 12.871 24.8192H6.50781V24.207V24.2095Z" fill="#FAFAFA"/>
<path d="M6.50781 47.8677H12.871C12.9146 47.8677 12.9565 47.8851 12.9874 47.9161C13.0182 47.9472 13.0356 47.9892 13.0356 48.0331V48.7021C13.0356 48.746 13.0182 48.788 12.9874 48.819C12.9565 48.8501 12.9146 48.8675 12.871 48.8675H6.50781V47.8652V47.8677Z" fill="#FAFAFA"/>
<path d="M6.50781 47.1118H12.6499C12.6935 47.1118 12.7354 47.1293 12.7663 47.1603C12.7971 47.1913 12.8145 47.2334 12.8145 47.2772V47.5488C12.8145 47.5927 12.7971 47.6347 12.7663 47.6657C12.7354 47.6968 12.6935 47.7142 12.6499 47.7142H6.50781V47.1094V47.1118Z" fill="#FAFAFA"/>
<path d="M6.50781 46.2051H12.7481C12.7918 46.2051 12.8337 46.2225 12.8645 46.2535C12.8954 46.2845 12.9127 46.3266 12.9127 46.3705V46.7951C12.9127 46.8171 12.9084 46.8389 12.9 46.8593C12.8916 46.8797 12.8793 46.8982 12.8638 46.9138C12.8483 46.9294 12.8299 46.9417 12.8096 46.9502C12.7893 46.9586 12.7676 46.9629 12.7457 46.9629H6.50781V46.2051Z" fill="#FAFAFA"/>
<path d="M6.50781 45.5977H12.7555C12.7979 45.5977 12.8385 45.6146 12.8684 45.6447C12.8984 45.6747 12.9152 45.7156 12.9152 45.7581V45.9013C12.9152 45.9439 12.8984 45.9847 12.8684 46.0148C12.8385 46.0448 12.7979 46.0618 12.7555 46.0618H6.50781V45.5977Z" fill="#FAFAFA"/>
<path d="M6.50781 31.7754H13.296C13.3397 31.7754 13.3815 31.7928 13.4124 31.8238C13.4433 31.8549 13.4606 31.8969 13.4606 31.9408V32.6468C13.4606 32.6907 13.4433 32.7327 13.4124 32.7638C13.3815 32.7948 13.3397 32.8122 13.296 32.8122H6.50781V31.7754Z" fill="#FAFAFA"/>
<path d="M6.50781 39.77H13.296C13.3176 39.77 13.339 39.7743 13.359 39.7826C13.379 39.7909 13.3971 39.8031 13.4124 39.8185C13.4277 39.8338 13.4398 39.8521 13.4481 39.8721C13.4564 39.8922 13.4606 39.9137 13.4606 39.9354V40.6415C13.4606 40.6853 13.4433 40.7274 13.4124 40.7584C13.3815 40.7894 13.3397 40.8069 13.296 40.8069H6.50781V39.7676V39.77Z" fill="#FAFAFA"/>
<path d="M6.50781 38.6621H12.9398C12.9834 38.6621 13.0253 38.6795 13.0562 38.7106C13.087 38.7416 13.1044 38.7836 13.1044 38.8275V39.5335C13.1044 39.5774 13.087 39.6195 13.0562 39.6505C13.0253 39.6815 12.9834 39.6989 12.9398 39.6989H6.50781V38.6621Z" fill="#FAFAFA"/>
<path d="M6.50781 37.5508H12.3919C12.4356 37.5508 12.4774 37.5682 12.5083 37.5992C12.5392 37.6302 12.5565 37.6723 12.5565 37.7162V38.4222C12.5565 38.4661 12.5392 38.5081 12.5083 38.5392C12.4774 38.5702 12.4356 38.5876 12.3919 38.5876H6.50781V37.5508Z" fill="#FAFAFA"/>
<path d="M6.50781 30.6314H12.8955C12.9392 30.6314 12.9811 30.6488 13.0119 30.6798C13.0428 30.7108 13.0602 30.7529 13.0602 30.7968V31.5028C13.0602 31.5467 13.0428 31.5887 13.0119 31.6197C12.9811 31.6508 12.9392 31.6682 12.8955 31.6682H6.50781V30.6289V30.6314Z" fill="#FAFAFA"/>
<path d="M6.50781 29.5H13.1068C13.202 29.5 13.2932 29.538 13.3605 29.6056C13.4277 29.6732 13.4655 29.7648 13.4655 29.8604V30.1813C13.4655 30.2769 13.4277 30.3686 13.3605 30.4362C13.2932 30.5038 13.202 30.5417 13.1068 30.5417H6.50781V29.5025V29.5Z" fill="#FAFAFA"/>
<path d="M6.50781 28.3594H12.4607C12.5558 28.3594 12.6471 28.3973 12.7143 28.4649C12.7816 28.5325 12.8194 28.6242 12.8194 28.7198V29.0407C12.8187 29.1359 12.7807 29.2269 12.7135 29.294C12.6463 29.361 12.5554 29.3987 12.4607 29.3987H6.50781V28.3594Z" fill="#FAFAFA"/>
<path d="M6.51172 23.5156H12.5358C12.5578 23.5156 12.5795 23.52 12.5998 23.5284C12.62 23.5368 12.6385 23.5492 12.654 23.5648C12.6695 23.5804 12.6818 23.5989 12.6902 23.6193C12.6986 23.6396 12.7029 23.6614 12.7029 23.6835V23.9624C12.7029 24.0063 12.6856 24.0484 12.6547 24.0794C12.6238 24.1104 12.582 24.1278 12.5383 24.1278H6.51172V23.5156Z" fill="#FAFAFA"/>
<path d="M6.51172 22.8189H12.1403C12.184 22.8189 12.2258 22.8363 12.2567 22.8673C12.2876 22.8983 12.3049 22.9404 12.3049 22.9843V23.2632C12.3049 23.3071 12.2876 23.3492 12.2567 23.3802C12.2258 23.4112 12.184 23.4286 12.1403 23.4286H6.51172V22.8164V22.8189Z" fill="#FAFAFA"/>
<path d="M6.53125 22.127H12.4448C12.4891 22.127 12.5316 22.1446 12.563 22.1761C12.5943 22.2076 12.6119 22.2503 12.6119 22.2948V22.5738C12.6119 22.6183 12.5943 22.661 12.563 22.6925C12.5316 22.7239 12.4891 22.7416 12.4448 22.7416H6.53125V22.1294V22.127Z" fill="#FAFAFA"/>
<path d="M6.53125 21.4341H12.0812C12.1249 21.4341 12.1667 21.4515 12.1976 21.4826C12.2285 21.5136 12.2458 21.5556 12.2458 21.5995V21.8785C12.2458 21.9223 12.2285 21.9644 12.1976 21.9954C12.1667 22.0264 12.1249 22.0439 12.0812 22.0439H6.53125V21.4316V21.4341Z" fill="#FAFAFA"/>
<path d="M6.50781 20.7402H12.3526C12.3969 20.7402 12.4394 20.7579 12.4707 20.7894C12.5021 20.8209 12.5197 20.8636 12.5197 20.9081V21.187C12.5197 21.2316 12.5021 21.2743 12.4707 21.3057C12.4394 21.3372 12.3969 21.3549 12.3526 21.3549H6.50781V20.7402Z" fill="#FAFAFA"/>
<path d="M6.50781 15.854H12.7064C12.8106 15.854 12.9106 15.8956 12.9843 15.9697C13.0581 16.0438 13.0995 16.1443 13.0995 16.249V16.602C13.0995 16.7068 13.0581 16.8072 12.9843 16.8813C12.9106 16.9554 12.8106 16.997 12.7064 16.997H6.50781V15.8516V15.854Z" fill="#FAFAFA"/>
<path d="M6.50781 14.5889H12.9521C13.0563 14.5889 13.1563 14.6305 13.23 14.7046C13.3037 14.7787 13.3451 14.8791 13.3451 14.9839V15.3369C13.3445 15.4412 13.3028 15.5411 13.2292 15.6146C13.1555 15.6881 13.0559 15.7294 12.9521 15.7294H6.50781V14.584V14.5889Z" fill="#FAFAFA"/>
<path d="M6.53125 20.0469H12.1402C12.1845 20.0469 12.227 20.0646 12.2583 20.096C12.2896 20.1275 12.3072 20.1702 12.3072 20.2147V20.4937C12.3072 20.5376 12.2899 20.5796 12.259 20.6106C12.2282 20.6417 12.1863 20.6591 12.1426 20.6591H6.53125V20.0469Z" fill="#FAFAFA"/>
<path d="M23.6066 24.207H17.693C17.5098 24.207 17.3613 24.3562 17.3613 24.5403V26.2609C17.3613 26.445 17.5098 26.5942 17.693 26.5942H23.6066C23.7897 26.5942 23.9382 26.445 23.9382 26.2609V24.5403C23.9382 24.3562 23.7897 24.207 23.6066 24.207Z" fill="#FAFAFA"/>
<path d="M43.9763 12.3867H49.3248C49.371 12.3867 49.4166 12.3959 49.4593 12.4136C49.5019 12.4313 49.5406 12.4573 49.5732 12.4901C49.6059 12.5229 49.6318 12.5618 49.6494 12.6046C49.6671 12.6475 49.6762 12.6934 49.6762 12.7397V16.9363H43.625V12.7397C43.625 12.6934 43.6341 12.6475 43.6517 12.6046C43.6694 12.5618 43.6953 12.5229 43.7279 12.4901C43.7605 12.4573 43.7993 12.4313 43.8419 12.4136C43.8845 12.3959 43.9302 12.3867 43.9763 12.3867Z" fill="#FAFAFA"/>
<path d="M16.5881 49.5684C15.6471 49.8819 15.3596 53.0441 15.0059 55.8114C16.3835 56.0972 17.8048 56.0972 19.1825 55.8114C19.3569 54.1871 18.2955 50.4299 16.5881 49.5684Z" fill="#FAFAFA"/>
<path d="M7.37205 53.2656V55.4059L6.98633 56.776H9.32031L9.07708 55.4059L9.32031 53.2656H7.37205Z" fill="#FAFAFA"/>
<path d="M10.4179 53.2656V54.8332L9.64648 56.776H12.2851L11.838 55.1319L11.9584 53.2656H10.4179Z" fill="#FAFAFA"/>
<path d="M31.805 21.3131L28.1836 24.5223L29.7461 27.0847L29.9451 36.5666H38.0723L38.4433 27.1439L40.3473 25.5986L36.9913 21.2539C36.8717 21.0987 36.7158 20.9757 36.5376 20.8956C36.3593 20.8155 36.1641 20.7808 35.9693 20.7947L34.446 19.753L34.1881 19.7702L34.2274 18.6692H34.4485L34.4706 16.3809H33.65V18.6692H33.8687L33.8294 19.7949L33.5837 19.8122L32.5223 21.0292C32.2585 21.0414 32.0062 21.1412 31.805 21.3131Z" fill="#FAFAFA"/>
<path d="M42.7378 24.368L42.33 26.565C42.3287 26.5839 42.3287 26.6029 42.33 26.6218L41.6445 49.7723C41.8902 49.2786 42.1064 49.3674 42.33 49.7723C42.6346 50.1722 42.9196 50.1895 43.1874 49.7723C43.5265 49.4069 43.7427 49.5131 43.9245 49.7723L44.1701 40.91L44.5387 26.8785C44.5424 26.8449 44.5424 26.8109 44.5387 26.7773L43.9711 24.3581C43.9418 24.2318 43.8847 24.1137 43.8041 24.0125L43.6518 23.8199L43.4061 22.5856V21.0625H43.2636V22.5758L43.1137 23.8495L42.8975 24.0964C42.8191 24.1693 42.7635 24.2637 42.7378 24.368Z" fill="#FAFAFA"/>
<path d="M45.6266 24.368L45.2187 26.565C45.2174 26.5839 45.2174 26.6029 45.2187 26.6218C44.6094 33.8128 44.4301 41.5963 44.5333 49.7723C44.7667 49.2786 44.9952 49.3674 45.2187 49.7723C45.5234 50.1722 45.8108 50.1895 46.0762 49.7723C46.4152 49.4069 46.6314 49.5131 46.8132 49.7723C47.0589 46.5285 47.3906 43.1268 47.0589 40.91C46.8132 38.3846 48.0416 32.6822 47.4274 26.8785C47.4312 26.8449 47.4312 26.8109 47.4274 26.7773L46.8599 24.3581C46.8305 24.2323 46.7743 24.1144 46.6953 24.0125L46.543 23.8199L46.2973 22.5856V21.0625H46.1179V22.5758L45.9656 23.8495L45.7494 24.0964C45.6863 24.175 45.644 24.2685 45.6266 24.368Z" fill="#FAFAFA"/>
<path d="M49.0938 24.3678L48.6859 26.5649C48.6846 26.5838 48.6846 26.6028 48.6859 26.6217C47.6049 30.2974 48.2314 34.0497 48.3837 37.76C48.5434 41.7097 47.8924 45.5953 48.0005 49.7722C48.2461 49.6167 48.4648 49.5401 48.6859 49.7722C49.0102 49.9993 49.2903 50.0733 49.5434 49.7722C49.8701 49.7722 50.0937 49.6142 50.2804 49.7722C50.5261 46.5284 50.8578 43.1267 50.5261 40.9099C50.4819 40.4582 51.8331 40.5791 51.8651 39.9422C52.0051 37.0145 51.3983 31.6428 50.8946 26.8784C50.8984 26.8448 50.8984 26.8108 50.8946 26.7772L50.2976 24.3678C50.2683 24.2416 50.2112 24.1235 50.1305 24.0222L49.9782 23.8297L49.7325 22.5954V21.0723H49.59V22.5855L49.4402 23.8593L49.224 24.1062C49.1579 24.18 49.1129 24.2704 49.0938 24.3678Z" fill="#FAFAFA"/>
<path d="M64.1281 25.7392C65.4969 25.7511 66.8454 25.4063 68.0421 24.7384C68.2186 24.7562 68.3959 24.7649 68.5733 24.7644C70.9029 24.7644 72.8009 23.2669 72.8341 21.4154C74.4775 20.4888 75.4551 19.0061 75.4551 17.4048C75.4551 16.0964 74.8187 14.8732 73.6622 13.9484C73.69 13.7911 73.7042 13.6318 73.7047 13.4721C73.7047 11.6354 71.9229 10.1583 69.6339 10.0786C68.885 8.30312 66.8155 7.11328 64.449 7.11328C62.5879 7.11328 60.8836 7.85461 59.8691 9.08708C59.6495 9.05922 59.4284 9.04498 59.207 9.04445C56.8552 9.04445 54.9443 10.5697 54.9443 12.4435C54.9441 12.7247 54.9877 13.0042 55.0735 13.2719C53.5813 14.0985 52.6959 15.444 52.6959 16.8915C52.6959 18.2889 53.5352 19.6084 54.9443 20.4369C54.9665 22.2253 56.7132 23.6895 58.9487 23.7951C60.2288 25.0313 62.1139 25.7392 64.1281 25.7392ZM68.0126 24.4567C67.988 24.4566 67.9638 24.4629 67.9425 24.4753C66.7788 25.1337 65.4635 25.4737 64.1281 25.4613C62.1655 25.4613 60.3339 24.7681 59.1037 23.5616C59.0787 23.5374 59.046 23.523 59.0114 23.5208C56.8811 23.4411 55.221 22.0659 55.221 20.398V20.3553C55.2218 20.3302 55.2157 20.3053 55.2033 20.2834C55.191 20.2614 55.1728 20.2434 55.1509 20.2312C53.7879 19.4546 52.9726 18.2036 52.9726 16.8952C52.9726 15.5181 53.845 14.2375 55.3059 13.4665C55.3353 13.4507 55.358 13.4247 55.3699 13.3934C55.3817 13.362 55.3819 13.3275 55.3704 13.296C55.2721 13.0239 55.2215 12.7367 55.221 12.4472C55.221 10.7273 57.0083 9.32616 59.207 9.32616C59.4415 9.32635 59.6757 9.34307 59.9079 9.3762C59.9316 9.37964 59.9558 9.37684 59.9781 9.36807C60.0004 9.3593 60.0201 9.34486 60.0351 9.32616C60.9924 8.11779 62.6414 7.39499 64.449 7.39499C66.7399 7.39499 68.7338 8.54961 69.4107 10.2676C69.4207 10.2931 69.4379 10.3151 69.4602 10.3309C69.4825 10.3467 69.5089 10.3556 69.5361 10.3566C71.6831 10.3955 73.428 11.7948 73.428 13.4739C73.4274 13.6433 73.4095 13.8123 73.3745 13.978C73.3692 14.0037 73.3712 14.0304 73.3803 14.055C73.3895 14.0796 73.4053 14.1011 73.4261 14.117C74.5568 14.9936 75.1784 16.1557 75.1784 17.4067C75.1784 18.9246 74.2266 20.3479 72.6293 21.2134C72.6071 21.2254 72.5886 21.2434 72.5759 21.2653C72.5632 21.2872 72.5568 21.3122 72.5574 21.3376V21.3561C72.5574 23.089 70.7701 24.4883 68.5733 24.4883C68.3884 24.4887 68.2037 24.4788 68.0199 24.4586L68.0126 24.4567Z" fill="#151F6D"/>
<path d="M46.9596 20.222C47.4668 20.222 47.8652 19.9254 47.8652 19.5437C47.8652 19.1619 47.4668 18.8672 46.9596 18.8672C46.4524 18.8672 46.0539 19.1637 46.0539 19.5437C46.0539 19.9236 46.4505 20.222 46.9596 20.222ZM46.9596 19.1452C47.3008 19.1452 47.5886 19.3305 47.5886 19.5437C47.5886 19.7568 47.3008 19.944 46.9596 19.944C46.6184 19.944 46.3306 19.7586 46.3306 19.5437C46.3306 19.3287 46.6147 19.1452 46.9596 19.1452Z" fill="#151F6D"/>
<path d="M50.1296 23.4675C51.4337 23.4675 52.4961 22.7057 52.4961 21.768C52.4961 20.8302 51.4337 20.0703 50.1296 20.0703C48.8256 20.0703 47.7631 20.832 47.7631 21.768C47.7631 22.7039 48.8237 23.4675 50.1296 23.4675ZM50.1296 20.3483C51.2824 20.3483 52.2194 20.984 52.2194 21.768C52.2194 22.5519 51.2824 23.1895 50.1296 23.1895C48.9768 23.1895 48.0398 22.5519 48.0398 21.768C48.0398 20.984 48.9768 20.3483 50.1296 20.3483Z" fill="#151F6D"/>
<path d="M68.6164 12.9331C68.8507 12.9683 67.8067 19.9424 67.5097 22.5278C67.5097 22.5278 60.6224 22.778 58.6562 20.6744C58.6562 20.6744 59.4512 14.9143 60.7958 11.0371L68.6164 12.9331Z" fill="#151F6D"/>
<path opacity="0.5" d="M67.5244 22.602C67.5244 22.602 60.6371 22.854 58.6708 20.7486C58.6708 20.7486 59.2814 15.2628 60.8086 11.1113L65.1837 12.1788L68.6218 13.0184C68.8469 12.998 67.6719 21.0934 67.5244 22.602Z" fill="white"/>
<path opacity="0.2" d="M62.8509 12.0279C62.8878 11.7628 63.1645 11.6943 63.5887 11.7591L65.9534 12.3151C66.3887 12.3967 66.5215 12.5653 66.4256 12.7989C65.4941 13.5587 64.3745 13.8719 63.4541 13.6051C62.744 13.3956 62.6978 12.7711 62.8509 12.0279Z" fill="black"/>
<path opacity="0.2" d="M63.0126 12.1131C63.0439 11.8833 63.2874 11.8221 63.6582 11.8796L65.7277 12.3689C66.1076 12.4393 66.2257 12.5876 66.139 12.7933C65.3256 13.4568 64.3462 13.7311 63.542 13.4975C62.9185 13.3104 62.8779 12.7655 63.0126 12.1131Z" fill="black"/>
<path d="M68.6362 13.0075L72.3418 14.7922L70.9234 17.3869L68.4001 15.8468L66.0429 13.4949C66.248 13.3628 66.4315 13.1996 66.587 13.0112C66.6498 12.8588 66.6757 12.6937 66.6626 12.5293L68.6362 13.0075Z" fill="#151F6D"/>
<path d="M60.8001 11.0999L57.3361 10.9609L56.8916 13.8447L60.0272 13.6186L62.5044 12.5289C62.5031 12.3153 62.5342 12.1028 62.5966 11.8987C62.683 11.7748 62.8035 11.6788 62.9434 11.6226L60.8001 11.0999Z" fill="#151F6D"/>
<path d="M35.0371 18.6542L35.0854 19.9488C35.6108 21.2045 37.1001 20.2457 37.1001 20.2457L38.0002 20.0749C38.1572 20.0342 38.2947 19.939 38.3884 19.8061C38.4821 19.6732 38.5259 19.5113 38.5121 19.349L38.4851 18.4426C38.4905 18.2563 38.4235 18.0752 38.2984 17.9376C38.1734 17.8 37.9999 17.7166 37.8148 17.7051L37.0151 17.7245C36.7826 17.7292 36.5549 17.7919 36.3526 17.9069L35.0371 18.6542Z" fill="#B55B52"/>
<path d="M36.2073 25.5448C36.1906 25.547 36.1737 25.547 36.157 25.5448H36.0817H35.9233C35.8132 25.5448 35.7031 25.5448 35.593 25.5448C35.3709 25.5448 35.1468 25.5234 34.9266 25.504C34.5053 25.4691 34.087 25.4042 33.6749 25.31C33.3395 25.2388 33.0149 25.1239 32.7091 24.9684C32.6243 24.9244 32.5435 24.8731 32.4676 24.815C32.4213 24.7801 32.4135 24.7723 32.4097 24.7879L32.5333 25.1605C32.5118 25.1118 32.5051 25.0578 32.514 25.0052C32.5383 24.8772 32.5861 24.7547 32.655 24.6442C32.9154 24.2345 33.2418 23.8711 33.6208 23.569C34.0852 23.1879 34.5787 22.8439 35.0966 22.5403C35.3651 22.3811 35.6432 22.2336 35.9252 22.09C36.0643 22.0201 36.2073 21.9503 36.3483 21.8843L36.5588 21.7892L36.7423 21.7096L35.2723 18.0859L34.9729 18.2179L34.7025 18.3421C34.5248 18.4256 34.351 18.511 34.1771 18.6003C33.8294 18.775 33.4875 18.9613 33.1475 19.1554C32.4432 19.5542 31.7715 20.0085 31.1386 20.514C30.4036 21.0802 29.7677 21.7657 29.2572 22.5422C28.9508 23.026 28.7275 23.5581 28.5966 24.1163C28.4486 24.754 28.442 25.4166 28.5773 26.0572C28.6001 26.1655 28.6331 26.2715 28.6758 26.3736L28.699 26.4298C28.9016 26.8973 29.184 27.3256 29.5335 27.6953C29.831 28.0087 30.165 28.285 30.5282 28.5183C30.8425 28.7196 31.1712 28.8973 31.5114 29.0501C31.834 29.1956 32.1489 29.316 32.4599 29.4208C33.0573 29.6162 33.6672 29.7712 34.2853 29.8846C34.5866 29.9429 34.8841 29.9914 35.1854 30.0322C35.3361 30.0535 35.4868 30.071 35.6413 30.0884L35.875 30.1117L35.9967 30.1234L36.1435 30.1331L36.2073 25.5448Z" fill="#151F6D"/>
<g opacity="0.2">
<path d="M36.2073 25.5448C36.1906 25.547 36.1737 25.547 36.157 25.5448H36.0817H35.9233C35.8132 25.5448 35.7031 25.5448 35.593 25.5448C35.3709 25.5448 35.1468 25.5234 34.9266 25.504C34.5053 25.4691 34.087 25.4042 33.6749 25.31C33.3395 25.2388 33.0149 25.1239 32.7091 24.9684C32.6243 24.9244 32.5435 24.8731 32.4676 24.815C32.4213 24.7801 32.4135 24.7723 32.4097 24.7879L32.5333 25.1605C32.5118 25.1118 32.5051 25.0578 32.514 25.0052C32.5383 24.8772 32.5861 24.7547 32.655 24.6442C32.9154 24.2345 33.2418 23.8711 33.6208 23.569C34.0852 23.1879 34.5787 22.8439 35.0966 22.5403C35.3651 22.3811 35.6432 22.2336 35.9252 22.09C36.0643 22.0201 36.2073 21.9503 36.3483 21.8843L36.5588 21.7892L36.7423 21.7096L35.2723 18.0859L34.9729 18.2179L34.7025 18.3421C34.5248 18.4256 34.351 18.511 34.1771 18.6003C33.8294 18.775 33.4875 18.9613 33.1475 19.1554C32.4432 19.5542 31.7715 20.0085 31.1386 20.514C30.4036 21.0802 29.7677 21.7657 29.2572 22.5422C28.9508 23.026 28.7275 23.5581 28.5966 24.1163C28.4486 24.754 28.442 25.4166 28.5773 26.0572C28.6001 26.1655 28.6331 26.2715 28.6758 26.3736L28.699 26.4298C28.9016 26.8973 29.184 27.3256 29.5335 27.6953C29.831 28.0087 30.165 28.285 30.5282 28.5183C30.8425 28.7196 31.1712 28.8973 31.5114 29.0501C31.834 29.1956 32.1489 29.316 32.4599 29.4208C33.0573 29.6162 33.6672 29.7712 34.2853 29.8846C34.5866 29.9429 34.8841 29.9914 35.1854 30.0322C35.3361 30.0535 35.4868 30.071 35.6413 30.0884L35.875 30.1117L35.9967 30.1234L36.1435 30.1331L36.2073 25.5448Z" fill="black"/>
</g>
<path d="M39.2521 17.5508C38.6659 18.0319 38.2472 18.6878 38.0564 19.4237C38.0564 19.4237 37.7049 20.8794 37.5117 21.0405C37.7189 21.221 37.9874 21.3141 38.2612 21.3006C38.2612 21.3006 40.0885 17.741 39.2521 17.5508Z" fill="#E0E0E0"/>
<path d="M32.0156 72.7539L35.0734 72.785L34.5886 76.4125L32.033 76.3931L32.0156 72.7539Z" fill="#B55B52"/>
<path opacity="0.2" d="M32.0176 72.7559L35.0754 72.785L34.803 74.8171L32.0253 74.7938L32.0176 72.7559Z" fill="black"/>
<path d="M37.69 60.5152C39.1832 55.8571 40.8965 49.1067 39.4285 44.6717L30.8906 44.6445C30.8906 44.6445 31.1417 55.1137 31.277 59.4109C31.416 63.8749 31.5764 74.1617 31.5764 74.1617H35.0784C35.0784 74.1617 37.9469 65.5033 37.69 60.5152Z" fill="#151F6D"/>
<path opacity="0.4" d="M37.69 60.5152C39.1832 55.8571 40.8965 49.1067 39.4285 44.6717L30.8906 44.6445C30.8906 44.6445 31.1417 55.1137 31.277 59.4109C31.416 63.8749 31.5764 74.1617 31.5764 74.1617H35.0784C35.0784 74.1617 37.9469 65.5033 37.69 60.5152Z" fill="white"/>
<path opacity="0.1" d="M32.3599 73.4993C32.3599 73.4042 32.4989 63.8297 32.3599 59.4103C32.2285 55.1617 32.2324 49.5602 32.2324 49.5117H32.0527C32.0527 49.568 32.0527 55.1733 32.1822 59.4239C32.3193 63.8394 32.1822 73.408 32.1822 73.5051L32.3599 73.4993Z" fill="black"/>
<path opacity="0.4" d="M38.471 50.944C37.8568 52.4753 37.6385 55.1324 38.2914 58.5445C39.0505 55.9301 39.7498 52.9256 39.9352 50.1113C39.7826 50.1249 38.6371 50.9265 38.471 50.944Z" fill="#151F6D"/>
<path d="M34.9626 77.5354H34.1552L33.9871 77.2637L33.6259 77.5393H29.583C29.5648 77.2463 29.6319 76.9542 29.7762 76.6989C29.7762 76.6989 31.0395 76.4116 31.5668 75.94C31.6181 75.9007 31.6777 75.8738 31.741 75.8614C31.8043 75.8489 31.8696 75.8513 31.9319 75.8682C32.4669 75.973 33.8886 76.2079 34.7018 75.9012C34.7206 75.895 34.7406 75.8934 34.7601 75.8965C34.7796 75.8997 34.798 75.9075 34.8139 75.9192C34.8298 75.931 34.8426 75.9465 34.8514 75.9643C34.8601 75.982 34.8645 76.0017 34.8641 76.0215C34.8563 76.528 34.8893 77.0343 34.9626 77.5354Z" fill="#263238"/>
<path d="M43.4629 72.7539L46.5265 72.785L46.6597 76.4125L44.1023 76.3931L43.4629 72.7539Z" fill="#B55B52"/>
<path opacity="0.2" d="M43.4648 72.7559L46.5284 72.785L46.6018 74.8171L43.8222 74.7938L43.4648 72.7559Z" fill="black"/>
<path d="M46.7953 58.6267C47.0425 53.9686 47.3748 47.0008 45.8294 44.86L36.291 44.6445C36.291 44.6445 39.2117 54.9313 40.2026 59.2323C41.2321 63.6964 43.4864 74.1772 43.4864 74.1772H46.7972C46.7972 74.1772 48.0392 63.9409 46.7953 58.6267Z" fill="#151F6D"/>
<path opacity="0.4" d="M46.7953 58.6267C47.0425 53.9686 47.3748 47.0008 45.8294 44.86L36.291 44.6445C36.291 44.6445 39.2117 54.9313 40.2026 59.2323C41.2321 63.6964 43.4864 74.1772 43.4864 74.1772H46.7972C46.7972 74.1772 48.0392 63.9409 46.7953 58.6267Z" fill="white"/>
<path opacity="0.1" d="M44.5944 73.9707L44.7702 73.9319C44.7509 73.8387 42.7188 64.6156 41.7994 60.1768C40.9147 55.9068 39.578 49.5465 39.5645 49.4844L39.3887 49.5213C39.4022 49.5853 40.7408 55.9437 41.6236 60.2136C42.543 64.6525 44.5751 73.8776 44.5944 73.9707Z" fill="black"/>
<path d="M36.3996 25.6229C39.2322 25.3524 42.0859 25.398 44.9085 25.7587C45.2948 25.8161 45.6654 25.9522 45.9976 26.1585C46.3297 26.3649 46.6165 26.6373 46.8402 26.9589C47.0639 27.2806 47.2199 27.6447 47.2986 28.0291C47.3773 28.4134 47.3771 28.8099 47.2979 29.1941C45.9748 35.8902 46.307 43.613 46.1699 44.9367C47.0681 44.6301 32.4668 47.5239 30.7167 45.0474C29.8475 36.8471 32.7836 30.0889 34.1184 27.2532C34.3279 26.808 34.6477 26.4242 35.0471 26.1387C35.4466 25.8533 35.9123 25.6756 36.3996 25.6229Z" fill="#151F6D"/>
<path opacity="0.7" d="M36.3996 25.6229C39.2322 25.3524 42.0859 25.398 44.9085 25.7587C45.2948 25.8161 45.6654 25.9522 45.9976 26.1585C46.3297 26.3649 46.6165 26.6373 46.8402 26.9589C47.0639 27.2806 47.2199 27.6447 47.2986 28.0291C47.3773 28.4134 47.3771 28.8099 47.2979 29.1941C45.9748 35.8902 46.307 43.613 46.1699 44.9367C47.0681 44.6301 32.4668 47.5239 30.7167 45.0474C29.8475 36.8471 32.7836 30.0889 34.1184 27.2532C34.3279 26.808 34.6477 26.4242 35.0471 26.1387C35.4466 25.8533 35.9123 25.6756 36.3996 25.6229Z" fill="white"/>
<path d="M37.7529 25.8909C37.9854 25.6264 38.2813 25.4259 38.6125 25.3087C38.7512 24.948 38.7614 24.5503 38.6415 24.183L42.8351 22.8418C42.4951 24.2354 42.2073 25.1515 42.7211 25.8269C42.4101 26.25 40.5191 26.8459 38.8211 26.9351C37.3801 27.0031 37.4439 26.2733 37.7529 25.8909Z" fill="#B55B52"/>
<path d="M37.207 27.4479C37.2759 27.9691 37.5406 28.444 37.9468 28.7754C37.9468 28.7754 38.8624 28.3116 39.241 27.7604C39.0672 27.215 38.3351 26.9238 38.3351 26.9238C37.9322 27.0328 37.5507 27.21 37.207 27.4479Z" fill="#263238"/>
<path d="M42.4793 25.3148C42.3769 25.6545 40.2386 26.7511 38.3359 26.92C38.596 27.064 38.8161 27.2709 38.9763 27.5221C39.1365 27.7732 39.2318 28.0606 39.2535 28.3582C39.2535 28.3582 42.0041 27.8671 43.1631 25.571C42.9545 25.2702 42.4793 25.3148 42.4793 25.3148Z" fill="white"/>
<path d="M38.6055 25.3027C38.4027 25.5085 37.1568 26.411 38.3351 26.9214C37.7903 27.1644 37.334 27.5713 37.0293 28.086C37.0293 28.086 36.0383 26.5333 37.9719 25.4405C38.1791 25.3776 38.391 25.3315 38.6055 25.3027Z" fill="white"/>
<path opacity="0.2" d="M38.6659 24.3113L41.8087 24.1172C40.8255 25.173 39.3342 25.5709 38.6543 25.142C38.7274 24.8704 38.7313 24.5848 38.6659 24.3113Z" fill="black"/>
<path d="M43.6433 20.6868C43.1546 22.6471 42.7799 23.9669 41.4799 24.588C38.8973 25.8263 37.7325 24.489 37.6301 22.4181C37.5374 20.5529 38.3525 17.6629 40.4291 17.2534C40.889 17.1626 41.3644 17.1906 41.8106 17.3347C42.2569 17.4788 42.6594 17.7344 42.9806 18.0775C43.3018 18.4205 43.531 18.8399 43.6469 19.2962C43.7628 19.7526 43.7616 20.2311 43.6433 20.6868Z" fill="#B55B52"/>
<path d="M43.2161 22.2465C43.2161 22.2465 42.3275 22.2892 41.918 22.002C42.2174 21.3867 42.3372 20.7093 42.5767 20.556C42.1904 20.2843 41.9586 18.7743 42.6018 18.2502C40.7146 17.8621 39.6232 18.5685 39.1133 17.7145C38.6999 17.0178 39.148 15.6669 41.128 16.0725C43.1079 16.4782 44.6802 17.4525 44.4117 18.5142C45.0743 18.6695 45.0279 20.719 43.2161 22.2465Z" fill="#E0E0E0"/>
<path opacity="0.2" d="M40.9824 20.587C41.2189 20.5248 41.4702 20.559 41.6817 20.6821C41.4446 20.6967 41.2071 20.6644 40.9824 20.587Z" fill="black"/>
<path opacity="0.2" d="M37.9648 23.1623C38.0328 23.1194 38.1085 23.0904 38.1876 23.077C38.2668 23.0635 38.3478 23.0659 38.426 23.0839C38.5042 23.1019 38.5781 23.1353 38.6435 23.182C38.7089 23.2288 38.7645 23.2881 38.807 23.3564C38.512 23.4008 38.2111 23.3315 37.9648 23.1623Z" fill="black"/>
<path opacity="0.2" d="M40.9707 20.7564C41.0812 20.7522 41.1913 20.7718 41.2936 20.814C41.3959 20.8562 41.488 20.92 41.5637 21.001C41.3508 20.9633 41.1485 20.8799 40.9707 20.7564Z" fill="black"/>
<path opacity="0.2" d="M38.2606 20.1061C38.2606 20.1061 38.1138 19.8964 37.9824 19.9915C38.0568 20.0646 38.1566 20.1057 38.2606 20.1061Z" fill="black"/>
<path opacity="0.2" d="M38.2163 20.2596C38.2163 20.2596 38.0985 20.0656 37.998 20.2305C38.0271 20.2571 38.0636 20.2742 38.1027 20.2794C38.1417 20.2846 38.1813 20.2777 38.2163 20.2596Z" fill="black"/>
<path opacity="0.2" d="M39.2637 18.296C39.8546 18.2252 40.453 18.2481 41.0369 18.364C40.445 18.3747 39.853 18.3521 39.2637 18.296Z" fill="black"/>
<path opacity="0.2" d="M39.0078 18.5684C39.0078 18.5684 40.36 18.6363 41.0109 19.0051C40.3313 18.9213 39.6608 18.7751 39.0078 18.5684Z" fill="black"/>
<path d="M44.2422 22.592C44.0994 22.798 43.9175 22.9736 43.7071 23.1088C43.4966 23.244 43.2616 23.3362 43.0156 23.38C42.355 23.4906 42.0904 22.8792 42.3279 22.2892C42.5404 21.7593 43.1431 21.0606 43.7786 21.2178C44.4141 21.375 44.5899 22.0777 44.2422 22.592Z" fill="#B55B52"/>
<path d="M40.4407 20.5919C40.4098 20.7549 40.3016 20.8675 40.1954 20.8481C40.0891 20.8287 40.0312 20.6792 40.0602 20.5181C40.0891 20.357 40.1992 20.2425 40.3055 20.2619C40.4117 20.2813 40.4697 20.4288 40.4407 20.5919Z" fill="#263238"/>
<path d="M38.7334 20.2954C38.7044 20.4585 38.5943 20.571 38.49 20.5516C38.3857 20.5322 38.3239 20.3828 38.3528 20.2217C38.3818 20.0606 38.4919 19.9461 38.5982 19.9674C38.7044 19.9888 38.7643 20.1343 38.7334 20.2954Z" fill="#263238"/>
<path d="M38.6631 21.5371C37.4403 21.5837 37.3553 21.9544 37.3438 22.3465C37.9638 22.8395 39.5632 23.0549 40.2006 23.1131C40.67 22.3368 39.173 21.7079 39.173 21.7079L38.6631 21.5371Z" fill="#E0E0E0"/>
<path d="M39.2523 20.625L39.0823 21.5178C39.0672 21.5967 39.0225 21.6667 38.9574 21.7133C38.8923 21.76 38.8118 21.7796 38.7327 21.7682C38.548 21.7459 38.3734 21.6719 38.2285 21.5547C38.526 20.986 39.2523 20.625 39.2523 20.625Z" fill="#A02724"/>
<path d="M40.0013 19.8575C39.987 19.8651 39.9745 19.8757 39.9646 19.8886C39.9569 19.8986 39.9513 19.9101 39.9482 19.9225C39.9451 19.9348 39.9445 19.9476 39.9465 19.9601C39.9485 19.9727 39.953 19.9847 39.9598 19.9954C39.9665 20.0061 39.9754 20.0153 39.9859 20.0225C40.1069 20.1166 40.2488 20.1801 40.3994 20.2075C40.5501 20.2348 40.705 20.2253 40.8512 20.1797C40.8631 20.1756 40.874 20.1691 40.8832 20.1607C40.8925 20.1522 40.9 20.142 40.9052 20.1306C40.9105 20.1191 40.9133 20.1068 40.9137 20.0942C40.914 20.0816 40.9118 20.0691 40.9073 20.0574C40.8981 20.0335 40.8802 20.0141 40.8571 20.0033C40.8341 19.9924 40.8077 19.991 40.7836 19.9992C40.667 20.0328 40.5442 20.0384 40.4251 20.0155C40.3059 19.9925 40.1939 19.9417 40.0979 19.8672C40.0839 19.8577 40.0677 19.8518 40.0508 19.8501C40.034 19.8484 40.017 19.851 40.0013 19.8575Z" fill="#263238"/>
<path d="M38.938 19.6552C38.9257 19.6454 38.9111 19.6387 38.8957 19.6357C38.8802 19.6326 38.8643 19.6333 38.8491 19.6378C38.735 19.6762 38.6133 19.6865 38.4943 19.668C38.3753 19.6494 38.2625 19.6024 38.1653 19.531C38.1558 19.5227 38.1447 19.5164 38.1326 19.5125C38.1206 19.5085 38.1079 19.5071 38.0953 19.5082C38.0827 19.5092 38.0704 19.5129 38.0592 19.5188C38.048 19.5247 38.0381 19.5328 38.0301 19.5427C38.0139 19.5623 38.006 19.5876 38.0082 19.613C38.0103 19.6384 38.0224 19.662 38.0417 19.6785C38.1634 19.7701 38.3051 19.8309 38.455 19.8559C38.605 19.8809 38.7587 19.8693 38.9032 19.8222C38.9195 19.8166 38.934 19.807 38.9453 19.7941C38.9567 19.7812 38.9645 19.7655 38.9681 19.7487C38.9716 19.7318 38.9706 19.7143 38.9654 19.698C38.9601 19.6816 38.9507 19.6669 38.938 19.6552Z" fill="#263238"/>
<path d="M47.0938 77.5369H46.4274L46.2477 77.2652L45.8981 77.5408H41.8803C41.8455 77.2535 41.8924 76.9621 42.0155 76.7004C42.0155 76.7004 43.105 76.4132 43.7154 75.9046C43.7336 75.8835 43.7566 75.867 43.7825 75.8565C43.8084 75.8461 43.8363 75.8419 43.8641 75.8445C44.2639 75.9279 45.8537 76.2327 46.7287 75.9143C46.7501 75.9063 46.7732 75.9035 46.7959 75.9062C46.8187 75.9089 46.8404 75.9171 46.8593 75.93C46.8783 75.943 46.8938 75.9603 46.9047 75.9805C46.9156 76.0008 46.9215 76.0233 46.9219 76.0463C46.9412 76.5469 46.9987 77.0452 47.0938 77.5369Z" fill="#263238"/>
<path d="M38.1902 28.3666L37.7691 28.2773C35.8916 31.7108 34.748 37.8537 34.748 37.8537C34.748 37.8537 34.9528 40.1013 35.7699 41.6288C36.6275 39.6879 37.4639 37.9314 37.4639 37.9314C37.4639 37.9314 37.6977 31.3556 38.1902 28.3666Z" fill="#263238"/>
<path d="M46.3823 44.3431C46.3758 44.3114 46.3572 44.2836 46.3305 44.2654C46.3038 44.2473 46.2711 44.2404 46.2394 44.2461C44.4333 44.5198 39.581 45.203 36.048 45.203C34.2573 45.1959 32.4697 45.0499 30.7013 44.7663C30.6749 44.7619 30.6479 44.7639 30.6225 44.7721C30.5971 44.7803 30.574 44.7945 30.5551 44.8135C30.5362 44.8324 30.5221 44.8557 30.5139 44.8812C30.5057 44.9067 30.5038 44.9339 30.5081 44.9604C30.5583 45.3136 30.6143 45.6455 30.6588 45.8978C30.6657 45.9404 30.6858 45.9797 30.7164 46.0101C30.7469 46.0404 30.7863 46.0602 30.8288 46.0667C32.5557 46.3229 34.2985 46.4571 36.0442 46.4684C39.6448 46.4684 44.4159 45.8027 46.3244 45.5135C46.3523 45.5088 46.3777 45.4947 46.3967 45.4735C46.4156 45.4524 46.4269 45.4254 46.4287 45.3971C46.4541 45.0451 46.4385 44.6914 46.3823 44.3431Z" fill="#263238"/>
<path d="M34.543 45.165C34.5508 45.6117 34.5954 46.0571 34.6763 46.4964C34.6873 46.5562 34.7171 46.6108 34.7612 46.6523C34.8054 46.6939 34.8615 46.7202 34.9216 46.7274C35.7141 46.8088 36.5127 46.8088 37.3052 46.7274C37.341 46.7257 37.3761 46.7168 37.4084 46.7012C37.4407 46.6857 37.4696 46.6638 37.4934 46.6368C37.5171 46.6099 37.5353 46.5784 37.5468 46.5443C37.5582 46.5102 37.5628 46.4741 37.5602 46.4382C37.5254 46.0791 37.5003 45.557 37.4945 45.1766C37.4926 45.1056 37.4641 45.038 37.4147 44.9872C37.3653 44.9365 37.2985 44.9064 37.2279 44.903C36.4804 44.8603 35.3253 44.8836 34.8173 44.903C34.7464 44.9014 34.6777 44.9281 34.6264 44.9772C34.575 45.0263 34.545 45.0938 34.543 45.165Z" fill="white"/>
<path d="M43.1613 25.3029C41.7435 26.9469 40.43 33.4858 39.9819 37.9828C39.5337 42.4799 40.3682 47.9377 40.3682 47.9377C42.464 48.2676 45.1567 47.2448 47.1115 46.5228C47.1115 46.5228 46.4393 40.3682 47.3607 32.2086C47.7625 28.6413 48.1334 26.58 47.0323 26.1142C46.2017 25.7649 43.934 25.1671 43.1613 25.3029Z" fill="#151F6D"/>
<path opacity="0.2" d="M43.1613 25.3029C41.7435 26.9469 40.43 33.4858 39.9819 37.9828C39.5337 42.4799 40.3682 47.9377 40.3682 47.9377C42.464 48.2676 45.1567 47.2448 47.1115 46.5228C47.1115 46.5228 46.4393 40.3682 47.3607 32.2086C47.7625 28.6413 48.1334 26.58 47.0323 26.1142C46.2017 25.7649 43.934 25.1671 43.1613 25.3029Z" fill="black"/>
<path d="M37.8581 25.5101C35.9419 27.9789 33.1236 35.6299 33.8403 47.5451C32.351 47.7256 30.0156 46.792 30.0156 46.792C30.0156 46.792 30.1064 37.171 31.1225 33.4115C32.1385 29.652 33.7669 26.8125 34.6651 26.1137C35.5633 25.415 36.701 25.283 37.8581 25.5101Z" fill="#151F6D"/>
<path opacity="0.2" d="M37.8581 25.5101C35.9419 27.9789 33.1236 35.6299 33.8403 47.5451C32.351 47.7256 30.0156 46.792 30.0156 46.792C30.0156 46.792 30.1064 37.171 31.1225 33.4115C32.1385 29.652 33.7669 26.8125 34.6651 26.1137C35.5633 25.415 36.701 25.283 37.8581 25.5101Z" fill="black"/>
<path opacity="0.5" d="M39.5467 17.0239C39.5294 17.1539 39.454 17.2587 39.3768 17.2587C39.2995 17.2587 39.2531 17.1539 39.2686 17.0239C39.284 16.8939 39.3613 16.7871 39.4386 16.7871C39.5158 16.7871 39.5641 16.8939 39.5467 17.0239Z" fill="white"/>
<path d="M47.3183 41.957L48.0195 43.0439C48.3053 44.3754 46.5398 44.4491 46.5398 44.4491L45.7054 44.8373C45.5538 44.8953 45.3867 44.8972 45.2338 44.8428C45.081 44.7884 44.9523 44.6812 44.8709 44.5404L44.3744 43.7834C44.2633 43.6342 44.2145 43.4473 44.2383 43.2625C44.2621 43.0777 44.3567 42.9095 44.5019 42.7936L45.1664 42.3452C45.3598 42.2153 45.582 42.1353 45.8135 42.1123L47.3183 41.957Z" fill="#B55B52"/>
<path d="M43.7578 29.2248C43.9857 29.5121 44.2388 29.8401 44.4745 30.1545C44.7101 30.4689 44.9516 30.7931 45.1834 31.1153C45.6489 31.7596 46.0932 32.4176 46.5143 33.0736C46.9278 33.7091 47.3088 34.3653 47.6559 35.0397C47.8162 35.36 47.963 35.6783 48.0692 35.9597C48.1214 36.0995 48.1658 36.2315 48.1929 36.3324C48.2199 36.4333 48.2276 36.5071 48.2315 36.4838L48.2701 36.0956C48.1834 36.5968 48.0541 37.0896 47.8838 37.5687C47.7065 38.084 47.5034 38.5899 47.2753 39.0846C47.0377 39.5873 46.777 40.088 46.5027 40.5791C46.3636 40.8256 46.2149 41.0662 46.0661 41.305L45.8382 41.6582L45.7242 41.829L45.6199 41.9765L48.7859 44.2571L48.9423 44.0261L49.0814 43.8145L49.3518 43.3972C49.527 43.1178 49.6976 42.8363 49.8637 42.553C50.1998 41.9862 50.5166 41.4059 50.8122 40.8062C51.4569 39.5649 51.9455 38.2479 52.2667 36.8855C52.291 36.7765 52.3039 36.6653 52.3053 36.5536V36.4954C52.3042 36.1325 52.2647 35.7708 52.1875 35.4163C52.1268 35.1407 52.0513 34.8686 51.9615 34.6011C51.8058 34.1353 51.6246 33.6785 51.4187 33.2328C51.0324 32.3885 50.6132 31.6102 50.1824 30.8494C49.7517 30.0885 49.3016 29.3587 48.8438 28.6329C48.6159 28.2693 48.3847 27.9089 48.1504 27.5518C47.9108 27.1888 47.6829 26.8453 47.4202 26.4688L43.7578 29.2248Z" fill="#151F6D"/>
<g opacity="0.2">
<path d="M43.7578 29.2248C43.9857 29.5121 44.2388 29.8401 44.4745 30.1545C44.7101 30.4689 44.9516 30.7931 45.1834 31.1153C45.6489 31.7596 46.0932 32.4176 46.5143 33.0736C46.9278 33.7091 47.3088 34.3653 47.6559 35.0397C47.8162 35.36 47.963 35.6783 48.0692 35.9597C48.1214 36.0995 48.1658 36.2315 48.1929 36.3324C48.2199 36.4333 48.2276 36.5071 48.2315 36.4838L48.2701 36.0956C48.1834 36.5968 48.0541 37.0896 47.8838 37.5687C47.7065 38.084 47.5034 38.5899 47.2753 39.0846C47.0377 39.5873 46.777 40.088 46.5027 40.5791C46.3636 40.8256 46.2149 41.0662 46.0661 41.305L45.8382 41.6582L45.7242 41.829L45.6199 41.9765L48.7859 44.2571L48.9423 44.0261L49.0814 43.8145L49.3518 43.3972C49.527 43.1178 49.6976 42.8363 49.8637 42.553C50.1998 41.9862 50.5166 41.4059 50.8122 40.8062C51.4569 39.5649 51.9455 38.2479 52.2667 36.8855C52.291 36.7765 52.3039 36.6653 52.3053 36.5536V36.4954C52.3042 36.1325 52.2647 35.7708 52.1875 35.4163C52.1268 35.1407 52.0513 34.8686 51.9615 34.6011C51.8058 34.1353 51.6246 33.6785 51.4187 33.2328C51.0324 32.3885 50.6132 31.6102 50.1824 30.8494C49.7517 30.0885 49.3016 29.3587 48.8438 28.6329C48.6159 28.2693 48.3847 27.9089 48.1504 27.5518C47.9108 27.1888 47.6829 26.8453 47.4202 26.4688L43.7578 29.2248Z" fill="black"/>
</g>
</g>
<defs>
<clipPath id="clip0_65_804">
<rect width="86" height="87" fill="white"/>
</clipPath>
</defs>
</svg>
