<svg width="50" height="51" viewBox="0 0 50 51" fill="none" xmlns="http://www.w3.org/2000/svg">
<g clip-path="url(#clip0_158_801)">
<path fill-rule="evenodd" clip-rule="evenodd" d="M22.5312 3C24.0312 1.42188 25 0.5 25 0.5C25.3417 1.63333 25.7281 2.71458 26.1594 3.74375C28.6969 9.825 32.6375 14.2125 36.15 18.1187C40.2437 22.675 43.75 26.5781 43.75 31.75C43.75 36.7228 41.7746 41.4919 38.2583 45.0083C34.7419 48.5246 29.9728 50.5 25 50.5C20.0272 50.5 15.2581 48.5246 11.7417 45.0083C8.22544 41.4919 6.25 36.7228 6.25 31.75C6.25 21.3375 17.4375 8.36562 22.5312 3ZM23.8219 6.19062C21.8142 8.36158 19.907 10.6233 18.1063 12.9688C15.8375 15.9375 13.6188 19.2437 11.9813 22.5625C10.325 25.9156 9.375 29.0562 9.375 31.75C9.375 31.75 17.1875 36.4375 25 33.3125C32.8125 30.1875 40.625 31.75 40.625 31.75C40.625 27.9969 38.1375 25.0094 33.8094 20.1875L33.7156 20.0875C30.4687 16.4688 26.5625 12.1281 23.8219 6.19062Z" fill="white"/>
<path fill-rule="evenodd" clip-rule="evenodd" d="M14.2281 24.8C16.7906 19.6719 19.5937 16.1969 20.7687 15.0188L22.9812 17.2313C22.075 18.1375 19.4562 21.3282 17.0219 26.2L14.2281 24.8Z" fill="white"/>
</g>
<defs>
<clipPath id="clip0_158_801">
<rect width="50" height="50" fill="white" transform="translate(0 0.5)"/>
</clipPath>
</defs>
</svg>
