<svg width="24" height="24" viewBox="0 0 24 24" fill="none" xmlns="http://www.w3.org/2000/svg">
<path d="M18.6667 4.66667C18.025 4.66667 17.4755 4.438 17.0182 3.98067C16.5608 3.52334 16.3326 2.97422 16.3333 2.33334C16.3333 1.69167 16.562 1.14217 17.0193 0.684835C17.4767 0.227502 18.0258 -0.000775797 18.6667 1.98076e-06C19.3083 1.98076e-06 19.8578 0.228669 20.3152 0.686002C20.7725 1.14334 21.0008 1.69245 21 2.33334C21 2.975 20.7713 3.5245 20.314 3.98184C19.8567 4.43917 19.3076 4.66745 18.6667 4.66667ZM17.5 23.3333V14C17.5 13.2222 17.3005 12.5222 16.9015 11.9C16.5025 11.2778 15.9923 10.7917 15.3708 10.4417L16.3917 7.4375C16.5472 6.95139 16.8342 6.5625 17.2527 6.27084C17.6711 5.97917 18.1424 5.83334 18.6667 5.83334C19.1917 5.83334 19.6634 5.97917 20.0818 6.27084C20.5003 6.5625 20.7869 6.95139 20.9417 7.4375L23.9167 16.3333H21V23.3333H17.5ZM12.25 11.0833C11.7639 11.0833 11.3505 10.913 11.0098 10.5723C10.6692 10.2317 10.4992 9.81867 10.5 9.33333C10.5 8.84722 10.6703 8.43384 11.011 8.09317C11.3517 7.7525 11.7647 7.58256 12.25 7.58334C12.7361 7.58334 13.1495 7.75367 13.4902 8.09433C13.8308 8.435 14.0008 8.848 14 9.33333C14 9.81945 13.8297 10.2328 13.489 10.5735C13.1483 10.9142 12.7353 11.0841 12.25 11.0833ZM4.08333 4.66667C3.44167 4.66667 2.89217 4.438 2.43483 3.98067C1.9775 3.52334 1.74922 2.97422 1.75 2.33334C1.75 1.69167 1.97867 1.14217 2.436 0.684835C2.89333 0.227502 3.44244 -0.000775797 4.08333 1.98076e-06C4.725 1.98076e-06 5.2745 0.228669 5.73183 0.686002C6.18917 1.14334 6.41744 1.69245 6.41667 2.33334C6.41667 2.975 6.188 3.5245 5.73067 3.98184C5.27333 4.43917 4.72422 4.66745 4.08333 4.66667ZM1.75 23.3333V15.1667H0V8.16667C0 7.525 0.228667 6.9755 0.686 6.51817C1.14333 6.06084 1.69244 5.83256 2.33333 5.83334H5.83333C6.475 5.83334 7.0245 6.062 7.48183 6.51934C7.93917 6.97667 8.16744 7.52578 8.16667 8.16667V15.1667H6.41667V23.3333H1.75ZM10.5 23.3333V18.6667H9.33333V14C9.33333 13.5139 9.50367 13.1005 9.84433 12.7598C10.185 12.4192 10.598 12.2492 11.0833 12.25H13.4167C13.9028 12.25 14.3162 12.4203 14.6568 12.761C14.9975 13.1017 15.1674 13.5147 15.1667 14V18.6667H14V23.3333H10.5Z" fill="#434343"/>
</svg>
