<svg width="57" height="57" viewBox="0 0 57 57" fill="none" xmlns="http://www.w3.org/2000/svg">
<rect x="4.58984" y="4.52344" width="48" height="48" rx="24" fill="#86C8BC" fill-opacity="0.11"/>
<path d="M18.3387 35.5508L27.5339 18.7476C27.6374 18.558 27.7901 18.3998 27.976 18.2895C28.1618 18.1793 28.3738 18.1211 28.5899 18.1211C28.8059 18.1211 29.018 18.1793 29.2038 18.2895C29.3896 18.3998 29.5423 18.558 29.6459 18.7476L38.8411 35.5508C38.9412 35.7338 38.9919 35.9397 38.9882 36.1483C38.9844 36.3568 38.9264 36.5608 38.8198 36.7401C38.7132 36.9194 38.5617 37.0678 38.3803 37.1707C38.1988 37.2736 37.9937 37.3274 37.7851 37.3268H19.3947C19.1861 37.3274 18.981 37.2736 18.7995 37.1707C18.6181 37.0678 18.4666 36.9194 18.36 36.7401C18.2534 36.5608 18.1953 36.3568 18.1916 36.1483C18.1879 35.9397 18.2386 35.7338 18.3387 35.5508ZM29.8699 29.3236L30.5147 25.4548C30.5337 25.3403 30.5276 25.2229 30.4967 25.111C30.4659 24.999 30.411 24.8951 30.3359 24.8065C30.2609 24.7179 30.1674 24.6467 30.0621 24.5979C29.9567 24.549 29.842 24.5237 29.7259 24.5236H27.4539C27.3378 24.5237 27.223 24.549 27.1177 24.5979C27.0123 24.6467 26.9189 24.7179 26.8438 24.8065C26.7688 24.8951 26.7139 24.999 26.683 25.111C26.6522 25.2229 26.646 25.3403 26.6651 25.4548L27.3099 29.3236H29.8699ZM30.3499 32.3636C30.3499 31.8968 30.1645 31.4492 29.8344 31.1191C29.5043 30.789 29.0567 30.6036 28.5899 30.6036C28.1231 30.6036 27.6754 30.789 27.3454 31.1191C27.0153 31.4492 26.8299 31.8968 26.8299 32.3636C26.8299 32.8304 27.0153 33.2781 27.3454 33.6081C27.6754 33.9382 28.1231 34.1236 28.5899 34.1236C29.0567 34.1236 29.5043 33.9382 29.8344 33.6081C30.1645 33.2781 30.3499 32.8304 30.3499 32.3636Z" fill="#151F6D"/>
<rect x="4.58984" y="4.52344" width="48" height="48" rx="24" stroke="#86C8BC" stroke-opacity="0.11" stroke-width="8"/>
</svg>
