<svg width="24" height="24" viewBox="0 0 24 24" fill="none" xmlns="http://www.w3.org/2000/svg">
<path d="M11.6667 9.0591e-08C10.3686 -0.000217944 9.10088 0.393145 8.03092 1.12818C6.96096 1.86322 6.139 2.90539 5.6735 4.11717C5.18956 3.97762 4.69895 3.86236 4.2035 3.77183C3.18455 3.58736 2.15083 3.49676 1.11533 3.50117L0.914667 3.50583L0.858667 3.50817L0.835333 3.50933C0.620083 3.52108 0.416746 3.61188 0.264314 3.76431C0.111882 3.91675 0.0210847 4.12008 0.00933321 4.33533L0.00583347 4.41583C-0.00214381 4.7207 -0.000198479 5.02575 0.0116667 5.3305C0.035 5.929 0.100333 6.762 0.271833 7.7035C0.428167 8.561 0.677833 9.52933 1.07683 10.5H0.870333C0.639507 10.5 0.418134 10.5917 0.254915 10.7549C0.0916954 10.9181 0 11.1395 0 11.3703V11.6667C0 12.8858 0.186667 14.0618 0.534333 15.1667H22.799C23.1542 14.034 23.3344 12.8537 23.3333 11.6667V11.3703C23.3333 11.1395 23.2416 10.9181 23.0784 10.7549C22.9152 10.5917 22.6938 10.5 22.463 10.5H22.1632C22.1961 9.21243 21.7913 7.95176 21.0148 6.92414C20.2383 5.89652 19.1361 5.16276 17.8885 4.84283C17.5378 3.45835 16.7354 2.23036 15.6083 1.35322C14.4812 0.47608 13.0937 -0.000115566 11.6655 9.0591e-08H11.6667ZM11.6667 1.75C12.5999 1.75014 13.5116 2.03 14.2842 2.55343C15.0568 3.07687 15.6547 3.81987 16.0008 4.6865C14.9976 4.77082 14.0347 5.11978 13.2103 5.69776C12.386 6.27574 11.7297 7.06207 11.3085 7.9765C10.9938 7.51038 10.6356 7.0752 10.2387 6.67683C9.36483 5.803 8.34867 5.17183 7.31967 4.71333C7.66237 3.83965 8.26047 3.08955 9.03592 2.56092C9.81138 2.0323 10.7282 1.7497 11.6667 1.75ZM20.4143 10.3542C20.4143 10.4032 20.4143 10.4522 20.412 10.5H12.5615L12.5405 10.4417V10.3542C12.5405 9.30988 12.9553 8.30836 13.6938 7.56993C14.4322 6.83151 15.4337 6.41667 16.478 6.41667C17.5223 6.41667 18.5238 6.83151 19.2622 7.56993C20.0007 8.30836 20.4155 9.30988 20.4155 10.3542H20.4143ZM9.002 7.91467C9.75217 8.66367 10.2958 9.5655 10.6878 10.5H8.23783L6.16 8.42333C6.07989 8.33737 5.98329 8.26841 5.87596 8.22059C5.76863 8.17276 5.65276 8.14705 5.53528 8.14498C5.41779 8.1429 5.30109 8.16452 5.19214 8.20852C5.08318 8.25253 4.98421 8.31803 4.90112 8.40112C4.81803 8.48421 4.75253 8.58318 4.70852 8.69214C4.66452 8.80109 4.6429 8.91779 4.64498 9.03528C4.64705 9.15276 4.67276 9.26863 4.72059 9.37596C4.76841 9.48329 4.83737 9.57989 4.92333 9.66L5.76333 10.5H2.99833C2.485 9.478 2.177 8.38483 1.995 7.3885C1.86736 6.68631 1.78939 5.97599 1.76167 5.26283V5.2605C2.29833 5.28033 3.04733 5.33983 3.8885 5.49383C5.59183 5.80533 7.57517 6.4855 9.002 7.91467ZM1.24483 16.9167C2.21728 18.8465 3.70662 20.4683 5.5468 21.6013C7.38697 22.7343 9.50567 23.3339 11.6667 23.3333C13.8277 23.3339 15.9464 22.7343 17.7865 21.6013C19.6267 20.4683 21.1161 18.8465 22.0885 16.9167H1.24483Z" fill="#434343"/>
</svg>
