<?xml version="1.0" encoding="UTF-8"?>
<!DOCTYPE svg PUBLIC "-//W3C//DTD SVG 1.1//EN" "http://www.w3.org/Graphics/SVG/1.1/DTD/svg11.dtd">
<!-- Creator: CorelDRAW -->
<svg xmlns="http://www.w3.org/2000/svg" xml:space="preserve" width="2048px" height="2048px" style="shape-rendering:geometricPrecision; text-rendering:geometricPrecision; image-rendering:optimizeQuality; fill-rule:evenodd; clip-rule:evenodd"
viewBox="0 0 2048 2048"
 xmlns:xlink="http://www.w3.org/1999/xlink">
 <defs>
  <style type="text/css">
   <![CDATA[
    .fil1 {fill:none}
    .fil0 {fill:#151F6D;fill-rule:nonzero}
   ]]>
  </style>
 </defs>
 <g id="Layer_x0020_1">
  <metadata id="CorelCorpID_0Corel-Layer"/>
  <path class="fil0" d="M947.389 409.22c134.891,0 257.016,54.6792 345.42,143.081 88.402,88.402 143.081,210.528 143.081,345.42 0,134.891 -54.6792,257.018 -143.081,345.42 -88.4032,88.402 -210.528,143.081 -345.42,143.081 -134.891,0 -257.018,-54.6792 -345.42,-143.081 -88.402,-88.402 -143.081,-210.528 -143.081,-345.42 0,-134.891 54.6792,-257.018 143.081,-345.42 88.402,-88.402 210.528,-143.081 345.42,-143.081zm300.169 188.332c-76.8178,-76.8166 -182.943,-124.33 -300.169,-124.33 -117.226,0 -223.353,47.5134 -300.169,124.33 -76.8166,76.8166 -124.33,182.943 -124.33,300.169 0,117.226 47.5134,223.353 124.33,300.169 76.8166,76.8166 182.943,124.33 300.169,124.33 117.226,0 223.351,-47.5134 300.169,-124.33 76.8166,-76.8166 124.33,-182.943 124.33,-300.169 0,-117.226 -47.5134,-223.353 -124.33,-300.169z"/>
  <path class="fil0" d="M769.861 738.914c-17.6728,0 -32.0008,14.328 -32.0008,32.0008 0,17.6728 14.328,32.0008 32.0008,32.0008l355.056 0c17.6728,0 32.0008,-14.328 32.0008,-32.0008 0,-17.6728 -14.328,-32.0008 -32.0008,-32.0008l-355.056 0z"/>
  <path class="fil0" d="M769.861 992.525c-17.6728,0 -32.0008,14.328 -32.0008,32.0008 0,17.6728 14.328,32.0008 32.0008,32.0008l355.056 0c17.6728,0 32.0008,-14.328 32.0008,-32.0008 0,-17.6728 -14.328,-32.0008 -32.0008,-32.0008l-355.056 0z"/>
  <path class="fil0" d="M1579.74 310.623c12.4949,-12.4949 12.4949,-32.7555 0,-45.2504 -12.4949,-12.4949 -32.7555,-12.4949 -45.2504,0l-286.928 286.929c-12.4949,12.4949 -12.4949,32.7555 0,45.2504 12.4949,12.4949 32.7555,12.4949 45.2504,0l286.928 -286.929z"/>
  <path class="fil0" d="M1357.01 255.998c-17.6728,0 -32.0008,14.328 -32.0008,32.0008 0,17.6728 14.328,32.0008 32.0008,32.0008l168.097 0 0 168.096c0,17.6728 14.328,32.0008 32.0008,32.0008 17.6728,0 32.0008,-14.328 32.0008,-32.0008l0 -200.097c0,-17.6728 -14.328,-32.0008 -32.0008,-32.0008l-200.098 0z"/>
  <path class="fil0" d="M979.391 1354.22c0,-17.6728 -14.328,-32.0008 -32.0008,-32.0008 -17.6728,0 -32.0008,14.328 -32.0008,32.0008l0 405.779c0,17.6728 14.328,32.0008 32.0008,32.0008 17.6728,0 32.0008,-14.328 32.0008,-32.0008l0 -405.779z"/>
  <path class="fil0" d="M979.391 1354.22c0,-17.6728 -14.328,-32.0008 -32.0008,-32.0008 -17.6728,0 -32.0008,14.328 -32.0008,32.0008l0 405.779c0,17.6728 14.328,32.0008 32.0008,32.0008 17.6728,0 32.0008,-14.328 32.0008,-32.0008l0 -405.779z"/>
  <path class="fil0" d="M1102.95 1639.84c17.6728,0 32.0008,-14.328 32.0008,-32.0008 0,-17.6728 -14.328,-32.0008 -32.0008,-32.0008l-311.127 0c-17.6728,0 -32.0008,14.328 -32.0008,32.0008 0,17.6728 14.328,32.0008 32.0008,32.0008l311.127 0z"/>
 </g>
 <rect class="fil1" width="2048" height="2048"/>
</svg>
