<svg width="18" height="14" viewBox="0 0 18 14" fill="none" xmlns="http://www.w3.org/2000/svg">
<path d="M1 2.95452C1 2.49986 1.18061 2.06383 1.5021 1.74234C1.82359 1.42085 2.25963 1.24023 2.71429 1.24023H14.7143C15.1689 1.24023 15.605 1.42085 15.9265 1.74234C16.248 2.06383 16.4286 2.49986 16.4286 2.95452V11.5259C16.4286 11.9806 16.248 12.4166 15.9265 12.7381C15.605 13.0596 15.1689 13.2402 14.7143 13.2402H2.71429C2.25963 13.2402 1.82359 13.0596 1.5021 12.7381C1.18061 12.4166 1 11.9806 1 11.5259V2.95452Z" stroke="#767579" stroke-width="1.5" stroke-linecap="round" stroke-linejoin="round"/>
<path d="M1 2.9541L8.71429 8.09696L16.4286 2.9541" stroke="#767579" stroke-width="1.5" stroke-linecap="round" stroke-linejoin="round"/>
</svg>
