<svg width="75" height="75" viewBox="0 0 75 75" fill="none" xmlns="http://www.w3.org/2000/svg">
<path d="M37.5 75C16.8214 75 0 58.1786 0 37.5C0 16.8214 16.8214 0 37.5 0C58.1786 0 75 16.8214 75 37.5C75 58.1786 58.1786 75 37.5 75ZM37.5 5.35714C19.7679 5.35714 5.35714 19.7679 5.35714 37.5C5.35714 55.2321 19.7679 69.6429 37.5 69.6429C55.2321 69.6429 69.6429 55.2321 69.6429 37.5C69.6429 19.7679 55.2321 5.35714 37.5 5.35714Z" fill="#C7C7C7"/>
<path d="M37.5001 56.25C36.0001 56.25 34.8215 55.0714 34.8215 53.5714V21.4286C34.8215 19.9286 36.0001 18.75 37.5001 18.75C39.0001 18.75 40.1787 19.9286 40.1787 21.4286V53.5714C40.1787 55.0714 39.0001 56.25 37.5001 56.25Z" fill="#C7C7C7"/>
<path d="M53.5714 40.1787H21.4286C19.9286 40.1787 18.75 39.0001 18.75 37.5001C18.75 36.0001 19.9286 34.8215 21.4286 34.8215H53.5714C55.0714 34.8215 56.25 36.0001 56.25 37.5001C56.25 39.0001 55.0714 40.1787 53.5714 40.1787Z" fill="#C7C7C7"/>
</svg>
