<svg width="15" height="16" viewBox="0 0 15 16" fill="none" xmlns="http://www.w3.org/2000/svg">
<path d="M1.58917 1.71666H4.90375L5.97195 4.38753L4.2556 5.53176C4.15452 5.59919 4.07166 5.69053 4.01435 5.79768C3.95705 5.90482 3.92707 6.02445 3.92709 6.14595C3.92931 6.21535 3.92709 6.14669 3.92709 6.14669V6.16219C3.92753 6.19521 3.92901 6.2282 3.93152 6.26112C3.93595 6.32165 3.94333 6.40359 3.95736 6.50473C3.98615 6.70404 4.04152 6.97866 4.14929 7.302C4.36633 7.95163 4.79154 8.79245 5.61982 9.62073C6.4481 10.449 7.28892 10.8742 7.93781 11.0913C8.26189 11.199 8.53577 11.2537 8.73656 11.2832C8.8499 11.299 8.96399 11.3089 9.07836 11.3127L9.08795 11.3135H9.09386C9.09386 11.3135 9.17654 11.309 9.0946 11.3135C9.23166 11.3134 9.36599 11.2752 9.48255 11.2031C9.59911 11.131 9.6933 11.0278 9.75456 10.9052L10.2492 9.91602L13.5239 10.4623V13.6514C11.9655 13.8765 7.75621 14.0987 4.44901 10.7915C1.14181 7.48434 1.36327 3.2743 1.58917 1.71666ZM5.45741 6.50473L6.79137 5.61591C7.07318 5.42794 7.28178 5.14879 7.38218 4.82526C7.48258 4.50174 7.46869 4.15352 7.34281 3.83903L6.27462 1.16817C6.165 0.894223 5.97581 0.659404 5.73147 0.494005C5.48712 0.328605 5.19881 0.240215 4.90375 0.240234H1.55078C0.879741 0.240234 0.248568 0.706048 0.138573 1.43393C-0.11242 3.08901 -0.452737 7.97747 3.40517 11.8354C7.26309 15.6933 12.1515 15.3522 13.8066 15.102C14.5345 14.9912 15.0003 14.3608 15.0003 13.6898V10.4623C15.0004 10.1128 14.8764 9.77462 14.6505 9.50791C14.4247 9.24121 14.1115 9.06329 13.7668 9.0058L10.492 8.46026C10.1806 8.40827 9.86066 8.4575 9.57925 8.60073C9.29784 8.74397 9.06976 8.97365 8.9285 9.25605L8.67308 9.76764C8.58275 9.74539 8.49336 9.71953 8.4051 9.69012C7.94741 9.53805 7.31181 9.22505 6.66366 8.5769C6.0155 7.92874 5.7025 7.29314 5.55043 6.83471C5.51411 6.72634 5.48332 6.61621 5.45815 6.50473H5.45741Z" fill="#767579"/>
</svg>
