<svg width="15" height="16" viewBox="0 0 15 16" fill="none" xmlns="http://www.w3.org/2000/svg">
<path d="M7.5 0.240234C6.01664 0.240234 4.56659 0.680102 3.33323 1.50421C2.09986 2.32832 1.13856 3.49966 0.570907 4.87011C0.00324963 6.24055 -0.145275 7.74855 0.144114 9.20341C0.433503 10.6583 1.14781 11.9946 2.1967 13.0435C3.2456 14.0924 4.58197 14.8067 6.03682 15.0961C7.49168 15.3855 8.99968 15.237 10.3701 14.6693C11.7406 14.1017 12.9119 13.1404 13.736 11.907C14.5601 10.6736 15 9.22359 15 7.74023C14.9979 5.75175 14.207 3.84532 12.801 2.43925C11.3949 1.03318 9.48848 0.242334 7.5 0.240234ZM5.59832 10.6248H9.40168C9.01442 11.9474 8.36539 13.1395 7.5 14.0785C6.63462 13.1395 5.98558 11.9474 5.59832 10.6248ZM5.33654 9.471C5.1452 8.32509 5.1452 7.15538 5.33654 6.00946H9.66346C9.85481 7.15538 9.85481 8.32509 9.66346 9.471H5.33654ZM1.15385 7.74023C1.15335 7.15497 1.23417 6.57248 1.39399 6.00946H4.16755C3.99544 7.15689 3.99544 8.32357 4.16755 9.471H1.39399C1.23417 8.90799 1.15335 8.32549 1.15385 7.74023ZM9.40168 4.85562H5.59832C5.98558 3.53302 6.63462 2.34096 7.5 1.40201C8.36539 2.34096 9.01442 3.53302 9.40168 4.85562ZM10.8325 6.00946H13.606C13.9262 7.1411 13.9262 8.33937 13.606 9.471H10.8325C11.0046 8.32357 11.0046 7.15689 10.8325 6.00946ZM13.1517 4.85562H10.5966C10.3022 3.69709 9.80777 2.59887 9.13558 1.61043C9.99436 1.84121 10.7953 2.24917 11.487 2.80807C12.1787 3.36697 12.7457 4.06443 13.1517 4.85562ZM5.86443 1.61043C5.19223 2.59887 4.69779 3.69709 4.40337 4.85562H1.84832C2.25428 4.06443 2.82132 3.36697 3.51299 2.80807C4.20466 2.24917 5.00564 1.84121 5.86443 1.61043ZM1.84832 10.6248H4.40337C4.69779 11.7834 5.19223 12.8816 5.86443 13.87C5.00564 13.6393 4.20466 13.2313 3.51299 12.6724C2.82132 12.1135 2.25428 11.416 1.84832 10.6248ZM9.13558 13.87C9.80777 12.8816 10.3022 11.7834 10.5966 10.6248H13.1517C12.7457 11.416 12.1787 12.1135 11.487 12.6724C10.7953 13.2313 9.99436 13.6393 9.13558 13.87Z" fill="#767579"/>
</svg>
