<svg width="18" height="18" viewBox="0 0 18 18" fill="none" xmlns="http://www.w3.org/2000/svg">
<path d="M8.99996 0.666992C13.6025 0.666992 17.3333 4.39783 17.3333 9.00033C17.3333 13.6028 13.6025 17.3337 8.99996 17.3337C4.39746 17.3337 0.666626 13.6028 0.666626 9.00033C0.666626 4.39783 4.39746 0.666992 8.99996 0.666992ZM8.99996 2.33366C7.23185 2.33366 5.53616 3.03604 4.28591 4.28628C3.03567 5.53652 2.33329 7.23222 2.33329 9.00033C2.33329 10.7684 3.03567 12.4641 4.28591 13.7144C5.53616 14.9646 7.23185 15.667 8.99996 15.667C10.7681 15.667 12.4638 14.9646 13.714 13.7144C14.9642 12.4641 15.6666 10.7684 15.6666 9.00033C15.6666 7.23222 14.9642 5.53652 13.714 4.28628C12.4638 3.03604 10.7681 2.33366 8.99996 2.33366ZM8.99996 4.00033C9.20407 4.00035 9.40107 4.07529 9.5536 4.21092C9.70613 4.34655 9.80358 4.53345 9.82746 4.73616L9.83329 4.83366V8.65533L12.0891 10.9112C12.2386 11.0611 12.3254 11.2624 12.3318 11.474C12.3383 11.6856 12.2639 11.8918 12.1239 12.0506C11.9839 12.2094 11.7887 12.3089 11.5779 12.329C11.3671 12.3491 11.1566 12.2882 10.9891 12.1587L10.9108 12.0895L8.41079 9.58949C8.28128 9.45986 8.19809 9.29116 8.17413 9.10949L8.16663 9.00033V4.83366C8.16663 4.61264 8.25442 4.40068 8.4107 4.2444C8.56698 4.08812 8.77894 4.00033 8.99996 4.00033Z" fill="#9F9F9F"/>
</svg>
