<svg width="22" height="22" viewBox="0 0 22 22" fill="none" xmlns="http://www.w3.org/2000/svg">
<path d="M11.2564 8.17949C13.2389 8.17949 14.8461 6.5723 14.8461 4.58974C14.8461 2.60718 13.2389 1 11.2564 1C9.27381 1 7.66663 2.60718 7.66663 4.58974C7.66663 6.5723 9.27381 8.17949 11.2564 8.17949Z" stroke="#959595" stroke-width="2" stroke-linecap="round" stroke-linejoin="round"/>
<path d="M1 19.9747C1 15.4429 5.13282 11.7695 10.2308 11.7695" stroke="#959595" stroke-width="2" stroke-linecap="round" stroke-linejoin="round"/>
<path d="M16.3847 21.0003C18.9337 21.0003 21.0001 18.9339 21.0001 16.3849C21.0001 13.8359 18.9337 11.7695 16.3847 11.7695C13.8357 11.7695 11.7693 13.8359 11.7693 16.3849C11.7693 18.9339 13.8357 21.0003 16.3847 21.0003Z" stroke="#959595" stroke-width="2"/>
<path d="M15.8718 14.8457V16.897H17.9231" stroke="#959595" stroke-width="2" stroke-linecap="round" stroke-linejoin="round"/>
</svg>
