<svg width="462" height="444" viewBox="0 0 462 444" fill="none" xmlns="http://www.w3.org/2000/svg">
<path d="M350.648 443.126C344.574 443.13 338.592 441.647 333.224 438.806L233.496 386.39C232.723 385.977 231.86 385.761 230.984 385.761C230.107 385.761 229.244 385.977 228.472 386.39L128.76 438.806C122.581 442.058 115.615 443.515 108.65 443.014C101.686 442.512 95.0012 440.071 89.3522 435.967C83.7032 431.863 79.3156 426.26 76.6858 419.791C74.056 413.323 73.289 406.248 74.4716 399.366L93.5116 288.342C93.6579 287.473 93.5885 286.58 93.3096 285.743C93.0306 284.906 92.5506 284.151 91.9116 283.542L11.3036 204.87C6.29882 199.994 2.75973 193.814 1.08732 187.03C-0.585091 180.246 -0.323968 173.129 1.8411 166.485C4.00617 159.842 7.98864 153.938 13.3373 149.442C18.6859 144.945 25.1869 142.037 32.1036 141.046L143.512 124.87C144.378 124.744 145.202 124.409 145.91 123.893C146.618 123.377 147.19 122.697 147.576 121.91L197.384 20.8704C200.469 14.6068 205.246 9.33203 211.174 5.64349C217.103 1.95495 223.945 0 230.928 0C237.91 0 244.753 1.95495 250.681 5.64349C256.609 9.33203 261.387 14.6068 264.472 20.8704L314.312 121.878C314.701 122.662 315.274 123.341 315.981 123.856C316.689 124.371 317.51 124.708 318.376 124.838L429.88 141.03C436.793 142.027 443.289 144.938 448.634 149.435C453.979 153.932 457.959 159.835 460.123 166.476C462.287 173.117 462.55 180.231 460.881 187.013C459.212 193.796 455.678 199.976 450.68 204.854L369.992 283.478C369.355 284.088 368.876 284.844 368.598 285.68C368.319 286.517 368.248 287.409 368.392 288.278L387.432 399.302C388.348 404.667 388.084 410.167 386.658 415.419C385.232 420.671 382.679 425.549 379.177 429.714C375.674 433.879 371.306 437.231 366.376 439.536C361.447 441.841 356.074 443.045 350.632 443.062L350.648 443.126ZM230.984 353.75C237.052 353.749 243.028 355.232 248.392 358.07L348.104 410.47C348.986 410.975 349.998 411.206 351.012 411.135C352.026 411.064 352.996 410.693 353.8 410.07C354.638 409.495 355.289 408.687 355.673 407.746C356.057 406.805 356.157 405.772 355.96 404.774L336.904 293.734C335.886 287.758 336.332 281.625 338.205 275.859C340.077 270.093 343.32 264.868 347.656 260.63L428.344 181.99C429.064 181.285 429.573 180.392 429.813 179.413C430.052 178.434 430.014 177.407 429.701 176.449C429.388 175.49 428.814 174.638 428.042 173.989C427.271 173.34 426.333 172.919 425.336 172.774L313.848 156.566C307.845 155.697 302.145 153.38 297.239 149.815C292.332 146.249 288.368 141.543 285.688 136.102L235.784 35.0784C235.337 34.1744 234.646 33.4133 233.789 32.8811C232.933 32.349 231.944 32.067 230.936 32.067C229.927 32.067 228.939 32.349 228.082 32.8811C227.225 33.4133 226.534 34.1744 226.088 35.0784L176.28 136.07C173.598 141.513 169.631 146.221 164.722 149.786C159.812 153.352 154.109 155.668 148.104 156.534L36.6316 172.774C35.6317 172.916 34.6917 173.335 33.9185 173.985C33.1453 174.634 32.5701 175.488 32.2583 176.448C31.9465 177.409 31.9106 178.437 32.1548 179.417C32.399 180.397 32.9135 181.289 33.6396 181.99L114.312 260.63C118.647 264.868 121.89 270.093 123.762 275.859C125.635 281.625 126.082 287.758 125.064 293.734L106.008 404.774C105.835 405.772 105.945 406.798 106.327 407.736C106.708 408.674 107.346 409.486 108.166 410.079C108.986 410.673 109.957 411.024 110.967 411.093C111.977 411.162 112.986 410.947 113.88 410.47L213.576 358.054C218.943 355.228 224.918 353.751 230.984 353.75Z" fill="#746F6F"/>
</svg>
