<svg width="24" height="8" viewBox="0 0 24 8" fill="none" xmlns="http://www.w3.org/2000/svg">
<path d="M11.7614 6.0268C12.9148 6.0268 13.8498 5.09176 13.8498 3.93833C13.8498 2.78489 12.9148 1.84985 11.7614 1.84985C10.6079 1.84985 9.67288 2.78489 9.67288 3.93833C9.67288 5.09176 10.6079 6.0268 11.7614 6.0268Z" stroke="#151F6D" stroke-width="2.08847" stroke-miterlimit="10" stroke-linecap="square"/>
<path d="M3.40747 6.0268C4.5609 6.0268 5.49595 5.09176 5.49595 3.93833C5.49595 2.78489 4.5609 1.84985 3.40747 1.84985C2.25404 1.84985 1.319 2.78489 1.319 3.93833C1.319 5.09176 2.25404 6.0268 3.40747 6.0268Z" stroke="#151F6D" stroke-width="2.08847" stroke-miterlimit="10" stroke-linecap="square"/>
<path d="M20.1153 6.0268C21.2687 6.0268 22.2037 5.09176 22.2037 3.93833C22.2037 2.78489 21.2687 1.84985 20.1153 1.84985C18.9618 1.84985 18.0268 2.78489 18.0268 3.93833C18.0268 5.09176 18.9618 6.0268 20.1153 6.0268Z" stroke="#151F6D" stroke-width="2.08847" stroke-miterlimit="10" stroke-linecap="square"/>
</svg>
