<svg width="28" height="14" viewBox="0 0 28 14" fill="none" xmlns="http://www.w3.org/2000/svg">
<path d="M8.46667 1H5.2C5.01435 1 4.8363 1.07375 4.70503 1.20503C4.57375 1.3363 4.5 1.51435 4.5 1.7V11.9667C4.5 12.0586 4.51811 12.1496 4.55328 12.2345C4.58846 12.3195 4.64002 12.3966 4.70503 12.4616C4.77003 12.5266 4.84719 12.5782 4.93212 12.6134C5.01705 12.6486 5.10807 12.6667 5.2 12.6667H8.46667C8.55859 12.6667 8.64962 12.6486 8.73454 12.6134C8.81947 12.5782 8.89664 12.5266 8.96164 12.4616C9.02664 12.3966 9.0782 12.3195 9.11338 12.2345C9.14856 12.1496 9.16667 12.0586 9.16667 11.9667V1.7C9.16667 1.51435 9.09292 1.3363 8.96164 1.20503C8.83037 1.07375 8.65232 1 8.46667 1ZM22.4667 1H19.2C19.0143 1 18.8363 1.07375 18.705 1.20503C18.5737 1.3363 18.5 1.51435 18.5 1.7V11.9667C18.5 12.0586 18.5181 12.1496 18.5533 12.2345C18.5885 12.3195 18.64 12.3966 18.705 12.4616C18.77 12.5266 18.8472 12.5782 18.9321 12.6134C19.017 12.6486 19.1081 12.6667 19.2 12.6667H22.4667C22.5586 12.6667 22.6496 12.6486 22.7345 12.6134C22.8195 12.5782 22.8966 12.5266 22.9616 12.4616C23.0266 12.3966 23.0782 12.3195 23.1134 12.2345C23.1486 12.1496 23.1667 12.0586 23.1667 11.9667V1.7C23.1667 1.51435 23.0929 1.3363 22.9616 1.20503C22.8304 1.07375 22.6523 1 22.4667 1Z" stroke="#434343" stroke-width="1.75" stroke-linecap="round" stroke-linejoin="round"/>
<path d="M9.16667 6.83334H18.5M1 9.63334V4.03334C1 3.84769 1.07375 3.66964 1.20503 3.53837C1.3363 3.40709 1.51435 3.33334 1.7 3.33334H3.8C3.98565 3.33334 4.1637 3.40709 4.29497 3.53837C4.42625 3.66964 4.5 3.84769 4.5 4.03334V9.63334C4.5 9.81899 4.42625 9.99704 4.29497 10.1283C4.1637 10.2596 3.98565 10.3333 3.8 10.3333H1.7C1.51435 10.3333 1.3363 10.2596 1.20503 10.1283C1.07375 9.99704 1 9.81899 1 9.63334ZM26.6667 9.63334V4.03334C26.6667 3.84769 26.5929 3.66964 26.4616 3.53837C26.3304 3.40709 26.1523 3.33334 25.9667 3.33334H23.8667C23.681 3.33334 23.503 3.40709 23.3717 3.53837C23.2404 3.66964 23.1667 3.84769 23.1667 4.03334V9.63334C23.1667 9.81899 23.2404 9.99704 23.3717 10.1283C23.503 10.2596 23.681 10.3333 23.8667 10.3333H25.9667C26.1523 10.3333 26.3304 10.2596 26.4616 10.1283C26.5929 9.99704 26.6667 9.81899 26.6667 9.63334Z" stroke="#434343" stroke-width="1.75" stroke-linecap="round" stroke-linejoin="round"/>
</svg>
