<svg width="91" height="16" viewBox="0 0 91 16" fill="none" xmlns="http://www.w3.org/2000/svg">
<path d="M5.22438 16C2.07909 16 0 14.2218 0 11.5022H1.75923C1.75923 13.2804 3.1986 14.431 5.22438 14.431C7.57003 14.431 8.68954 13.4896 8.68954 11.9729C8.68954 10.8746 8.15643 10.0901 5.17107 9.56708C2.1324 9.04408 0.426482 8.10267 0.426482 5.80145C0.426482 3.50024 2.29233 2.03583 5.17107 2.03583C8.15643 2.03583 10.0223 3.60484 10.0223 6.21986H8.31637C8.31637 4.65085 7.25016 3.60484 5.17107 3.60484C3.03867 3.60484 2.07909 4.49394 2.07909 5.74915C2.07909 6.89976 2.71881 7.47507 5.49093 7.99807C8.4763 8.57337 10.3421 9.41018 10.3421 11.9729C10.3955 14.5879 8.31637 16 5.22438 16Z" fill="#151F6D"/>
<path d="M22.1772 15.7384H20.5779V14.117C19.8849 15.1631 18.5521 15.9476 17.0594 15.9476C14.1274 15.9476 11.995 13.594 11.995 10.7175C11.995 7.841 14.1807 5.48749 17.0594 5.48749C18.5521 5.48749 19.8316 6.32429 20.5779 7.318V5.74899H22.1772V15.7384ZM17.0061 7.1088C15.087 7.1088 13.5943 8.78241 13.5943 10.8221C13.5943 12.8095 15.087 14.4832 17.0061 14.4832C18.872 14.4832 20.4713 12.8618 20.4713 10.8221C20.4713 8.78241 18.9253 7.1088 17.0061 7.1088Z" fill="#151F6D"/>
<path d="M33.4786 15.7383H31.8259V9.72371C31.8259 8.207 30.973 7.05639 29.3204 7.05639C27.7744 7.05639 26.6549 8.1547 26.6549 9.67141V15.7383H25.0023V5.80118H26.6016V6.89949C27.2946 6.06268 28.3608 5.59198 29.5336 5.59198C32.0392 5.59198 33.4252 7.31789 33.4252 9.82831V15.7383H33.4786Z" fill="#151F6D"/>
<path d="M45.7931 15.7383H44.1938V14.117C43.5008 15.163 42.168 15.9475 40.6754 15.9475C37.7433 15.9475 35.6109 13.594 35.6109 10.7698C35.6109 7.89326 37.7966 5.48744 40.6754 5.48744C42.1147 5.48744 43.3942 6.27195 44.1405 7.26565V1.35571H45.7931V15.7383ZM40.6754 7.10875C38.7562 7.10875 37.2635 8.78236 37.2635 10.8221C37.2635 12.8095 38.7562 14.4831 40.6754 14.4831C42.5412 14.4831 44.1405 12.8618 44.1405 10.8221C44.1405 8.78236 42.5412 7.10875 40.6754 7.10875Z" fill="#151F6D"/>
<path d="M57.3615 13.2803L59.5472 5.80139H61.3064L58.2678 15.7385H56.5085L54.3228 8.15491L52.1904 15.7385H50.4312L47.3925 5.80139H49.1517L51.3375 13.2803L53.4699 5.80139H55.2291L57.3615 13.2803Z" fill="#151F6D"/>
<path d="M75.7537 15.9998C72.9283 15.9998 70.6893 13.6985 70.6893 10.822C70.6893 7.9455 72.9816 5.59198 75.7537 5.59198C77.9927 5.59198 79.8053 6.89949 80.4983 8.9392H78.6858C78.0994 7.8409 77.0865 7.16099 75.7537 7.16099C73.8879 7.16099 72.3419 8.8346 72.3419 10.822C72.3419 12.8094 73.8879 14.483 75.7537 14.483C77.0865 14.483 78.1527 13.8031 78.6858 12.7048H80.4983C79.8053 14.6922 77.9927 15.9998 75.7537 15.9998Z" fill="#151F6D"/>
<path d="M91 15.7383H89.3474V9.72377C89.3474 8.15476 88.4411 7.10875 86.8418 7.10875C85.2958 7.10875 84.1763 8.20706 84.1763 9.67147V15.7383H82.5237V1.35571H84.1763V6.79495C84.8693 6.01045 85.8822 5.53974 87.055 5.53974C89.5606 5.53974 90.9467 7.26565 90.9467 9.77607V15.7383H91Z" fill="#151F6D"/>
<ellipse cx="1.48057" cy="1.45253" rx="1.48057" ry="1.45253" transform="matrix(-1 0 0 1 68.1147 0)" fill="#FF9E1B"/>
<path d="M67.2084 5.81132L72.3659 0.837952L73.2916 1.78938L68.7071 6.33028V15.6716H67.2084V5.81132Z" fill="#86C8BC"/>
<path d="M65.9742 5.81132L60.8166 0.837952L59.8909 1.78938L64.4754 6.33028V15.6716H65.9742V5.81132Z" fill="#FF9E1B"/>
</svg>
