<svg width="256" height="47" viewBox="0 0 256 47" fill="none" xmlns="http://www.w3.org/2000/svg">
<path d="M15.0263 46.339C6.21975 46.339 0.398438 41.2326 0.398438 33.4228H5.32417C5.32417 38.5292 9.3543 41.8333 15.0263 41.8333C21.594 41.8333 24.7285 39.13 24.7285 34.7745C24.7285 31.6205 23.2359 29.3677 14.8771 27.8658C6.36901 26.3639 1.59256 23.6606 1.59256 17.0523C1.59256 10.444 6.8168 6.23871 14.8771 6.23871C23.2359 6.23871 28.4601 10.7444 28.4601 18.2538H23.6837C23.6837 13.7481 20.6984 10.7444 14.8771 10.7444C8.9065 10.7444 6.21974 13.2976 6.21974 16.9021C6.21974 20.2062 8.01092 21.8583 15.7727 23.3602C24.1315 25.0122 29.3557 27.4153 29.3557 34.7745C29.505 42.2839 23.6837 46.339 15.0263 46.339Z" fill="#151F6D"/>
<path d="M62.4931 45.5877H58.0152V40.9319C56.0748 43.9357 52.3432 46.1885 48.1638 46.1885C39.9542 46.1885 33.9836 39.43 33.9836 31.1697C33.9836 22.9093 40.1035 16.1508 48.1638 16.1508C52.3432 16.1508 55.9255 18.5538 58.0152 21.4074V16.9018H62.4931V45.5877ZM48.0145 20.8067C42.641 20.8067 38.4616 25.6127 38.4616 31.47C38.4616 37.1772 42.641 41.9832 48.0145 41.9832C53.2387 41.9832 57.7167 37.3274 57.7167 31.47C57.7167 25.6127 53.388 20.8067 48.0145 20.8067Z" fill="#151F6D"/>
<path d="M94.1361 45.5874H89.5089V28.3157C89.5089 23.9603 87.1207 20.6561 82.4935 20.6561C78.1648 20.6561 75.0303 23.8101 75.0303 28.1656V45.5874H70.4031V17.0516H74.881V20.2056C76.8214 17.8026 79.8067 16.4509 83.0905 16.4509C90.106 16.4509 93.9869 21.4071 93.9869 28.6161V45.5874H94.1361Z" fill="#151F6D"/>
<path d="M128.616 45.5876H124.138V40.9317C122.198 43.9355 118.466 46.1883 114.287 46.1883C106.077 46.1883 100.106 39.4298 100.106 31.3197C100.106 23.0593 106.226 16.1506 114.287 16.1506C118.317 16.1506 121.899 18.4035 123.989 21.257V4.28577H128.616V45.5876ZM114.287 20.8065C108.913 20.8065 104.734 25.6125 104.734 31.4699C104.734 37.177 108.913 41.983 114.287 41.983C119.511 41.983 123.989 37.3272 123.989 31.4699C123.989 25.6125 119.511 20.8065 114.287 20.8065Z" fill="#151F6D"/>
<path d="M161.006 38.529L167.126 17.0521H172.052L163.544 45.5878H158.618L152.498 23.8105L146.528 45.5878H141.602L133.094 17.0521H138.02L144.14 38.529L150.11 17.0521H155.036L161.006 38.529Z" fill="#151F6D"/>
<path d="M212.504 46.3383C204.593 46.3383 198.323 39.7301 198.323 31.4697C198.323 23.2093 204.742 16.4509 212.504 16.4509C218.773 16.4509 223.848 20.2056 225.788 26.0629H220.713C219.071 22.909 216.235 20.9565 212.504 20.9565C207.279 20.9565 202.951 25.7625 202.951 31.4697C202.951 37.1769 207.279 41.9829 212.504 41.9829C216.235 41.9829 219.22 40.0304 220.713 36.8765H225.788C223.848 42.5836 218.773 46.3383 212.504 46.3383Z" fill="#151F6D"/>
<path d="M255.192 45.5876H250.565V28.3159C250.565 23.8102 248.027 20.8065 243.549 20.8065C239.221 20.8065 236.086 23.9604 236.086 28.1657V45.5876H231.459V4.28577H236.086V19.9054C238.027 17.6525 240.863 16.3008 244.146 16.3008C251.162 16.3008 255.043 21.257 255.043 28.4661V45.5876H255.192Z" fill="#151F6D"/>
<ellipse cx="4.1455" cy="4.17116" rx="4.1455" ry="4.17116" transform="matrix(-1 0 0 1 191.115 0.392578)" fill="#FF9E1B"/>
<path d="M188.577 17.0806L203.018 2.79883L205.61 5.53099L192.774 18.5709V45.3958H188.577V17.0806Z" fill="#86C8BC"/>
<path d="M185.121 17.0806L170.681 2.79883L168.089 5.53099L180.925 18.5709V45.3958H185.121V17.0806Z" fill="#FF9E1B"/>
</svg>
