<svg width="20" height="28" viewBox="0 0 20 28" fill="none" xmlns="http://www.w3.org/2000/svg">
<path d="M5.38525 20.7417C6.19506 21.7737 6.93209 22.8608 7.591 23.9951C8.15359 25.0618 8.38812 25.7852 8.79927 27.0705C9.05142 27.7806 9.27931 27.9926 9.76928 27.9926C10.3032 27.9926 10.5454 27.632 10.7326 27.0744C11.1212 25.8605 11.4262 24.9342 11.9073 24.0588C12.8513 22.3689 14.0244 20.8672 15.1771 19.424C15.4891 19.0155 17.5067 16.6358 18.4149 14.7581C18.4149 14.7581 19.5313 12.6955 19.5313 9.81486C19.5313 7.12029 18.4304 5.25146 18.4304 5.25146L15.2607 6.10031L13.3358 11.1701L12.8596 11.8692L12.7644 11.9959L12.6377 12.1544L12.4154 12.4076L12.0977 12.7253L10.3836 14.1217L6.09815 16.5961L5.38525 20.7417Z" fill="#34A853"/>
<path d="M0.962219 14.4114C2.00814 16.8004 4.02505 18.9004 5.38965 20.7434L12.6377 12.1577C12.6377 12.1577 11.6166 13.4932 9.76429 13.4932C7.70106 13.4932 6.03426 11.8456 6.03426 9.76809C6.03426 8.34345 6.89135 7.36475 6.89135 7.36475L1.97121 8.68311L0.962219 14.4114Z" fill="#FBBC04"/>
<path d="M12.7186 0.441483C15.1259 1.21762 17.1863 2.84704 18.4325 5.24978L12.6399 12.1527C12.6399 12.1527 13.497 11.1563 13.497 9.74053C13.497 7.61467 11.7069 6.02653 9.77307 6.02653C7.94437 6.02653 6.8941 7.35977 6.8941 7.35977V3.011L12.7186 0.441406V0.441483Z" fill="#4285F4"/>
<path d="M2.28998 3.49161C3.72774 1.7714 6.25766 0 9.74553 0C11.4377 0 12.7126 0.444262 12.7126 0.444262L6.88862 7.36362H2.76224L2.28998 3.49161Z" fill="#1A73E8"/>
<path d="M0.962224 14.4113C0.962224 14.4113 0 12.527 0 9.79722C0 7.21718 1.00296 4.96192 2.28997 3.49158L6.89189 7.3642L0.962224 14.4113Z" fill="#EA4335"/>
</svg>
