<svg width="23" height="25" viewBox="0 0 23 25" fill="none" xmlns="http://www.w3.org/2000/svg">
<path d="M3.16667 23L7.83333 20.6667V17.1667H21.8333M11.3333 20.6667H21.8333M7.83333 13.6667L11.3333 11.3333L12.5 6.66667C16 7.83333 16 11.3333 16 13.6667M2 17.1667C2 17.4761 2.12292 17.7728 2.34171 17.9916C2.5605 18.2104 2.85725 18.3333 3.16667 18.3333C3.47609 18.3333 3.77283 18.2104 3.99162 17.9916C4.21042 17.7728 4.33333 17.4761 4.33333 17.1667C4.33333 16.8572 4.21042 16.5605 3.99162 16.3417C3.77283 16.1229 3.47609 16 3.16667 16C2.85725 16 2.5605 16.1229 2.34171 16.3417C2.12292 16.5605 2 16.8572 2 17.1667ZM7.83333 3.16667C7.83333 3.47609 7.95625 3.77283 8.17504 3.99162C8.39383 4.21042 8.69058 4.33333 9 4.33333C9.30942 4.33333 9.60616 4.21042 9.82496 3.99162C10.0437 3.77283 10.1667 3.47609 10.1667 3.16667C10.1667 2.85725 10.0437 2.5605 9.82496 2.34171C9.60616 2.12292 9.30942 2 9 2C8.69058 2 8.39383 2.12292 8.17504 2.34171C7.95625 2.5605 7.83333 2.85725 7.83333 3.16667Z" stroke="#434343" stroke-width="2.33333" stroke-linecap="round" stroke-linejoin="round"/>
</svg>
