<svg width="20" height="20" viewBox="0 0 20 20" fill="none" xmlns="http://www.w3.org/2000/svg">
<path d="M17.9948 1.4624C17.0584 0.526041 15.7884 0 14.4641 0C13.1399 0 11.8699 0.526041 10.9335 1.4624L1.41789 10.9771C0.501094 11.9175 -0.00828356 13.1812 0.000101914 14.4945C0.00848739 15.8078 0.533961 17.0649 1.46269 17.9935C2.39141 18.9221 3.6486 19.4474 4.96191 19.4557C6.27521 19.4639 7.53887 18.9543 8.47914 18.0374L17.9957 8.52272C18.9305 7.58563 19.4554 6.31599 19.4552 4.99237C19.4551 3.66874 18.9298 2.39924 17.9948 1.4624ZM7.41882 16.9771C6.76378 17.6323 5.8753 18.0004 4.94884 18.0005C4.02238 18.0006 3.13384 17.6326 2.47867 16.9776C1.8235 16.3225 1.45538 15.434 1.45529 14.5076C1.45521 13.5811 1.82316 12.6926 2.4782 12.0374L6.70539 7.81022L11.646 12.7499L7.41882 16.9771ZM16.9344 7.4624L12.7054 11.6896L7.76664 6.7499L11.9948 2.52272C12.6524 1.88027 13.5368 1.52299 14.4562 1.52836C15.3755 1.53373 16.2557 1.90132 16.9058 2.55141C17.5558 3.2015 17.9234 4.08166 17.9288 5.00101C17.9342 5.92036 17.5769 6.80476 16.9344 7.4624ZM15.4879 5.46928C15.5576 5.53893 15.6129 5.62165 15.6507 5.7127C15.6884 5.80375 15.7079 5.90134 15.7079 5.9999C15.7079 6.09847 15.6884 6.19606 15.6507 6.28711C15.6129 6.37816 15.5576 6.46088 15.4879 6.53053L13.2379 8.78053C13.1682 8.85015 13.0855 8.90536 12.9945 8.94302C12.9034 8.98067 12.8059 9.00003 12.7074 8.99999C12.6089 8.99995 12.5114 8.9805 12.4204 8.94277C12.3294 8.90503 12.2467 8.84974 12.1771 8.78006C12.1075 8.71038 12.0523 8.62766 12.0146 8.53664C11.977 8.44562 11.9576 8.34808 11.9576 8.24957C11.9577 8.15107 11.9771 8.05354 12.0149 7.96255C12.0526 7.87156 12.1079 7.7889 12.1776 7.71928L14.4276 5.46928C14.5682 5.32873 14.7589 5.24978 14.9577 5.24978C15.1566 5.24978 15.3472 5.32873 15.4879 5.46928Z" fill="#767579"/>
</svg>
