<svg width="118" height="119" viewBox="0 0 118 119" fill="none" xmlns="http://www.w3.org/2000/svg">
<g clip-path="url(#clip0_566_3477)">
<mask id="mask0_566_3477" style="mask-type:alpha" maskUnits="userSpaceOnUse" x="0" y="0" width="118" height="119">
<path d="M117.78 59.3656C117.78 91.8287 91.463 118.145 58.9999 118.145C26.5368 118.145 0.220276 91.8287 0.220276 59.3656C0.220276 26.9025 26.5368 0.585938 58.9999 0.585938C91.463 0.585938 117.78 26.9025 117.78 59.3656Z" fill="#F8F7F7"/>
</mask>
<g mask="url(#mask0_566_3477)">
<rect x="0.220276" y="0.585938" width="117.559" height="117.559" fill="#F8F7F7"/>
<path d="M20.7004 60.0864C18.6372 55.3883 16.2527 50.6902 12.4964 47.2006C6.87825 41.9907 -0.99371 40.1834 -8.43559 38.3487C-24.6096 34.3583 -40.5223 29.3227 -56.0484 23.2799C-59.0589 22.1094 -61.9769 25.158 -60.6921 28.125C-59.2658 31.424 -57.6272 34.6087 -55.5204 37.5158C-51.7477 42.7202 -46.2166 46.9937 -39.8363 47.7886C-42.1663 48.0226 -44.6324 48.3057 -46.2928 50.1839C-47.1367 51.1366 -47.4905 52.4649 -47.0659 53.6626C-46.3582 55.6496 -44.0772 56.0634 -42.1173 56.2811C-38.2467 56.7057 -34.3706 57.1304 -30.4999 57.555C-33.4233 58.3226 -35.2743 61.6597 -34.7136 64.6267C-34.1528 67.5937 -31.4853 69.9346 -28.5183 70.479C-25.8998 70.958 -23.1506 70.1578 -20.9839 68.5953C-22.4919 70.1904 -22.5681 73.0322 -21.2126 74.8559C-19.6393 76.9736 -16.7104 77.7575 -14.1028 77.3438C-11.4951 76.93 -9.1542 75.5092 -7.04739 73.9195C-5.80617 76.5816 -3.04608 78.4707 -0.11179 78.6612C2.8225 78.8518 5.80579 77.3329 7.37909 74.8559C8.71286 79.3635 14.7829 81.6826 18.7842 79.2111C21.3755 83.3049 23.9668 87.3933 26.5527 91.4872L28.665 82.9565C26.618 75.139 23.9559 67.4902 20.7059 60.0919L20.7004 60.0864Z" fill="#263238"/>
<g opacity="0.8">
<path d="M20.7004 60.0864C18.6372 55.3883 16.2527 50.6902 12.4964 47.2006C6.87825 41.9907 -0.99371 40.1834 -8.43559 38.3487C-24.6096 34.3583 -40.5223 29.3227 -56.0484 23.2799C-59.0589 22.1094 -61.9769 25.158 -60.6921 28.125C-59.2658 31.424 -57.6272 34.6087 -55.5204 37.5158C-51.7477 42.7202 -46.2166 46.9937 -39.8363 47.7886C-42.1663 48.0226 -44.6324 48.3057 -46.2928 50.1839C-47.1367 51.1366 -47.4905 52.4649 -47.0659 53.6626C-46.3582 55.6496 -44.0772 56.0634 -42.1173 56.2811C-38.2467 56.7057 -34.3706 57.1304 -30.4999 57.555C-33.4233 58.3226 -35.2743 61.6597 -34.7136 64.6267C-34.1528 67.5937 -31.4853 69.9346 -28.5183 70.479C-25.8998 70.958 -23.1506 70.1578 -20.9839 68.5953C-22.4919 70.1904 -22.5681 73.0322 -21.2126 74.8559C-19.6393 76.9736 -16.7104 77.7575 -14.1028 77.3438C-11.4951 76.93 -9.1542 75.5092 -7.04739 73.9195C-5.80617 76.5816 -3.04608 78.4707 -0.11179 78.6612C2.8225 78.8518 5.80579 77.3329 7.37909 74.8559C8.71286 79.3635 14.7829 81.6826 18.7842 79.2111C21.3755 83.3049 23.9668 87.3933 26.5527 91.4872L28.665 82.9565C26.618 75.139 23.9559 67.4902 20.7059 60.0919L20.7004 60.0864Z" fill="white"/>
</g>
<path d="M114.581 56.8034C117.064 52.3122 119.862 47.8481 123.923 44.7179C129.993 40.0361 137.996 38.9527 145.574 37.804C162.042 35.2998 178.346 31.7286 194.357 27.1176C197.46 26.2247 200.09 29.5238 198.544 32.3601C196.823 35.5176 194.902 38.539 192.544 41.2446C188.314 46.0843 182.419 49.8352 175.989 50.0475C178.287 50.4939 180.72 51.0002 182.201 53.0199C182.952 54.0434 183.186 55.4043 182.658 56.5585C181.776 58.4747 179.468 58.6816 177.497 58.7143C173.599 58.785 169.707 58.8558 165.809 58.9266C168.651 59.9555 170.191 63.4505 169.364 66.3521C168.536 69.2538 165.668 71.3442 162.662 71.6164C160.011 71.856 157.349 70.8107 155.335 69.0523C156.69 70.7781 156.511 73.6144 154.992 75.3074C153.234 77.2781 150.245 77.7899 147.681 77.142C145.122 76.4942 142.923 74.8665 140.968 73.0918C139.493 75.6341 136.57 77.2618 133.63 77.1856C130.69 77.1094 127.859 75.3292 126.515 72.7161C124.773 77.0876 118.523 78.8406 114.761 76.0206C111.81 79.8586 108.86 83.702 105.909 87.54L104.581 78.8515C107.33 71.2571 110.678 63.8751 114.587 56.8034H114.581Z" fill="#263238"/>
<g opacity="0.8">
<path d="M114.581 56.8034C117.064 52.3122 119.862 47.8481 123.923 44.7179C129.993 40.0361 137.996 38.9527 145.574 37.804C162.042 35.2998 178.346 31.7286 194.357 27.1176C197.46 26.2247 200.09 29.5238 198.544 32.3601C196.823 35.5176 194.902 38.539 192.544 41.2446C188.314 46.0843 182.419 49.8352 175.989 50.0475C178.287 50.4939 180.72 51.0002 182.201 53.0199C182.952 54.0434 183.186 55.4043 182.658 56.5585C181.776 58.4747 179.468 58.6816 177.497 58.7143C173.599 58.785 169.707 58.8558 165.809 58.9266C168.651 59.9555 170.191 63.4505 169.364 66.3521C168.536 69.2538 165.668 71.3442 162.662 71.6164C160.011 71.856 157.349 70.8107 155.335 69.0523C156.69 70.7781 156.511 73.6144 154.992 75.3074C153.234 77.2781 150.245 77.7899 147.681 77.142C145.122 76.4942 142.923 74.8665 140.968 73.0918C139.493 75.6341 136.57 77.2618 133.63 77.1856C130.69 77.1094 127.859 75.3292 126.515 72.7161C124.773 77.0876 118.523 78.8406 114.761 76.0206C111.81 79.8586 108.86 83.702 105.909 87.54L104.581 78.8515C107.33 71.2571 110.678 63.8751 114.587 56.8034H114.581Z" fill="white"/>
</g>
<path d="M108.655 85.3953C112.738 60.8925 96.1845 37.7193 71.6817 33.6365C47.1789 29.5537 24.0056 46.1075 19.9229 70.6103C15.8401 95.1131 32.3938 118.286 56.8966 122.369C81.3994 126.452 104.573 109.898 108.655 85.3953Z" fill="#407BFF"/>
<path opacity="0.3" d="M108.655 85.3953C112.738 60.8925 96.1845 37.7193 71.6817 33.6365C47.1789 29.5537 24.0056 46.1075 19.9229 70.6103C15.8401 95.1131 32.3938 118.286 56.8966 122.369C81.3994 126.452 104.573 109.898 108.655 85.3953Z" fill="black"/>
<path d="M110.972 75.5418C115.054 51.039 98.5007 27.8658 73.9979 23.783C49.4951 19.7002 26.3219 36.2539 22.2391 60.7568C18.1563 85.2596 34.71 108.433 59.2128 112.516C83.7157 116.598 106.889 100.045 110.972 75.5418Z" fill="#407BFF"/>
<path d="M95.8176 97.3659C111.95 81.2339 111.95 55.0786 95.8176 38.9466C79.6856 22.8145 53.5303 22.8145 37.3983 38.9466C21.2662 55.0786 21.2662 81.2339 37.3983 97.3659C53.5303 113.498 79.6856 113.498 95.8176 97.3659Z" fill="#407BFF"/>
<path opacity="0.7" d="M95.8176 97.3659C111.95 81.2339 111.95 55.0786 95.8176 38.9466C79.6856 22.8145 53.5303 22.8145 37.3983 38.9466C21.2662 55.0786 21.2662 81.2339 37.3983 97.3659C53.5303 113.498 79.6856 113.498 95.8176 97.3659Z" fill="white"/>
<path opacity="0.4" d="M81.6728 29.6758L27.2986 80.8762C27.2986 80.8762 31.044 90.3487 34.4519 94.0832L92.8873 36.2793C92.8873 36.2793 87.8952 31.8207 81.6728 29.6812V29.6758Z" fill="white"/>
<path opacity="0.4" d="M98.2115 41.8433L37.3535 97.3172C37.3535 97.3172 38.3062 98.8361 42.694 101.672L102.774 48.0712C102.774 48.0712 102.077 45.9045 98.2115 41.8379V41.8433Z" fill="white"/>
<path d="M65.5859 31.332V36.2643H64.6714V32.0996H63.6316V31.332H65.5914H65.5859Z" fill="#263238"/>
<path d="M70.137 35.4908V36.2639H66.5005V35.6487L68.4603 33.7869C68.6835 33.5746 68.8305 33.3895 68.9067 33.2316C68.9829 33.0737 69.021 32.9158 69.021 32.7634C69.021 32.5348 68.9448 32.3551 68.7869 32.2354C68.629 32.1156 68.4058 32.0503 68.101 32.0503C67.6001 32.0503 67.2136 32.219 66.9469 32.562L66.3045 32.0666C66.495 31.8107 66.7563 31.6093 67.083 31.4623C67.4096 31.3208 67.7743 31.25 68.1772 31.25C68.7107 31.25 69.1408 31.3752 69.462 31.6311C69.7832 31.8869 69.941 32.2299 69.941 32.6654C69.941 32.9322 69.8866 33.1826 69.7723 33.4167C69.6579 33.6508 69.4456 33.9175 69.1244 34.217L67.807 35.4691H70.1316L70.137 35.4908Z" fill="#263238"/>
<path d="M66.996 101.745C67.2519 101.87 67.4533 102.044 67.6003 102.278C67.7472 102.507 67.818 102.773 67.818 103.073C67.818 103.394 67.7364 103.672 67.5785 103.917C67.4206 104.156 67.2029 104.347 66.9307 104.477C66.6585 104.608 66.3536 104.673 66.0161 104.673C65.341 104.673 64.813 104.461 64.4428 104.036C64.0671 103.612 63.882 103.008 63.882 102.218C63.882 101.663 63.9855 101.189 64.1869 100.797C64.3883 100.405 64.6714 100.106 65.0362 99.9045C65.4009 99.6976 65.8201 99.5996 66.2992 99.5996C66.555 99.5996 66.7891 99.6268 67.0123 99.6813C67.2355 99.7357 67.4315 99.8119 67.5948 99.9154L67.2573 100.607C67.0123 100.449 66.702 100.367 66.3209 100.367C65.8473 100.367 65.4771 100.514 65.2104 100.803C64.9436 101.097 64.8075 101.516 64.8075 102.066C64.9545 101.902 65.1396 101.777 65.3628 101.69C65.586 101.603 65.8419 101.559 66.125 101.559C66.4516 101.559 66.7401 101.619 67.0014 101.745H66.996ZM66.6639 103.726C66.8436 103.574 66.9307 103.372 66.9307 103.116C66.9307 102.861 66.8436 102.654 66.6639 102.501C66.4843 102.349 66.2447 102.278 65.9453 102.278C65.6459 102.278 65.4064 102.36 65.2213 102.518C65.0362 102.675 64.9436 102.882 64.9436 103.122C64.9436 103.361 65.0362 103.557 65.2158 103.715C65.3955 103.873 65.6459 103.949 65.9671 103.949C66.2556 103.949 66.4843 103.873 66.6639 103.721V103.726Z" fill="#263238"/>
<path d="M84.0301 37.3027V42.235H83.1155V38.0703H82.0703V37.3027H84.0301Z" fill="#263238"/>
<path d="M84.4275 96.8938C84.7596 97.166 84.9284 97.5307 84.9284 97.9989C84.9284 98.2929 84.8576 98.5651 84.7106 98.8046C84.5636 99.0441 84.3458 99.2347 84.0573 99.3762C83.7633 99.5178 83.404 99.5885 82.9794 99.5885C82.6255 99.5885 82.288 99.5395 81.9559 99.4361C81.6293 99.3327 81.3517 99.1966 81.123 99.0169L81.5095 98.3038C81.6946 98.4562 81.9124 98.5705 82.1683 98.6576C82.4241 98.7447 82.6909 98.7883 82.9631 98.7883C83.2897 98.7883 83.5401 98.7229 83.7252 98.5868C83.9103 98.4507 84.0029 98.2711 84.0029 98.0316C84.0029 97.7757 83.9049 97.5851 83.7035 97.4599C83.502 97.3293 83.1645 97.264 82.68 97.264H81.4878L81.7436 94.5801H84.6398V95.3477H82.5167L82.4132 96.4909H82.8869C83.5837 96.4909 84.0954 96.627 84.4275 96.8938Z" fill="#263238"/>
<path d="M48.9927 37.3027V42.235H48.0782V38.0703H47.0384V37.3027H48.9982H48.9927Z" fill="#263238"/>
<path d="M51.6767 37.3027V42.235H50.7621V38.0703H49.7169V37.3027H51.6767Z" fill="#263238"/>
<path d="M48.9927 94.5801V99.5123H48.0782V95.3477H47.0384V94.5801H48.9982H48.9927Z" fill="#263238"/>
<path d="M51.6767 94.5801V99.5123H50.7621V95.3477H49.7169V94.5801H51.6767Z" fill="#263238"/>
<path d="M96.464 52.192V52.965H92.8274V52.3499L94.7873 50.488C95.0105 50.2757 95.1575 50.0906 95.2337 49.9328C95.3099 49.7749 95.348 49.617 95.348 49.4646C95.348 49.2359 95.2718 49.0563 95.1139 48.9365C94.956 48.8168 94.7328 48.7514 94.428 48.7514C93.9271 48.7514 93.5406 48.9202 93.2739 49.2632L92.6315 48.7678C92.822 48.5119 93.0833 48.3105 93.41 48.1635C93.7366 48.0219 94.1013 47.9512 94.5042 47.9512C95.0377 47.9512 95.4678 48.0764 95.789 48.3322C96.1101 48.5881 96.268 48.9311 96.268 49.3666C96.268 49.6333 96.2136 49.8838 96.0993 50.1179C95.9849 50.352 95.7726 50.6187 95.4514 50.9181L94.134 52.1702H96.4586L96.464 52.192Z" fill="#263238"/>
<path d="M97.4386 85.9178H96.5675V87.0392H95.6802V85.9178H92.9745V85.2808L95.4025 82.1016H96.3824L94.0905 85.1393H95.7019V84.1485H96.5621V85.1393H97.4331V85.9123L97.4386 85.9178Z" fill="#263238"/>
<path d="M37.8981 48.0332V52.9654H36.9835V48.8008H35.9383V48.0332H37.8981Z" fill="#263238"/>
<path d="M39.8796 52.7377C39.5693 52.5362 39.3243 52.2477 39.1447 51.8666C38.965 51.4855 38.8779 51.0282 38.8779 50.5056C38.8779 49.983 38.965 49.5257 39.1447 49.1446C39.3243 48.7636 39.5693 48.4696 39.8796 48.2682C40.1899 48.0667 40.5438 47.9688 40.9357 47.9688C41.3277 47.9688 41.6816 48.0667 41.9973 48.2682C42.3076 48.4696 42.5526 48.7581 42.7323 49.1446C42.9119 49.5257 42.999 49.983 42.999 50.5056C42.999 51.0282 42.9119 51.4855 42.7323 51.8666C42.5526 52.2477 42.3076 52.5417 41.9973 52.7377C41.687 52.9391 41.3332 53.0371 40.9357 53.0371C40.5383 53.0371 40.1899 52.9391 39.8796 52.7377ZM41.7687 51.8067C41.9701 51.5182 42.0735 51.0827 42.0735 50.5056C42.0735 49.9286 41.9701 49.4931 41.7687 49.2045C41.5672 48.9105 41.2842 48.769 40.9357 48.769C40.5873 48.769 40.3097 48.916 40.1083 49.2045C39.9014 49.4985 39.8034 49.9286 39.8034 50.5056C39.8034 51.0827 39.9068 51.5182 40.1083 51.8067C40.3097 52.1007 40.5873 52.2422 40.9357 52.2422C41.2842 52.2422 41.5672 52.0953 41.7687 51.8067Z" fill="#263238"/>
<path d="M39.9885 84.8467C40.1246 85.0481 40.1953 85.2822 40.1953 85.5489C40.1953 85.8483 40.1137 86.1151 39.9449 86.3383C39.7762 86.5615 39.5421 86.7357 39.2372 86.8555C38.9323 86.9752 38.5785 87.0351 38.1756 87.0351C37.7728 87.0351 37.4189 86.9752 37.1141 86.8555C36.8092 86.7357 36.5751 86.5615 36.4118 86.3383C36.2485 86.1151 36.1668 85.8483 36.1668 85.5489C36.1668 85.2822 36.2321 85.0481 36.3737 84.8467C36.5098 84.6452 36.7058 84.4873 36.9562 84.373C36.7602 84.2641 36.6078 84.1226 36.5043 83.9484C36.4009 83.7742 36.3465 83.5673 36.3465 83.3387C36.3465 83.061 36.4227 82.8215 36.5751 82.6146C36.7275 82.4078 36.9453 82.2499 37.2175 82.1356C37.4951 82.0212 37.8163 81.9668 38.1756 81.9668C38.5349 81.9668 38.8616 82.0212 39.1392 82.1356C39.4168 82.2499 39.6346 82.4078 39.787 82.6146C39.9395 82.8215 40.0211 83.061 40.0211 83.3387C40.0211 83.5673 39.9667 83.7687 39.8578 83.943C39.7489 84.1172 39.5965 84.2587 39.3951 84.373C39.6509 84.4928 39.8524 84.6507 39.9885 84.8467ZM38.9759 86.1042C39.1719 85.9627 39.2699 85.7667 39.2699 85.5217C39.2699 85.2767 39.1719 85.0862 38.9759 84.9446C38.7799 84.8031 38.5131 84.7323 38.1702 84.7323C37.8272 84.7323 37.5659 84.8031 37.3754 84.9446C37.1848 85.0862 37.0868 85.2767 37.0868 85.5217C37.0868 85.7667 37.1848 85.9681 37.3754 86.1042C37.5659 86.2457 37.8327 86.3165 38.1702 86.3165C38.5077 86.3165 38.7745 86.2457 38.9759 86.1042ZM37.4951 82.865C37.3264 82.9848 37.2447 83.159 37.2447 83.3822C37.2447 83.6054 37.3264 83.7633 37.4951 83.8831C37.6639 84.0083 37.8871 84.0682 38.1756 84.0682C38.4642 84.0682 38.6982 84.0083 38.867 83.8831C39.0358 83.7579 39.1229 83.5891 39.1229 83.3822C39.1229 83.1754 39.0358 82.9903 38.867 82.865C38.6928 82.7453 38.4642 82.68 38.1811 82.68C37.898 82.68 37.6693 82.7398 37.5006 82.865H37.4951Z" fill="#263238"/>
<path d="M100.77 67.6819C101.01 67.9378 101.13 68.2536 101.13 68.6346C101.13 68.9232 101.059 69.179 100.912 69.4186C100.765 69.6527 100.547 69.8378 100.253 69.9793C99.9591 70.1154 99.5998 70.1862 99.1806 70.1862C98.8268 70.1862 98.4892 70.1372 98.1626 70.0337C97.836 69.9303 97.5583 69.7942 97.3297 69.6146L97.7216 68.9014C97.9013 69.0538 98.119 69.1681 98.3749 69.2553C98.6308 69.3424 98.8975 69.3859 99.1697 69.3859C99.4964 69.3859 99.7468 69.3206 99.9319 69.1845C100.117 69.0484 100.21 68.8687 100.21 68.6401C100.21 68.4114 100.122 68.2318 99.9428 68.1011C99.7686 67.9705 99.4964 67.9052 99.1371 67.9052H98.6852V67.2791L99.8067 65.9453H97.5638V65.1777H100.923V65.7875L99.725 67.2083C100.182 67.2628 100.531 67.4206 100.77 67.6711V67.6819Z" fill="#263238"/>
<path d="M34.5336 65.7424C34.9093 66.167 35.0944 66.7713 35.0944 67.5607C35.0944 68.116 34.9909 68.5896 34.7895 68.9816C34.5881 69.3735 34.305 69.673 33.9402 69.8744C33.5755 70.0812 33.1563 70.1792 32.6772 70.1792C32.4214 70.1792 32.1873 70.152 31.9641 70.0976C31.7409 70.0431 31.5449 69.9669 31.3816 69.8635L31.7191 69.1721C31.9641 69.33 32.2744 69.4116 32.6555 69.4116C33.1291 69.4116 33.4993 69.2646 33.766 68.9761C34.0328 68.6876 34.1689 68.263 34.1689 67.7131C34.0219 67.8764 33.8368 68.0016 33.6136 68.0888C33.3904 68.1759 33.1345 68.2194 32.8515 68.2194C32.5248 68.2194 32.2363 68.1595 31.9804 68.0343C31.7246 67.9091 31.5177 67.7349 31.3761 67.5008C31.2292 67.2722 31.1584 67.0054 31.1584 66.706C31.1584 66.3848 31.24 66.1072 31.3979 65.8622C31.5558 65.6226 31.7735 65.4321 32.0457 65.3015C32.3179 65.1708 32.6228 65.1055 32.9603 65.1055C33.6354 65.1055 34.1634 65.3178 34.5336 65.737V65.7424ZM33.7497 67.2613C33.9348 67.1034 34.0273 66.902 34.0273 66.657C34.0273 66.412 33.9348 66.2215 33.7551 66.0636C33.5755 65.9057 33.3251 65.8295 33.0039 65.8295C32.7154 65.8295 32.4867 65.9057 32.3071 66.0582C32.1274 66.2106 32.0403 66.412 32.0403 66.6679C32.0403 66.9237 32.1274 67.1306 32.3071 67.2831C32.4867 67.4355 32.7262 67.5063 33.0257 67.5063C33.3251 67.5063 33.5646 67.4246 33.7497 67.2667V67.2613Z" fill="#263238"/>
<path d="M65.7329 68.2479L66.6421 41.4473H67.916L69.4239 68.2479H65.7329Z" fill="#263238"/>
<path d="M65.967 70.0444L53.4514 57.5723L54.3006 56.625L68.4386 67.3006L65.967 70.0444Z" fill="#263238"/>
<path d="M59.1893 73.9806L88.4233 57.3711L59.8045 74.8734L59.1893 73.9806Z" fill="#407BFF"/>
<path d="M71.4545 68.2472C71.4545 70.3867 69.7179 72.1233 67.5785 72.1233C65.439 72.1233 63.7024 70.3867 63.7024 68.2472C63.7024 66.1077 65.439 64.3711 67.5785 64.3711C69.7179 64.3711 71.4545 66.1077 71.4545 68.2472Z" fill="#407BFF"/>
<path opacity="0.3" d="M71.4545 68.2472C71.4545 70.3867 69.7179 72.1233 67.5785 72.1233C65.439 72.1233 63.7024 70.3867 63.7024 68.2472C63.7024 66.1077 65.439 64.3711 67.5785 64.3711C69.7179 64.3711 71.4545 66.1077 71.4545 68.2472Z" fill="black"/>
<path d="M35.8836 107.432C35.8836 107.432 28.6268 121.357 31.0766 121.559C33.5264 121.76 42.0244 111.885 42.0244 111.885C42.0244 111.885 41.1152 106.996 35.889 107.432H35.8836Z" fill="#407BFF"/>
<path d="M97.0574 106.082C97.0574 106.082 104.314 120.008 101.864 120.209C99.4147 120.411 90.9167 110.535 90.9167 110.535C90.9167 110.535 91.8258 105.647 97.052 106.082H97.0574Z" fill="#407BFF"/>
<path d="M18.1309 44.7289C18.3977 44.4077 49.0308 16.6762 49.0308 16.6762C49.0308 16.6762 37.2991 6.5178 23.5531 20.1821C9.80711 33.841 18.1309 44.7289 18.1309 44.7289Z" fill="#407BFF"/>
<path d="M49.0308 16.6769C50.2666 18.0216 44.0169 25.1423 35.5407 32.9053C27.0699 40.6684 19.2034 45.8728 17.9676 44.5227C16.7318 43.1781 22.6004 35.7906 31.0766 28.0276C39.5474 20.2645 47.795 15.3268 49.0308 16.6715V16.6769Z" fill="#407BFF"/>
<path opacity="0.3" d="M49.0308 16.6769C50.2666 18.0216 44.0169 25.1423 35.5407 32.9053C27.0699 40.6684 19.2034 45.8728 17.9676 44.5227C16.7318 43.1781 22.6004 35.7906 31.0766 28.0276C39.5474 20.2645 47.795 15.3268 49.0308 16.6715V16.6769Z" fill="black"/>
<path d="M29.2685 20.9647L24.705 25.1465L35.3929 36.8103L39.9565 32.6286L29.2685 20.9647Z" fill="#407BFF"/>
<path d="M24.8487 25.1476C27.2901 25.1476 29.2692 23.1685 29.2692 20.7271C29.2692 18.2858 27.2901 16.3066 24.8487 16.3066C22.4073 16.3066 20.4282 18.2858 20.4282 20.7271C20.4282 23.1685 22.4073 25.1476 24.8487 25.1476Z" fill="#407BFF"/>
<path opacity="0.4" d="M23.5313 20.5898L21.0325 22.9416C20.6787 23.3772 14.5325 32.0984 19.6552 40.3133C21.5987 37.673 23.8961 35.0816 26.4166 32.523C23.76 30.3781 20.7114 26.4203 23.5313 20.5898Z" fill="white"/>
<path opacity="0.2" d="M29.0678 29.915L33.6571 25.7559L34.6806 26.8773L30.3308 31.2978L29.0678 29.915Z" fill="black"/>
<path opacity="0.3" d="M21.0325 22.9417L27.2768 17.035L26.7759 16.752L20.7495 22.3701L21.0325 22.9417Z" fill="black"/>
<path d="M82.5983 16.3162C82.9521 16.5339 114.799 42.8663 114.799 42.8663C114.799 42.8663 123.167 29.7954 107.673 18.1562C92.1796 6.51705 82.5983 16.3162 82.5983 16.3162Z" fill="#407BFF"/>
<path d="M114.799 42.8673C113.645 44.2827 105.702 39.1219 96.8016 31.8487C87.9007 24.5811 81.6239 17.542 82.778 16.1266C83.9321 14.7112 92.0817 19.4583 100.983 26.726C109.883 33.9937 115.953 41.4464 114.799 42.8619V42.8673Z" fill="#407BFF"/>
<path opacity="0.3" d="M114.799 42.8673C113.645 44.2827 105.702 39.1219 96.8016 31.8487C87.9007 24.5811 81.6239 17.542 82.778 16.1266C83.9321 14.7112 92.0817 19.4583 100.983 26.726C109.883 33.9937 115.953 41.4464 114.799 42.8619V42.8673Z" fill="black"/>
<path d="M107.713 23.9252L102.919 20.0098L92.9113 32.2625L97.7053 36.178L107.713 23.9252Z" fill="#407BFF"/>
<path d="M107.956 23.8881C105.539 24.2365 103.302 22.5652 102.948 20.1481C102.599 17.731 104.271 15.4935 106.688 15.1397C109.105 14.7913 111.342 16.4626 111.696 18.8797C112.045 21.2968 110.373 23.5343 107.956 23.8881Z" fill="#407BFF"/>
<path opacity="0.4" d="M107.265 18.195L104.575 16.061C104.091 15.7724 94.5804 10.9436 87.1875 17.1933C90.0782 18.7339 92.9744 20.6393 95.8706 22.7679C97.6072 19.8282 101.091 16.246 107.265 18.195Z" fill="white"/>
<path opacity="0.2" d="M98.8321 25.0098L103.606 28.9512L102.648 30.1271L97.6508 26.4579L98.8321 25.0098Z" fill="black"/>
<path opacity="0.3" d="M104.581 16.0546L111.326 21.3842L111.533 20.8507L105.104 15.6953L104.581 16.0546Z" fill="black"/>
<path opacity="0.3" d="M34.8929 36.2627C34.8929 36.2627 38.2899 33.2468 39.6019 32.2397L39.1718 31.7715L34.5063 35.849L34.8874 36.2682L34.8929 36.2627Z" fill="black"/>
<path opacity="0.3" d="M93.2683 31.8648C93.2683 31.8648 96.7797 34.7446 97.9828 35.8879L98.3747 35.3925L93.6167 31.4238L93.2629 31.8648H93.2683Z" fill="black"/>
<path opacity="0.3" d="M-32.4598 45.3652C-32.4598 45.3652 -5.79529 48.98 -0.188015 52.9106C5.41926 56.8465 16.8407 72.2693 16.8407 72.2693C16.8407 72.2693 2.82793 57.478 -2.77934 54.0266C-8.38661 50.5751 -32.4598 45.3652 -32.4598 45.3652Z" fill="black"/>
<path opacity="0.3" d="M-21.5554 52.7207C-21.5554 52.7207 -24.0052 60.3912 -17.9352 60.1789C-11.8597 59.9666 -9.40993 57.3045 -9.40993 57.3045C-9.40993 57.3045 -11.1139 64.3381 -6.53553 64.2292C-1.95172 64.1203 1.24389 61.2459 1.24389 61.2459C1.24389 61.2459 -5.36508 66.8804 -8.56068 65.5575C-11.7563 64.2292 -10.4007 59.6509 -10.4007 59.6509C-10.4007 59.6509 -17.8862 63.2874 -20.9783 60.7396C-24.0705 58.1919 -23.4662 57.0269 -21.5608 52.7261L-21.5554 52.7207Z" fill="black"/>
<path opacity="0.3" d="M165.684 43.9121C165.684 43.9121 139.019 47.5269 133.412 51.4574C127.805 55.3934 116.383 70.8161 116.383 70.8161C116.383 70.8161 130.396 56.0249 136.003 52.5734C141.611 49.122 165.684 43.9121 165.684 43.9121Z" fill="black"/>
<path d="M50.9144 24.0427C50.8327 24.0427 50.7511 23.9937 50.7238 23.9066C50.6857 23.8032 50.7402 23.6834 50.8436 23.6453C59.3199 20.5259 68.825 19.9597 77.6061 22.0611C77.715 22.0883 77.7857 22.1972 77.7585 22.3061C77.7313 22.415 77.6224 22.4803 77.5136 22.4585C68.8032 20.3735 59.3852 20.9342 50.9852 24.0264C50.9634 24.0373 50.9362 24.0373 50.9144 24.0373V24.0427Z" fill="#407BFF"/>
<path d="M80.0939 23.16C80.0939 23.16 80.0558 23.16 80.0395 23.1545L78.6948 22.7734C78.5859 22.7408 78.5206 22.6319 78.5533 22.523C78.5859 22.4141 78.6948 22.3488 78.8037 22.3815L80.1484 22.7626C80.2572 22.7952 80.3226 22.9041 80.2899 23.013C80.2627 23.1055 80.181 23.16 80.0939 23.16Z" fill="#407BFF"/>
</g>
</g>
<defs>
<clipPath id="clip0_566_3477">
<rect width="117.559" height="117.559" fill="white" transform="translate(0.220337 0.585938)"/>
</clipPath>
</defs>
</svg>
