<svg width="41" height="41" viewBox="0 0 41 41" fill="none" xmlns="http://www.w3.org/2000/svg">
<path d="M29.1253 12.2222C28.1889 11.2858 26.9189 10.7598 25.5946 10.7598C24.2704 10.7598 23.0004 11.2858 22.064 12.2222L12.5484 21.7369C11.6316 22.6772 11.1222 23.941 11.1306 25.2543C11.139 26.5676 11.6645 27.8247 12.5932 28.7533C13.5219 29.6819 14.7791 30.2072 16.0924 30.2154C17.4057 30.2236 18.6694 29.7141 19.6096 28.7972L29.1262 19.2825C30.061 18.3454 30.5859 17.0758 30.5857 15.7521C30.5855 14.4285 30.0603 13.159 29.1253 12.2222ZM18.5493 27.7369C17.8943 28.392 17.0058 28.7601 16.0793 28.7602C15.1529 28.7603 14.2643 28.3924 13.6092 27.7373C12.954 27.0823 12.5859 26.1938 12.5858 25.2673C12.5857 24.3409 12.9536 23.4523 13.6087 22.7972L17.8359 18.57L22.7765 23.5097L18.5493 27.7369ZM28.0649 18.2222L23.8359 22.4494L18.8971 17.5097L23.1253 13.2825C23.7829 12.64 24.6673 12.2828 25.5866 12.2881C26.506 12.2935 27.3862 12.6611 28.0362 13.3112C28.6863 13.9613 29.0539 14.8414 29.0593 15.7608C29.0647 16.6801 28.7074 17.5645 28.0649 18.2222ZM26.6184 16.229C26.6881 16.2987 26.7434 16.3814 26.7812 16.4725C26.8189 16.5635 26.8383 16.6611 26.8383 16.7597C26.8383 16.8582 26.8189 16.9558 26.7812 17.0469C26.7434 17.1379 26.6881 17.2206 26.6184 17.2903L24.3684 19.5403C24.2987 19.6099 24.216 19.6651 24.125 19.7028C24.0339 19.7404 23.9364 19.7598 23.8379 19.7598C23.7394 19.7597 23.6419 19.7403 23.5509 19.7025C23.4599 19.6648 23.3772 19.6095 23.3076 19.5398C23.238 19.4701 23.1828 19.3874 23.1451 19.2964C23.1075 19.2054 23.0881 19.1078 23.0881 19.0093C23.0882 18.9108 23.1076 18.8133 23.1454 18.7223C23.1831 18.6313 23.2384 18.5487 23.3081 18.479L25.5581 16.229C25.6987 16.0885 25.8894 16.0095 26.0882 16.0095C26.2871 16.0095 26.4777 16.0885 26.6184 16.229Z" fill="#767579"/>
</svg>
