<svg width="127" height="97" viewBox="0 0 127 97" fill="none" xmlns="http://www.w3.org/2000/svg">
<g clip-path="url(#clip0_216_3429)">
<path fill-rule="evenodd" clip-rule="evenodd" d="M60.0301 64.6C62.7001 62.88 66.2101 63.39 68.1801 65.81C69.3401 67.49 70.6901 68.41 72.5001 67.42C73.4501 66.55 74.1701 65.55 74.6801 64.44C76.0601 61.43 75.7601 56.37 74.9801 53.1C73.7101 47.79 72.1801 49.64 69.3801 52.09C64.1201 56.69 63.2901 57.12 57.3801 52.13C55.3601 50.42 53.7201 47.85 52.2601 51.83C50.8301 55.73 50.6501 61.74 52.7201 65.42C53.7501 67.26 55.0501 68.2 56.5601 67.65C58.0301 67.11 58.5101 65.57 60.0301 64.6Z" fill="#A9AFE0"/>
<path d="M24.4 2.25997C24.33 1.17997 25.15 0.249972 26.24 0.179972C27.33 0.109972 28.25 0.929972 28.32 2.01997C28.56 5.77997 29 8.79997 29.73 11.66C30.46 14.53 31.49 17.24 32.92 20.37C37.86 31.21 44.55 38.27 51.83 41.73C55.37 43.41 59.04 44.24 62.71 44.25C66.4 44.26 70.1 43.43 73.68 41.8C81.54 38.22 88.83 30.75 94.13 19.6C95.58 16.54 96.63 13.94 97.32 11.21C98.02 8.46997 98.37 5.57997 98.44 1.92997C98.46 0.849972 99.35 -0.0200282 100.43 -2.81614e-05C101.51 0.0199718 102.38 0.909972 102.36 1.98997C102.28 5.98997 101.9 9.15997 101.13 12.17C100.37 15.18 99.24 18 97.68 21.28C93.62 29.81 88.43 36.37 82.66 40.87C82.66 40.91 82.66 40.94 82.66 40.98C82.52 42.78 82.5 44.71 82.58 46.54C82.66 48.29 82.85 49.95 83.14 51.31C85.81 63.82 94.45 65.62 102.96 67.39C108.82 68.61 114.63 69.82 119.02 74.06C125.95 80.74 126.2 84.77 126.68 92.63L126.81 94.63C126.88 95.71 126.06 96.64 124.97 96.71C123.89 96.78 122.96 95.96 122.89 94.87L122.76 92.85C122.34 86.01 122.13 82.49 116.3 76.88C112.72 73.43 107.46 72.33 102.16 71.23C92.41 69.2 82.5 67.13 79.3 52.12C78.97 50.57 78.76 48.69 78.66 46.72C78.61 45.7 78.59 44.67 78.61 43.64C77.53 44.28 76.43 44.86 75.32 45.36C71.22 47.23 66.97 48.17 62.72 48.16C58.46 48.15 54.22 47.2 50.16 45.27C49.5 44.96 48.85 44.62 48.2 44.25C48.22 45.31 48.2 46.39 48.15 47.43C48.06 49.35 47.84 51.18 47.51 52.73C44.3 67.76 34.4 69.83 24.65 71.86C19.34 72.97 14.09 74.06 10.51 77.51C4.65003 83.15 4.47003 86.14 4.05003 92.95L3.93003 94.85C3.86003 95.93 2.92003 96.75 1.84003 96.68C0.760028 96.61 -0.0599723 95.67 0.0100277 94.59L0.130028 92.72C0.620028 84.84 0.830028 81.39 7.79003 74.68C12.18 70.45 17.99 69.23 23.85 68.01C32.35 66.24 41 64.43 43.67 51.93C43.96 50.56 44.15 48.95 44.23 47.26C44.32 45.5 44.29 43.63 44.15 41.85C44.14 41.76 44.14 41.68 44.15 41.6C38.45 37.26 33.34 30.75 29.36 22C27.82 18.62 26.71 15.7 25.93 12.62C25.13 9.53997 24.66 6.28997 24.4 2.25997ZM59.38 56.19C59.56 55.98 59.89 55.94 60.12 56.11C60.35 56.28 60.39 56.58 60.21 56.79C59.92 57.13 59.75 57.45 59.74 57.76C59.73 58.05 59.87 58.36 60.19 58.68C60.39 58.88 60.37 59.19 60.15 59.37C59.93 59.55 59.6 59.54 59.4 59.34C58.89 58.82 58.66 58.29 58.68 57.74C58.7 57.21 58.95 56.69 59.38 56.19ZM70.88 60.07C70.71 59.85 70.76 59.55 71 59.39C71.24 59.23 71.57 59.28 71.74 59.5C72.13 60 72.35 60.51 72.37 61.03C72.38 61.57 72.18 62.09 71.72 62.61C71.53 62.82 71.2 62.85 70.98 62.68C70.75 62.51 70.72 62.2 70.91 62C71.2 61.68 71.32 61.36 71.32 61.06C71.3 60.74 71.15 60.41 70.88 60.07ZM67.81 60.68C67.74 60.42 67.92 60.16 68.21 60.09C68.49 60.03 68.78 60.19 68.85 60.45C69.01 61.06 69.01 61.61 68.8 62.1C68.59 62.61 68.18 63.02 67.52 63.32C67.26 63.44 66.94 63.34 66.81 63.1C66.68 62.86 66.79 62.57 67.05 62.45C67.45 62.27 67.69 62.03 67.81 61.76C67.92 61.47 67.91 61.1 67.81 60.68ZM58.11 60.45C58.18 60.19 58.46 60.03 58.75 60.09C59.03 60.15 59.21 60.42 59.14 60.68C59.03 61.12 59.01 61.49 59.13 61.79C59.24 62.06 59.48 62.29 59.89 62.46C60.16 62.57 60.28 62.86 60.16 63.1C60.04 63.35 59.73 63.45 59.46 63.34C58.77 63.05 58.35 62.64 58.14 62.13C57.94 61.64 57.95 61.07 58.11 60.45ZM55.02 59.51C55.19 59.29 55.52 59.24 55.76 59.4C56 59.56 56.05 59.86 55.88 60.08C55.61 60.42 55.46 60.76 55.45 61.07C55.44 61.37 55.57 61.68 55.86 62.01C56.05 62.22 56.02 62.52 55.79 62.7C55.56 62.87 55.23 62.84 55.04 62.64C54.58 62.12 54.38 61.59 54.39 61.06C54.41 60.51 54.64 60 55.02 59.51ZM70.64 54.93C70.46 54.72 70.5 54.41 70.73 54.25C70.96 54.08 71.29 54.12 71.47 54.33C71.87 54.8 72.12 55.29 72.17 55.8C72.22 56.33 72.07 56.87 71.66 57.42C71.49 57.64 71.16 57.69 70.92 57.54C70.68 57.39 70.62 57.08 70.79 56.86C71.05 56.52 71.15 56.19 71.12 55.89C71.09 55.58 70.91 55.25 70.64 54.93ZM66.19 56.75C66.03 56.52 66.1 56.22 66.35 56.08C66.6 55.93 66.92 56 67.08 56.23C67.42 56.72 67.63 57.22 67.65 57.74C67.67 58.27 67.49 58.8 67.05 59.32C66.87 59.53 66.54 59.57 66.31 59.4C66.08 59.23 66.04 58.93 66.22 58.72C66.5 58.4 66.61 58.08 66.6 57.78C66.58 57.44 66.43 57.1 66.19 56.75ZM55.23 54.38C55.37 54.15 55.69 54.06 55.95 54.19C56.21 54.32 56.3 54.62 56.15 54.85C55.92 55.23 55.78 55.59 55.76 55.93C55.75 56.24 55.85 56.54 56.1 56.84C56.28 57.05 56.24 57.36 56 57.52C55.76 57.68 55.44 57.64 55.26 57.43C54.85 56.94 54.68 56.43 54.7 55.89C54.73 55.39 54.92 54.89 55.23 54.38ZM70.14 87.16C69.57 87.71 68.66 87.69 68.12 87.12C67.57 86.55 67.59 85.64 68.16 85.1C73.72 79.74 82.05 79.05 92.94 78.16C94.66 78.02 96.45 77.87 97.27 77.8C98.06 77.73 98.75 78.31 98.82 79.1C98.89 79.89 98.31 80.58 97.52 80.65C95.36 80.84 94.26 80.93 93.17 81.02C82.85 81.86 74.96 82.51 70.14 87.16ZM58.61 85.09C59.18 85.64 59.2 86.54 58.65 87.11C58.1 87.68 57.2 87.7 56.63 87.15C51.81 82.5 43.92 81.85 33.61 81.01C32.53 80.92 31.42 80.83 29.26 80.64C28.47 80.57 27.89 79.88 27.96 79.09C28.03 78.3 28.72 77.72 29.51 77.79C30.33 77.86 32.11 78.01 33.84 78.15C44.72 79.05 53.05 79.73 58.61 85.09Z" fill="#6C78D8"/>
</g>
<defs>
<clipPath id="clip0_216_3429">
<rect width="126.81" height="96.71" fill="white"/>
</clipPath>
</defs>
</svg>
