<svg width="40" height="35" viewBox="0 0 40 35" fill="none" xmlns="http://www.w3.org/2000/svg">
<g clip-path="url(#clip0_481_388)">
<path d="M32.8758 17.9829C31.0639 16.9005 28.7765 15.2475 27.2396 13.1116C25.7646 11.0618 25.1362 8.90731 24.8743 7.2832H13.2206C12.9585 8.90731 12.3303 11.0618 10.8553 13.1116C9.31836 15.2475 7.03116 16.9003 5.2191 17.9829C3.76181 18.8536 2.86523 20.421 2.86523 22.1186V29.3764H35.2297V22.1186C35.2297 20.421 34.3331 18.8536 32.8758 17.9829Z" fill="#C2E1DB"/>
<path d="M32.9587 34.1491H5.13622C3.88205 34.1491 2.86523 33.1323 2.86523 31.8781V29.377H35.2297V31.8781C35.2298 33.1323 34.213 34.1491 32.9587 34.1491Z" fill="#86C8BC"/>
<path d="M1.45515 7.34249L0.870922 9.47002C0.467053 10.9404 1.5736 12.3917 3.09845 12.3917H8.09161C8.59154 12.3917 9.07797 12.2295 9.47788 11.9295C9.87778 11.6295 10.1696 11.2079 10.3095 10.7279L10.8587 8.84248C10.9897 8.39278 11.2631 7.99771 11.6377 7.71661C12.0124 7.43551 12.4682 7.28355 12.9365 7.28356H26.1968C26.6652 7.28357 27.1209 7.43554 27.4956 7.71664C27.8703 7.99774 28.1436 8.39279 28.2746 8.84248L28.8239 10.7279C28.9637 11.2079 29.2555 11.6296 29.6554 11.9296C30.0554 12.2296 30.5418 12.3918 31.0418 12.3917H36.0349C37.5598 12.3917 38.6662 10.9404 38.2624 9.47002L37.6782 7.34249C36.7394 3.92403 33.6316 1.55469 30.0865 1.55469H9.04667C5.50173 1.55469 2.39384 3.92403 1.45515 7.34249Z" fill="#86C8BC"/>
<path d="M19.0485 24.8704C22.4947 24.8704 25.2884 22.0767 25.2884 18.6305C25.2884 15.1843 22.4947 12.3906 19.0485 12.3906C15.6023 12.3906 12.8086 15.1843 12.8086 18.6305C12.8086 22.0767 15.6023 24.8704 19.0485 24.8704Z" fill="white"/>
<path d="M19.0474 21.9796C20.8966 21.9796 22.3956 20.4806 22.3956 18.6314C22.3956 16.7822 20.8966 15.2832 19.0474 15.2832C17.1983 15.2832 15.6992 16.7822 15.6992 18.6314C15.6992 20.4806 17.1983 21.9796 19.0474 21.9796Z" fill="#C2E1DB"/>
</g>
<defs>
<clipPath id="clip0_481_388">
<rect width="40" height="34.2857" fill="white"/>
</clipPath>
</defs>
</svg>
