<svg width="20" height="20" viewBox="0 0 20 20" fill="none" xmlns="http://www.w3.org/2000/svg">
<path d="M19.4491 10C19.4491 15.2479 15.206 19.5 9.97456 19.5C4.7431 19.5 0.5 15.2479 0.5 10C0.5 4.75209 4.7431 0.5 9.97456 0.5C15.206 0.5 19.4491 4.75209 19.4491 10Z" fill="#FF9E1B" stroke="#FF9E1B"/>
<path d="M6.06915 13.68H6.63107L12.2886 8.00806L11.7267 7.4447L6.06915 13.1167V13.68ZM13.9105 7.4575L12.2759 5.81864L12.8122 5.28089C12.957 5.13579 13.1358 5.06323 13.3486 5.06323C13.5615 5.06323 13.7403 5.13579 13.885 5.28089L14.4469 5.84425C14.5917 5.98936 14.664 6.16861 14.664 6.382C14.664 6.59539 14.5917 6.77465 14.4469 6.91975L13.9105 7.4575ZM13.3742 7.99525L6.93758 14.4483H5.30289V12.8094L11.7395 6.35639L13.3742 7.99525ZM12.0077 7.72638L11.7267 7.4447L12.2886 8.00806L12.0077 7.72638Z" fill="white"/>
</svg>
