<svg width="41" height="41" viewBox="0 0 41 41" fill="none" xmlns="http://www.w3.org/2000/svg">
<path d="M11.4942 10.4901H16.7325L18.4207 14.7111L15.7082 16.5194C15.5484 16.626 15.4175 16.7703 15.3269 16.9397C15.2363 17.109 15.189 17.298 15.189 17.4901C15.1925 17.5997 15.189 17.4912 15.189 17.4912V17.5157C15.1897 17.5679 15.192 17.62 15.196 17.6721C15.203 17.7677 15.2147 17.8972 15.2368 18.0571C15.2823 18.3721 15.3698 18.8061 15.5402 19.3171C15.8832 20.3437 16.5552 21.6726 17.8642 22.9816C19.1732 24.2906 20.502 24.9626 21.5275 25.3056C22.0397 25.4759 22.4725 25.5622 22.7898 25.6089C22.9689 25.6339 23.1493 25.6495 23.33 25.6556L23.3452 25.6567H23.3545C23.3545 25.6567 23.4852 25.6497 23.3557 25.6567C23.5723 25.6566 23.7846 25.5962 23.9688 25.4823C24.153 25.3683 24.3018 25.2053 24.3987 25.0116L25.1803 23.4482L30.3557 24.3116V29.3516C27.8928 29.7074 21.2405 30.0586 16.0138 24.8319C10.7872 19.6052 11.1372 12.9517 11.4942 10.4901ZM17.6075 18.0571L19.7157 16.6524C20.161 16.3553 20.4907 15.9142 20.6494 15.4029C20.8081 14.8916 20.7861 14.3413 20.5872 13.8442L18.899 9.62324C18.7258 9.19029 18.4268 8.81919 18.0406 8.55779C17.6544 8.2964 17.1988 8.15671 16.7325 8.15674H11.4335C10.373 8.15674 9.3755 8.89291 9.20167 10.0432C8.805 12.6589 8.26717 20.3846 14.3642 26.4816C20.4612 32.5786 28.1868 32.0396 30.8025 31.6441C31.9528 31.4691 32.689 30.4727 32.689 29.4122V24.3116C32.6891 23.7592 32.4932 23.2248 32.1362 22.8033C31.7792 22.3818 31.2843 22.1006 30.7395 22.0097L25.5642 21.1476C25.0719 21.0654 24.5663 21.1432 24.1216 21.3696C23.6769 21.5959 23.3164 21.9589 23.0932 22.4052L22.6895 23.2137C22.5468 23.1786 22.4055 23.1377 22.266 23.0912C21.5427 22.8509 20.5382 22.3562 19.5138 21.3319C18.4895 20.3076 17.9948 19.3031 17.7545 18.5786C17.6971 18.4073 17.6484 18.2333 17.6087 18.0571H17.6075Z" fill="#434343"/>
</svg>
