<svg width="34" height="34" viewBox="0 0 34 34" fill="none" xmlns="http://www.w3.org/2000/svg">
<path d="M16.6517 32.3034C25.2959 32.3034 32.3034 25.2959 32.3034 16.6517C32.3034 8.0075 25.2959 1 16.6517 1C8.0075 1 1 8.0075 1 16.6517C1 25.2959 8.0075 32.3034 16.6517 32.3034Z" fill="white" stroke="#434343" stroke-width="1.66667" stroke-linecap="round" stroke-linejoin="round"/>
<path d="M11.4341 13.1736H11.4515H11.4341ZM21.8686 13.1736H21.886H21.8686ZM12.3037 21.869C12.8704 22.4474 13.5469 22.9069 14.2934 23.2206C15.04 23.5343 15.8416 23.6959 16.6514 23.6959C17.4612 23.6959 18.2628 23.5343 19.0093 23.2206C19.7559 22.9069 20.4323 22.4474 20.9991 21.869" fill="white"/>
<path d="M11.4341 13.1736H11.4515M21.8686 13.1736H21.886M12.3037 21.869C12.8704 22.4474 13.5469 22.9069 14.2934 23.2206C15.04 23.5343 15.8416 23.6959 16.6514 23.6959C17.4612 23.6959 18.2628 23.5343 19.0093 23.2206C19.7559 22.9069 20.4323 22.4474 20.9991 21.869" stroke="#434343" stroke-width="1.66667" stroke-linecap="round" stroke-linejoin="round"/>
</svg>
